solid JSCAD
facet normal -1 0 0
outer loop
vertex -22.50006666666667 0 0
vertex -22.50006666666667 1.0000533333333335 -7.499946666666667
vertex -22.50006666666667 -1.0000533333333335 -7.499946666666667
endloop
endfacet
facet normal -1 0 0
outer loop
vertex -22.50006666666667 0 0
vertex -22.50006666666667 -1.0000533333333335 -7.499946666666667
vertex -22.50006666666667 -3.999986666666667 -7.499946666666667
endloop
endfacet
facet normal -1 0 0
outer loop
vertex -22.50006666666667 0 0
vertex -22.50006666666667 -3.999986666666667 -7.499946666666667
vertex -22.50006666666667 -3.999986666666667 7.499946666666667
endloop
endfacet
facet normal -1 0 0
outer loop
vertex -22.50006666666667 0 0
vertex -22.50006666666667 -3.999986666666667 7.499946666666667
vertex -22.50006666666667 -1.0000533333333335 7.499946666666667
endloop
endfacet
facet normal -1 0 0
outer loop
vertex -22.50006666666667 0 0
vertex -22.50006666666667 -1.0000533333333335 7.499946666666667
vertex -22.50006666666667 1.0000533333333335 7.499946666666667
endloop
endfacet
facet normal -1 0 0
outer loop
vertex -22.50006666666667 0 0
vertex -22.50006666666667 1.0000533333333335 7.499946666666667
vertex -22.50006666666667 3.999986666666667 7.499946666666667
endloop
endfacet
facet normal -1 0 0
outer loop
vertex -22.50006666666667 0 0
vertex -22.50006666666667 3.999986666666667 7.499946666666667
vertex -22.50006666666667 3.999986666666667 -7.499946666666667
endloop
endfacet
facet normal -1 0 0
outer loop
vertex -22.50006666666667 0 0
vertex -22.50006666666667 3.999986666666667 -7.499946666666667
vertex -22.50006666666667 1.0000533333333335 -7.499946666666667
endloop
endfacet
facet normal 1 0 0
outer loop
vertex 22.50006666666667 0 0
vertex 22.50006666666667 -3.999986666666667 -7.499946666666667
vertex 22.50006666666667 -1.0000533333333335 -7.499946666666667
endloop
endfacet
facet normal 1 0 0
outer loop
vertex 22.50006666666667 0 0
vertex 22.50006666666667 -1.0000533333333335 -7.499946666666667
vertex 22.50006666666667 1.0000533333333335 -7.499946666666667
endloop
endfacet
facet normal 1 0 0
outer loop
vertex 22.50006666666667 0 0
vertex 22.50006666666667 1.0000533333333335 -7.499946666666667
vertex 22.50006666666667 3.999986666666667 -7.499946666666667
endloop
endfacet
facet normal 1 0 0
outer loop
vertex 22.50006666666667 0 0
vertex 22.50006666666667 3.999986666666667 -7.499946666666667
vertex 22.50006666666667 3.999986666666667 7.499946666666667
endloop
endfacet
facet normal 1 0 0
outer loop
vertex 22.50006666666667 0 0
vertex 22.50006666666667 3.999986666666667 7.499946666666667
vertex 22.50006666666667 1.0000533333333335 7.499946666666667
endloop
endfacet
facet normal 1 0 0
outer loop
vertex 22.50006666666667 0 0
vertex 22.50006666666667 1.0000533333333335 7.499946666666667
vertex 22.50006666666667 -1.0000533333333335 7.499946666666667
endloop
endfacet
facet normal 1 0 0
outer loop
vertex 22.50006666666667 0 0
vertex 22.50006666666667 -1.0000533333333335 7.499946666666667
vertex 22.50006666666667 -3.999986666666667 7.499946666666667
endloop
endfacet
facet normal 1 0 0
outer loop
vertex 22.50006666666667 0 0
vertex 22.50006666666667 -3.999986666666667 7.499946666666667
vertex 22.50006666666667 -3.999986666666667 -7.499946666666667
endloop
endfacet
facet normal 0 -1 0
outer loop
vertex -22.50006666666667 -3.999986666666667 -7.499946666666667
vertex 22.50006666666667 -3.999986666666667 -7.499946666666667
vertex 22.50006666666667 -3.999986666666667 7.499946666666667
endloop
endfacet
facet normal 0 -1 0
outer loop
vertex -22.50006666666667 -3.999986666666667 -7.499946666666667
vertex 22.50006666666667 -3.999986666666667 7.499946666666667
vertex -22.50006666666667 -3.999986666666667 7.499946666666667
endloop
endfacet
facet normal 0 1 0
outer loop
vertex -22.50006666666667 3.999986666666667 -7.499946666666667
vertex -22.50006666666667 3.999986666666667 7.499946666666667
vertex 22.50006666666667 3.999986666666667 7.499946666666667
endloop
endfacet
facet normal 0 1 0
outer loop
vertex -22.50006666666667 3.999986666666667 -7.499946666666667
vertex 22.50006666666667 3.999986666666667 7.499946666666667
vertex 22.50006666666667 3.999986666666667 -7.499946666666667
endloop
endfacet
facet normal 1 0 0
outer loop
vertex -19.499906666666668 1.0000533333333335 -7.499946666666667
vertex -19.499906666666668 1.0000533333333335 7.499946666666667
vertex -19.499906666666668 -1.0000533333333335 7.499946666666667
endloop
endfacet
facet normal 1 0 0
outer loop
vertex -19.499906666666668 1.0000533333333335 -7.499946666666667
vertex -19.499906666666668 -1.0000533333333335 7.499946666666667
vertex -19.499906666666668 -1.0000533333333335 -7.499946666666667
endloop
endfacet
facet normal -1 0 0
outer loop
vertex -1.50008 -1.0000533333333335 -7.499946666666667
vertex -1.50008 -1.0000533333333335 7.499946666666667
vertex -1.50008 1.0000533333333335 7.499946666666667
endloop
endfacet
facet normal -1 0 0
outer loop
vertex -1.50008 -1.0000533333333335 -7.499946666666667
vertex -1.50008 1.0000533333333335 7.499946666666667
vertex -1.50008 1.0000533333333335 -7.499946666666667
endloop
endfacet
facet normal 0 1 0
outer loop
vertex -1.50008 -1.0000533333333335 7.499946666666667
vertex -1.50008 -1.0000533333333335 -7.499946666666667
vertex -19.499906666666668 -1.0000533333333335 -7.499946666666667
endloop
endfacet
facet normal 0 1 0
outer loop
vertex -1.50008 -1.0000533333333335 7.499946666666667
vertex -19.499906666666668 -1.0000533333333335 -7.499946666666667
vertex -19.499906666666668 -1.0000533333333335 7.499946666666667
endloop
endfacet
facet normal 0 1 0
outer loop
vertex 19.499906666666668 -1.0000533333333335 7.499946666666667
vertex 19.499906666666668 -1.0000533333333335 -7.499946666666667
vertex 1.50008 -1.0000533333333335 -7.499946666666667
endloop
endfacet
facet normal 0 1 0
outer loop
vertex 19.499906666666668 -1.0000533333333335 7.499946666666667
vertex 1.50008 -1.0000533333333335 -7.499946666666667
vertex 1.50008 -1.0000533333333335 7.499946666666667
endloop
endfacet
facet normal 0 -1 0
outer loop
vertex 1.50008 1.0000533333333335 7.499946666666667
vertex 1.50008 1.0000533333333335 -7.499946666666667
vertex 19.499906666666668 1.0000533333333335 -7.499946666666667
endloop
endfacet
facet normal 0 -1 0
outer loop
vertex 1.50008 1.0000533333333335 7.499946666666667
vertex 19.499906666666668 1.0000533333333335 -7.499946666666667
vertex 19.499906666666668 1.0000533333333335 7.499946666666667
endloop
endfacet
facet normal 0 -1 0
outer loop
vertex -19.499906666666668 1.0000533333333335 7.499946666666667
vertex -19.499906666666668 1.0000533333333335 -7.499946666666667
vertex -1.50008 1.0000533333333335 -7.499946666666667
endloop
endfacet
facet normal 0 -1 0
outer loop
vertex -19.499906666666668 1.0000533333333335 7.499946666666667
vertex -1.50008 1.0000533333333335 -7.499946666666667
vertex -1.50008 1.0000533333333335 7.499946666666667
endloop
endfacet
facet normal 0 0 -1
outer loop
vertex 0 1.7500933333333335 -7.499946666666667
vertex 22.50006666666667 3.999986666666667 -7.499946666666667
vertex 22.50006666666667 1.0000533333333335 -7.499946666666667
endloop
endfacet
facet normal 0 0 -1
outer loop
vertex 0 1.7500933333333335 -7.499946666666667
vertex 22.50006666666667 1.0000533333333335 -7.499946666666667
vertex 19.499906666666668 1.0000533333333335 -7.499946666666667
endloop
endfacet
facet normal 0 0 -1
outer loop
vertex 0 1.7500933333333335 -7.499946666666667
vertex 19.499906666666668 1.0000533333333335 -7.499946666666667
vertex 1.50008 1.0000533333333335 -7.499946666666667
endloop
endfacet
facet normal 0 0 -1
outer loop
vertex 0 1.7500933333333335 -7.499946666666667
vertex 1.50008 1.0000533333333335 -7.499946666666667
vertex -1.50008 1.0000533333333335 -7.499946666666667
endloop
endfacet
facet normal 0 0 -1
outer loop
vertex 0 1.7500933333333335 -7.499946666666667
vertex -1.50008 1.0000533333333335 -7.499946666666667
vertex -19.499906666666668 1.0000533333333335 -7.499946666666667
endloop
endfacet
facet normal 0 0 -1
outer loop
vertex 0 1.7500933333333335 -7.499946666666667
vertex -19.499906666666668 1.0000533333333335 -7.499946666666667
vertex -22.50006666666667 1.0000533333333335 -7.499946666666667
endloop
endfacet
facet normal 0 0 -1
outer loop
vertex 0 1.7500933333333335 -7.499946666666667
vertex -22.50006666666667 1.0000533333333335 -7.499946666666667
vertex -22.50006666666667 3.999986666666667 -7.499946666666667
endloop
endfacet
facet normal 0 0 -1
outer loop
vertex 0 1.7500933333333335 -7.499946666666667
vertex -22.50006666666667 3.999986666666667 -7.499946666666667
vertex 22.50006666666667 3.999986666666667 -7.499946666666667
endloop
endfacet
facet normal 0 0 -1
outer loop
vertex -19.499906666666668 1.0000533333333335 -7.499946666666667
vertex -19.499906666666668 -1.0000533333333335 -7.499946666666667
vertex -22.50006666666667 -1.0000533333333335 -7.499946666666667
endloop
endfacet
facet normal 0 0 -1
outer loop
vertex -19.499906666666668 1.0000533333333335 -7.499946666666667
vertex -22.50006666666667 -1.0000533333333335 -7.499946666666667
vertex -22.50006666666667 1.0000533333333335 -7.499946666666667
endloop
endfacet
facet normal 0 0 -1
outer loop
vertex 1.50008 1.0000533333333335 -7.499946666666667
vertex 1.50008 -1.0000533333333335 -7.499946666666667
vertex -1.50008 -1.0000533333333335 -7.499946666666667
endloop
endfacet
facet normal 0 0 -1
outer loop
vertex 1.50008 1.0000533333333335 -7.499946666666667
vertex -1.50008 -1.0000533333333335 -7.499946666666667
vertex -1.50008 1.0000533333333335 -7.499946666666667
endloop
endfacet
facet normal 0 0 -1
outer loop
vertex 22.50006666666667 1.0000533333333335 -7.499946666666667
vertex 22.50006666666667 -1.0000533333333335 -7.499946666666667
vertex 19.499906666666668 -1.0000533333333335 -7.499946666666667
endloop
endfacet
facet normal 0 0 -1
outer loop
vertex 22.50006666666667 1.0000533333333335 -7.499946666666667
vertex 19.499906666666668 -1.0000533333333335 -7.499946666666667
vertex 19.499906666666668 1.0000533333333335 -7.499946666666667
endloop
endfacet
facet normal 0 0 -1
outer loop
vertex 0 -1.7500933333333335 -7.499946666666667
vertex -19.499906666666668 -1.0000533333333335 -7.499946666666667
vertex -1.50008 -1.0000533333333335 -7.499946666666667
endloop
endfacet
facet normal 0 0 -1
outer loop
vertex 0 -1.7500933333333335 -7.499946666666667
vertex -1.50008 -1.0000533333333335 -7.499946666666667
vertex 1.50008 -1.0000533333333335 -7.499946666666667
endloop
endfacet
facet normal 0 0 -1
outer loop
vertex 0 -1.7500933333333335 -7.499946666666667
vertex 1.50008 -1.0000533333333335 -7.499946666666667
vertex 19.499906666666668 -1.0000533333333335 -7.499946666666667
endloop
endfacet
facet normal 0 0 -1
outer loop
vertex 0 -1.7500933333333335 -7.499946666666667
vertex 19.499906666666668 -1.0000533333333335 -7.499946666666667
vertex 22.50006666666667 -1.0000533333333335 -7.499946666666667
endloop
endfacet
facet normal 0 0 -1
outer loop
vertex 0 -1.7500933333333335 -7.499946666666667
vertex 22.50006666666667 -1.0000533333333335 -7.499946666666667
vertex 22.50006666666667 -3.999986666666667 -7.499946666666667
endloop
endfacet
facet normal 0 0 -1
outer loop
vertex 0 -1.7500933333333335 -7.499946666666667
vertex 22.50006666666667 -3.999986666666667 -7.499946666666667
vertex -22.50006666666667 -3.999986666666667 -7.499946666666667
endloop
endfacet
facet normal 0 0 -1
outer loop
vertex 0 -1.7500933333333335 -7.499946666666667
vertex -22.50006666666667 -3.999986666666667 -7.499946666666667
vertex -22.50006666666667 -1.0000533333333335 -7.499946666666667
endloop
endfacet
facet normal 0 0 -1
outer loop
vertex 0 -1.7500933333333335 -7.499946666666667
vertex -22.50006666666667 -1.0000533333333335 -7.499946666666667
vertex -19.499906666666668 -1.0000533333333335 -7.499946666666667
endloop
endfacet
facet normal 0 0 1
outer loop
vertex 0 1.7500933333333335 7.499946666666667
vertex -22.50006666666667 3.999986666666667 7.499946666666667
vertex -22.50006666666667 1.0000533333333335 7.499946666666667
endloop
endfacet
facet normal 0 0 1
outer loop
vertex 0 1.7500933333333335 7.499946666666667
vertex -22.50006666666667 1.0000533333333335 7.499946666666667
vertex -19.499906666666668 1.0000533333333335 7.499946666666667
endloop
endfacet
facet normal 0 0 1
outer loop
vertex 0 1.7500933333333335 7.499946666666667
vertex -19.499906666666668 1.0000533333333335 7.499946666666667
vertex -1.50008 1.0000533333333335 7.499946666666667
endloop
endfacet
facet normal 0 0 1
outer loop
vertex 0 1.7500933333333335 7.499946666666667
vertex -1.50008 1.0000533333333335 7.499946666666667
vertex 1.50008 1.0000533333333335 7.499946666666667
endloop
endfacet
facet normal 0 0 1
outer loop
vertex 0 1.7500933333333335 7.499946666666667
vertex 1.50008 1.0000533333333335 7.499946666666667
vertex 19.499906666666668 1.0000533333333335 7.499946666666667
endloop
endfacet
facet normal 0 0 1
outer loop
vertex 0 1.7500933333333335 7.499946666666667
vertex 19.499906666666668 1.0000533333333335 7.499946666666667
vertex 22.50006666666667 1.0000533333333335 7.499946666666667
endloop
endfacet
facet normal 0 0 1
outer loop
vertex 0 1.7500933333333335 7.499946666666667
vertex 22.50006666666667 1.0000533333333335 7.499946666666667
vertex 22.50006666666667 3.999986666666667 7.499946666666667
endloop
endfacet
facet normal 0 0 1
outer loop
vertex 0 1.7500933333333335 7.499946666666667
vertex 22.50006666666667 3.999986666666667 7.499946666666667
vertex -22.50006666666667 3.999986666666667 7.499946666666667
endloop
endfacet
facet normal 0 0 1
outer loop
vertex 19.499906666666668 1.0000533333333335 7.499946666666667
vertex 19.499906666666668 -1.0000533333333335 7.499946666666667
vertex 22.50006666666667 -1.0000533333333335 7.499946666666667
endloop
endfacet
facet normal 0 0 1
outer loop
vertex 19.499906666666668 1.0000533333333335 7.499946666666667
vertex 22.50006666666667 -1.0000533333333335 7.499946666666667
vertex 22.50006666666667 1.0000533333333335 7.499946666666667
endloop
endfacet
facet normal 0 0 1
outer loop
vertex -1.50008 1.0000533333333335 7.499946666666667
vertex -1.50008 -1.0000533333333335 7.499946666666667
vertex 1.50008 -1.0000533333333335 7.499946666666667
endloop
endfacet
facet normal 0 0 1
outer loop
vertex -1.50008 1.0000533333333335 7.499946666666667
vertex 1.50008 -1.0000533333333335 7.499946666666667
vertex 1.50008 1.0000533333333335 7.499946666666667
endloop
endfacet
facet normal 0 0 1
outer loop
vertex -22.50006666666667 1.0000533333333335 7.499946666666667
vertex -22.50006666666667 -1.0000533333333335 7.499946666666667
vertex -19.499906666666668 -1.0000533333333335 7.499946666666667
endloop
endfacet
facet normal 0 0 1
outer loop
vertex -22.50006666666667 1.0000533333333335 7.499946666666667
vertex -19.499906666666668 -1.0000533333333335 7.499946666666667
vertex -19.499906666666668 1.0000533333333335 7.499946666666667
endloop
endfacet
facet normal 0 0 1
outer loop
vertex 0 -1.7500933333333335 7.499946666666667
vertex 19.499906666666668 -1.0000533333333335 7.499946666666667
vertex 1.50008 -1.0000533333333335 7.499946666666667
endloop
endfacet
facet normal 0 0 1
outer loop
vertex 0 -1.7500933333333335 7.499946666666667
vertex 1.50008 -1.0000533333333335 7.499946666666667
vertex -1.50008 -1.0000533333333335 7.499946666666667
endloop
endfacet
facet normal 0 0 1
outer loop
vertex 0 -1.7500933333333335 7.499946666666667
vertex -1.50008 -1.0000533333333335 7.499946666666667
vertex -19.499906666666668 -1.0000533333333335 7.499946666666667
endloop
endfacet
facet normal 0 0 1
outer loop
vertex 0 -1.7500933333333335 7.499946666666667
vertex -19.499906666666668 -1.0000533333333335 7.499946666666667
vertex -22.50006666666667 -1.0000533333333335 7.499946666666667
endloop
endfacet
facet normal 0 0 1
outer loop
vertex 0 -1.7500933333333335 7.499946666666667
vertex -22.50006666666667 -1.0000533333333335 7.499946666666667
vertex -22.50006666666667 -3.999986666666667 7.499946666666667
endloop
endfacet
facet normal 0 0 1
outer loop
vertex 0 -1.7500933333333335 7.499946666666667
vertex -22.50006666666667 -3.999986666666667 7.499946666666667
vertex 22.50006666666667 -3.999986666666667 7.499946666666667
endloop
endfacet
facet normal 0 0 1
outer loop
vertex 0 -1.7500933333333335 7.499946666666667
vertex 22.50006666666667 -3.999986666666667 7.499946666666667
vertex 22.50006666666667 -1.0000533333333335 7.499946666666667
endloop
endfacet
facet normal 0 0 1
outer loop
vertex 0 -1.7500933333333335 7.499946666666667
vertex 22.50006666666667 -1.0000533333333335 7.499946666666667
vertex 19.499906666666668 -1.0000533333333335 7.499946666666667
endloop
endfacet
facet normal 1 0 0
outer loop
vertex 1.50008 1.0000533333333335 -7.499946666666667
vertex 1.50008 1.0000533333333335 7.499946666666667
vertex 1.50008 -1.0000533333333335 7.499946666666667
endloop
endfacet
facet normal 1 0 0
outer loop
vertex 1.50008 1.0000533333333335 -7.499946666666667
vertex 1.50008 -1.0000533333333335 7.499946666666667
vertex 1.50008 -1.0000533333333335 -7.499946666666667
endloop
endfacet
facet normal -1 0 0
outer loop
vertex 19.499906666666668 -1.0000533333333335 -7.499946666666667
vertex 19.499906666666668 -1.0000533333333335 7.499946666666667
vertex 19.499906666666668 1.0000533333333335 7.499946666666667
endloop
endfacet
facet normal -1 0 0
outer loop
vertex 19.499906666666668 -1.0000533333333335 -7.499946666666667
vertex 19.499906666666668 1.0000533333333335 7.499946666666667
vertex 19.499906666666668 1.0000533333333335 -7.499946666666667
endloop
endfacet
endsolid JSCAD
