solid JSCAD
facet normal 0 -1 0
outer loop
vertex 13.99986 0 -2.2188600000000003
vertex -21 0 0.75012
vertex -21 0 -14.25018
endloop
endfacet
facet normal 0 -1 0
outer loop
vertex 13.99986 0 -2.2188600000000003
vertex -21 0 -14.25018
vertex 21 0 -14.25018
endloop
endfacet
facet normal 0 -1 0
outer loop
vertex 13.99986 0 -2.2188600000000003
vertex 21 0 -14.25018
vertex 21 0 -12.74994
endloop
endfacet
facet normal 0 -0.9999999999999999 0
outer loop
vertex 13.99986 0 -2.2188600000000003
vertex 21 0 -12.74994
vertex 21 0 -12.4908
endloop
endfacet
facet normal 0 -0.9999999999999999 0
outer loop
vertex 13.99986 0 -2.2188600000000003
vertex 21 0 -12.4908
vertex 21 0 -11.7222
endloop
endfacet
facet normal 0 -1 0
outer loop
vertex 13.99986 0 -2.2188600000000003
vertex 21 0 -11.7222
vertex 21 0 -10.4748
endloop
endfacet
facet normal 0 -1 0
outer loop
vertex 13.99986 0 -2.2188600000000003
vertex 21 0 -10.4748
vertex 21 0 -8.79606
endloop
endfacet
facet normal 0 -1 0
outer loop
vertex 13.99986 0 -2.2188600000000003
vertex 21 0 -8.79606
vertex 21 0 -6.750240000000001
endloop
endfacet
facet normal 0 -1 0
outer loop
vertex 13.99986 0 -2.2188600000000003
vertex 21 0 -6.750240000000001
vertex 21 0 -4.416300000000001
endloop
endfacet
facet normal 0 -1 0
outer loop
vertex 13.99986 0 -2.2188600000000003
vertex 21 0 -4.416300000000001
vertex 21 0 -1.8837000000000002
endloop
endfacet
facet normal 0 -1 0
outer loop
vertex 13.99986 0 -2.2188600000000003
vertex 21 0 -1.8837000000000002
vertex 21 0 0.75012
endloop
endfacet
facet normal 0 -1 0
outer loop
vertex 13.99986 0 -2.2188600000000003
vertex 21 0 0.75012
vertex 21 0 3.3835200000000003
endloop
endfacet
facet normal 0 -1 0
outer loop
vertex 13.99986 0 -2.2188600000000003
vertex 21 0 3.3835200000000003
vertex 21 0 5.91612
endloop
endfacet
facet normal 0 -1 0
outer loop
vertex 13.99986 0 -2.2188600000000003
vertex 21 0 5.91612
vertex 21 0 8.25006
endloop
endfacet
facet normal 0 -0.9999999999999999 0
outer loop
vertex 13.99986 0 -2.2188600000000003
vertex 21 0 8.25006
vertex 21 0 10.29588
endloop
endfacet
facet normal 0 -0.9999999999999999 0
outer loop
vertex 13.99986 0 -2.2188600000000003
vertex 21 0 10.29588
vertex 21 0 14.25018
endloop
endfacet
facet normal 0 -1 0
outer loop
vertex 13.99986 0 -2.2188600000000003
vertex 21 0 14.25018
vertex -21 0 14.25018
endloop
endfacet
facet normal 0 -1 0
outer loop
vertex 13.99986 0 -2.2188600000000003
vertex -21 0 14.25018
vertex -21 0 0.75012
endloop
endfacet
facet normal 0 1 0
outer loop
vertex 13.363560000000001 55.500060000000005 -3.2163600000000003
vertex -21 55.500060000000005 -14.25018
vertex -21 55.500060000000005 0.75012
endloop
endfacet
facet normal 0 1 0
outer loop
vertex 13.363560000000001 55.500060000000005 -3.2163600000000003
vertex -21 55.500060000000005 0.75012
vertex -21 55.500060000000005 2.24994
endloop
endfacet
facet normal 0 1 0
outer loop
vertex 13.363560000000001 55.500060000000005 -3.2163600000000003
vertex -21 55.500060000000005 2.24994
vertex -21 55.500060000000005 14.25018
endloop
endfacet
facet normal 0 1 0
outer loop
vertex 13.363560000000001 55.500060000000005 -3.2163600000000003
vertex -21 55.500060000000005 14.25018
vertex 21 55.500060000000005 14.25018
endloop
endfacet
facet normal 0 1 0
outer loop
vertex 13.363560000000001 55.500060000000005 -3.2163600000000003
vertex 21 55.500060000000005 14.25018
vertex 21 55.500060000000005 8.91702
endloop
endfacet
facet normal 0 1 0
outer loop
vertex 13.363560000000001 55.500060000000005 -3.2163600000000003
vertex 21 55.500060000000005 8.91702
vertex 21 55.500060000000005 6.84222
endloop
endfacet
facet normal 0 1 0
outer loop
vertex 13.363560000000001 55.500060000000005 -3.2163600000000003
vertex 21 55.500060000000005 6.84222
vertex 21 55.500060000000005 4.59102
endloop
endfacet
facet normal 0 1 0
outer loop
vertex 13.363560000000001 55.500060000000005 -3.2163600000000003
vertex 21 55.500060000000005 4.59102
vertex 21 55.500060000000005 2.24994
endloop
endfacet
facet normal 0 1 0
outer loop
vertex 13.363560000000001 55.500060000000005 -3.2163600000000003
vertex 21 55.500060000000005 2.24994
vertex 21 55.500060000000005 -0.09114
endloop
endfacet
facet normal 0 1 0
outer loop
vertex 13.363560000000001 55.500060000000005 -3.2163600000000003
vertex 21 55.500060000000005 -0.09114
vertex 21 55.500060000000005 -2.34234
endloop
endfacet
facet normal 0 0.9999999999999999 0
outer loop
vertex 13.363560000000001 55.500060000000005 -3.2163600000000003
vertex 21 55.500060000000005 -2.34234
vertex 21 55.500060000000005 -4.41672
endloop
endfacet
facet normal 0 1 0
outer loop
vertex 13.363560000000001 55.500060000000005 -3.2163600000000003
vertex 21 55.500060000000005 -4.41672
vertex 21 55.500060000000005 -6.235320000000001
endloop
endfacet
facet normal 0 1 0
outer loop
vertex 13.363560000000001 55.500060000000005 -3.2163600000000003
vertex 21 55.500060000000005 -6.235320000000001
vertex 21 55.500060000000005 -7.727580000000001
endloop
endfacet
facet normal 0 1 0
outer loop
vertex 13.363560000000001 55.500060000000005 -3.2163600000000003
vertex 21 55.500060000000005 -7.727580000000001
vertex 21 55.500060000000005 -8.83638
endloop
endfacet
facet normal 0 1 0
outer loop
vertex 13.363560000000001 55.500060000000005 -3.2163600000000003
vertex 21 55.500060000000005 -8.83638
vertex 21 55.500060000000005 -9.519300000000001
endloop
endfacet
facet normal 0 1 0
outer loop
vertex 13.363560000000001 55.500060000000005 -3.2163600000000003
vertex 21 55.500060000000005 -9.519300000000001
vertex 21 55.500060000000005 -9.749880000000001
endloop
endfacet
facet normal 0 1 0
outer loop
vertex 13.363560000000001 55.500060000000005 -3.2163600000000003
vertex 21 55.500060000000005 -9.749880000000001
vertex 21 55.500060000000005 -10.4748
endloop
endfacet
facet normal 0 1 0
outer loop
vertex 13.363560000000001 55.500060000000005 -3.2163600000000003
vertex 21 55.500060000000005 -10.4748
vertex 21 55.500060000000005 -11.7222
endloop
endfacet
facet normal 0 1 0
outer loop
vertex 13.363560000000001 55.500060000000005 -3.2163600000000003
vertex 21 55.500060000000005 -11.7222
vertex 21 55.500060000000005 -12.4908
endloop
endfacet
facet normal 0 1 0
outer loop
vertex 13.363560000000001 55.500060000000005 -3.2163600000000003
vertex 21 55.500060000000005 -12.4908
vertex 21 55.500060000000005 -12.74994
endloop
endfacet
facet normal 0 0.9999999999999999 0
outer loop
vertex 13.363560000000001 55.500060000000005 -3.2163600000000003
vertex 21 55.500060000000005 -12.74994
vertex 21 55.500060000000005 -14.25018
endloop
endfacet
facet normal 0 1 0
outer loop
vertex 13.363560000000001 55.500060000000005 -3.2163600000000003
vertex 21 55.500060000000005 -14.25018
vertex -21 55.500060000000005 -14.25018
endloop
endfacet
facet normal 0 0 -1
outer loop
vertex -21 0 -14.25018
vertex -21 55.500060000000005 -14.25018
vertex 21 55.500060000000005 -14.25018
endloop
endfacet
facet normal 0 0 -1
outer loop
vertex -21 0 -14.25018
vertex 21 55.500060000000005 -14.25018
vertex 21 0 -14.25018
endloop
endfacet
facet normal 0 -0.09791661332150298 0.995194622591806
outer loop
vertex -19.50018 14.999880000000001 -12.74994
vertex 21 14.999880000000001 -12.74994
vertex 21 17.6337 -12.4908
endloop
endfacet
facet normal 0 -0.09791661332150298 0.995194622591806
outer loop
vertex -19.50018 14.999880000000001 -12.74994
vertex 21 17.6337 -12.4908
vertex -19.50018 17.6337 -12.4908
endloop
endfacet
facet normal 0 -0.2904037631951298 0.9569042033151003
outer loop
vertex -19.50018 17.6337 -12.4908
vertex 21 17.6337 -12.4908
vertex 21 20.1663 -11.7222
endloop
endfacet
facet normal 0 -0.2904037631951298 0.9569042033151003
outer loop
vertex -19.50018 17.6337 -12.4908
vertex 21 20.1663 -11.7222
vertex -19.50018 20.1663 -11.7222
endloop
endfacet
facet normal 0 -0.4713623727627188 0.8819396314620973
outer loop
vertex -19.50018 20.1663 -11.7222
vertex 21 20.1663 -11.7222
vertex 21 22.50024 -10.4748
endloop
endfacet
facet normal 0 -0.4713623727627188 0.8819396314620973
outer loop
vertex -19.50018 20.1663 -11.7222
vertex 21 22.50024 -10.4748
vertex -19.50018 22.50024 -10.4748
endloop
endfacet
facet normal 0 -0.6343433635139519 0.7730514194837277
outer loop
vertex -19.50018 22.50024 -10.4748
vertex 21 22.50024 -10.4748
vertex 21 24.54606 -8.79606
endloop
endfacet
facet normal 0 -0.6343433635139519 0.7730514194837277
outer loop
vertex -19.50018 22.50024 -10.4748
vertex 21 24.54606 -8.79606
vertex -19.50018 24.54606 -8.79606
endloop
endfacet
facet normal 0 -0.7730514194837276 0.6343433635139523
outer loop
vertex -19.50018 24.54606 -8.79606
vertex 21 24.54606 -8.79606
vertex 21 26.224800000000002 -6.750240000000001
endloop
endfacet
facet normal 0 -0.7730514194837276 0.6343433635139523
outer loop
vertex -19.50018 24.54606 -8.79606
vertex 21 26.224800000000002 -6.750240000000001
vertex -19.50018 26.224800000000002 -6.750240000000001
endloop
endfacet
facet normal 0 -0.8819396314620973 0.4713623727627184
outer loop
vertex -19.50018 26.224800000000002 -6.750240000000001
vertex 21 26.224800000000002 -6.750240000000001
vertex 21 27.4722 -4.416300000000001
endloop
endfacet
facet normal 0 -0.8819396314620973 0.4713623727627184
outer loop
vertex -19.50018 26.224800000000002 -6.750240000000001
vertex 21 27.4722 -4.416300000000001
vertex -19.50018 27.4722 -4.416300000000001
endloop
endfacet
facet normal 0 -0.9569042033151004 0.2904037631951296
outer loop
vertex -19.50018 27.4722 -4.416300000000001
vertex 21 27.4722 -4.416300000000001
vertex 21 28.2408 -1.8837000000000002
endloop
endfacet
facet normal 0 -0.9569042033151004 0.2904037631951296
outer loop
vertex -19.50018 27.4722 -4.416300000000001
vertex 21 28.2408 -1.8837000000000002
vertex -19.50018 28.2408 -1.8837000000000002
endloop
endfacet
facet normal 0 -0.9952007891911022 0.09785391761910928
outer loop
vertex -2.7400800000000003 28.3962 -0.30324
vertex -19.50018 28.2408 -1.8837000000000002
vertex 21 28.2408 -1.8837000000000002
endloop
endfacet
facet normal 0.000004214237666255372 -0.9951946225829686 0.09791661332063412
outer loop
vertex -2.7400800000000003 28.3962 -0.30324
vertex 21 28.2408 -1.8837000000000002
vertex 21 28.499940000000002 0.75012
endloop
endfacet
facet normal 0 -0.9951853629688413 0.0980106796863271
outer loop
vertex -2.7400800000000003 28.3962 -0.30324
vertex 21 28.499940000000002 0.75012
vertex -16.70004 28.499940000000002 0.75012
endloop
endfacet
facet normal 0 -0.9951853629688413 0.09801067968632703
outer loop
vertex -2.7400800000000003 28.3962 -0.30324
vertex -16.70004 28.499940000000002 0.75012
vertex -19.50018 28.499940000000002 0.75012
endloop
endfacet
facet normal -0.000005969316372516977 -0.9951946225740752 0.09791661331975911
outer loop
vertex -2.7400800000000003 28.3962 -0.30324
vertex -19.50018 28.499940000000002 0.75012
vertex -19.50018 28.2408 -1.8837000000000002
endloop
endfacet
facet normal 0 0.9951853629688414 0.09801067968632517
outer loop
vertex -2.7400800000000003 1.60356 -0.30324
vertex -19.50018 1.4998200000000002 0.75012
vertex -16.70004 1.4998200000000002 0.75012
endloop
endfacet
facet normal 0 0.9951853629688414 0.09801067968632522
outer loop
vertex -2.7400800000000003 1.60356 -0.30324
vertex -16.70004 1.4998200000000002 0.75012
vertex 21 1.4998200000000002 0.75012
endloop
endfacet
facet normal -0.0000028272294029811982 0.9951791459260583 0.09807378602811416
outer loop
vertex -2.7400800000000003 1.60356 -0.30324
vertex 21 1.4998200000000002 0.75012
vertex 21 1.7593800000000002 -1.8837000000000002
endloop
endfacet
facet normal 0 0.9951750001597838 0.09811584508617589
outer loop
vertex -2.7400800000000003 1.60356 -0.30324
vertex 21 1.7593800000000002 -1.8837000000000002
vertex -19.50018 1.7593800000000002 -1.8837000000000002
endloop
endfacet
facet normal 0.000004004668958112178 0.9951791459220554 0.09807378602771967
outer loop
vertex -2.7400800000000003 1.60356 -0.30324
vertex -19.50018 1.7593800000000002 -1.8837000000000002
vertex -19.50018 1.4998200000000002 0.75012
endloop
endfacet
facet normal 0 0.956948292613786 0.29025844563691783
outer loop
vertex -19.50018 1.7593800000000002 -1.8837000000000002
vertex 21 1.7593800000000002 -1.8837000000000002
vertex 21 2.5275600000000003 -4.416300000000001
endloop
endfacet
facet normal 0 0.956948292613786 0.29025844563691783
outer loop
vertex -19.50018 1.7593800000000002 -1.8837000000000002
vertex 21 2.5275600000000003 -4.416300000000001
vertex -19.50018 2.5275600000000003 -4.416300000000001
endloop
endfacet
facet normal 0 0.8819396314620971 0.47136237276271875
outer loop
vertex -19.50018 2.5275600000000003 -4.416300000000001
vertex 21 2.5275600000000003 -4.416300000000001
vertex 21 3.77496 -6.750240000000001
endloop
endfacet
facet normal 0 0.8819396314620971 0.47136237276271875
outer loop
vertex -19.50018 2.5275600000000003 -4.416300000000001
vertex 21 3.77496 -6.750240000000001
vertex -19.50018 3.77496 -6.750240000000001
endloop
endfacet
facet normal 0 0.7729735958017576 0.6344381925714284
outer loop
vertex -19.50018 3.77496 -6.750240000000001
vertex 21 3.77496 -6.750240000000001
vertex 21 5.4541200000000005 -8.79606
endloop
endfacet
facet normal 0 0.7729735958017576 0.6344381925714284
outer loop
vertex -19.50018 3.77496 -6.750240000000001
vertex 21 5.4541200000000005 -8.79606
vertex -19.50018 5.4541200000000005 -8.79606
endloop
endfacet
facet normal 0 0.6343433635139518 0.7730514194837278
outer loop
vertex -19.50018 5.4541200000000005 -8.79606
vertex 21 5.4541200000000005 -8.79606
vertex 21 7.4999400000000005 -10.4748
endloop
endfacet
facet normal 0 0.6343433635139518 0.7730514194837278
outer loop
vertex -19.50018 5.4541200000000005 -8.79606
vertex 21 7.4999400000000005 -10.4748
vertex -19.50018 7.4999400000000005 -10.4748
endloop
endfacet
facet normal 0 0.4713623727627191 0.8819396314620971
outer loop
vertex -19.50018 7.4999400000000005 -10.4748
vertex 21 7.4999400000000005 -10.4748
vertex 21 9.83388 -11.7222
endloop
endfacet
facet normal 0 0.4713623727627191 0.8819396314620971
outer loop
vertex -19.50018 7.4999400000000005 -10.4748
vertex 21 9.83388 -11.7222
vertex -19.50018 9.83388 -11.7222
endloop
endfacet
facet normal 0 0.2904037631951296 0.9569042033151004
outer loop
vertex -19.50018 9.83388 -11.7222
vertex 21 9.83388 -11.7222
vertex 21 12.366480000000001 -12.4908
endloop
endfacet
facet normal 0 0.2904037631951296 0.9569042033151004
outer loop
vertex -19.50018 9.83388 -11.7222
vertex 21 12.366480000000001 -12.4908
vertex -19.50018 12.366480000000001 -12.4908
endloop
endfacet
facet normal 0 0.09793208024325188 0.9951931006891221
outer loop
vertex -19.50018 12.366480000000001 -12.4908
vertex 21 12.366480000000001 -12.4908
vertex 21 14.999880000000001 -12.74994
endloop
endfacet
facet normal 0 0.09793208024325188 0.9951931006891221
outer loop
vertex -19.50018 12.366480000000001 -12.4908
vertex 21 14.999880000000001 -12.74994
vertex -19.50018 14.999880000000001 -12.74994
endloop
endfacet
facet normal 1 0 0
outer loop
vertex 21 28.149240000000002 12.61932
vertex 21 30.00018 14.25018
vertex 21 28.499940000000002 14.25018
endloop
endfacet
facet normal 1 0 0
outer loop
vertex 21 28.149240000000002 12.61932
vertex 21 28.499940000000002 14.25018
vertex 21 24.00006 14.25018
endloop
endfacet
facet normal 0.9999999999999999 0 0
outer loop
vertex 21 28.149240000000002 12.61932
vertex 21 24.00006 14.25018
vertex 21 24.00006 10.74402
endloop
endfacet
facet normal 1 0 0
outer loop
vertex 21 28.149240000000002 12.61932
vertex 21 24.00006 10.74402
vertex 21 24.54606 10.29588
endloop
endfacet
facet normal 1 0 0
outer loop
vertex 21 28.149240000000002 12.61932
vertex 21 24.54606 10.29588
vertex 21 32.99982 10.29588
endloop
endfacet
facet normal 1 0 0
outer loop
vertex 21 28.149240000000002 12.61932
vertex 21 32.99982 10.29588
vertex 21 32.99982 14.25018
endloop
endfacet
facet normal 1 0 0
outer loop
vertex 21 28.149240000000002 12.61932
vertex 21 32.99982 14.25018
vertex 21 30.00018 14.25018
endloop
endfacet
facet normal 0.9999999999999999 0 0
outer loop
vertex 21 3.15924 12.34758
vertex 21 1.4998200000000002 14.25018
vertex 21 0 14.25018
endloop
endfacet
facet normal 1 0 0
outer loop
vertex 21 3.15924 12.34758
vertex 21 0 14.25018
vertex 21 0 10.29588
endloop
endfacet
facet normal 1 0 0
outer loop
vertex 21 3.15924 12.34758
vertex 21 0 10.29588
vertex 21 5.4541200000000005 10.29588
endloop
endfacet
facet normal 1 0 0
outer loop
vertex 21 3.15924 12.34758
vertex 21 5.4541200000000005 10.29588
vertex 21 6.00012 10.74402
endloop
endfacet
facet normal 1 0 0
outer loop
vertex 21 3.15924 12.34758
vertex 21 6.00012 10.74402
vertex 21 6.00012 14.25018
endloop
endfacet
facet normal 1 0 0
outer loop
vertex 21 3.15924 12.34758
vertex 21 6.00012 14.25018
vertex 21 1.4998200000000002 14.25018
endloop
endfacet
facet normal 1 0 0
outer loop
vertex 21 53.163180000000004 11.78226
vertex 21 53.99982 14.25018
vertex 21 51.00018 14.25018
endloop
endfacet
facet normal 1 0 0
outer loop
vertex 21 53.163180000000004 11.78226
vertex 21 51.00018 14.25018
vertex 21 51.00018 10.10814
endloop
endfacet
facet normal 1 0 0
outer loop
vertex 21 53.163180000000004 11.78226
vertex 21 51.00018 10.10814
vertex 21 51.977520000000005 8.91702
endloop
endfacet
facet normal 1 0 0
outer loop
vertex 21 53.163180000000004 11.78226
vertex 21 51.977520000000005 8.91702
vertex 21 55.500060000000005 8.91702
endloop
endfacet
facet normal 0.9999999999999999 0 0
outer loop
vertex 21 53.163180000000004 11.78226
vertex 21 55.500060000000005 8.91702
vertex 21 55.500060000000005 14.25018
endloop
endfacet
facet normal 1 0 0
outer loop
vertex 21 53.163180000000004 11.78226
vertex 21 55.500060000000005 14.25018
vertex 21 53.99982 14.25018
endloop
endfacet
facet normal 1 0 0
outer loop
vertex 21 29.649060000000002 9.706620000000001
vertex 21 24.54606 10.29588
vertex 21 25.67754 8.91702
endloop
endfacet
facet normal 1 0 0
outer loop
vertex 21 29.649060000000002 9.706620000000001
vertex 21 25.67754 8.91702
vertex 21 32.02248 8.91702
endloop
endfacet
facet normal 0.9999999999999999 0 0
outer loop
vertex 21 29.649060000000002 9.706620000000001
vertex 21 32.02248 8.91702
vertex 21 32.99982 10.10814
endloop
endfacet
facet normal 1 0 0
outer loop
vertex 21 29.649060000000002 9.706620000000001
vertex 21 32.99982 10.10814
vertex 21 32.99982 10.29588
endloop
endfacet
facet normal 1 0 0
outer loop
vertex 21 29.649060000000002 9.706620000000001
vertex 21 32.99982 10.29588
vertex 21 24.54606 10.29588
endloop
endfacet
facet normal 1 0 0
outer loop
vertex 21 25.67754 8.91702
vertex 21 26.224800000000002 8.25006
vertex 21 31.6659 8.25006
endloop
endfacet
facet normal 1 0 0
outer loop
vertex 21 25.67754 8.91702
vertex 21 31.6659 8.25006
vertex 21 32.02248 8.91702
endloop
endfacet
facet normal 0.9999999999999999 0 0
outer loop
vertex 21 0 10.29588
vertex 21 0 8.25006
vertex 21 3.77496 8.25006
endloop
endfacet
facet normal 1 0 0
outer loop
vertex 21 0 10.29588
vertex 21 3.77496 8.25006
vertex 21 5.4541200000000005 10.29588
endloop
endfacet
facet normal 1 0 0
outer loop
vertex 21 51.977520000000005 8.91702
vertex 21 53.08674 6.84222
vertex 21 55.500060000000005 6.84222
endloop
endfacet
facet normal 1 0 0
outer loop
vertex 21 51.977520000000005 8.91702
vertex 21 55.500060000000005 6.84222
vertex 21 55.500060000000005 8.91702
endloop
endfacet
facet normal 1 0 0
outer loop
vertex 21 26.224800000000002 8.25006
vertex 21 26.97744 6.84222
vertex 21 30.91326 6.84222
endloop
endfacet
facet normal 1 0 0
outer loop
vertex 21 26.224800000000002 8.25006
vertex 21 30.91326 6.84222
vertex 21 31.6659 8.25006
endloop
endfacet
facet normal 1 0 0
outer loop
vertex 21 26.97744 6.84222
vertex 21 27.4722 5.91612
vertex 21 30.6327 5.91612
endloop
endfacet
facet normal 1 0 0
outer loop
vertex 21 26.97744 6.84222
vertex 21 30.6327 5.91612
vertex 21 30.91326 6.84222
endloop
endfacet
facet normal 1 0 0
outer loop
vertex 21 0 8.25006
vertex 21 0 5.91612
vertex 21 2.5275600000000003 5.91612
endloop
endfacet
facet normal 1 0 0
outer loop
vertex 21 0 8.25006
vertex 21 2.5275600000000003 5.91612
vertex 21 3.77496 8.25006
endloop
endfacet
facet normal 1 0 0
outer loop
vertex 21 53.08674 6.84222
vertex 21 53.76924 4.59102
vertex 21 55.500060000000005 4.59102
endloop
endfacet
facet normal 1 0 0
outer loop
vertex 21 53.08674 6.84222
vertex 21 55.500060000000005 4.59102
vertex 21 55.500060000000005 6.84222
endloop
endfacet
facet normal 0.9999999999999999 0 0
outer loop
vertex 21 27.4722 5.91612
vertex 21 27.874560000000002 4.59102
vertex 21 30.23076 4.59102
endloop
endfacet
facet normal 1 0 0
outer loop
vertex 21 27.4722 5.91612
vertex 21 30.23076 4.59102
vertex 21 30.6327 5.91612
endloop
endfacet
facet normal 1 0 0
outer loop
vertex 21 27.874560000000002 4.59102
vertex 21 28.2408 3.3835200000000003
vertex 21 30.11148 3.3835200000000003
endloop
endfacet
facet normal 1 0 0
outer loop
vertex 21 27.874560000000002 4.59102
vertex 21 30.11148 3.3835200000000003
vertex 21 30.23076 4.59102
endloop
endfacet
facet normal 1 0 0
outer loop
vertex 21 0 5.91612
vertex 21 0 3.3835200000000003
vertex 21 1.7593800000000002 3.3835200000000003
endloop
endfacet
facet normal 1 0 0
outer loop
vertex 21 0 5.91612
vertex 21 1.7593800000000002 3.3835200000000003
vertex 21 2.5275600000000003 5.91612
endloop
endfacet
facet normal 1 0 0
outer loop
vertex 21 53.76924 4.59102
vertex 21 53.99982 2.24994
vertex 21 55.500060000000005 2.24994
endloop
endfacet
facet normal 1 0 0
outer loop
vertex 21 53.76924 4.59102
vertex 21 55.500060000000005 2.24994
vertex 21 55.500060000000005 4.59102
endloop
endfacet
facet normal 1 0 0
outer loop
vertex 21 28.2408 3.3835200000000003
vertex 21 28.3521 2.24994
vertex 21 30.00018 2.24994
endloop
endfacet
facet normal 1 0 0
outer loop
vertex 21 28.2408 3.3835200000000003
vertex 21 30.00018 2.24994
vertex 21 30.11148 3.3835200000000003
endloop
endfacet
facet normal 0.9999999999999999 0 0
outer loop
vertex 21 28.3521 2.24994
vertex 21 28.499940000000002 0.75012
vertex 21 30.1476 0.75012
endloop
endfacet
facet normal 1 0 0
outer loop
vertex 21 28.3521 2.24994
vertex 21 30.1476 0.75012
vertex 21 30.00018 2.24994
endloop
endfacet
facet normal 0.9999999999999999 0 0
outer loop
vertex 21 0 3.3835200000000003
vertex 21 0 0.75012
vertex 21 1.4998200000000002 0.75012
endloop
endfacet
facet normal 1 0 0
outer loop
vertex 21 0 3.3835200000000003
vertex 21 1.4998200000000002 0.75012
vertex 21 1.7593800000000002 3.3835200000000003
endloop
endfacet
facet normal 1 0 0
outer loop
vertex 21 53.99982 2.24994
vertex 21 53.76924 -0.09114
vertex 21 55.500060000000005 -0.09114
endloop
endfacet
facet normal 0.9999999999999999 0 0
outer loop
vertex 21 53.99982 2.24994
vertex 21 55.500060000000005 -0.09114
vertex 21 55.500060000000005 2.24994
endloop
endfacet
facet normal 1 0 0
outer loop
vertex 21 28.499940000000002 0.75012
vertex 21 28.4172 -0.09114
vertex 21 30.23076 -0.09114
endloop
endfacet
facet normal 1 0 0
outer loop
vertex 21 28.499940000000002 0.75012
vertex 21 30.23076 -0.09114
vertex 21 30.1476 0.75012
endloop
endfacet
facet normal 1 0 0
outer loop
vertex 21 28.4172 -0.09114
vertex 21 28.2408 -1.8837000000000002
vertex 21 30.774240000000002 -1.8837000000000002
endloop
endfacet
facet normal 1 0 0
outer loop
vertex 21 28.4172 -0.09114
vertex 21 30.774240000000002 -1.8837000000000002
vertex 21 30.23076 -0.09114
endloop
endfacet
facet normal 1 0 0
outer loop
vertex 21 0 0.75012
vertex 21 0 -1.8837000000000002
vertex 21 1.7593800000000002 -1.8837000000000002
endloop
endfacet
facet normal 1 0 0
outer loop
vertex 21 0 0.75012
vertex 21 1.7593800000000002 -1.8837000000000002
vertex 21 1.4998200000000002 0.75012
endloop
endfacet
facet normal 1 0 0
outer loop
vertex 21 53.76924 -0.09114
vertex 21 53.08674 -2.34234
vertex 21 55.500060000000005 -2.34234
endloop
endfacet
facet normal 1 0 0
outer loop
vertex 21 53.76924 -0.09114
vertex 21 55.500060000000005 -2.34234
vertex 21 55.500060000000005 -0.09114
endloop
endfacet
facet normal 1 0 0
outer loop
vertex 21 28.2408 -1.8837000000000002
vertex 21 28.10136 -2.34234
vertex 21 30.91326 -2.34234
endloop
endfacet
facet normal 1 0 0
outer loop
vertex 21 28.2408 -1.8837000000000002
vertex 21 30.91326 -2.34234
vertex 21 30.774240000000002 -1.8837000000000002
endloop
endfacet
facet normal 1 0 0
outer loop
vertex 21 28.10136 -2.34234
vertex 21 27.4722 -4.416300000000001
vertex 21 32.02206 -4.416300000000001
endloop
endfacet
facet normal 1 0 0
outer loop
vertex 21 28.10136 -2.34234
vertex 21 32.02206 -4.416300000000001
vertex 21 30.91326 -2.34234
endloop
endfacet
facet normal 1 0 0
outer loop
vertex 21 0 -1.8837000000000002
vertex 21 0 -4.416300000000001
vertex 21 2.5275600000000003 -4.416300000000001
endloop
endfacet
facet normal 1 0 0
outer loop
vertex 21 0 -1.8837000000000002
vertex 21 2.5275600000000003 -4.416300000000001
vertex 21 1.7593800000000002 -1.8837000000000002
endloop
endfacet
facet normal 1 0 0
outer loop
vertex 21 53.08674 -2.34234
vertex 21 51.977520000000005 -4.41672
vertex 21 55.500060000000005 -4.41672
endloop
endfacet
facet normal 1 0 0
outer loop
vertex 21 53.08674 -2.34234
vertex 21 55.500060000000005 -4.41672
vertex 21 55.500060000000005 -2.34234
endloop
endfacet
facet normal 0.9999999999999999 0 0
outer loop
vertex 21 27.4722 -4.416300000000001
vertex 21 27.4722 -4.41672
vertex 21 32.02248 -4.41672
endloop
endfacet
facet normal 1 0 0
outer loop
vertex 21 27.4722 -4.416300000000001
vertex 21 32.02248 -4.41672
vertex 21 32.02206 -4.416300000000001
endloop
endfacet
facet normal 1 0 0
outer loop
vertex 21 51.977520000000005 -4.41672
vertex 21 50.485260000000004 -6.235320000000001
vertex 21 55.500060000000005 -6.235320000000001
endloop
endfacet
facet normal 1 0 0
outer loop
vertex 21 51.977520000000005 -4.41672
vertex 21 55.500060000000005 -6.235320000000001
vertex 21 55.500060000000005 -4.41672
endloop
endfacet
facet normal 1 0 0
outer loop
vertex 21 27.4722 -4.41672
vertex 21 26.4999 -6.235320000000001
vertex 21 33.51474 -6.235320000000001
endloop
endfacet
facet normal 1 0 0
outer loop
vertex 21 27.4722 -4.41672
vertex 21 33.51474 -6.235320000000001
vertex 21 32.02248 -4.41672
endloop
endfacet
facet normal 1 0 0
outer loop
vertex 21 26.4999 -6.235320000000001
vertex 21 26.224800000000002 -6.750240000000001
vertex 21 34.14222 -6.750240000000001
endloop
endfacet
facet normal 0.9999999999999999 0 0
outer loop
vertex 21 26.4999 -6.235320000000001
vertex 21 34.14222 -6.750240000000001
vertex 21 33.51474 -6.235320000000001
endloop
endfacet
facet normal 1 0 0
outer loop
vertex 21 0 -4.416300000000001
vertex 21 0 -6.750240000000001
vertex 21 3.77496 -6.750240000000001
endloop
endfacet
facet normal 1 0 0
outer loop
vertex 21 0 -4.416300000000001
vertex 21 3.77496 -6.750240000000001
vertex 21 2.5275600000000003 -4.416300000000001
endloop
endfacet
facet normal 1 0 0
outer loop
vertex 21 50.485260000000004 -6.235320000000001
vertex 21 48.66666 -7.727580000000001
vertex 21 55.500060000000005 -7.727580000000001
endloop
endfacet
facet normal 0.9999999999999999 0 0
outer loop
vertex 21 50.485260000000004 -6.235320000000001
vertex 21 55.500060000000005 -7.727580000000001
vertex 21 55.500060000000005 -6.235320000000001
endloop
endfacet
facet normal 1 0 0
outer loop
vertex 21 26.224800000000002 -6.750240000000001
vertex 21 25.422600000000003 -7.727580000000001
vertex 21 35.33334 -7.727580000000001
endloop
endfacet
facet normal 1 0 0
outer loop
vertex 21 26.224800000000002 -6.750240000000001
vertex 21 35.33334 -7.727580000000001
vertex 21 34.14222 -6.750240000000001
endloop
endfacet
facet normal 1 0 0
outer loop
vertex 21 25.422600000000003 -7.727580000000001
vertex 21 24.54606 -8.79606
vertex 21 37.331700000000005 -8.79606
endloop
endfacet
facet normal 1 0 0
outer loop
vertex 21 25.422600000000003 -7.727580000000001
vertex 21 37.331700000000005 -8.79606
vertex 21 35.33334 -7.727580000000001
endloop
endfacet
facet normal 1 0 0
outer loop
vertex 21 0 -6.750240000000001
vertex 21 0 -8.79606
vertex 21 5.4541200000000005 -8.79606
endloop
endfacet
facet normal 1 0 0
outer loop
vertex 21 0 -6.750240000000001
vertex 21 5.4541200000000005 -8.79606
vertex 21 3.77496 -6.750240000000001
endloop
endfacet
facet normal 1 0 0
outer loop
vertex 21 48.66666 -7.727580000000001
vertex 21 46.59228 -8.83638
vertex 21 55.500060000000005 -8.83638
endloop
endfacet
facet normal 0.9999999999999999 0 0
outer loop
vertex 21 48.66666 -7.727580000000001
vertex 21 55.500060000000005 -8.83638
vertex 21 55.500060000000005 -7.727580000000001
endloop
endfacet
facet normal 1 0 0
outer loop
vertex 21 24.54606 -8.79606
vertex 21 24.4965 -8.83638
vertex 21 37.407720000000005 -8.83638
endloop
endfacet
facet normal 1 0 0
outer loop
vertex 21 24.54606 -8.79606
vertex 21 37.407720000000005 -8.83638
vertex 21 37.331700000000005 -8.79606
endloop
endfacet
facet normal 1 0 0
outer loop
vertex 21 46.59228 -8.83638
vertex 21 44.341080000000005 -9.519300000000001
vertex 21 55.500060000000005 -9.519300000000001
endloop
endfacet
facet normal 1 0 0
outer loop
vertex 21 46.59228 -8.83638
vertex 21 55.500060000000005 -9.519300000000001
vertex 21 55.500060000000005 -8.83638
endloop
endfacet
facet normal 0.9999999999999999 0 0
outer loop
vertex 21 24.4965 -8.83638
vertex 21 23.66448 -9.519300000000001
vertex 21 39.65892 -9.519300000000001
endloop
endfacet
facet normal 1 0 0
outer loop
vertex 21 24.4965 -8.83638
vertex 21 39.65892 -9.519300000000001
vertex 21 37.407720000000005 -8.83638
endloop
endfacet
facet normal 1 0 0
outer loop
vertex 21 44.341080000000005 -9.519300000000001
vertex 21 42 -9.749880000000001
vertex 21 55.500060000000005 -9.749880000000001
endloop
endfacet
facet normal 1 0 0
outer loop
vertex 21 44.341080000000005 -9.519300000000001
vertex 21 55.500060000000005 -9.749880000000001
vertex 21 55.500060000000005 -9.519300000000001
endloop
endfacet
facet normal 1 0 0
outer loop
vertex 21 23.66448 -9.519300000000001
vertex 21 23.3835 -9.749880000000001
vertex 21 42 -9.749880000000001
endloop
endfacet
facet normal 1 0 0
outer loop
vertex 21 23.66448 -9.519300000000001
vertex 21 42 -9.749880000000001
vertex 21 39.65892 -9.519300000000001
endloop
endfacet
facet normal 0.9999999999999999 0 0
outer loop
vertex 21 39.77694 -10.03968
vertex 21 42 -9.749880000000001
vertex 21 23.3835 -9.749880000000001
endloop
endfacet
facet normal 1 0 0
outer loop
vertex 21 39.77694 -10.03968
vertex 21 23.3835 -9.749880000000001
vertex 21 22.50024 -10.4748
endloop
endfacet
facet normal 0.9999999999999999 0 0
outer loop
vertex 21 39.77694 -10.03968
vertex 21 22.50024 -10.4748
vertex 21 55.500060000000005 -10.4748
endloop
endfacet
facet normal 1 0 0
outer loop
vertex 21 39.77694 -10.03968
vertex 21 55.500060000000005 -10.4748
vertex 21 55.500060000000005 -9.749880000000001
endloop
endfacet
facet normal 0.9999999999999999 0 0
outer loop
vertex 21 39.77694 -10.03968
vertex 21 55.500060000000005 -9.749880000000001
vertex 21 42 -9.749880000000001
endloop
endfacet
facet normal 0.9999999999999999 0 0
outer loop
vertex 21 0 -8.79606
vertex 21 0 -10.4748
vertex 21 7.4999400000000005 -10.4748
endloop
endfacet
facet normal 1 0 0
outer loop
vertex 21 0 -8.79606
vertex 21 7.4999400000000005 -10.4748
vertex 21 5.4541200000000005 -8.79606
endloop
endfacet
facet normal 1 0 0
outer loop
vertex 21 22.50024 -10.4748
vertex 21 20.1663 -11.7222
vertex 21 55.500060000000005 -11.7222
endloop
endfacet
facet normal 1 0 0
outer loop
vertex 21 22.50024 -10.4748
vertex 21 55.500060000000005 -11.7222
vertex 21 55.500060000000005 -10.4748
endloop
endfacet
facet normal 1 0 0
outer loop
vertex 21 0 -10.4748
vertex 21 0 -11.7222
vertex 21 9.83388 -11.7222
endloop
endfacet
facet normal 1 0 0
outer loop
vertex 21 0 -10.4748
vertex 21 9.83388 -11.7222
vertex 21 7.4999400000000005 -10.4748
endloop
endfacet
facet normal 0.9999999999999999 0 0
outer loop
vertex 21 20.1663 -11.7222
vertex 21 17.6337 -12.4908
vertex 21 55.500060000000005 -12.4908
endloop
endfacet
facet normal 1 0 0
outer loop
vertex 21 20.1663 -11.7222
vertex 21 55.500060000000005 -12.4908
vertex 21 55.500060000000005 -11.7222
endloop
endfacet
facet normal 1 0 0
outer loop
vertex 21 0 -11.7222
vertex 21 0 -12.4908
vertex 21 12.366480000000001 -12.4908
endloop
endfacet
facet normal 1 0 0
outer loop
vertex 21 0 -11.7222
vertex 21 12.366480000000001 -12.4908
vertex 21 9.83388 -11.7222
endloop
endfacet
facet normal 1 0 0
outer loop
vertex 21 17.6337 -12.4908
vertex 21 14.999880000000001 -12.74994
vertex 21 55.500060000000005 -12.74994
endloop
endfacet
facet normal 1 0 0
outer loop
vertex 21 17.6337 -12.4908
vertex 21 55.500060000000005 -12.74994
vertex 21 55.500060000000005 -12.4908
endloop
endfacet
facet normal 1 0 0
outer loop
vertex 21 0 -12.4908
vertex 21 0 -12.74994
vertex 21 14.999880000000001 -12.74994
endloop
endfacet
facet normal 1 0 0
outer loop
vertex 21 0 -12.4908
vertex 21 14.999880000000001 -12.74994
vertex 21 12.366480000000001 -12.4908
endloop
endfacet
facet normal 1 0 0
outer loop
vertex 21 25.2 -13.35012
vertex 21 14.999880000000001 -12.74994
vertex 21 0 -12.74994
endloop
endfacet
facet normal 1 0 0
outer loop
vertex 21 25.2 -13.35012
vertex 21 0 -12.74994
vertex 21 0 -14.25018
endloop
endfacet
facet normal 0.9999999999999999 0 0
outer loop
vertex 21 25.2 -13.35012
vertex 21 0 -14.25018
vertex 21 55.500060000000005 -14.25018
endloop
endfacet
facet normal 1 0 0
outer loop
vertex 21 25.2 -13.35012
vertex 21 55.500060000000005 -14.25018
vertex 21 55.500060000000005 -12.74994
endloop
endfacet
facet normal 1 0 0
outer loop
vertex 21 25.2 -13.35012
vertex 21 55.500060000000005 -12.74994
vertex 21 14.999880000000001 -12.74994
endloop
endfacet
facet normal 0 1 0
outer loop
vertex 21 6.00012 14.25018
vertex 21 6.00012 10.74402
vertex -16.70004 6.00012 10.74402
endloop
endfacet
facet normal 0 1 0
outer loop
vertex 21 6.00012 14.25018
vertex -16.70004 6.00012 10.74402
vertex -16.70004 6.00012 14.25018
endloop
endfacet
facet normal 0 1 0
outer loop
vertex -19.50018 6.00012 14.25018
vertex -19.50018 6.00012 0.75012
vertex -21 6.00012 0.75012
endloop
endfacet
facet normal 0 1 0
outer loop
vertex -19.50018 6.00012 14.25018
vertex -21 6.00012 0.75012
vertex -21 6.00012 14.25018
endloop
endfacet
facet normal 0 -1 0
outer loop
vertex -16.70004 24.00006 14.25018
vertex -16.70004 24.00006 10.74402
vertex 21 24.00006 10.74402
endloop
endfacet
facet normal 0 -1 0
outer loop
vertex -16.70004 24.00006 14.25018
vertex 21 24.00006 10.74402
vertex 21 24.00006 14.25018
endloop
endfacet
facet normal 0 -1 0
outer loop
vertex -20.40024 24.00006 6.449940000000001
vertex -21 24.00006 14.25018
vertex -21 24.00006 2.24994
endloop
endfacet
facet normal 0 -1 0
outer loop
vertex -20.40024 24.00006 6.449940000000001
vertex -21 24.00006 2.24994
vertex -21 24.00006 0.75012
endloop
endfacet
facet normal 0 -1 0
outer loop
vertex -20.40024 24.00006 6.449940000000001
vertex -21 24.00006 0.75012
vertex -19.50018 24.00006 0.75012
endloop
endfacet
facet normal 0 -1 0
outer loop
vertex -20.40024 24.00006 6.449940000000001
vertex -19.50018 24.00006 0.75012
vertex -19.50018 24.00006 14.25018
endloop
endfacet
facet normal 0 -1 0
outer loop
vertex -20.40024 24.00006 6.449940000000001
vertex -19.50018 24.00006 14.25018
vertex -21 24.00006 14.25018
endloop
endfacet
facet normal 0 0 0.9999999999999999
outer loop
vertex -19.50018 6.00012 0.75012
vertex -19.50018 24.00006 0.75012
vertex -21 24.00006 0.75012
endloop
endfacet
facet normal 0 0 0.9999999999999999
outer loop
vertex -19.50018 6.00012 0.75012
vertex -21 24.00006 0.75012
vertex -21 6.00012 0.75012
endloop
endfacet
facet normal -1 0 0
outer loop
vertex -21 28.749840000000003 10.2501
vertex -21 28.499940000000002 14.25018
vertex -21 30.00018 14.25018
endloop
endfacet
facet normal -1 0 0
outer loop
vertex -21 28.749840000000003 10.2501
vertex -21 30.00018 14.25018
vertex -21 32.99982 14.25018
endloop
endfacet
facet normal -1 0 0
outer loop
vertex -21 28.749840000000003 10.2501
vertex -21 32.99982 14.25018
vertex -21 32.99982 2.24994
endloop
endfacet
facet normal -1 0 0
outer loop
vertex -21 28.749840000000003 10.2501
vertex -21 32.99982 2.24994
vertex -21 24.00006 2.24994
endloop
endfacet
facet normal -1 0 0
outer loop
vertex -21 28.749840000000003 10.2501
vertex -21 24.00006 2.24994
vertex -21 24.00006 14.25018
endloop
endfacet
facet normal -1 0 0
outer loop
vertex -21 28.749840000000003 10.2501
vertex -21 24.00006 14.25018
vertex -21 28.499940000000002 14.25018
endloop
endfacet
facet normal -1 0 0
outer loop
vertex -21 53.40006 9.450000000000001
vertex -21 53.99982 14.25018
vertex -21 55.500060000000005 14.25018
endloop
endfacet
facet normal -1 0 0
outer loop
vertex -21 53.40006 9.450000000000001
vertex -21 55.500060000000005 14.25018
vertex -21 55.500060000000005 2.24994
endloop
endfacet
facet normal -1 0 0
outer loop
vertex -21 53.40006 9.450000000000001
vertex -21 55.500060000000005 2.24994
vertex -21 51.00018 2.24994
endloop
endfacet
facet normal -1 0 0
outer loop
vertex -21 53.40006 9.450000000000001
vertex -21 51.00018 2.24994
vertex -21 51.00018 14.25018
endloop
endfacet
facet normal -1 0 0
outer loop
vertex -21 53.40006 9.450000000000001
vertex -21 51.00018 14.25018
vertex -21 53.99982 14.25018
endloop
endfacet
facet normal -1 0 0
outer loop
vertex -21 2.70018 8.850240000000001
vertex -21 1.4998200000000002 14.25018
vertex -21 6.00012 14.25018
endloop
endfacet
facet normal -1 0 0
outer loop
vertex -21 2.70018 8.850240000000001
vertex -21 6.00012 14.25018
vertex -21 6.00012 0.75012
endloop
endfacet
facet normal -0.9999999999999999 0 0
outer loop
vertex -21 2.70018 8.850240000000001
vertex -21 6.00012 0.75012
vertex -21 0 0.75012
endloop
endfacet
facet normal -1 0 0
outer loop
vertex -21 2.70018 8.850240000000001
vertex -21 0 0.75012
vertex -21 0 14.25018
endloop
endfacet
facet normal -1 0 0
outer loop
vertex -21 2.70018 8.850240000000001
vertex -21 0 14.25018
vertex -21 1.4998200000000002 14.25018
endloop
endfacet
facet normal -1 0 0
outer loop
vertex -21 40.50018 1.75014
vertex -21 32.99982 2.24994
vertex -21 51.00018 2.24994
endloop
endfacet
facet normal -1 0 0
outer loop
vertex -21 40.50018 1.75014
vertex -21 51.00018 2.24994
vertex -21 55.500060000000005 2.24994
endloop
endfacet
facet normal -1 0 0
outer loop
vertex -21 40.50018 1.75014
vertex -21 55.500060000000005 2.24994
vertex -21 55.500060000000005 0.75012
endloop
endfacet
facet normal -1 0 0
outer loop
vertex -21 40.50018 1.75014
vertex -21 55.500060000000005 0.75012
vertex -21 24.00006 0.75012
endloop
endfacet
facet normal -1 0 0
outer loop
vertex -21 40.50018 1.75014
vertex -21 24.00006 0.75012
vertex -21 24.00006 2.24994
endloop
endfacet
facet normal -1 0 0
outer loop
vertex -21 40.50018 1.75014
vertex -21 24.00006 2.24994
vertex -21 32.99982 2.24994
endloop
endfacet
facet normal -0.9999999999999999 0 0
outer loop
vertex -21 23.50026 -4.24998
vertex -21 6.00012 0.75012
vertex -21 24.00006 0.75012
endloop
endfacet
facet normal -1 0 0
outer loop
vertex -21 23.50026 -4.24998
vertex -21 24.00006 0.75012
vertex -21 55.500060000000005 0.75012
endloop
endfacet
facet normal -1 0 0
outer loop
vertex -21 23.50026 -4.24998
vertex -21 55.500060000000005 0.75012
vertex -21 55.500060000000005 -14.25018
endloop
endfacet
facet normal -1 0 0
outer loop
vertex -21 23.50026 -4.24998
vertex -21 55.500060000000005 -14.25018
vertex -21 0 -14.25018
endloop
endfacet
facet normal -1 0 0
outer loop
vertex -21 23.50026 -4.24998
vertex -21 0 -14.25018
vertex -21 0 0.75012
endloop
endfacet
facet normal -1 0 0
outer loop
vertex -21 23.50026 -4.24998
vertex -21 0 0.75012
vertex -21 6.00012 0.75012
endloop
endfacet
facet normal 1 0 0
outer loop
vertex -19.50018 51.00018 14.25018
vertex -19.50018 51.00018 2.24994
vertex -19.50018 53.99982 2.24994
endloop
endfacet
facet normal 1 0 0
outer loop
vertex -19.50018 51.00018 14.25018
vertex -19.50018 53.99982 2.24994
vertex -19.50018 53.99982 14.25018
endloop
endfacet
facet normal 1 0 0
outer loop
vertex -19.50018 30.00018 14.25018
vertex -19.50018 30.00018 2.24994
vertex -19.50018 32.99982 2.24994
endloop
endfacet
facet normal 1 0 0
outer loop
vertex -19.50018 30.00018 14.25018
vertex -19.50018 32.99982 2.24994
vertex -19.50018 32.99982 14.25018
endloop
endfacet
facet normal 0.9999999999999999 0 0
outer loop
vertex -19.50018 24.00006 14.25018
vertex -19.50018 24.00006 0.75012
vertex -19.50018 28.499940000000002 0.75012
endloop
endfacet
facet normal 0.9999999999999999 0 0
outer loop
vertex -19.50018 24.00006 14.25018
vertex -19.50018 28.499940000000002 0.75012
vertex -19.50018 28.499940000000002 14.25018
endloop
endfacet
facet normal 1 0 0
outer loop
vertex -19.50018 1.4998200000000002 14.25018
vertex -19.50018 1.4998200000000002 0.75012
vertex -19.50018 6.00012 0.75012
endloop
endfacet
facet normal 1 0 0
outer loop
vertex -19.50018 1.4998200000000002 14.25018
vertex -19.50018 6.00012 0.75012
vertex -19.50018 6.00012 14.25018
endloop
endfacet
facet normal 1 0 0
outer loop
vertex -19.50018 42 -4.16262
vertex -19.50018 51.00018 2.24994
vertex -19.50018 32.99982 2.24994
endloop
endfacet
facet normal 1 0 0
outer loop
vertex -19.50018 42 -4.16262
vertex -19.50018 32.99982 2.24994
vertex -19.50018 30.00018 2.24994
endloop
endfacet
facet normal 1 0 0
outer loop
vertex -19.50018 42 -4.16262
vertex -19.50018 30.00018 2.24994
vertex -19.50018 30.23076 -0.09114
endloop
endfacet
facet normal 1 0 0
outer loop
vertex -19.50018 42 -4.16262
vertex -19.50018 30.23076 -0.09114
vertex -19.50018 30.91326 -2.34234
endloop
endfacet
facet normal 1 0 0
outer loop
vertex -19.50018 42 -4.16262
vertex -19.50018 30.91326 -2.34234
vertex -19.50018 32.02248 -4.41672
endloop
endfacet
facet normal 1 0 0
outer loop
vertex -19.50018 42 -4.16262
vertex -19.50018 32.02248 -4.41672
vertex -19.50018 33.51474 -6.235320000000001
endloop
endfacet
facet normal 1 0 0
outer loop
vertex -19.50018 42 -4.16262
vertex -19.50018 33.51474 -6.235320000000001
vertex -19.50018 35.33334 -7.727580000000001
endloop
endfacet
facet normal 1 0 0
outer loop
vertex -19.50018 42 -4.16262
vertex -19.50018 35.33334 -7.727580000000001
vertex -19.50018 37.407720000000005 -8.83638
endloop
endfacet
facet normal 0.9999999999999999 0 0
outer loop
vertex -19.50018 42 -4.16262
vertex -19.50018 37.407720000000005 -8.83638
vertex -19.50018 39.65892 -9.519300000000001
endloop
endfacet
facet normal 1 0 0
outer loop
vertex -19.50018 42 -4.16262
vertex -19.50018 39.65892 -9.519300000000001
vertex -19.50018 42 -9.749880000000001
endloop
endfacet
facet normal 0.9999999999999999 0 0
outer loop
vertex -19.50018 42 -4.16262
vertex -19.50018 42 -9.749880000000001
vertex -19.50018 44.341080000000005 -9.519300000000001
endloop
endfacet
facet normal 1 0 0
outer loop
vertex -19.50018 42 -4.16262
vertex -19.50018 44.341080000000005 -9.519300000000001
vertex -19.50018 46.59228 -8.83638
endloop
endfacet
facet normal 0.9999999999999999 0 0
outer loop
vertex -19.50018 42 -4.16262
vertex -19.50018 46.59228 -8.83638
vertex -19.50018 48.66666 -7.727580000000001
endloop
endfacet
facet normal 1 0 0
outer loop
vertex -19.50018 42 -4.16262
vertex -19.50018 48.66666 -7.727580000000001
vertex -19.50018 50.485260000000004 -6.235320000000001
endloop
endfacet
facet normal 1 0 0
outer loop
vertex -19.50018 42 -4.16262
vertex -19.50018 50.485260000000004 -6.235320000000001
vertex -19.50018 51.977520000000005 -4.41672
endloop
endfacet
facet normal 0.9999999999999999 0 0
outer loop
vertex -19.50018 42 -4.16262
vertex -19.50018 51.977520000000005 -4.41672
vertex -19.50018 53.08674 -2.34234
endloop
endfacet
facet normal 1 0 0
outer loop
vertex -19.50018 42 -4.16262
vertex -19.50018 53.08674 -2.34234
vertex -19.50018 53.76924 -0.09114
endloop
endfacet
facet normal 1 0 0
outer loop
vertex -19.50018 42 -4.16262
vertex -19.50018 53.76924 -0.09114
vertex -19.50018 53.99982 2.24994
endloop
endfacet
facet normal 1 0 0
outer loop
vertex -19.50018 42 -4.16262
vertex -19.50018 53.99982 2.24994
vertex -19.50018 51.00018 2.24994
endloop
endfacet
facet normal 1 0 0
outer loop
vertex -19.50018 14.999880000000001 -6.46422
vertex -19.50018 24.00006 0.75012
vertex -19.50018 6.00012 0.75012
endloop
endfacet
facet normal 1 0 0
outer loop
vertex -19.50018 14.999880000000001 -6.46422
vertex -19.50018 6.00012 0.75012
vertex -19.50018 1.4998200000000002 0.75012
endloop
endfacet
facet normal 1 0 0
outer loop
vertex -19.50018 14.999880000000001 -6.46422
vertex -19.50018 1.4998200000000002 0.75012
vertex -19.50018 1.7593800000000002 -1.8837000000000002
endloop
endfacet
facet normal 1 0 0
outer loop
vertex -19.50018 14.999880000000001 -6.46422
vertex -19.50018 1.7593800000000002 -1.8837000000000002
vertex -19.50018 2.5275600000000003 -4.416300000000001
endloop
endfacet
facet normal 1 0 0
outer loop
vertex -19.50018 14.999880000000001 -6.46422
vertex -19.50018 2.5275600000000003 -4.416300000000001
vertex -19.50018 3.77496 -6.750240000000001
endloop
endfacet
facet normal 0.9999999999999999 0 0
outer loop
vertex -19.50018 14.999880000000001 -6.46422
vertex -19.50018 3.77496 -6.750240000000001
vertex -19.50018 5.4541200000000005 -8.79606
endloop
endfacet
facet normal 1 0 0
outer loop
vertex -19.50018 14.999880000000001 -6.46422
vertex -19.50018 5.4541200000000005 -8.79606
vertex -19.50018 7.4999400000000005 -10.4748
endloop
endfacet
facet normal 1 0 0
outer loop
vertex -19.50018 14.999880000000001 -6.46422
vertex -19.50018 7.4999400000000005 -10.4748
vertex -19.50018 9.83388 -11.7222
endloop
endfacet
facet normal 1 0 0
outer loop
vertex -19.50018 14.999880000000001 -6.46422
vertex -19.50018 9.83388 -11.7222
vertex -19.50018 12.366480000000001 -12.4908
endloop
endfacet
facet normal 1 0 0
outer loop
vertex -19.50018 14.999880000000001 -6.46422
vertex -19.50018 12.366480000000001 -12.4908
vertex -19.50018 14.999880000000001 -12.74994
endloop
endfacet
facet normal 1 0 0
outer loop
vertex -19.50018 14.999880000000001 -6.46422
vertex -19.50018 14.999880000000001 -12.74994
vertex -19.50018 17.6337 -12.4908
endloop
endfacet
facet normal 1 0 0
outer loop
vertex -19.50018 14.999880000000001 -6.46422
vertex -19.50018 17.6337 -12.4908
vertex -19.50018 20.1663 -11.7222
endloop
endfacet
facet normal 1 0 0
outer loop
vertex -19.50018 14.999880000000001 -6.46422
vertex -19.50018 20.1663 -11.7222
vertex -19.50018 22.50024 -10.4748
endloop
endfacet
facet normal 1 0 0
outer loop
vertex -19.50018 14.999880000000001 -6.46422
vertex -19.50018 22.50024 -10.4748
vertex -19.50018 24.54606 -8.79606
endloop
endfacet
facet normal 1 0 0
outer loop
vertex -19.50018 14.999880000000001 -6.46422
vertex -19.50018 24.54606 -8.79606
vertex -19.50018 26.224800000000002 -6.750240000000001
endloop
endfacet
facet normal 1 0 0
outer loop
vertex -19.50018 14.999880000000001 -6.46422
vertex -19.50018 26.224800000000002 -6.750240000000001
vertex -19.50018 27.4722 -4.416300000000001
endloop
endfacet
facet normal 1 0 0
outer loop
vertex -19.50018 14.999880000000001 -6.46422
vertex -19.50018 27.4722 -4.416300000000001
vertex -19.50018 28.2408 -1.8837000000000002
endloop
endfacet
facet normal 1 0 0
outer loop
vertex -19.50018 14.999880000000001 -6.46422
vertex -19.50018 28.2408 -1.8837000000000002
vertex -19.50018 28.499940000000002 0.75012
endloop
endfacet
facet normal 1 0 0
outer loop
vertex -19.50018 14.999880000000001 -6.46422
vertex -19.50018 28.499940000000002 0.75012
vertex -19.50018 24.00006 0.75012
endloop
endfacet
facet normal 0 0.9999999999999999 0
outer loop
vertex -17.400180000000002 1.4998200000000002 7.230720000000001
vertex -19.50018 1.4998200000000002 14.25018
vertex -16.70004 1.4998200000000002 14.25018
endloop
endfacet
facet normal 0 1 0
outer loop
vertex -17.400180000000002 1.4998200000000002 7.230720000000001
vertex -16.70004 1.4998200000000002 14.25018
vertex -16.70004 1.4998200000000002 10.29588
endloop
endfacet
facet normal 0 1 0
outer loop
vertex -17.400180000000002 1.4998200000000002 7.230720000000001
vertex -16.70004 1.4998200000000002 10.29588
vertex -16.70004 1.4998200000000002 8.25006
endloop
endfacet
facet normal 0 1 0
outer loop
vertex -17.400180000000002 1.4998200000000002 7.230720000000001
vertex -16.70004 1.4998200000000002 8.25006
vertex -16.70004 1.4998200000000002 5.91612
endloop
endfacet
facet normal 0 1 0
outer loop
vertex -17.400180000000002 1.4998200000000002 7.230720000000001
vertex -16.70004 1.4998200000000002 5.91612
vertex -16.70004 1.4998200000000002 3.3835200000000003
endloop
endfacet
facet normal 0 1 0
outer loop
vertex -17.400180000000002 1.4998200000000002 7.230720000000001
vertex -16.70004 1.4998200000000002 3.3835200000000003
vertex -16.70004 1.4998200000000002 0.75012
endloop
endfacet
facet normal 0 1 0
outer loop
vertex -17.400180000000002 1.4998200000000002 7.230720000000001
vertex -16.70004 1.4998200000000002 0.75012
vertex -19.50018 1.4998200000000002 0.75012
endloop
endfacet
facet normal 0 1 0
outer loop
vertex -17.400180000000002 1.4998200000000002 7.230720000000001
vertex -19.50018 1.4998200000000002 0.75012
vertex -19.50018 1.4998200000000002 14.25018
endloop
endfacet
facet normal 0 -1 0
outer loop
vertex -17.400180000000002 28.499940000000002 7.230720000000001
vertex -16.70004 28.499940000000002 0.75012
vertex -16.70004 28.499940000000002 3.3835200000000003
endloop
endfacet
facet normal 0 -1 0
outer loop
vertex -17.400180000000002 28.499940000000002 7.230720000000001
vertex -16.70004 28.499940000000002 3.3835200000000003
vertex -16.70004 28.499940000000002 5.91612
endloop
endfacet
facet normal 0 -1 0
outer loop
vertex -17.400180000000002 28.499940000000002 7.230720000000001
vertex -16.70004 28.499940000000002 5.91612
vertex -16.70004 28.499940000000002 8.25006
endloop
endfacet
facet normal 0 -1 0
outer loop
vertex -17.400180000000002 28.499940000000002 7.230720000000001
vertex -16.70004 28.499940000000002 8.25006
vertex -16.70004 28.499940000000002 10.29588
endloop
endfacet
facet normal 0 -1 0
outer loop
vertex -17.400180000000002 28.499940000000002 7.230720000000001
vertex -16.70004 28.499940000000002 10.29588
vertex -16.70004 28.499940000000002 14.25018
endloop
endfacet
facet normal 0 -0.9999999999999999 0
outer loop
vertex -17.400180000000002 28.499940000000002 7.230720000000001
vertex -16.70004 28.499940000000002 14.25018
vertex -19.50018 28.499940000000002 14.25018
endloop
endfacet
facet normal 0 -1 0
outer loop
vertex -17.400180000000002 28.499940000000002 7.230720000000001
vertex -19.50018 28.499940000000002 14.25018
vertex -19.50018 28.499940000000002 0.75012
endloop
endfacet
facet normal 0 -1 0
outer loop
vertex -17.400180000000002 28.499940000000002 7.230720000000001
vertex -19.50018 28.499940000000002 0.75012
vertex -16.70004 28.499940000000002 0.75012
endloop
endfacet
facet normal -1 0 0
outer loop
vertex -16.70004 4.0908 11.96706
vertex -16.70004 6.00012 14.25018
vertex -16.70004 6.00012 10.74402
endloop
endfacet
facet normal -1 0 0
outer loop
vertex -16.70004 4.0908 11.96706
vertex -16.70004 6.00012 10.74402
vertex -16.70004 5.4541200000000005 10.29588
endloop
endfacet
facet normal -1 0 0
outer loop
vertex -16.70004 4.0908 11.96706
vertex -16.70004 5.4541200000000005 10.29588
vertex -16.70004 1.4998200000000002 10.29588
endloop
endfacet
facet normal -1 0 0
outer loop
vertex -16.70004 4.0908 11.96706
vertex -16.70004 1.4998200000000002 10.29588
vertex -16.70004 1.4998200000000002 14.25018
endloop
endfacet
facet normal -1 0 0
outer loop
vertex -16.70004 4.0908 11.96706
vertex -16.70004 1.4998200000000002 14.25018
vertex -16.70004 6.00012 14.25018
endloop
endfacet
facet normal -1 0 0
outer loop
vertex -16.70004 25.909380000000002 11.96706
vertex -16.70004 28.499940000000002 14.25018
vertex -16.70004 28.499940000000002 10.29588
endloop
endfacet
facet normal -1 0 0
outer loop
vertex -16.70004 25.909380000000002 11.96706
vertex -16.70004 28.499940000000002 10.29588
vertex -16.70004 24.54606 10.29588
endloop
endfacet
facet normal -1 0 0
outer loop
vertex -16.70004 25.909380000000002 11.96706
vertex -16.70004 24.54606 10.29588
vertex -16.70004 24.00006 10.74402
endloop
endfacet
facet normal -1 0 0
outer loop
vertex -16.70004 25.909380000000002 11.96706
vertex -16.70004 24.00006 10.74402
vertex -16.70004 24.00006 14.25018
endloop
endfacet
facet normal -1 0 0
outer loop
vertex -16.70004 25.909380000000002 11.96706
vertex -16.70004 24.00006 14.25018
vertex -16.70004 28.499940000000002 14.25018
endloop
endfacet
facet normal -1 0 0
outer loop
vertex -16.70004 31.604580000000002 11.28834
vertex -16.70004 32.99982 14.25018
vertex -16.70004 32.99982 10.10814
endloop
endfacet
facet normal -1 0 0
outer loop
vertex -16.70004 31.604580000000002 11.28834
vertex -16.70004 32.99982 10.10814
vertex -16.70004 32.02248 8.91702
endloop
endfacet
facet normal -1 0 0
outer loop
vertex -16.70004 31.604580000000002 11.28834
vertex -16.70004 32.02248 8.91702
vertex -16.70004 30.00018 8.91702
endloop
endfacet
facet normal -1 0 0
outer loop
vertex -16.70004 31.604580000000002 11.28834
vertex -16.70004 30.00018 8.91702
vertex -16.70004 30.00018 14.25018
endloop
endfacet
facet normal -1 0 0
outer loop
vertex -16.70004 31.604580000000002 11.28834
vertex -16.70004 30.00018 14.25018
vertex -16.70004 32.99982 14.25018
endloop
endfacet
facet normal -1 0 0
outer loop
vertex -16.70004 52.39542 11.28834
vertex -16.70004 53.99982 14.25018
vertex -16.70004 53.99982 8.91702
endloop
endfacet
facet normal -1 0 0
outer loop
vertex -16.70004 52.39542 11.28834
vertex -16.70004 53.99982 8.91702
vertex -16.70004 51.977520000000005 8.91702
endloop
endfacet
facet normal -1 0 0
outer loop
vertex -16.70004 52.39542 11.28834
vertex -16.70004 51.977520000000005 8.91702
vertex -16.70004 51.00018 10.10814
endloop
endfacet
facet normal -1 0 0
outer loop
vertex -16.70004 52.39542 11.28834
vertex -16.70004 51.00018 10.10814
vertex -16.70004 51.00018 14.25018
endloop
endfacet
facet normal -1 0 0
outer loop
vertex -16.70004 52.39542 11.28834
vertex -16.70004 51.00018 14.25018
vertex -16.70004 53.99982 14.25018
endloop
endfacet
facet normal -1 0 0
outer loop
vertex -16.70004 5.4541200000000005 10.29588
vertex -16.70004 3.77496 8.25006
vertex -16.70004 1.4998200000000002 8.25006
endloop
endfacet
facet normal -1 0 0
outer loop
vertex -16.70004 5.4541200000000005 10.29588
vertex -16.70004 1.4998200000000002 8.25006
vertex -16.70004 1.4998200000000002 10.29588
endloop
endfacet
facet normal -1 0 0
outer loop
vertex -16.70004 28.499940000000002 10.29588
vertex -16.70004 28.499940000000002 8.25006
vertex -16.70004 26.224800000000002 8.25006
endloop
endfacet
facet normal -1 0 0
outer loop
vertex -16.70004 28.499940000000002 10.29588
vertex -16.70004 26.224800000000002 8.25006
vertex -16.70004 24.54606 10.29588
endloop
endfacet
facet normal -1 0 0
outer loop
vertex -16.70004 32.02248 8.91702
vertex -16.70004 30.91326 6.84222
vertex -16.70004 30.00018 6.84222
endloop
endfacet
facet normal -1 0 0
outer loop
vertex -16.70004 32.02248 8.91702
vertex -16.70004 30.00018 6.84222
vertex -16.70004 30.00018 8.91702
endloop
endfacet
facet normal -1 0 0
outer loop
vertex -16.70004 53.99982 8.91702
vertex -16.70004 53.99982 6.84222
vertex -16.70004 53.08674 6.84222
endloop
endfacet
facet normal -1 0 0
outer loop
vertex -16.70004 53.99982 8.91702
vertex -16.70004 53.08674 6.84222
vertex -16.70004 51.977520000000005 8.91702
endloop
endfacet
facet normal -1 0 0
outer loop
vertex -16.70004 3.77496 8.25006
vertex -16.70004 2.5275600000000003 5.91612
vertex -16.70004 1.4998200000000002 5.91612
endloop
endfacet
facet normal -1 0 0
outer loop
vertex -16.70004 3.77496 8.25006
vertex -16.70004 1.4998200000000002 5.91612
vertex -16.70004 1.4998200000000002 8.25006
endloop
endfacet
facet normal -1 0 0
outer loop
vertex -16.70004 28.499940000000002 8.25006
vertex -16.70004 28.499940000000002 5.91612
vertex -16.70004 27.4722 5.91612
endloop
endfacet
facet normal -0.9999999999999999 0 0
outer loop
vertex -16.70004 28.499940000000002 8.25006
vertex -16.70004 27.4722 5.91612
vertex -16.70004 26.224800000000002 8.25006
endloop
endfacet
facet normal -1 0 0
outer loop
vertex -16.70004 30.91326 6.84222
vertex -16.70004 30.23076 4.59102
vertex -16.70004 30.00018 4.59102
endloop
endfacet
facet normal -1 0 0
outer loop
vertex -16.70004 30.91326 6.84222
vertex -16.70004 30.00018 4.59102
vertex -16.70004 30.00018 6.84222
endloop
endfacet
facet normal -1 0 0
outer loop
vertex -16.70004 53.99982 6.84222
vertex -16.70004 53.99982 4.59102
vertex -16.70004 53.76924 4.59102
endloop
endfacet
facet normal -1 0 0
outer loop
vertex -16.70004 53.99982 6.84222
vertex -16.70004 53.76924 4.59102
vertex -16.70004 53.08674 6.84222
endloop
endfacet
facet normal -0.9999999999999999 0 0
outer loop
vertex -16.70004 2.5275600000000003 5.91612
vertex -16.70004 1.7593800000000002 3.3835200000000003
vertex -16.70004 1.4998200000000002 3.3835200000000003
endloop
endfacet
facet normal -1 0 0
outer loop
vertex -16.70004 2.5275600000000003 5.91612
vertex -16.70004 1.4998200000000002 3.3835200000000003
vertex -16.70004 1.4998200000000002 5.91612
endloop
endfacet
facet normal -1 0 0
outer loop
vertex -16.70004 28.499940000000002 5.91612
vertex -16.70004 28.499940000000002 3.3835200000000003
vertex -16.70004 28.2408 3.3835200000000003
endloop
endfacet
facet normal -1 0 0
outer loop
vertex -16.70004 28.499940000000002 5.91612
vertex -16.70004 28.2408 3.3835200000000003
vertex -16.70004 27.4722 5.91612
endloop
endfacet
facet normal -1 0 0
outer loop
vertex -16.70004 30.23076 4.59102
vertex -16.70004 30.00018 2.24994
vertex -16.70004 30.00018 4.59102
endloop
endfacet
facet normal -1 0 0
outer loop
vertex -16.70004 53.99982 4.59102
vertex -16.70004 53.99982 2.24994
vertex -16.70004 53.76924 4.59102
endloop
endfacet
facet normal -0.9999999999999999 0 0
outer loop
vertex -16.70004 1.7593800000000002 3.3835200000000003
vertex -16.70004 1.4998200000000002 0.75012
vertex -16.70004 1.4998200000000002 3.3835200000000003
endloop
endfacet
facet normal -1 0 0
outer loop
vertex -16.70004 28.499940000000002 3.3835200000000003
vertex -16.70004 28.499940000000002 0.75012
vertex -16.70004 28.2408 3.3835200000000003
endloop
endfacet
facet normal 0 -0.9951931006891221 -0.09793208024325252
outer loop
vertex -16.70004 28.499940000000002 0.75012
vertex 21 28.499940000000002 0.75012
vertex 21 28.2408 3.3835200000000003
endloop
endfacet
facet normal 0 -0.9951931006891221 -0.09793208024325252
outer loop
vertex -16.70004 28.499940000000002 0.75012
vertex 21 28.2408 3.3835200000000003
vertex -16.70004 28.2408 3.3835200000000003
endloop
endfacet
facet normal 0 -0.9569042033151004 -0.29040376319512967
outer loop
vertex -16.70004 28.2408 3.3835200000000003
vertex 21 28.2408 3.3835200000000003
vertex 21 27.4722 5.91612
endloop
endfacet
facet normal 0 -0.9569042033151004 -0.29040376319512967
outer loop
vertex -16.70004 28.2408 3.3835200000000003
vertex 21 27.4722 5.91612
vertex -16.70004 27.4722 5.91612
endloop
endfacet
facet normal 0 -0.8819396314620972 -0.4713623727627186
outer loop
vertex -16.70004 27.4722 5.91612
vertex 21 27.4722 5.91612
vertex 21 26.224800000000002 8.25006
endloop
endfacet
facet normal 0 -0.8819396314620972 -0.4713623727627186
outer loop
vertex -16.70004 27.4722 5.91612
vertex 21 26.224800000000002 8.25006
vertex -16.70004 26.224800000000002 8.25006
endloop
endfacet
facet normal 0 -0.7730514194837276 -0.6343433635139519
outer loop
vertex -16.70004 26.224800000000002 8.25006
vertex 21 26.224800000000002 8.25006
vertex 21 24.54606 10.29588
endloop
endfacet
facet normal 0 -0.7730514194837276 -0.6343433635139519
outer loop
vertex -16.70004 26.224800000000002 8.25006
vertex 21 24.54606 10.29588
vertex -16.70004 24.54606 10.29588
endloop
endfacet
facet normal 0 0.7729735958017577 -0.6344381925714282
outer loop
vertex -16.70004 5.4541200000000005 10.29588
vertex 21 5.4541200000000005 10.29588
vertex 21 3.77496 8.25006
endloop
endfacet
facet normal 0 0.7729735958017577 -0.6344381925714282
outer loop
vertex -16.70004 5.4541200000000005 10.29588
vertex 21 3.77496 8.25006
vertex -16.70004 3.77496 8.25006
endloop
endfacet
facet normal 0 0.881939631462097 -0.47136237276271886
outer loop
vertex -16.70004 3.77496 8.25006
vertex 21 3.77496 8.25006
vertex 21 2.5275600000000003 5.91612
endloop
endfacet
facet normal 0 0.881939631462097 -0.47136237276271886
outer loop
vertex -16.70004 3.77496 8.25006
vertex 21 2.5275600000000003 5.91612
vertex -16.70004 2.5275600000000003 5.91612
endloop
endfacet
facet normal 0 0.9569482926137861 -0.2902584456369179
outer loop
vertex -16.70004 2.5275600000000003 5.91612
vertex 21 2.5275600000000003 5.91612
vertex 21 1.7593800000000002 3.3835200000000003
endloop
endfacet
facet normal 0 0.9569482926137861 -0.2902584456369179
outer loop
vertex -16.70004 2.5275600000000003 5.91612
vertex 21 1.7593800000000002 3.3835200000000003
vertex -16.70004 1.7593800000000002 3.3835200000000003
endloop
endfacet
facet normal 0 0.9951776191613635 -0.09808927729533055
outer loop
vertex -16.70004 1.7593800000000002 3.3835200000000003
vertex 21 1.7593800000000002 3.3835200000000003
vertex 21 1.4998200000000002 0.75012
endloop
endfacet
facet normal 0 0.9951776191613635 -0.09808927729533055
outer loop
vertex -16.70004 1.7593800000000002 3.3835200000000003
vertex 21 1.4998200000000002 0.75012
vertex -16.70004 1.4998200000000002 0.75012
endloop
endfacet
facet normal 0 0 1
outer loop
vertex -6.0333000000000006 54.500040000000006 14.25018
vertex -21 55.500060000000005 14.25018
vertex -21 53.99982 14.25018
endloop
endfacet
facet normal 0 0 1
outer loop
vertex -6.0333000000000006 54.500040000000006 14.25018
vertex -21 53.99982 14.25018
vertex -19.50018 53.99982 14.25018
endloop
endfacet
facet normal 0 0 1
outer loop
vertex -6.0333000000000006 54.500040000000006 14.25018
vertex -19.50018 53.99982 14.25018
vertex -16.70004 53.99982 14.25018
endloop
endfacet
facet normal 0 0 1
outer loop
vertex -6.0333000000000006 54.500040000000006 14.25018
vertex -16.70004 53.99982 14.25018
vertex 21 53.99982 14.25018
endloop
endfacet
facet normal 0 0 1
outer loop
vertex -6.0333000000000006 54.500040000000006 14.25018
vertex 21 53.99982 14.25018
vertex 21 55.500060000000005 14.25018
endloop
endfacet
facet normal 0 0 1
outer loop
vertex -6.0333000000000006 54.500040000000006 14.25018
vertex 21 55.500060000000005 14.25018
vertex -21 55.500060000000005 14.25018
endloop
endfacet
facet normal 0 0 1
outer loop
vertex -16.70004 53.99982 14.25018
vertex -16.70004 51.00018 14.25018
vertex 21 51.00018 14.25018
endloop
endfacet
facet normal 0 0 1
outer loop
vertex -16.70004 53.99982 14.25018
vertex 21 51.00018 14.25018
vertex 21 53.99982 14.25018
endloop
endfacet
facet normal 0 0 1
outer loop
vertex -21 53.99982 14.25018
vertex -21 51.00018 14.25018
vertex -19.50018 51.00018 14.25018
endloop
endfacet
facet normal 0 0 1
outer loop
vertex -21 53.99982 14.25018
vertex -19.50018 51.00018 14.25018
vertex -19.50018 53.99982 14.25018
endloop
endfacet
facet normal 0 0 1
outer loop
vertex -16.70004 32.99982 14.25018
vertex -16.70004 30.00018 14.25018
vertex 21 30.00018 14.25018
endloop
endfacet
facet normal 0 0 1
outer loop
vertex -16.70004 32.99982 14.25018
vertex 21 30.00018 14.25018
vertex 21 32.99982 14.25018
endloop
endfacet
facet normal 0 0 1
outer loop
vertex -21 32.99982 14.25018
vertex -21 30.00018 14.25018
vertex -19.50018 30.00018 14.25018
endloop
endfacet
facet normal 0 0 1
outer loop
vertex -21 32.99982 14.25018
vertex -19.50018 30.00018 14.25018
vertex -19.50018 32.99982 14.25018
endloop
endfacet
facet normal 0 0 1
outer loop
vertex -9.05016 29.25006 14.25018
vertex -16.70004 30.00018 14.25018
vertex -19.50018 30.00018 14.25018
endloop
endfacet
facet normal 0 0 1
outer loop
vertex -9.05016 29.25006 14.25018
vertex -19.50018 30.00018 14.25018
vertex -21 30.00018 14.25018
endloop
endfacet
facet normal 0 0 1
outer loop
vertex -9.05016 29.25006 14.25018
vertex -21 30.00018 14.25018
vertex -21 28.499940000000002 14.25018
endloop
endfacet
facet normal 0 0 1
outer loop
vertex -9.05016 29.25006 14.25018
vertex -21 28.499940000000002 14.25018
vertex -19.50018 28.499940000000002 14.25018
endloop
endfacet
facet normal 0 0 1
outer loop
vertex -9.05016 29.25006 14.25018
vertex -19.50018 28.499940000000002 14.25018
vertex -16.70004 28.499940000000002 14.25018
endloop
endfacet
facet normal 0 0 0.9999999999999999
outer loop
vertex -9.05016 29.25006 14.25018
vertex -16.70004 28.499940000000002 14.25018
vertex 21 28.499940000000002 14.25018
endloop
endfacet
facet normal 0 0 1
outer loop
vertex -9.05016 29.25006 14.25018
vertex 21 28.499940000000002 14.25018
vertex 21 30.00018 14.25018
endloop
endfacet
facet normal 0 0 0.9999999999999999
outer loop
vertex -9.05016 29.25006 14.25018
vertex 21 30.00018 14.25018
vertex -16.70004 30.00018 14.25018
endloop
endfacet
facet normal 0 0 1
outer loop
vertex -16.70004 28.499940000000002 14.25018
vertex -16.70004 24.00006 14.25018
vertex 21 24.00006 14.25018
endloop
endfacet
facet normal 0 0 1
outer loop
vertex -16.70004 28.499940000000002 14.25018
vertex 21 24.00006 14.25018
vertex 21 28.499940000000002 14.25018
endloop
endfacet
facet normal 0 0 1
outer loop
vertex -21 28.499940000000002 14.25018
vertex -21 24.00006 14.25018
vertex -19.50018 24.00006 14.25018
endloop
endfacet
facet normal 0 0 1
outer loop
vertex -21 28.499940000000002 14.25018
vertex -19.50018 24.00006 14.25018
vertex -19.50018 28.499940000000002 14.25018
endloop
endfacet
facet normal 0 0 1
outer loop
vertex -16.70004 6.00012 14.25018
vertex -16.70004 1.4998200000000002 14.25018
vertex 21 1.4998200000000002 14.25018
endloop
endfacet
facet normal 0 0 1
outer loop
vertex -16.70004 6.00012 14.25018
vertex 21 1.4998200000000002 14.25018
vertex 21 6.00012 14.25018
endloop
endfacet
facet normal 0 0 0.9999999999999999
outer loop
vertex -21 6.00012 14.25018
vertex -21 1.4998200000000002 14.25018
vertex -19.50018 1.4998200000000002 14.25018
endloop
endfacet
facet normal 0 0 0.9999999999999999
outer loop
vertex -21 6.00012 14.25018
vertex -19.50018 1.4998200000000002 14.25018
vertex -19.50018 6.00012 14.25018
endloop
endfacet
facet normal 0 0 1
outer loop
vertex -6.0333000000000006 1.0000200000000001 14.25018
vertex -16.70004 1.4998200000000002 14.25018
vertex -19.50018 1.4998200000000002 14.25018
endloop
endfacet
facet normal 0 0 1
outer loop
vertex -6.0333000000000006 1.0000200000000001 14.25018
vertex -19.50018 1.4998200000000002 14.25018
vertex -21 1.4998200000000002 14.25018
endloop
endfacet
facet normal 0 0 0.9999999999999999
outer loop
vertex -6.0333000000000006 1.0000200000000001 14.25018
vertex -21 1.4998200000000002 14.25018
vertex -21 0 14.25018
endloop
endfacet
facet normal 0 0 1
outer loop
vertex -6.0333000000000006 1.0000200000000001 14.25018
vertex -21 0 14.25018
vertex 21 0 14.25018
endloop
endfacet
facet normal 0 0 1
outer loop
vertex -6.0333000000000006 1.0000200000000001 14.25018
vertex 21 0 14.25018
vertex 21 1.4998200000000002 14.25018
endloop
endfacet
facet normal 0 0 1
outer loop
vertex -6.0333000000000006 1.0000200000000001 14.25018
vertex 21 1.4998200000000002 14.25018
vertex -16.70004 1.4998200000000002 14.25018
endloop
endfacet
facet normal 0 -0.6344350563759815 -0.7729761699051304
outer loop
vertex -16.70004 24.00006 10.74402
vertex -16.70004 24.54606 10.29588
vertex 21 24.54606 10.29588
endloop
endfacet
facet normal 0 -0.6344350563759815 -0.7729761699051304
outer loop
vertex -16.70004 24.00006 10.74402
vertex 21 24.54606 10.29588
vertex 21 24.00006 10.74402
endloop
endfacet
facet normal 0 0.6344350563759815 -0.7729761699051304
outer loop
vertex -16.70004 6.00012 10.74402
vertex 21 6.00012 10.74402
vertex 21 5.4541200000000005 10.29588
endloop
endfacet
facet normal 0 0.6344350563759815 -0.7729761699051304
outer loop
vertex -16.70004 6.00012 10.74402
vertex 21 5.4541200000000005 10.29588
vertex -16.70004 5.4541200000000005 10.29588
endloop
endfacet
facet normal 0 -0.09801871720095053 0.9951845713626594
outer loop
vertex -19.50018 42 -9.749880000000001
vertex 21 42 -9.749880000000001
vertex 21 44.341080000000005 -9.519300000000001
endloop
endfacet
facet normal 0 -0.09801871720095053 0.9951845713626594
outer loop
vertex -19.50018 42 -9.749880000000001
vertex 21 44.341080000000005 -9.519300000000001
vertex -19.50018 44.341080000000005 -9.519300000000001
endloop
endfacet
facet normal 0 -0.2902947769094872 0.9569372719771506
outer loop
vertex -19.50018 44.341080000000005 -9.519300000000001
vertex 21 44.341080000000005 -9.519300000000001
vertex 21 46.59228 -8.83638
endloop
endfacet
facet normal 0 -0.2902947769094872 0.9569372719771506
outer loop
vertex -19.50018 44.341080000000005 -9.519300000000001
vertex 21 46.59228 -8.83638
vertex -19.50018 46.59228 -8.83638
endloop
endfacet
facet normal 0 -0.4714036114485227 0.8819175897516107
outer loop
vertex -19.50018 46.59228 -8.83638
vertex 21 46.59228 -8.83638
vertex 21 48.66666 -7.727580000000001
endloop
endfacet
facet normal 0 -0.4714036114485227 0.8819175897516107
outer loop
vertex -19.50018 46.59228 -8.83638
vertex 21 48.66666 -7.727580000000001
vertex -19.50018 48.66666 -7.727580000000001
endloop
endfacet
facet normal 0 -0.6343357628094145 0.7730576563368338
outer loop
vertex -19.50018 48.66666 -7.727580000000001
vertex 21 48.66666 -7.727580000000001
vertex 21 50.485260000000004 -6.235320000000001
endloop
endfacet
facet normal 0 -0.6343357628094145 0.7730576563368338
outer loop
vertex -19.50018 48.66666 -7.727580000000001
vertex 21 50.485260000000004 -6.235320000000001
vertex -19.50018 50.485260000000004 -6.235320000000001
endloop
endfacet
facet normal 0 -0.7730576563368329 0.6343357628094154
outer loop
vertex -19.50018 50.485260000000004 -6.235320000000001
vertex 21 50.485260000000004 -6.235320000000001
vertex 21 51.977520000000005 -4.41672
endloop
endfacet
facet normal 0 -0.7730576563368329 0.6343357628094154
outer loop
vertex -19.50018 50.485260000000004 -6.235320000000001
vertex 21 51.977520000000005 -4.41672
vertex -19.50018 51.977520000000005 -4.41672
endloop
endfacet
facet normal 0 -0.8818433498662936 0.47154247560171453
outer loop
vertex -19.50018 51.977520000000005 -4.41672
vertex 21 51.977520000000005 -4.41672
vertex 21 53.08674 -2.34234
endloop
endfacet
facet normal 0 -0.8818433498662936 0.47154247560171453
outer loop
vertex -19.50018 51.977520000000005 -4.41672
vertex 21 53.08674 -2.34234
vertex -19.50018 53.08674 -2.34234
endloop
endfacet
facet normal 0 -0.9569868559771773 0.2901312762990529
outer loop
vertex -19.50018 53.08674 -2.34234
vertex 21 53.08674 -2.34234
vertex 21 53.76924 -0.09114
endloop
endfacet
facet normal 0 -0.9569868559771773 0.2901312762990529
outer loop
vertex -19.50018 53.08674 -2.34234
vertex 21 53.76924 -0.09114
vertex -19.50018 53.76924 -0.09114
endloop
endfacet
facet normal 0 -0.9951950341680175 0.09791243009607477
outer loop
vertex -2.7400800000000003 53.90742 1.31334
vertex -19.50018 53.76924 -0.09114
vertex 21 53.76924 -0.09114
endloop
endfacet
facet normal 0.000006348919780196431 -0.9951845713426022 0.09801871719897375
outer loop
vertex -2.7400800000000003 53.90742 1.31334
vertex 21 53.76924 -0.09114
vertex 21 53.99982 2.24994
endloop
endfacet
facet normal 0 -0.9951688609861177 0.09817809390894201
outer loop
vertex -2.7400800000000003 53.90742 1.31334
vertex 21 53.99982 2.24994
vertex -16.70004 53.99982 2.24994
endloop
endfacet
facet normal 0 -0.9951688609861178 0.09817809390894203
outer loop
vertex -2.7400800000000003 53.90742 1.31334
vertex -16.70004 53.99982 2.24994
vertex -19.50018 53.99982 2.24994
endloop
endfacet
facet normal -0.00000899301695648526 -0.9951845713224171 0.09801871719698567
outer loop
vertex -2.7400800000000003 53.90742 1.31334
vertex -19.50018 53.99982 2.24994
vertex -19.50018 53.76924 -0.09114
endloop
endfacet
facet normal 0 0.9951688609861173 0.09817809390894577
outer loop
vertex -2.7400800000000003 30.09258 1.31334
vertex -19.50018 30.00018 2.24994
vertex -16.70004 30.00018 2.24994
endloop
endfacet
facet normal 0 0.9951688609861176 0.09817809390894577
outer loop
vertex -2.7400800000000003 30.09258 1.31334
vertex -16.70004 30.00018 2.24994
vertex 21 30.00018 2.24994
endloop
endfacet
facet normal 0.000006348919780285889 0.995184571342602 0.09801871719897523
outer loop
vertex -2.7400800000000003 30.09258 1.31334
vertex 21 30.00018 2.24994
vertex 21 30.23076 -0.09114
endloop
endfacet
facet normal 0 0.9951950341680175 0.09791243009607477
outer loop
vertex -2.7400800000000003 30.09258 1.31334
vertex 21 30.23076 -0.09114
vertex -19.50018 30.23076 -0.09114
endloop
endfacet
facet normal -0.000008993016956611972 0.9951845713224169 0.09801871719698715
outer loop
vertex -2.7400800000000003 30.09258 1.31334
vertex -19.50018 30.23076 -0.09114
vertex -19.50018 30.00018 2.24994
endloop
endfacet
facet normal 0 0.9569868559771777 0.2901312762990515
outer loop
vertex -19.50018 30.23076 -0.09114
vertex 21 30.23076 -0.09114
vertex 21 30.91326 -2.34234
endloop
endfacet
facet normal 0 0.9569868559771777 0.2901312762990515
outer loop
vertex -19.50018 30.23076 -0.09114
vertex 21 30.91326 -2.34234
vertex -19.50018 30.91326 -2.34234
endloop
endfacet
facet normal 0 0.8818433498662924 0.4715424756017169
outer loop
vertex -19.50018 30.91326 -2.34234
vertex 21 30.91326 -2.34234
vertex 21 32.02248 -4.41672
endloop
endfacet
facet normal 0 0.8818433498662924 0.4715424756017169
outer loop
vertex -19.50018 30.91326 -2.34234
vertex 21 32.02248 -4.41672
vertex -19.50018 32.02248 -4.41672
endloop
endfacet
facet normal 0 0.7730576563368329 0.6343357628094154
outer loop
vertex -19.50018 32.02248 -4.41672
vertex 21 32.02248 -4.41672
vertex 21 33.51474 -6.235320000000001
endloop
endfacet
facet normal 0 0.7730576563368329 0.6343357628094154
outer loop
vertex -19.50018 32.02248 -4.41672
vertex 21 33.51474 -6.235320000000001
vertex -19.50018 33.51474 -6.235320000000001
endloop
endfacet
facet normal 0 0.634335762809416 0.7730576563368325
outer loop
vertex -19.50018 33.51474 -6.235320000000001
vertex 21 33.51474 -6.235320000000001
vertex 21 35.33334 -7.727580000000001
endloop
endfacet
facet normal 0 0.634335762809416 0.7730576563368325
outer loop
vertex -19.50018 33.51474 -6.235320000000001
vertex 21 35.33334 -7.727580000000001
vertex -19.50018 35.33334 -7.727580000000001
endloop
endfacet
facet normal 0 0.47140361144852144 0.8819175897516114
outer loop
vertex -19.50018 35.33334 -7.727580000000001
vertex 21 35.33334 -7.727580000000001
vertex 21 37.407720000000005 -8.83638
endloop
endfacet
facet normal 0 0.47140361144852144 0.8819175897516114
outer loop
vertex -19.50018 35.33334 -7.727580000000001
vertex 21 37.407720000000005 -8.83638
vertex -19.50018 37.407720000000005 -8.83638
endloop
endfacet
facet normal 0 0.2902947769094872 0.9569372719771506
outer loop
vertex -19.50018 37.407720000000005 -8.83638
vertex 21 37.407720000000005 -8.83638
vertex 21 39.65892 -9.519300000000001
endloop
endfacet
facet normal 0 0.2902947769094872 0.9569372719771506
outer loop
vertex -19.50018 37.407720000000005 -8.83638
vertex 21 39.65892 -9.519300000000001
vertex -19.50018 39.65892 -9.519300000000001
endloop
endfacet
facet normal 0 0.09801871720095083 0.9951845713626593
outer loop
vertex -19.50018 39.65892 -9.519300000000001
vertex 21 39.65892 -9.519300000000001
vertex 21 42 -9.749880000000001
endloop
endfacet
facet normal 0 0.09801871720095083 0.9951845713626593
outer loop
vertex -19.50018 39.65892 -9.519300000000001
vertex 21 42 -9.749880000000001
vertex -19.50018 42 -9.749880000000001
endloop
endfacet
facet normal 0 1 0
outer loop
vertex 5.9199 32.99982 11.80242
vertex 21 32.99982 14.25018
vertex 21 32.99982 10.29588
endloop
endfacet
facet normal 0 1 0
outer loop
vertex 5.9199 32.99982 11.80242
vertex 21 32.99982 10.29588
vertex 21 32.99982 10.10814
endloop
endfacet
facet normal 0 1 0
outer loop
vertex 5.9199 32.99982 11.80242
vertex 21 32.99982 10.10814
vertex -16.70004 32.99982 10.10814
endloop
endfacet
facet normal 0 1 0
outer loop
vertex 5.9199 32.99982 11.80242
vertex -16.70004 32.99982 10.10814
vertex -16.70004 32.99982 14.25018
endloop
endfacet
facet normal 0 1 0
outer loop
vertex 5.9199 32.99982 11.80242
vertex -16.70004 32.99982 14.25018
vertex 21 32.99982 14.25018
endloop
endfacet
facet normal 0 1 0
outer loop
vertex -19.50018 32.99982 14.25018
vertex -19.50018 32.99982 2.24994
vertex -21 32.99982 2.24994
endloop
endfacet
facet normal 0 1 0
outer loop
vertex -19.50018 32.99982 14.25018
vertex -21 32.99982 2.24994
vertex -21 32.99982 14.25018
endloop
endfacet
facet normal 0 -1 0
outer loop
vertex -16.70004 51.00018 14.25018
vertex -16.70004 51.00018 10.10814
vertex 21 51.00018 10.10814
endloop
endfacet
facet normal 0 -1 0
outer loop
vertex -16.70004 51.00018 14.25018
vertex 21 51.00018 10.10814
vertex 21 51.00018 14.25018
endloop
endfacet
facet normal 0 -1 0
outer loop
vertex -21 51.00018 14.25018
vertex -21 51.00018 2.24994
vertex -19.50018 51.00018 2.24994
endloop
endfacet
facet normal 0 -1 0
outer loop
vertex -21 51.00018 14.25018
vertex -19.50018 51.00018 2.24994
vertex -19.50018 51.00018 14.25018
endloop
endfacet
facet normal 0 0 0.9999999999999999
outer loop
vertex -19.50018 32.99982 2.24994
vertex -19.50018 51.00018 2.24994
vertex -21 51.00018 2.24994
endloop
endfacet
facet normal 0 0 0.9999999999999999
outer loop
vertex -19.50018 32.99982 2.24994
vertex -21 51.00018 2.24994
vertex -21 32.99982 2.24994
endloop
endfacet
facet normal 0 1 0
outer loop
vertex -17.500140000000002 30.00018 7.62132
vertex -19.50018 30.00018 14.25018
vertex -16.70004 30.00018 14.25018
endloop
endfacet
facet normal 0 1 0
outer loop
vertex -17.500140000000002 30.00018 7.62132
vertex -16.70004 30.00018 14.25018
vertex -16.70004 30.00018 8.91702
endloop
endfacet
facet normal 0 1 0
outer loop
vertex -17.500140000000002 30.00018 7.62132
vertex -16.70004 30.00018 8.91702
vertex -16.70004 30.00018 6.84222
endloop
endfacet
facet normal 0 1 0
outer loop
vertex -17.500140000000002 30.00018 7.62132
vertex -16.70004 30.00018 6.84222
vertex -16.70004 30.00018 4.59102
endloop
endfacet
facet normal 0 0.9999999999999999 0
outer loop
vertex -17.500140000000002 30.00018 7.62132
vertex -16.70004 30.00018 4.59102
vertex -16.70004 30.00018 2.24994
endloop
endfacet
facet normal 0 1 0
outer loop
vertex -17.500140000000002 30.00018 7.62132
vertex -16.70004 30.00018 2.24994
vertex -19.50018 30.00018 2.24994
endloop
endfacet
facet normal 0 1 0
outer loop
vertex -17.500140000000002 30.00018 7.62132
vertex -19.50018 30.00018 2.24994
vertex -19.50018 30.00018 14.25018
endloop
endfacet
facet normal 0 -0.9999999999999999 0
outer loop
vertex -17.500140000000002 53.99982 7.62132
vertex -16.70004 53.99982 2.24994
vertex -16.70004 53.99982 4.59102
endloop
endfacet
facet normal 0 -1 0
outer loop
vertex -17.500140000000002 53.99982 7.62132
vertex -16.70004 53.99982 4.59102
vertex -16.70004 53.99982 6.84222
endloop
endfacet
facet normal 0 -1 0
outer loop
vertex -17.500140000000002 53.99982 7.62132
vertex -16.70004 53.99982 6.84222
vertex -16.70004 53.99982 8.91702
endloop
endfacet
facet normal 0 -1 0
outer loop
vertex -17.500140000000002 53.99982 7.62132
vertex -16.70004 53.99982 8.91702
vertex -16.70004 53.99982 14.25018
endloop
endfacet
facet normal 0 -1 0
outer loop
vertex -17.500140000000002 53.99982 7.62132
vertex -16.70004 53.99982 14.25018
vertex -19.50018 53.99982 14.25018
endloop
endfacet
facet normal 0 -1 0
outer loop
vertex -17.500140000000002 53.99982 7.62132
vertex -19.50018 53.99982 14.25018
vertex -19.50018 53.99982 2.24994
endloop
endfacet
facet normal 0 -1 0
outer loop
vertex -17.500140000000002 53.99982 7.62132
vertex -19.50018 53.99982 2.24994
vertex -16.70004 53.99982 2.24994
endloop
endfacet
facet normal 0 -0.9951845713626595 -0.09801871720094923
outer loop
vertex -16.70004 53.99982 2.24994
vertex 21 53.99982 2.24994
vertex 21 53.76924 4.59102
endloop
endfacet
facet normal 0 -0.9951845713626595 -0.09801871720094923
outer loop
vertex -16.70004 53.99982 2.24994
vertex 21 53.76924 4.59102
vertex -16.70004 53.76924 4.59102
endloop
endfacet
facet normal 0 -0.9569868559771773 -0.2901312762990529
outer loop
vertex -16.70004 53.76924 4.59102
vertex 21 53.76924 4.59102
vertex 21 53.08674 6.84222
endloop
endfacet
facet normal 0 -0.9569868559771773 -0.2901312762990529
outer loop
vertex -16.70004 53.76924 4.59102
vertex 21 53.08674 6.84222
vertex -16.70004 53.08674 6.84222
endloop
endfacet
facet normal 0 -0.8818830408163568 -0.47146824105181856
outer loop
vertex -16.70004 53.08674 6.84222
vertex 21 53.08674 6.84222
vertex 21 51.977520000000005 8.91702
endloop
endfacet
facet normal 0 -0.8818830408163568 -0.47146824105181856
outer loop
vertex -16.70004 53.08674 6.84222
vertex 21 51.977520000000005 8.91702
vertex -16.70004 51.977520000000005 8.91702
endloop
endfacet
facet normal 0 0.8818830408163557 -0.47146824105182095
outer loop
vertex -16.70004 32.02248 8.91702
vertex 21 32.02248 8.91702
vertex 21 30.91326 6.84222
endloop
endfacet
facet normal 0 0.8818830408163557 -0.47146824105182095
outer loop
vertex -16.70004 32.02248 8.91702
vertex 21 30.91326 6.84222
vertex -16.70004 30.91326 6.84222
endloop
endfacet
facet normal 0 0.9951845713626594 -0.09801871720095075
outer loop
vertex -16.70004 30.23076 4.59102
vertex 21 30.23076 4.59102
vertex 21 30.00018 2.24994
endloop
endfacet
facet normal 0 0.9951845713626594 -0.09801871720095075
outer loop
vertex -16.70004 30.23076 4.59102
vertex 21 30.00018 2.24994
vertex -16.70004 30.00018 2.24994
endloop
endfacet
facet normal 0 -0.7730699429926915 -0.6343207889083228
outer loop
vertex -16.70004 51.00018 10.10814
vertex -16.70004 51.977520000000005 8.91702
vertex 21 51.977520000000005 8.91702
endloop
endfacet
facet normal 0 -0.7730699429926915 -0.6343207889083228
outer loop
vertex -16.70004 51.00018 10.10814
vertex 21 51.977520000000005 8.91702
vertex 21 51.00018 10.10814
endloop
endfacet
facet normal 0 0.7730699429926937 -0.6343207889083199
outer loop
vertex -16.70004 32.99982 10.10814
vertex 21 32.99982 10.10814
vertex 21 32.02248 8.91702
endloop
endfacet
facet normal 0 0.7730699429926937 -0.6343207889083199
outer loop
vertex -16.70004 32.99982 10.10814
vertex 21 32.02248 8.91702
vertex -16.70004 32.02248 8.91702
endloop
endfacet
facet normal 0 0.9569868559771777 -0.29013127629905155
outer loop
vertex 21 30.23076 4.59102
vertex -16.70004 30.23076 4.59102
vertex -16.70004 30.91326 6.84222
endloop
endfacet
facet normal 0 0.9569868559771777 -0.29013127629905155
outer loop
vertex 21 30.23076 4.59102
vertex -16.70004 30.91326 6.84222
vertex 21 30.91326 6.84222
endloop
endfacet
endsolid JSCAD
