solid csg.js
facet normal 0 -1 0
outer loop
vertex -21 0 0.75
vertex -21 0 -14.25
vertex 21 0 -14.25
endloop
endfacet
facet normal 0 -1 0
outer loop
vertex -21 0 0.75
vertex 21 0 -14.25
vertex 21 0 -12.750000000000002
endloop
endfacet
facet normal 0 -1 0
outer loop
vertex -21 0 0.75
vertex 21 0 -12.750000000000002
vertex 21 0 -12.490601285443608
endloop
endfacet
facet normal 0 -1 0
outer loop
vertex -21 0 0.75
vertex 21 0 -12.490601285443608
vertex 21 0 -11.722373688902369
endloop
endfacet
facet normal 0 -1 0
outer loop
vertex -21 0 0.75
vertex 21 0 -11.722373688902369
vertex 21 0 -10.47483976608436
endloop
endfacet
facet normal 0 -1 0
outer loop
vertex -21 0 0.75
vertex 21 0 -10.47483976608436
vertex 21 0 -8.79594154601839
endloop
endfacet
facet normal 0 -1 0
outer loop
vertex -21 0 0.75
vertex 21 0 -8.79594154601839
vertex 21 0 -6.75019814576463
endloop
endfacet
facet normal 0 -1 0
outer loop
vertex -21 0 0.75
vertex 21 0 -6.75019814576463
vertex 21 0 -4.416226336928712
endloop
endfacet
facet normal 0 -1 0
outer loop
vertex -21 0 0.75
vertex 21 0 -4.416226336928712
vertex 21 0 -1.8837193472177312
endloop
endfacet
facet normal 0 -1 0
outer loop
vertex -21 0 0.75
vertex 21 0 -1.8837193472177312
vertex 21 0 0.7500000000000003
endloop
endfacet
facet normal 0 -1 0
outer loop
vertex -21 0 0.75
vertex 21 0 0.7500000000000003
vertex 21 0 3.383719347217729
endloop
endfacet
facet normal 0 -1 0
outer loop
vertex -21 0 0.75
vertex 21 0 3.383719347217729
vertex 21 0 5.9162263369287125
endloop
endfacet
facet normal 0 -1 0
outer loop
vertex -21 0 0.75
vertex 21 0 5.9162263369287125
vertex 21 0 8.250198145764628
endloop
endfacet
facet normal 0 -1 0
outer loop
vertex -21 0 0.75
vertex 21 0 8.250198145764628
vertex 21 0 10.295941546018392
endloop
endfacet
facet normal 0 -1 0
outer loop
vertex -21 0 0.75
vertex 21 0 10.295941546018392
vertex 21 0 14.25
endloop
endfacet
facet normal 0 -1 0
outer loop
vertex -21 0 0.75
vertex 21 0 14.25
vertex -21 0 14.25
endloop
endfacet
facet normal 0 1 0
outer loop
vertex -21 55.5 -14.25
vertex -21 55.5 0.75
vertex -21 55.5 2.25
endloop
endfacet
facet normal 0 1 0
outer loop
vertex -21 55.5 -14.25
vertex -21 55.5 2.25
vertex -21 55.5 14.25
endloop
endfacet
facet normal 0 1 0
outer loop
vertex -21 55.5 -14.25
vertex -21 55.5 14.25
vertex 21 55.5 14.25
endloop
endfacet
facet normal 0 1 0
outer loop
vertex -21 55.5 -14.25
vertex 21 55.5 14.25
vertex 21 55.5 8.916842796235239
endloop
endfacet
facet normal 0 1 0
outer loop
vertex -21 55.5 -14.25
vertex 21 55.5 8.916842796235239
vertex 21 55.5 6.842201188381096
endloop
endfacet
facet normal 0 1 0
outer loop
vertex -21 55.5 -14.25
vertex 21 55.5 6.842201188381096
vertex 21 55.5 4.591083864193586
endloop
endfacet
facet normal 0 1 0
outer loop
vertex -21 55.5 -14.25
vertex 21 55.5 4.591083864193586
vertex 21 55.5 2.249999999999978
endloop
endfacet
facet normal 0 1 0
outer loop
vertex -21 55.5 -14.25
vertex 21 55.5 2.249999999999978
vertex 21 55.5 -0.0910838641935412
endloop
endfacet
facet normal 0 1 0
outer loop
vertex -21 55.5 -14.25
vertex 21 55.5 -0.0910838641935412
vertex 21 55.5 -2.342201188381115
endloop
endfacet
facet normal 0 1 0
outer loop
vertex -21 55.5 -14.25
vertex 21 55.5 -2.342201188381115
vertex 21 55.5 -4.416842796235226
endloop
endfacet
facet normal 0 1 0
outer loop
vertex -21 55.5 -14.25
vertex 21 55.5 -4.416842796235226
vertex 21 55.5 -6.235281374238552
endloop
endfacet
facet normal 0 1 0
outer loop
vertex -21 55.5 -14.25
vertex 21 55.5 -6.235281374238552
vertex 21 55.5 -7.727635347630572
endloop
endfacet
facet normal 0 1 0
outer loop
vertex -21 55.5 -14.25
vertex 21 55.5 -7.727635347630572
vertex 21 55.5 -8.836554390135435
endloop
endfacet
facet normal 0 1 0
outer loop
vertex -21 55.5 -14.25
vertex 21 55.5 -8.836554390135435
vertex 21 55.5 -9.519423364838758
endloop
endfacet
facet normal 0 1 0
outer loop
vertex -21 55.5 -14.25
vertex 21 55.5 -9.519423364838758
vertex 21 55.5 -9.749999999999995
endloop
endfacet
facet normal 0 1 0
outer loop
vertex -21 55.5 -14.25
vertex 21 55.5 -9.749999999999995
vertex 21 55.5 -10.47483976608436
endloop
endfacet
facet normal 0 1 0
outer loop
vertex -21 55.5 -14.25
vertex 21 55.5 -10.47483976608436
vertex 21 55.5 -11.722373688902369
endloop
endfacet
facet normal 0 1 0
outer loop
vertex -21 55.5 -14.25
vertex 21 55.5 -11.722373688902369
vertex 21 55.5 -12.490601285443608
endloop
endfacet
facet normal 0 1 0
outer loop
vertex -21 55.5 -14.25
vertex 21 55.5 -12.490601285443608
vertex 21 55.5 -12.750000000000002
endloop
endfacet
facet normal 0 1 0
outer loop
vertex -21 55.5 -14.25
vertex 21 55.5 -12.750000000000002
vertex 21 55.5 -14.25
endloop
endfacet
facet normal 0 0 -1
outer loop
vertex -21 0 -14.25
vertex -21 55.5 -14.25
vertex 21 55.5 -14.25
endloop
endfacet
facet normal 0 0 -1
outer loop
vertex -21 0 -14.25
vertex 21 55.5 -14.25
vertex 21 0 -14.25
endloop
endfacet
facet normal 0 0.09801714032956182 0.9951847266721968
outer loop
vertex 21 12.366280652782269 -12.490601285443608
vertex 21 15 -12.749999999999998
vertex -19.5 15 -12.750000000000002
endloop
endfacet
facet normal 0 0.09801714032956182 0.9951847266721968
outer loop
vertex 21 12.366280652782269 -12.490601285443608
vertex -19.5 15 -12.750000000000002
vertex -19.5 12.366280652782269 -12.490601285443612
endloop
endfacet
facet normal 0 0.29028467725446194 0.956940335732209
outer loop
vertex 21 9.833773663071288 -11.722373688902369
vertex 21 12.366280652782269 -12.490601285443608
vertex -19.5 12.366280652782269 -12.490601285443612
endloop
endfacet
facet normal 0 0.29028467725446194 0.956940335732209
outer loop
vertex 21 9.833773663071288 -11.722373688902369
vertex -19.5 12.366280652782269 -12.490601285443612
vertex -19.5 9.833773663071288 -11.722373688902373
endloop
endfacet
facet normal 0 0.4713967368259975 0.881921264348355
outer loop
vertex 21 7.49980185423537 -10.47483976608436
vertex 21 9.833773663071288 -11.722373688902369
vertex -19.5 9.833773663071288 -11.722373688902373
endloop
endfacet
facet normal 0 0.4713967368259975 0.881921264348355
outer loop
vertex 21 7.49980185423537 -10.47483976608436
vertex -19.5 9.833773663071288 -11.722373688902373
vertex -19.5 7.49980185423537 -10.474839766084363
endloop
endfacet
facet normal 0 0.6343932841636452 0.7730104533627373
outer loop
vertex 21 5.4540584539816095 -8.79594154601839
vertex 21 7.49980185423537 -10.47483976608436
vertex -19.5 7.49980185423537 -10.474839766084363
endloop
endfacet
facet normal 0 0.6343932841636452 0.7730104533627373
outer loop
vertex 21 5.4540584539816095 -8.79594154601839
vertex -19.5 7.49980185423537 -10.474839766084363
vertex -19.5 5.4540584539816095 -8.795941546018394
endloop
endfacet
facet normal 0 0.7730104533627361 0.6343932841636467
outer loop
vertex 21 3.7751602339156385 -6.75019814576463
vertex 21 5.4540584539816095 -8.79594154601839
vertex -19.5 5.4540584539816095 -8.795941546018394
endloop
endfacet
facet normal 0 0.7730104533627361 0.6343932841636467
outer loop
vertex 21 3.7751602339156385 -6.75019814576463
vertex -19.5 5.4540584539816095 -8.795941546018394
vertex -19.5 3.7751602339156385 -6.750198145764632
endloop
endfacet
facet normal 0 0.8819212643483549 0.4713967368259979
outer loop
vertex 21 2.527626311097629 -4.416226336928712
vertex 21 3.7751602339156385 -6.75019814576463
vertex -19.5 3.7751602339156385 -6.750198145764632
endloop
endfacet
facet normal 0 0.8819212643483549 0.4713967368259979
outer loop
vertex 21 2.527626311097629 -4.416226336928712
vertex -19.5 3.7751602339156385 -6.750198145764632
vertex -19.5 2.527626311097629 -4.416226336928713
endloop
endfacet
facet normal 0 0.956940335732209 0.29028467725446205
outer loop
vertex 21 1.75939871455639 -1.8837193472177312
vertex 21 2.527626311097629 -4.416226336928712
vertex -19.5 2.527626311097629 -4.416226336928713
endloop
endfacet
facet normal 0 0.956940335732209 0.29028467725446205
outer loop
vertex 21 1.75939871455639 -1.8837193472177312
vertex -19.5 2.527626311097629 -4.416226336928713
vertex -19.5 1.75939871455639 -1.8837193472177338
endloop
endfacet
facet normal -8.659486949744854e-19 0.9951847266721968 0.09801714032956103
outer loop
vertex -16.700000000000003 1.5 0.75
vertex 21 1.5 0.7500000000000003
vertex 21 1.75939871455639 -1.8837193472177312
endloop
endfacet
facet normal -8.659486949744854e-19 0.9951847266721968 0.09801714032956103
outer loop
vertex -16.700000000000003 1.5 0.75
vertex 21 1.75939871455639 -1.8837193472177312
vertex -19.5 1.75939871455639 -1.8837193472177338
endloop
endfacet
facet normal -8.659486949744854e-19 0.9951847266721968 0.09801714032956103
outer loop
vertex -16.700000000000003 1.5 0.75
vertex -19.5 1.75939871455639 -1.8837193472177338
vertex -19.5 1.5 0.7499999999999987
endloop
endfacet
facet normal -1 0 0
outer loop
vertex 21 28.24060128544361 -1.8837193472177307
vertex 21 28.41716046987451 -0.0910838641935412
vertex 21 28.5 0.7500000000000037
endloop
endfacet
facet normal -1 0 0
outer loop
vertex 21 28.24060128544361 -1.8837193472177307
vertex 21 28.5 0.7500000000000037
vertex -16.700000000000003 28.5 0.75
endloop
endfacet
facet normal -1 0 0
outer loop
vertex 21 28.24060128544361 -1.8837193472177307
vertex -16.700000000000003 28.5 0.75
vertex -19.5 28.5 0.7499999999999987
endloop
endfacet
facet normal -1 0 0
outer loop
vertex 21 28.24060128544361 -1.8837193472177307
vertex -19.5 28.5 0.7499999999999987
vertex -19.5 28.24060128544361 -1.8837193472177338
endloop
endfacet
facet normal 1 0 0
outer loop
vertex 21 27.47237368890237 -4.416226336928714
vertex 21 28.101522339432513 -2.342201188381115
vertex 21 28.24060128544361 -1.8837193472177307
endloop
endfacet
facet normal 1 0 0
outer loop
vertex 21 27.47237368890237 -4.416226336928714
vertex 21 28.24060128544361 -1.8837193472177307
vertex -19.5 28.24060128544361 -1.8837193472177338
endloop
endfacet
facet normal 1 0 0
outer loop
vertex 21 27.47237368890237 -4.416226336928714
vertex -19.5 28.24060128544361 -1.8837193472177338
vertex -19.5 27.47237368890237 -4.416226336928713
endloop
endfacet
facet normal 1 0 0
outer loop
vertex 21 26.224839766084365 -6.750198145764624
vertex 21 26.500068514552883 -6.235281374238552
vertex 21 27.472044184538177 -4.416842796235226
endloop
endfacet
facet normal 1 0 0
outer loop
vertex 21 26.224839766084365 -6.750198145764624
vertex 21 27.472044184538177 -4.416842796235226
vertex 21 27.47237368890237 -4.416226336928714
endloop
endfacet
facet normal 1 0 0
outer loop
vertex 21 26.224839766084365 -6.750198145764624
vertex 21 27.47237368890237 -4.416226336928714
vertex -19.5 27.47237368890237 -4.416226336928713
endloop
endfacet
facet normal 1 0 0
outer loop
vertex 21 26.224839766084365 -6.750198145764624
vertex -19.5 27.47237368890237 -4.416226336928713
vertex -19.5 26.224839766084365 -6.750198145764632
endloop
endfacet
facet normal 1 0 0
outer loop
vertex 21 24.545941546018394 -8.795941546018387
vertex 21 25.422677785146075 -7.727635347630572
vertex 21 26.224839766084365 -6.750198145764624
endloop
endfacet
facet normal 1 0 0
outer loop
vertex 21 24.545941546018394 -8.795941546018387
vertex 21 26.224839766084365 -6.750198145764624
vertex -19.5 26.224839766084365 -6.750198145764632
endloop
endfacet
facet normal 1 0 0
outer loop
vertex 21 24.545941546018394 -8.795941546018387
vertex -19.5 26.224839766084365 -6.750198145764632
vertex -19.5 24.545941546018394 -8.795941546018394
endloop
endfacet
facet normal 1 0 0
outer loop
vertex 21 22.500198145764628 -10.47483976608436
vertex 21 23.383417956224793 -9.749999999999995
vertex 21 23.664376399086972 -9.519423364838758
endloop
endfacet
facet normal 1 0 0
outer loop
vertex 21 22.500198145764628 -10.47483976608436
vertex 21 23.664376399086972 -9.519423364838758
vertex 21 24.49645465227762 -8.836554390135435
endloop
endfacet
facet normal 1 0 0
outer loop
vertex 21 22.500198145764628 -10.47483976608436
vertex 21 24.49645465227762 -8.836554390135435
vertex 21 24.545941546018394 -8.795941546018387
endloop
endfacet
facet normal 1 0 0
outer loop
vertex 21 22.500198145764628 -10.47483976608436
vertex 21 24.545941546018394 -8.795941546018387
vertex -19.5 24.545941546018394 -8.795941546018394
endloop
endfacet
facet normal 1 0 0
outer loop
vertex 21 22.500198145764628 -10.47483976608436
vertex -19.5 24.545941546018394 -8.795941546018394
vertex -19.5 22.500198145764628 -10.474839766084363
endloop
endfacet
facet normal 0 -0.47139673682599864 0.8819212643483545
outer loop
vertex 21 20.16622633692872 -11.722373688902366
vertex 21 22.500198145764628 -10.47483976608436
vertex -19.5 22.500198145764628 -10.474839766084363
endloop
endfacet
facet normal 0 -0.47139673682599864 0.8819212643483545
outer loop
vertex 21 20.16622633692872 -11.722373688902366
vertex -19.5 22.500198145764628 -10.474839766084363
vertex -19.5 20.16622633692872 -11.722373688902373
endloop
endfacet
facet normal 0 -0.29028467725446355 0.9569403357322086
outer loop
vertex 21 17.63371934721774 -12.490601285443608
vertex 21 20.16622633692872 -11.722373688902366
vertex -19.5 20.16622633692872 -11.722373688902373
endloop
endfacet
facet normal 0 -0.29028467725446355 0.9569403357322086
outer loop
vertex 21 17.63371934721774 -12.490601285443608
vertex -19.5 20.16622633692872 -11.722373688902373
vertex -19.5 17.63371934721774 -12.490601285443612
endloop
endfacet
facet normal 0 -0.09801714032956182 0.9951847266721968
outer loop
vertex 21 15 -12.749999999999998
vertex 21 17.63371934721774 -12.490601285443608
vertex -19.5 17.63371934721774 -12.490601285443612
endloop
endfacet
facet normal 0 -0.09801714032956182 0.9951847266721968
outer loop
vertex 21 15 -12.749999999999998
vertex -19.5 17.63371934721774 -12.490601285443612
vertex -19.5 15 -12.750000000000002
endloop
endfacet
facet normal 1 0 0
outer loop
vertex 21 55.5 -14.25
vertex 21 55.5 -12.750000000000002
vertex 21 15 -12.749999999999998
endloop
endfacet
facet normal 1 0 0
outer loop
vertex 21 55.5 -14.25
vertex 21 15 -12.749999999999998
vertex 21 0 -12.750000000000002
endloop
endfacet
facet normal 1 0 0
outer loop
vertex 21 55.5 -14.25
vertex 21 0 -12.750000000000002
vertex 21 0 -14.25
endloop
endfacet
facet normal 1 0 0
outer loop
vertex 21 15 -12.749999999999998
vertex 21 12.366280652782269 -12.490601285443608
vertex 21 0 -12.490601285443608
endloop
endfacet
facet normal 1 0 0
outer loop
vertex 21 15 -12.749999999999998
vertex 21 0 -12.490601285443608
vertex 21 0 -12.750000000000002
endloop
endfacet
facet normal 1 0 0
outer loop
vertex 21 55.5 -12.750000000000002
vertex 21 55.5 -12.490601285443608
vertex 21 17.63371934721774 -12.490601285443608
endloop
endfacet
facet normal 1 0 0
outer loop
vertex 21 55.5 -12.750000000000002
vertex 21 17.63371934721774 -12.490601285443608
vertex 21 15 -12.749999999999998
endloop
endfacet
facet normal 1 0 0
outer loop
vertex 21 12.366280652782269 -12.490601285443608
vertex 21 9.833773663071288 -11.722373688902369
vertex 21 0 -11.722373688902369
endloop
endfacet
facet normal 1 0 0
outer loop
vertex 21 12.366280652782269 -12.490601285443608
vertex 21 0 -11.722373688902369
vertex 21 0 -12.490601285443608
endloop
endfacet
facet normal 1 0 0
outer loop
vertex 21 55.5 -12.490601285443608
vertex 21 55.5 -11.722373688902369
vertex 21 20.16622633692872 -11.722373688902366
endloop
endfacet
facet normal 1 0 0
outer loop
vertex 21 55.5 -12.490601285443608
vertex 21 20.16622633692872 -11.722373688902366
vertex 21 17.63371934721774 -12.490601285443608
endloop
endfacet
facet normal 1 0 0
outer loop
vertex 21 9.833773663071288 -11.722373688902369
vertex 21 7.49980185423537 -10.47483976608436
vertex 21 0 -10.47483976608436
endloop
endfacet
facet normal 1 0 0
outer loop
vertex 21 9.833773663071288 -11.722373688902369
vertex 21 0 -10.47483976608436
vertex 21 0 -11.722373688902369
endloop
endfacet
facet normal 1 0 0
outer loop
vertex 21 55.5 -11.722373688902369
vertex 21 55.5 -10.47483976608436
vertex 21 22.500198145764628 -10.47483976608436
endloop
endfacet
facet normal 1 0 0
outer loop
vertex 21 55.5 -11.722373688902369
vertex 21 22.500198145764628 -10.47483976608436
vertex 21 20.16622633692872 -11.722373688902366
endloop
endfacet
facet normal 1 0 0
outer loop
vertex 21 55.5 -10.47483976608436
vertex 21 55.5 -9.749999999999995
vertex 21 42.00000000000001 -9.749999999999995
endloop
endfacet
facet normal 1 0 0
outer loop
vertex 21 55.5 -10.47483976608436
vertex 21 42.00000000000001 -9.749999999999995
vertex 21 23.383417956224793 -9.749999999999995
endloop
endfacet
facet normal 1 0 0
outer loop
vertex 21 55.5 -10.47483976608436
vertex 21 23.383417956224793 -9.749999999999995
vertex 21 22.500198145764628 -10.47483976608436
endloop
endfacet
facet normal 1 0 0
outer loop
vertex 21 42.00000000000001 -9.749999999999995
vertex 21 39.65891613580642 -9.519423364838758
vertex 21 23.664376399086972 -9.519423364838758
endloop
endfacet
facet normal 1 0 0
outer loop
vertex 21 42.00000000000001 -9.749999999999995
vertex 21 23.664376399086972 -9.519423364838758
vertex 21 23.383417956224793 -9.749999999999995
endloop
endfacet
facet normal 1 0 0
outer loop
vertex 21 55.5 -9.749999999999995
vertex 21 55.5 -9.519423364838758
vertex 21 44.341083864193536 -9.519423364838758
endloop
endfacet
facet normal 1 0 0
outer loop
vertex 21 55.5 -9.749999999999995
vertex 21 44.341083864193536 -9.519423364838758
vertex 21 42.00000000000001 -9.749999999999995
endloop
endfacet
facet normal 1 0 0
outer loop
vertex 21 39.65891613580642 -9.519423364838758
vertex 21 37.40779881161889 -8.836554390135435
vertex 21 24.49645465227762 -8.836554390135435
endloop
endfacet
facet normal 1 0 0
outer loop
vertex 21 39.65891613580642 -9.519423364838758
vertex 21 24.49645465227762 -8.836554390135435
vertex 21 23.664376399086972 -9.519423364838758
endloop
endfacet
facet normal 1 0 0
outer loop
vertex 21 55.5 -9.519423364838758
vertex 21 55.5 -8.836554390135435
vertex 21 46.592201188381104 -8.836554390135435
endloop
endfacet
facet normal 1 0 0
outer loop
vertex 21 55.5 -9.519423364838758
vertex 21 46.592201188381104 -8.836554390135435
vertex 21 44.341083864193536 -9.519423364838758
endloop
endfacet
facet normal 1 0 0
outer loop
vertex 21 7.49980185423537 -10.47483976608436
vertex 21 5.4540584539816095 -8.79594154601839
vertex 21 0 -8.79594154601839
endloop
endfacet
facet normal 1 0 0
outer loop
vertex 21 7.49980185423537 -10.47483976608436
vertex 21 0 -8.79594154601839
vertex 21 0 -10.47483976608436
endloop
endfacet
facet normal 1 0 0
outer loop
vertex 21 37.40779881161889 -8.836554390135435
vertex 21 37.33181752444739 -8.79594154601839
vertex 21 24.545941546018394 -8.795941546018387
endloop
endfacet
facet normal 1 0 0
outer loop
vertex 21 37.40779881161889 -8.836554390135435
vertex 21 24.545941546018394 -8.795941546018387
vertex 21 24.49645465227762 -8.836554390135435
endloop
endfacet
facet normal 1 0 0
outer loop
vertex 21 37.33181752444739 -8.79594154601839
vertex 21 35.333157203764806 -7.727635347630572
vertex 21 25.422677785146075 -7.727635347630572
endloop
endfacet
facet normal 1 0 0
outer loop
vertex 21 37.33181752444739 -8.79594154601839
vertex 21 25.422677785146075 -7.727635347630572
vertex 21 24.545941546018394 -8.795941546018387
endloop
endfacet
facet normal 1 0 0
outer loop
vertex 21 55.5 -8.836554390135435
vertex 21 55.5 -7.727635347630572
vertex 21 48.666842796235215 -7.727635347630572
endloop
endfacet
facet normal 1 0 0
outer loop
vertex 21 55.5 -8.836554390135435
vertex 21 48.666842796235215 -7.727635347630572
vertex 21 46.592201188381104 -8.836554390135435
endloop
endfacet
facet normal 1 0 0
outer loop
vertex 21 5.4540584539816095 -8.79594154601839
vertex 21 3.7751602339156385 -6.75019814576463
vertex 21 0 -6.75019814576463
endloop
endfacet
facet normal 1 0 0
outer loop
vertex 21 5.4540584539816095 -8.79594154601839
vertex 21 0 -6.75019814576463
vertex 21 0 -8.79594154601839
endloop
endfacet
facet normal 1 0 0
outer loop
vertex 21 35.333157203764806 -7.727635347630572
vertex 21 34.142146527250304 -6.75019814576463
vertex 21 26.224839766084365 -6.750198145764624
endloop
endfacet
facet normal 1 0 0
outer loop
vertex 21 35.333157203764806 -7.727635347630572
vertex 21 26.224839766084365 -6.750198145764624
vertex 21 25.422677785146075 -7.727635347630572
endloop
endfacet
facet normal 1 0 0
outer loop
vertex 21 34.142146527250304 -6.75019814576463
vertex 21 33.514718625761404 -6.235281374238552
vertex 21 26.500068514552883 -6.235281374238552
endloop
endfacet
facet normal 1 0 0
outer loop
vertex 21 34.142146527250304 -6.75019814576463
vertex 21 26.500068514552883 -6.235281374238552
vertex 21 26.224839766084365 -6.750198145764624
endloop
endfacet
facet normal 1 0 0
outer loop
vertex 21 55.5 -7.727635347630572
vertex 21 55.5 -6.235281374238552
vertex 21 50.48528137423857 -6.235281374238552
endloop
endfacet
facet normal 1 0 0
outer loop
vertex 21 55.5 -7.727635347630572
vertex 21 50.48528137423857 -6.235281374238552
vertex 21 48.666842796235215 -7.727635347630572
endloop
endfacet
facet normal 1 0 0
outer loop
vertex 21 33.514718625761404 -6.235281374238552
vertex 21 32.022364652369454 -4.416842796235226
vertex 21 27.472044184538177 -4.416842796235226
endloop
endfacet
facet normal 1 0 0
outer loop
vertex 21 33.514718625761404 -6.235281374238552
vertex 21 27.472044184538177 -4.416842796235226
vertex 21 26.500068514552883 -6.235281374238552
endloop
endfacet
facet normal 1 0 0
outer loop
vertex 21 55.5 -6.235281374238552
vertex 21 55.5 -4.416842796235226
vertex 21 51.977635347630546 -4.416842796235226
endloop
endfacet
facet normal 1 0 0
outer loop
vertex 21 55.5 -6.235281374238552
vertex 21 51.977635347630546 -4.416842796235226
vertex 21 50.48528137423857 -6.235281374238552
endloop
endfacet
facet normal 1 0 0
outer loop
vertex 21 3.7751602339156385 -6.75019814576463
vertex 21 2.527626311097629 -4.416226336928712
vertex 21 0 -4.416226336928712
endloop
endfacet
facet normal 1 0 0
outer loop
vertex 21 3.7751602339156385 -6.75019814576463
vertex 21 0 -4.416226336928712
vertex 21 0 -6.75019814576463
endloop
endfacet
facet normal 1 0 0
outer loop
vertex 21 32.022364652369454 -4.416842796235226
vertex 21 32.022035148005266 -4.416226336928712
vertex 21 27.47237368890237 -4.416226336928714
endloop
endfacet
facet normal 1 0 0
outer loop
vertex 21 32.022364652369454 -4.416842796235226
vertex 21 27.47237368890237 -4.416226336928714
vertex 21 27.472044184538177 -4.416842796235226
endloop
endfacet
facet normal 1 0 0
outer loop
vertex 21 32.022035148005266 -4.416226336928712
vertex 21 30.913445609864574 -2.342201188381115
vertex 21 28.101522339432513 -2.342201188381115
endloop
endfacet
facet normal 1 0 0
outer loop
vertex 21 32.022035148005266 -4.416226336928712
vertex 21 28.101522339432513 -2.342201188381115
vertex 21 27.47237368890237 -4.416226336928714
endloop
endfacet
facet normal 1 0 0
outer loop
vertex 21 55.5 -4.416842796235226
vertex 21 55.5 -2.342201188381115
vertex 21 53.08655439013544 -2.342201188381115
endloop
endfacet
facet normal 1 0 0
outer loop
vertex 21 55.5 -4.416842796235226
vertex 21 53.08655439013544 -2.342201188381115
vertex 21 51.977635347630546 -4.416842796235226
endloop
endfacet
facet normal 1 0 0
outer loop
vertex 21 2.527626311097629 -4.416226336928712
vertex 21 1.75939871455639 -1.8837193472177312
vertex 21 0 -1.8837193472177312
endloop
endfacet
facet normal 1 0 0
outer loop
vertex 21 2.527626311097629 -4.416226336928712
vertex 21 0 -1.8837193472177312
vertex 21 0 -4.416226336928712
endloop
endfacet
facet normal 1 0 0
outer loop
vertex 21 30.913445609864574 -2.342201188381115
vertex 21 30.77436666385347 -1.8837193472177312
vertex 21 28.24060128544361 -1.8837193472177307
endloop
endfacet
facet normal 1 0 0
outer loop
vertex 21 30.913445609864574 -2.342201188381115
vertex 21 28.24060128544361 -1.8837193472177307
vertex 21 28.101522339432513 -2.342201188381115
endloop
endfacet
facet normal 1 0 0
outer loop
vertex 21 30.77436666385347 -1.8837193472177312
vertex 21 30.23057663516124 -0.0910838641935412
vertex 21 28.41716046987451 -0.0910838641935412
endloop
endfacet
facet normal 1 0 0
outer loop
vertex 21 30.77436666385347 -1.8837193472177312
vertex 21 28.41716046987451 -0.0910838641935412
vertex 21 28.24060128544361 -1.8837193472177307
endloop
endfacet
facet normal 1 0 0
outer loop
vertex 21 55.5 -2.342201188381115
vertex 21 55.5 -0.0910838641935412
vertex 21 53.769423364838765 -0.0910838641935412
endloop
endfacet
facet normal 1 0 0
outer loop
vertex 21 55.5 -2.342201188381115
vertex 21 53.769423364838765 -0.0910838641935412
vertex 21 53.08655439013544 -2.342201188381115
endloop
endfacet
facet normal 1 0 0
outer loop
vertex 21 1.75939871455639 -1.8837193472177312
vertex 21 1.5 0.7500000000000003
vertex 21 0 0.7500000000000003
endloop
endfacet
facet normal 1 0 0
outer loop
vertex 21 1.75939871455639 -1.8837193472177312
vertex 21 0 0.7500000000000003
vertex 21 0 -1.8837193472177312
endloop
endfacet
facet normal 1 0 0
outer loop
vertex 21 30.23057663516124 -0.0910838641935412
vertex 21 30.147737105035752 0.7500000000000003
vertex 21 28.5 0.7500000000000037
endloop
endfacet
facet normal 1 0 0
outer loop
vertex 21 30.23057663516124 -0.0910838641935412
vertex 21 28.5 0.7500000000000037
vertex 21 28.41716046987451 -0.0910838641935412
endloop
endfacet
facet normal 1 0 0
outer loop
vertex 21 30.147737105035752 0.7500000000000003
vertex 21 30.000000000000004 2.249999999999978
vertex 21 28.352262894964255 2.249999999999978
endloop
endfacet
facet normal 1 0 0
outer loop
vertex 21 30.147737105035752 0.7500000000000003
vertex 21 28.352262894964255 2.249999999999978
vertex 21 28.5 0.7500000000000037
endloop
endfacet
facet normal 1 0 0
outer loop
vertex 21 55.5 -0.0910838641935412
vertex 21 55.5 2.249999999999978
vertex 21 54 2.249999999999978
endloop
endfacet
facet normal 1 0 0
outer loop
vertex 21 55.5 -0.0910838641935412
vertex 21 54 2.249999999999978
vertex 21 53.769423364838765 -0.0910838641935412
endloop
endfacet
facet normal 1 0 0
outer loop
vertex 21 1.5 0.7500000000000003
vertex 21 1.7593987145563883 3.383719347217729
vertex 21 0 3.383719347217729
endloop
endfacet
facet normal 1 0 0
outer loop
vertex 21 1.5 0.7500000000000003
vertex 21 0 3.383719347217729
vertex 21 0 0.7500000000000003
endloop
endfacet
facet normal 1 0 0
outer loop
vertex 21 30.000000000000004 2.249999999999978
vertex 21 30.111661609520645 3.383719347217729
vertex 21 28.24060128544361 3.383719347217729
endloop
endfacet
facet normal 1 0 0
outer loop
vertex 21 30.000000000000004 2.249999999999978
vertex 21 28.24060128544361 3.383719347217729
vertex 21 28.352262894964255 2.249999999999978
endloop
endfacet
facet normal 1 0 0
outer loop
vertex 21 30.111661609520645 3.383719347217729
vertex 21 30.230576635161242 4.591083864193586
vertex 21 27.8743512633138 4.591083864193586
endloop
endfacet
facet normal 1 0 0
outer loop
vertex 21 30.111661609520645 3.383719347217729
vertex 21 27.8743512633138 4.591083864193586
vertex 21 28.24060128544361 3.383719347217729
endloop
endfacet
facet normal 1 0 0
outer loop
vertex 21 55.5 2.249999999999978
vertex 21 55.5 4.591083864193586
vertex 21 53.769423364838744 4.591083864193586
endloop
endfacet
facet normal 1 0 0
outer loop
vertex 21 55.5 2.249999999999978
vertex 21 53.769423364838744 4.591083864193586
vertex 21 54 2.249999999999978
endloop
endfacet
facet normal 1 0 0
outer loop
vertex 21 1.7593987145563883 3.383719347217729
vertex 21 2.527626311097629 5.9162263369287125
vertex 21 0 5.9162263369287125
endloop
endfacet
facet normal 1 0 0
outer loop
vertex 21 1.7593987145563883 3.383719347217729
vertex 21 0 5.9162263369287125
vertex 21 0 3.383719347217729
endloop
endfacet
facet normal 1 0 0
outer loop
vertex 21 30.230576635161242 4.591083864193586
vertex 21 30.63255420957268 5.9162263369287125
vertex 21 27.472373688902366 5.9162263369287125
endloop
endfacet
facet normal 1 0 0
outer loop
vertex 21 30.230576635161242 4.591083864193586
vertex 21 27.472373688902366 5.9162263369287125
vertex 21 27.8743512633138 4.591083864193586
endloop
endfacet
facet normal 1 0 0
outer loop
vertex 21 30.63255420957268 5.9162263369287125
vertex 21 30.913445609864567 6.842201188381096
vertex 21 26.97742981919069 6.842201188381096
endloop
endfacet
facet normal 1 0 0
outer loop
vertex 21 30.63255420957268 5.9162263369287125
vertex 21 26.97742981919069 6.842201188381096
vertex 21 27.472373688902366 5.9162263369287125
endloop
endfacet
facet normal 1 0 0
outer loop
vertex 21 55.5 4.591083864193586
vertex 21 55.5 6.842201188381096
vertex 21 53.08655439013547 6.842201188381096
endloop
endfacet
facet normal 1 0 0
outer loop
vertex 21 55.5 4.591083864193586
vertex 21 53.08655439013547 6.842201188381096
vertex 21 53.769423364838744 4.591083864193586
endloop
endfacet
facet normal 1 0 0
outer loop
vertex 21 2.527626311097629 5.9162263369287125
vertex 21 3.7751602339156385 8.250198145764628
vertex 21 0 8.250198145764628
endloop
endfacet
facet normal 1 0 0
outer loop
vertex 21 2.527626311097629 5.9162263369287125
vertex 21 0 8.250198145764628
vertex 21 0 5.9162263369287125
endloop
endfacet
facet normal 1 0 0
outer loop
vertex 21 30.913445609864567 6.842201188381096
vertex 21 31.666035662970895 8.250198145764628
vertex 21 26.22483976608436 8.250198145764628
endloop
endfacet
facet normal 1 0 0
outer loop
vertex 21 30.913445609864567 6.842201188381096
vertex 21 26.22483976608436 8.250198145764628
vertex 21 26.97742981919069 6.842201188381096
endloop
endfacet
facet normal 1 0 0
outer loop
vertex 21 31.666035662970895 8.250198145764628
vertex 21 32.02236465236946 8.916842796235239
vertex 21 25.677738640423748 8.916842796235239
endloop
endfacet
facet normal 1 0 0
outer loop
vertex 21 31.666035662970895 8.250198145764628
vertex 21 25.677738640423748 8.916842796235239
vertex 21 26.22483976608436 8.250198145764628
endloop
endfacet
facet normal 1 0 0
outer loop
vertex 21 55.5 6.842201188381096
vertex 21 55.5 8.916842796235239
vertex 21 51.97763534763056 8.916842796235239
endloop
endfacet
facet normal 1 0 0
outer loop
vertex 21 55.5 6.842201188381096
vertex 21 51.97763534763056 8.916842796235239
vertex 21 53.08655439013547 6.842201188381096
endloop
endfacet
facet normal 1 0 0
outer loop
vertex 21 3.7751602339156385 8.250198145764628
vertex 21 5.454058453981608 10.295941546018392
vertex 21 0 10.295941546018392
endloop
endfacet
facet normal 1 0 0
outer loop
vertex 21 3.7751602339156385 8.250198145764628
vertex 21 0 10.295941546018392
vertex 21 0 8.250198145764628
endloop
endfacet
facet normal 1 0 0
outer loop
vertex 21 32.02236465236946 8.916842796235239
vertex 21 33 10.108094914062503
vertex 21 33 10.295941546018392
endloop
endfacet
facet normal 1 0 0
outer loop
vertex 21 32.02236465236946 8.916842796235239
vertex 21 33 10.295941546018392
vertex 21 24.54594154601839 10.295941546018392
endloop
endfacet
facet normal 1 0 0
outer loop
vertex 21 32.02236465236946 8.916842796235239
vertex 21 24.54594154601839 10.295941546018392
vertex 21 25.677738640423748 8.916842796235239
endloop
endfacet
facet normal 1 0 0
outer loop
vertex 21 5.454058453981608 10.295941546018392
vertex 21 6 10.743984193867897
vertex 21 6 14.25
endloop
endfacet
facet normal 1 0 0
outer loop
vertex 21 5.454058453981608 10.295941546018392
vertex 21 6 14.25
vertex 21 1.5 14.25
endloop
endfacet
facet normal 1 0 0
outer loop
vertex 21 5.454058453981608 10.295941546018392
vertex 21 1.5 14.25
vertex 21 0 14.25
endloop
endfacet
facet normal 1 0 0
outer loop
vertex 21 5.454058453981608 10.295941546018392
vertex 21 0 14.25
vertex 21 0 10.295941546018392
endloop
endfacet
facet normal 1 0 0
outer loop
vertex 21 33 10.295941546018392
vertex 21 33 14.25
vertex 21 30 14.25
endloop
endfacet
facet normal 1 0 0
outer loop
vertex 21 33 10.295941546018392
vertex 21 30 14.25
vertex 21 28.5 14.25
endloop
endfacet
facet normal 1 0 0
outer loop
vertex 21 33 10.295941546018392
vertex 21 28.5 14.25
vertex 21 24 14.25
endloop
endfacet
facet normal 1 0 0
outer loop
vertex 21 33 10.295941546018392
vertex 21 24 14.25
vertex 21 24 10.743984193867897
endloop
endfacet
facet normal 1 0 0
outer loop
vertex 21 33 10.295941546018392
vertex 21 24 10.743984193867897
vertex 21 24.54594154601839 10.295941546018392
endloop
endfacet
facet normal 1 0 0
outer loop
vertex 21 55.5 8.916842796235239
vertex 21 55.5 14.25
vertex 21 54 14.25
endloop
endfacet
facet normal 1 0 0
outer loop
vertex 21 55.5 8.916842796235239
vertex 21 54 14.25
vertex 21 51 14.25
endloop
endfacet
facet normal 1 0 0
outer loop
vertex 21 55.5 8.916842796235239
vertex 21 51 14.25
vertex 21 51 10.108094914062503
endloop
endfacet
facet normal 1 0 0
outer loop
vertex 21 55.5 8.916842796235239
vertex 21 51 10.108094914062503
vertex 21 51.97763534763056 8.916842796235239
endloop
endfacet
facet normal 0 1 0
outer loop
vertex 21 6 14.25
vertex 21 6 10.743984193867897
vertex -16.700000000000003 6 10.743984193867897
endloop
endfacet
facet normal 0 1 0
outer loop
vertex 21 6 14.25
vertex -16.700000000000003 6 10.743984193867897
vertex -16.700000000000003 6 14.25
endloop
endfacet
facet normal 0 1 0
outer loop
vertex -19.5 6 14.25
vertex -19.5 6 0.75
vertex -21 6 0.75
endloop
endfacet
facet normal 0 1 0
outer loop
vertex -19.5 6 14.25
vertex -21 6 0.75
vertex -21 6 14.25
endloop
endfacet
facet normal 0 -1 0
outer loop
vertex -19.5 24 0.75
vertex -19.5 24 14.25
vertex -21 24 14.25
endloop
endfacet
facet normal 0 -1 0
outer loop
vertex -19.5 24 0.75
vertex -21 24 14.25
vertex -21 24 2.25
endloop
endfacet
facet normal 0 -1 0
outer loop
vertex -19.5 24 0.75
vertex -21 24 2.25
vertex -21 24 0.75
endloop
endfacet
facet normal 0 -1 0
outer loop
vertex 21 24 10.743984193867897
vertex 21 24 14.25
vertex -16.700000000000003 24 14.25
endloop
endfacet
facet normal 0 -1 0
outer loop
vertex 21 24 10.743984193867897
vertex -16.700000000000003 24 14.25
vertex -16.700000000000003 24 10.743984193867897
endloop
endfacet
facet normal 0 0 1
outer loop
vertex -19.5 6 0.75
vertex -19.5 24 0.75
vertex -21 24 0.75
endloop
endfacet
facet normal 0 0 1
outer loop
vertex -19.5 6 0.75
vertex -21 24 0.75
vertex -21 6 0.75
endloop
endfacet
facet normal -1 0 0
outer loop
vertex -21 28.5 14.25
vertex -21 30 14.25
vertex -21 33 14.25
endloop
endfacet
facet normal -1 0 0
outer loop
vertex -21 28.5 14.25
vertex -21 33 14.25
vertex -21 33 2.25
endloop
endfacet
facet normal -1 0 0
outer loop
vertex -21 28.5 14.25
vertex -21 33 2.25
vertex -21 24 2.25
endloop
endfacet
facet normal -1 0 0
outer loop
vertex -21 28.5 14.25
vertex -21 24 2.25
vertex -21 24 14.25
endloop
endfacet
facet normal -1 0 0
outer loop
vertex -21 54 14.25
vertex -21 55.5 14.25
vertex -21 55.5 2.25
endloop
endfacet
facet normal -1 0 0
outer loop
vertex -21 54 14.25
vertex -21 55.5 2.25
vertex -21 51 2.25
endloop
endfacet
facet normal -1 0 0
outer loop
vertex -21 54 14.25
vertex -21 51 2.25
vertex -21 51 14.25
endloop
endfacet
facet normal -1 0 0
outer loop
vertex -21 1.5 14.25
vertex -21 6 14.25
vertex -21 6 0.75
endloop
endfacet
facet normal -1 0 0
outer loop
vertex -21 1.5 14.25
vertex -21 6 0.75
vertex -21 0 0.75
endloop
endfacet
facet normal -1 0 0
outer loop
vertex -21 1.5 14.25
vertex -21 0 0.75
vertex -21 0 14.25
endloop
endfacet
facet normal -1 0 0
outer loop
vertex -21 33 2.25
vertex -21 51 2.25
vertex -21 55.5 2.25
endloop
endfacet
facet normal -1 0 0
outer loop
vertex -21 33 2.25
vertex -21 55.5 2.25
vertex -21 55.5 0.75
endloop
endfacet
facet normal -1 0 0
outer loop
vertex -21 33 2.25
vertex -21 55.5 0.75
vertex -21 24 0.75
endloop
endfacet
facet normal -1 0 0
outer loop
vertex -21 33 2.25
vertex -21 24 0.75
vertex -21 24 2.25
endloop
endfacet
facet normal -1 0 0
outer loop
vertex -21 6 0.75
vertex -21 24 0.75
vertex -21 55.5 0.75
endloop
endfacet
facet normal -1 0 0
outer loop
vertex -21 6 0.75
vertex -21 55.5 0.75
vertex -21 55.5 -14.25
endloop
endfacet
facet normal -1 0 0
outer loop
vertex -21 6 0.75
vertex -21 55.5 -14.25
vertex -21 0 -14.25
endloop
endfacet
facet normal -1 0 0
outer loop
vertex -21 6 0.75
vertex -21 0 -14.25
vertex -21 0 0.75
endloop
endfacet
facet normal 1 0 0
outer loop
vertex -19.5 17.63371934721774 -12.490601285443612
vertex -19.5 20.16622633692872 -11.722373688902373
vertex -19.5 22.500198145764628 -10.474839766084363
endloop
endfacet
facet normal 1 0 0
outer loop
vertex -19.5 17.63371934721774 -12.490601285443612
vertex -19.5 22.500198145764628 -10.474839766084363
vertex -19.5 24.545941546018394 -8.795941546018394
endloop
endfacet
facet normal 1 0 0
outer loop
vertex -19.5 17.63371934721774 -12.490601285443612
vertex -19.5 24.545941546018394 -8.795941546018394
vertex -19.5 26.224839766084365 -6.750198145764632
endloop
endfacet
facet normal 1 0 0
outer loop
vertex -19.5 17.63371934721774 -12.490601285443612
vertex -19.5 26.224839766084365 -6.750198145764632
vertex -19.5 27.47237368890237 -4.416226336928713
endloop
endfacet
facet normal 1 0 0
outer loop
vertex -19.5 17.63371934721774 -12.490601285443612
vertex -19.5 27.47237368890237 -4.416226336928713
vertex -19.5 28.24060128544361 -1.8837193472177338
endloop
endfacet
facet normal 1 0 0
outer loop
vertex -19.5 17.63371934721774 -12.490601285443612
vertex -19.5 28.24060128544361 -1.8837193472177338
vertex -19.5 28.5 0.7499999999999987
endloop
endfacet
facet normal 1 0 0
outer loop
vertex -19.5 17.63371934721774 -12.490601285443612
vertex -19.5 28.5 0.7499999999999987
vertex -19.5 24 0.75
endloop
endfacet
facet normal 1 0 0
outer loop
vertex -19.5 17.63371934721774 -12.490601285443612
vertex -19.5 24 0.75
vertex -19.5 6 0.75
endloop
endfacet
facet normal 1 0 0
outer loop
vertex -19.5 17.63371934721774 -12.490601285443612
vertex -19.5 6 0.75
vertex -19.5 1.5 0.7499999999999987
endloop
endfacet
facet normal 1 0 0
outer loop
vertex -19.5 17.63371934721774 -12.490601285443612
vertex -19.5 1.5 0.7499999999999987
vertex -19.5 1.75939871455639 -1.8837193472177338
endloop
endfacet
facet normal 1 0 0
outer loop
vertex -19.5 17.63371934721774 -12.490601285443612
vertex -19.5 1.75939871455639 -1.8837193472177338
vertex -19.5 2.527626311097629 -4.416226336928713
endloop
endfacet
facet normal 1 0 0
outer loop
vertex -19.5 17.63371934721774 -12.490601285443612
vertex -19.5 2.527626311097629 -4.416226336928713
vertex -19.5 3.7751602339156385 -6.750198145764632
endloop
endfacet
facet normal 1 0 0
outer loop
vertex -19.5 17.63371934721774 -12.490601285443612
vertex -19.5 3.7751602339156385 -6.750198145764632
vertex -19.5 5.4540584539816095 -8.795941546018394
endloop
endfacet
facet normal 1 0 0
outer loop
vertex -19.5 17.63371934721774 -12.490601285443612
vertex -19.5 5.4540584539816095 -8.795941546018394
vertex -19.5 7.49980185423537 -10.474839766084363
endloop
endfacet
facet normal 1 0 0
outer loop
vertex -19.5 17.63371934721774 -12.490601285443612
vertex -19.5 7.49980185423537 -10.474839766084363
vertex -19.5 9.833773663071288 -11.722373688902373
endloop
endfacet
facet normal 1 0 0
outer loop
vertex -19.5 17.63371934721774 -12.490601285443612
vertex -19.5 9.833773663071288 -11.722373688902373
vertex -19.5 12.366280652782269 -12.490601285443612
endloop
endfacet
facet normal 1 0 0
outer loop
vertex -19.5 17.63371934721774 -12.490601285443612
vertex -19.5 12.366280652782269 -12.490601285443612
vertex -19.5 15 -12.750000000000002
endloop
endfacet
facet normal 1 0 0
outer loop
vertex -19.5 44.34108386419354 -9.519423364838767
vertex -19.5 46.59220118838108 -8.836554390135442
vertex -19.5 48.66684279623523 -7.727635347630544
endloop
endfacet
facet normal 1 0 0
outer loop
vertex -19.5 44.34108386419354 -9.519423364838767
vertex -19.5 48.66684279623523 -7.727635347630544
vertex -19.5 50.48528137423857 -6.235281374238573
endloop
endfacet
facet normal 1 0 0
outer loop
vertex -19.5 44.34108386419354 -9.519423364838767
vertex -19.5 50.48528137423857 -6.235281374238573
vertex -19.5 51.977635347630546 -4.416842796235229
endloop
endfacet
facet normal 1 0 0
outer loop
vertex -19.5 44.34108386419354 -9.519423364838767
vertex -19.5 51.977635347630546 -4.416842796235229
vertex -19.5 53.08655439013544 -2.342201188381079
endloop
endfacet
facet normal 1 0 0
outer loop
vertex -19.5 44.34108386419354 -9.519423364838767
vertex -19.5 53.08655439013544 -2.342201188381079
vertex -19.5 53.769423364838765 -0.09108386419354142
endloop
endfacet
facet normal 1 0 0
outer loop
vertex -19.5 44.34108386419354 -9.519423364838767
vertex -19.5 53.769423364838765 -0.09108386419354142
vertex -19.5 54 2.2499999999999987
endloop
endfacet
facet normal 1 0 0
outer loop
vertex -19.5 44.34108386419354 -9.519423364838767
vertex -19.5 54 2.2499999999999987
vertex -19.5 51 2.2499999999999987
endloop
endfacet
facet normal 1 0 0
outer loop
vertex -19.5 44.34108386419354 -9.519423364838767
vertex -19.5 51 2.2499999999999987
vertex -19.5 33 2.2499999999999987
endloop
endfacet
facet normal 1 0 0
outer loop
vertex -19.5 44.34108386419354 -9.519423364838767
vertex -19.5 33 2.2499999999999987
vertex -19.5 30 2.2499999999999987
endloop
endfacet
facet normal 1 0 0
outer loop
vertex -19.5 44.34108386419354 -9.519423364838767
vertex -19.5 30 2.2499999999999987
vertex -19.5 30.230576635161235 -0.09108386419354142
endloop
endfacet
facet normal 1 0 0
outer loop
vertex -19.5 44.34108386419354 -9.519423364838767
vertex -19.5 30.230576635161235 -0.09108386419354142
vertex -19.5 30.91344560986456 -2.342201188381079
endloop
endfacet
facet normal 1 0 0
outer loop
vertex -19.5 44.34108386419354 -9.519423364838767
vertex -19.5 30.91344560986456 -2.342201188381079
vertex -19.5 32.02236465236946 -4.416842796235229
endloop
endfacet
facet normal 1 0 0
outer loop
vertex -19.5 44.34108386419354 -9.519423364838767
vertex -19.5 32.02236465236946 -4.416842796235229
vertex -19.5 33.51471862576143 -6.235281374238573
endloop
endfacet
facet normal 1 0 0
outer loop
vertex -19.5 44.34108386419354 -9.519423364838767
vertex -19.5 33.51471862576143 -6.235281374238573
vertex -19.5 35.33315720376477 -7.727635347630544
endloop
endfacet
facet normal 1 0 0
outer loop
vertex -19.5 44.34108386419354 -9.519423364838767
vertex -19.5 35.33315720376477 -7.727635347630544
vertex -19.5 37.407798811618925 -8.836554390135442
endloop
endfacet
facet normal 1 0 0
outer loop
vertex -19.5 44.34108386419354 -9.519423364838767
vertex -19.5 37.407798811618925 -8.836554390135442
vertex -19.5 39.658916135806464 -9.519423364838767
endloop
endfacet
facet normal 1 0 0
outer loop
vertex -19.5 44.34108386419354 -9.519423364838767
vertex -19.5 39.658916135806464 -9.519423364838767
vertex -19.5 42 -9.750000000000002
endloop
endfacet
facet normal 1 0 0
outer loop
vertex -19.5 6 0.75
vertex -19.5 6 14.25
vertex -19.5 1.5 14.25
endloop
endfacet
facet normal 1 0 0
outer loop
vertex -19.5 6 0.75
vertex -19.5 1.5 14.25
vertex -19.5 1.5 0.7499999999999987
endloop
endfacet
facet normal 1 0 0
outer loop
vertex -19.5 28.5 0.7499999999999987
vertex -19.5 28.5 14.25
vertex -19.5 24 14.25
endloop
endfacet
facet normal 1 0 0
outer loop
vertex -19.5 28.5 0.7499999999999987
vertex -19.5 24 14.25
vertex -19.5 24 0.75
endloop
endfacet
facet normal 1 0 0
outer loop
vertex -19.5 33 2.2499999999999987
vertex -19.5 33 14.25
vertex -19.5 30 14.25
endloop
endfacet
facet normal 1 0 0
outer loop
vertex -19.5 33 2.2499999999999987
vertex -19.5 30 14.25
vertex -19.5 30 2.2499999999999987
endloop
endfacet
facet normal 1 0 0
outer loop
vertex -19.5 54 2.2499999999999987
vertex -19.5 54 14.25
vertex -19.5 51 14.25
endloop
endfacet
facet normal 1 0 0
outer loop
vertex -19.5 54 2.2499999999999987
vertex -19.5 51 14.25
vertex -19.5 51 2.2499999999999987
endloop
endfacet
facet normal 0 1 0
outer loop
vertex -19.5 1.5 14.25
vertex -16.700000000000003 1.5 14.25
vertex -16.700000000000003 1.5 10.2959415460184
endloop
endfacet
facet normal 0 1 0
outer loop
vertex -19.5 1.5 14.25
vertex -16.700000000000003 1.5 10.2959415460184
vertex -16.700000000000003 1.5 8.250198145764614
endloop
endfacet
facet normal 0 1 0
outer loop
vertex -19.5 1.5 14.25
vertex -16.700000000000003 1.5 8.250198145764614
vertex -16.700000000000003 1.5 5.91622633692872
endloop
endfacet
facet normal 0 1 0
outer loop
vertex -19.5 1.5 14.25
vertex -16.700000000000003 1.5 5.91622633692872
vertex -16.700000000000003 1.5 3.3837193472177294
endloop
endfacet
facet normal 0 1 0
outer loop
vertex -19.5 1.5 14.25
vertex -16.700000000000003 1.5 3.3837193472177294
vertex -16.700000000000003 1.5 0.75
endloop
endfacet
facet normal 0 1 0
outer loop
vertex -19.5 1.5 14.25
vertex -16.700000000000003 1.5 0.75
vertex -19.5 1.5 0.7499999999999987
endloop
endfacet
facet normal 0 -1 0
outer loop
vertex -16.700000000000003 28.5 0.75
vertex -16.700000000000003 28.5 3.3837193472177294
vertex -16.700000000000003 28.5 5.91622633692872
endloop
endfacet
facet normal 0 -1 0
outer loop
vertex -16.700000000000003 28.5 0.75
vertex -16.700000000000003 28.5 5.91622633692872
vertex -16.700000000000003 28.5 8.250198145764614
endloop
endfacet
facet normal 0 -1 0
outer loop
vertex -16.700000000000003 28.5 0.75
vertex -16.700000000000003 28.5 8.250198145764614
vertex -16.700000000000003 28.5 10.2959415460184
endloop
endfacet
facet normal 0 -1 0
outer loop
vertex -16.700000000000003 28.5 0.75
vertex -16.700000000000003 28.5 10.2959415460184
vertex -16.700000000000003 28.5 14.25
endloop
endfacet
facet normal 0 -1 0
outer loop
vertex -16.700000000000003 28.5 0.75
vertex -16.700000000000003 28.5 14.25
vertex -19.5 28.5 14.25
endloop
endfacet
facet normal 0 -1 0
outer loop
vertex -16.700000000000003 28.5 0.75
vertex -19.5 28.5 14.25
vertex -19.5 28.5 0.7499999999999987
endloop
endfacet
facet normal -1 0 0
outer loop
vertex -16.700000000000003 6 14.25
vertex -16.700000000000003 6 10.743984193867897
vertex -16.700000000000003 5.454058453981617 10.2959415460184
endloop
endfacet
facet normal -1 0 0
outer loop
vertex -16.700000000000003 6 14.25
vertex -16.700000000000003 5.454058453981617 10.2959415460184
vertex -16.700000000000003 1.5 10.2959415460184
endloop
endfacet
facet normal -1 0 0
outer loop
vertex -16.700000000000003 6 14.25
vertex -16.700000000000003 1.5 10.2959415460184
vertex -16.700000000000003 1.5 14.25
endloop
endfacet
facet normal -1 0 0
outer loop
vertex -16.700000000000003 28.5 14.25
vertex -16.700000000000003 28.5 10.2959415460184
vertex -16.700000000000003 24.54594154601836 10.2959415460184
endloop
endfacet
facet normal -1 0 0
outer loop
vertex -16.700000000000003 28.5 14.25
vertex -16.700000000000003 24.54594154601836 10.2959415460184
vertex -16.700000000000003 24 10.743984193867897
endloop
endfacet
facet normal -1 0 0
outer loop
vertex -16.700000000000003 28.5 14.25
vertex -16.700000000000003 24 10.743984193867897
vertex -16.700000000000003 24 14.25
endloop
endfacet
facet normal -1 0 0
outer loop
vertex -16.700000000000003 33 14.25
vertex -16.700000000000003 33 10.108094914062473
vertex -16.700000000000003 32.02236465236946 8.916842796235244
endloop
endfacet
facet normal -1 0 0
outer loop
vertex -16.700000000000003 33 14.25
vertex -16.700000000000003 32.02236465236946 8.916842796235244
vertex -16.700000000000003 30 8.916842796235244
endloop
endfacet
facet normal -1 0 0
outer loop
vertex -16.700000000000003 33 14.25
vertex -16.700000000000003 30 8.916842796235244
vertex -16.700000000000003 30 14.25
endloop
endfacet
facet normal -1 0 0
outer loop
vertex -16.700000000000003 54 14.25
vertex -16.700000000000003 54 8.916842796235244
vertex -16.700000000000003 51.977635347630574 8.916842796235244
endloop
endfacet
facet normal -1 0 0
outer loop
vertex -16.700000000000003 54 14.25
vertex -16.700000000000003 51.977635347630574 8.916842796235244
vertex -16.700000000000003 51 10.108094914062473
endloop
endfacet
facet normal -1 0 0
outer loop
vertex -16.700000000000003 54 14.25
vertex -16.700000000000003 51 10.108094914062473
vertex -16.700000000000003 51 14.25
endloop
endfacet
facet normal -1 0 0
outer loop
vertex -16.700000000000003 5.454058453981617 10.2959415460184
vertex -16.700000000000003 3.775160233915632 8.250198145764614
vertex -16.700000000000003 1.5 8.250198145764614
endloop
endfacet
facet normal -1 0 0
outer loop
vertex -16.700000000000003 5.454058453981617 10.2959415460184
vertex -16.700000000000003 1.5 8.250198145764614
vertex -16.700000000000003 1.5 10.2959415460184
endloop
endfacet
facet normal -1 0 0
outer loop
vertex -16.700000000000003 28.5 10.2959415460184
vertex -16.700000000000003 28.5 8.250198145764614
vertex -16.700000000000003 26.224839766084376 8.250198145764614
endloop
endfacet
facet normal -1 0 0
outer loop
vertex -16.700000000000003 28.5 10.2959415460184
vertex -16.700000000000003 26.224839766084376 8.250198145764614
vertex -16.700000000000003 24.54594154601836 10.2959415460184
endloop
endfacet
facet normal -1 0 0
outer loop
vertex -16.700000000000003 32.02236465236946 8.916842796235244
vertex -16.700000000000003 30.91344560986456 6.84220118838109
vertex -16.700000000000003 30 6.84220118838109
endloop
endfacet
facet normal -1 0 0
outer loop
vertex -16.700000000000003 32.02236465236946 8.916842796235244
vertex -16.700000000000003 30 6.84220118838109
vertex -16.700000000000003 30 8.916842796235244
endloop
endfacet
facet normal -1 0 0
outer loop
vertex -16.700000000000003 54 8.916842796235244
vertex -16.700000000000003 54 6.84220118838109
vertex -16.700000000000003 53.08655439013543 6.84220118838109
endloop
endfacet
facet normal -1 0 0
outer loop
vertex -16.700000000000003 54 8.916842796235244
vertex -16.700000000000003 53.08655439013543 6.84220118838109
vertex -16.700000000000003 51.977635347630574 8.916842796235244
endloop
endfacet
facet normal -1 0 0
outer loop
vertex -16.700000000000003 3.775160233915632 8.250198145764614
vertex -16.700000000000003 2.5276263110976323 5.91622633692872
vertex -16.700000000000003 1.5 5.91622633692872
endloop
endfacet
facet normal -1 0 0
outer loop
vertex -16.700000000000003 3.775160233915632 8.250198145764614
vertex -16.700000000000003 1.5 5.91622633692872
vertex -16.700000000000003 1.5 8.250198145764614
endloop
endfacet
facet normal -1 0 0
outer loop
vertex -16.700000000000003 28.5 8.250198145764614
vertex -16.700000000000003 28.5 5.91622633692872
vertex -16.700000000000003 27.472373688902355 5.91622633692872
endloop
endfacet
facet normal -1 0 0
outer loop
vertex -16.700000000000003 28.5 8.250198145764614
vertex -16.700000000000003 27.472373688902355 5.91622633692872
vertex -16.700000000000003 26.224839766084376 8.250198145764614
endloop
endfacet
facet normal -1 0 0
outer loop
vertex -16.700000000000003 30.91344560986456 6.84220118838109
vertex -16.700000000000003 30.230576635161242 4.5910838641935925
vertex -16.700000000000003 30 4.5910838641935925
endloop
endfacet
facet normal -1 0 0
outer loop
vertex -16.700000000000003 30.91344560986456 6.84220118838109
vertex -16.700000000000003 30 4.5910838641935925
vertex -16.700000000000003 30 6.84220118838109
endloop
endfacet
facet normal -1 0 0
outer loop
vertex -16.700000000000003 54 6.84220118838109
vertex -16.700000000000003 54 4.5910838641935925
vertex -16.700000000000003 53.76942336483876 4.5910838641935925
endloop
endfacet
facet normal -1 0 0
outer loop
vertex -16.700000000000003 54 6.84220118838109
vertex -16.700000000000003 53.76942336483876 4.5910838641935925
vertex -16.700000000000003 53.08655439013543 6.84220118838109
endloop
endfacet
facet normal -1 0 0
outer loop
vertex -16.700000000000003 2.5276263110976323 5.91622633692872
vertex -16.700000000000003 1.759398714556391 3.3837193472177294
vertex -16.700000000000003 1.5 3.3837193472177294
endloop
endfacet
facet normal -1 0 0
outer loop
vertex -16.700000000000003 2.5276263110976323 5.91622633692872
vertex -16.700000000000003 1.5 3.3837193472177294
vertex -16.700000000000003 1.5 5.91622633692872
endloop
endfacet
facet normal -1 0 0
outer loop
vertex -16.700000000000003 28.5 5.91622633692872
vertex -16.700000000000003 28.5 3.3837193472177294
vertex -16.700000000000003 28.24060128544361 3.3837193472177294
endloop
endfacet
facet normal -1 0 0
outer loop
vertex -16.700000000000003 28.5 5.91622633692872
vertex -16.700000000000003 28.24060128544361 3.3837193472177294
vertex -16.700000000000003 27.472373688902355 5.91622633692872
endloop
endfacet
facet normal -1 0 0
outer loop
vertex -16.700000000000003 30.230576635161242 4.5910838641935925
vertex -16.700000000000003 30 2.25
vertex -16.700000000000003 30 4.5910838641935925
endloop
endfacet
facet normal -1 0 0
outer loop
vertex -16.700000000000003 54 4.5910838641935925
vertex -16.700000000000003 54 2.25
vertex -16.700000000000003 53.76942336483876 4.5910838641935925
endloop
endfacet
facet normal -1 0 0
outer loop
vertex -16.700000000000003 1.759398714556391 3.3837193472177294
vertex -16.700000000000003 1.5 0.75
vertex -16.700000000000003 1.5 3.3837193472177294
endloop
endfacet
facet normal -1 0 0
outer loop
vertex -16.700000000000003 28.5 3.3837193472177294
vertex -16.700000000000003 28.5 0.75
vertex -16.700000000000003 28.24060128544361 3.3837193472177294
endloop
endfacet
facet normal 0 0.9951847266721969 -0.09801714032956002
outer loop
vertex -16.700000000000003 1.759398714556391 3.3837193472177294
vertex 21 1.7593987145563883 3.383719347217729
vertex 21 1.5 0.7500000000000003
endloop
endfacet
facet normal 0 0.9951847266721969 -0.09801714032956002
outer loop
vertex -16.700000000000003 1.759398714556391 3.3837193472177294
vertex 21 1.5 0.7500000000000003
vertex -16.700000000000003 1.5 0.75
endloop
endfacet
facet normal 0 0.9569403357322089 -0.29028467725446216
outer loop
vertex -16.700000000000003 2.5276263110976323 5.91622633692872
vertex 21 2.527626311097629 5.9162263369287125
vertex 21 1.7593987145563883 3.383719347217729
endloop
endfacet
facet normal 0 0.9569403357322089 -0.29028467725446216
outer loop
vertex -16.700000000000003 2.5276263110976323 5.91622633692872
vertex 21 1.7593987145563883 3.383719347217729
vertex -16.700000000000003 1.759398714556391 3.3837193472177294
endloop
endfacet
facet normal 0 0.8819212643483549 -0.4713967368259979
outer loop
vertex -16.700000000000003 3.775160233915632 8.250198145764614
vertex 21 3.7751602339156385 8.250198145764628
vertex 21 2.527626311097629 5.9162263369287125
endloop
endfacet
facet normal 0 0.8819212643483549 -0.4713967368259979
outer loop
vertex -16.700000000000003 3.775160233915632 8.250198145764614
vertex 21 2.527626311097629 5.9162263369287125
vertex -16.700000000000003 2.5276263110976323 5.91622633692872
endloop
endfacet
facet normal 0 0.7730104533627373 -0.6343932841636452
outer loop
vertex -16.700000000000003 5.454058453981617 10.2959415460184
vertex 21 5.454058453981608 10.295941546018392
vertex 21 3.7751602339156385 8.250198145764628
endloop
endfacet
facet normal 0 0.7730104533627373 -0.6343932841636452
outer loop
vertex -16.700000000000003 5.454058453981617 10.2959415460184
vertex 21 3.7751602339156385 8.250198145764628
vertex -16.700000000000003 3.775160233915632 8.250198145764614
endloop
endfacet
facet normal -5.2251152586761025e-17 -0.7730104533627378 -0.6343932841636444
outer loop
vertex -16.700000000000003 26.224839766084376 8.250198145764614
vertex 21 26.22483976608436 8.250198145764628
vertex 21 25.677738640423748 8.916842796235239
endloop
endfacet
facet normal -5.2251152586761025e-17 -0.7730104533627378 -0.6343932841636444
outer loop
vertex -16.700000000000003 26.224839766084376 8.250198145764614
vertex 21 25.677738640423748 8.916842796235239
vertex 21 24.54594154601839 10.295941546018392
endloop
endfacet
facet normal -5.2251152586761025e-17 -0.7730104533627378 -0.6343932841636444
outer loop
vertex -16.700000000000003 26.224839766084376 8.250198145764614
vertex 21 24.54594154601839 10.295941546018392
vertex -16.700000000000003 24.54594154601836 10.2959415460184
endloop
endfacet
facet normal 1.6048185539254755e-16 -0.881921264348356 -0.4713967368259954
outer loop
vertex -16.700000000000003 27.472373688902355 5.91622633692872
vertex 21 27.472373688902366 5.9162263369287125
vertex 21 26.97742981919069 6.842201188381096
endloop
endfacet
facet normal 1.6048185539254755e-16 -0.881921264348356 -0.4713967368259954
outer loop
vertex -16.700000000000003 27.472373688902355 5.91622633692872
vertex 21 26.97742981919069 6.842201188381096
vertex 21 26.22483976608436 8.250198145764628
endloop
endfacet
facet normal 1.6048185539254755e-16 -0.881921264348356 -0.4713967368259954
outer loop
vertex -16.700000000000003 27.472373688902355 5.91622633692872
vertex 21 26.22483976608436 8.250198145764628
vertex -16.700000000000003 26.224839766084376 8.250198145764614
endloop
endfacet
facet normal -3.419424216273606e-18 -0.9569403357322086 -0.2902846772544631
outer loop
vertex -16.700000000000003 28.24060128544361 3.3837193472177294
vertex 21 28.24060128544361 3.383719347217729
vertex 21 27.8743512633138 4.591083864193586
endloop
endfacet
facet normal -3.419424216273606e-18 -0.9569403357322086 -0.2902846772544631
outer loop
vertex -16.700000000000003 28.24060128544361 3.3837193472177294
vertex 21 27.8743512633138 4.591083864193586
vertex 21 27.472373688902366 5.9162263369287125
endloop
endfacet
facet normal -3.419424216273606e-18 -0.9569403357322086 -0.2902846772544631
outer loop
vertex -16.700000000000003 28.24060128544361 3.3837193472177294
vertex 21 27.472373688902366 5.9162263369287125
vertex -16.700000000000003 27.472373688902355 5.91622633692872
endloop
endfacet
facet normal 9.525435644719356e-18 -0.9951847266721968 -0.09801714032956121
outer loop
vertex -16.700000000000003 28.5 0.75
vertex 21 28.5 0.7500000000000037
vertex 21 28.352262894964255 2.249999999999978
endloop
endfacet
facet normal 9.525435644719356e-18 -0.9951847266721968 -0.09801714032956121
outer loop
vertex -16.700000000000003 28.5 0.75
vertex 21 28.352262894964255 2.249999999999978
vertex 21 28.24060128544361 3.383719347217729
endloop
endfacet
facet normal 9.525435644719356e-18 -0.9951847266721968 -0.09801714032956121
outer loop
vertex -16.700000000000003 28.5 0.75
vertex 21 28.24060128544361 3.383719347217729
vertex -16.700000000000003 28.24060128544361 3.3837193472177294
endloop
endfacet
facet normal 0 0 1
outer loop
vertex 21 0 14.25
vertex 21 1.5 14.25
vertex -16.700000000000003 1.5 14.25
endloop
endfacet
facet normal 0 0 1
outer loop
vertex 21 0 14.25
vertex -16.700000000000003 1.5 14.25
vertex -19.5 1.5 14.25
endloop
endfacet
facet normal 0 0 1
outer loop
vertex 21 0 14.25
vertex -19.5 1.5 14.25
vertex -21 1.5 14.25
endloop
endfacet
facet normal 0 0 1
outer loop
vertex 21 0 14.25
vertex -21 1.5 14.25
vertex -21 0 14.25
endloop
endfacet
facet normal 0 0 1
outer loop
vertex -19.5 1.5 14.25
vertex -19.5 6 14.25
vertex -21 6 14.25
endloop
endfacet
facet normal 0 0 1
outer loop
vertex -19.5 1.5 14.25
vertex -21 6 14.25
vertex -21 1.5 14.25
endloop
endfacet
facet normal 0 0 1
outer loop
vertex 21 1.5 14.25
vertex 21 6 14.25
vertex -16.700000000000003 6 14.25
endloop
endfacet
facet normal 0 0 1
outer loop
vertex 21 1.5 14.25
vertex -16.700000000000003 6 14.25
vertex -16.700000000000003 1.5 14.25
endloop
endfacet
facet normal 0 0 1
outer loop
vertex -19.5 24 14.25
vertex -19.5 28.5 14.25
vertex -21 28.5 14.25
endloop
endfacet
facet normal 0 0 1
outer loop
vertex -19.5 24 14.25
vertex -21 28.5 14.25
vertex -21 24 14.25
endloop
endfacet
facet normal 0 0 1
outer loop
vertex 21 24 14.25
vertex 21 28.5 14.25
vertex -16.700000000000003 28.5 14.25
endloop
endfacet
facet normal 0 0 1
outer loop
vertex 21 24 14.25
vertex -16.700000000000003 28.5 14.25
vertex -16.700000000000003 24 14.25
endloop
endfacet
facet normal 0 0 1
outer loop
vertex -19.5 28.5 14.25
vertex -16.700000000000003 28.5 14.25
vertex 21 28.5 14.25
endloop
endfacet
facet normal 0 0 1
outer loop
vertex -19.5 28.5 14.25
vertex 21 28.5 14.25
vertex 21 30 14.25
endloop
endfacet
facet normal 0 0 1
outer loop
vertex -19.5 28.5 14.25
vertex 21 30 14.25
vertex -16.700000000000003 30 14.25
endloop
endfacet
facet normal 0 0 1
outer loop
vertex -19.5 28.5 14.25
vertex -16.700000000000003 30 14.25
vertex -19.5 30 14.25
endloop
endfacet
facet normal 0 0 1
outer loop
vertex -19.5 28.5 14.25
vertex -19.5 30 14.25
vertex -21 30 14.25
endloop
endfacet
facet normal 0 0 1
outer loop
vertex -19.5 28.5 14.25
vertex -21 30 14.25
vertex -21 28.5 14.25
endloop
endfacet
facet normal 0 0 1
outer loop
vertex -19.5 30 14.25
vertex -19.5 33 14.25
vertex -21 33 14.25
endloop
endfacet
facet normal 0 0 1
outer loop
vertex -19.5 30 14.25
vertex -21 33 14.25
vertex -21 30 14.25
endloop
endfacet
facet normal 0 0 1
outer loop
vertex 21 30 14.25
vertex 21 33 14.25
vertex -16.700000000000003 33 14.25
endloop
endfacet
facet normal 0 0 1
outer loop
vertex 21 30 14.25
vertex -16.700000000000003 33 14.25
vertex -16.700000000000003 30 14.25
endloop
endfacet
facet normal 0 0 1
outer loop
vertex -19.5 51 14.25
vertex -19.5 54 14.25
vertex -21 54 14.25
endloop
endfacet
facet normal 0 0 1
outer loop
vertex -19.5 51 14.25
vertex -21 54 14.25
vertex -21 51 14.25
endloop
endfacet
facet normal 0 0 1
outer loop
vertex 21 51 14.25
vertex 21 54 14.25
vertex -16.700000000000003 54 14.25
endloop
endfacet
facet normal 0 0 1
outer loop
vertex 21 51 14.25
vertex -16.700000000000003 54 14.25
vertex -16.700000000000003 51 14.25
endloop
endfacet
facet normal 0 0 1
outer loop
vertex -19.5 54 14.25
vertex -16.700000000000003 54 14.25
vertex 21 54 14.25
endloop
endfacet
facet normal 0 0 1
outer loop
vertex -19.5 54 14.25
vertex 21 54 14.25
vertex 21 55.5 14.25
endloop
endfacet
facet normal 0 0 1
outer loop
vertex -19.5 54 14.25
vertex 21 55.5 14.25
vertex -21 55.5 14.25
endloop
endfacet
facet normal 0 0 1
outer loop
vertex -19.5 54 14.25
vertex -21 55.5 14.25
vertex -21 54 14.25
endloop
endfacet
facet normal 0 0.6343932841636452 -0.7730104533627373
outer loop
vertex -16.700000000000003 6 10.743984193867897
vertex 21 6 10.743984193867897
vertex 21 5.454058453981608 10.295941546018392
endloop
endfacet
facet normal 0 0.6343932841636452 -0.7730104533627373
outer loop
vertex -16.700000000000003 6 10.743984193867897
vertex 21 5.454058453981608 10.295941546018392
vertex -16.700000000000003 5.454058453981617 10.2959415460184
endloop
endfacet
facet normal 0 -0.6343932841636452 -0.7730104533627373
outer loop
vertex -16.700000000000003 24.54594154601836 10.2959415460184
vertex 21 24.54594154601839 10.295941546018392
vertex 21 24 10.743984193867897
endloop
endfacet
facet normal 0 -0.6343932841636452 -0.7730104533627373
outer loop
vertex -16.700000000000003 24.54594154601836 10.2959415460184
vertex 21 24 10.743984193867897
vertex -16.700000000000003 24 10.743984193867897
endloop
endfacet
facet normal 0 0.09801714032955972 0.9951847266721969
outer loop
vertex 21 39.65891613580642 -9.519423364838758
vertex 21 42.00000000000001 -9.749999999999995
vertex -19.5 42 -9.750000000000002
endloop
endfacet
facet normal 0 0.09801714032955972 0.9951847266721969
outer loop
vertex 21 39.65891613580642 -9.519423364838758
vertex -19.5 42 -9.750000000000002
vertex -19.5 39.658916135806464 -9.519423364838767
endloop
endfacet
facet normal 0 0.29028467725446094 0.9569403357322095
outer loop
vertex 21 37.40779881161889 -8.836554390135435
vertex 21 39.65891613580642 -9.519423364838758
vertex -19.5 39.658916135806464 -9.519423364838767
endloop
endfacet
facet normal 0 0.29028467725446094 0.9569403357322095
outer loop
vertex 21 37.40779881161889 -8.836554390135435
vertex -19.5 39.658916135806464 -9.519423364838767
vertex -19.5 37.407798811618925 -8.836554390135442
endloop
endfacet
facet normal -1 0 0
outer loop
vertex 21 35.333157203764806 -7.727635347630572
vertex 21 37.33181752444739 -8.79594154601839
vertex 21 37.40779881161889 -8.836554390135435
endloop
endfacet
facet normal -1 0 0
outer loop
vertex 21 35.333157203764806 -7.727635347630572
vertex 21 37.40779881161889 -8.836554390135435
vertex -19.5 37.407798811618925 -8.836554390135442
endloop
endfacet
facet normal -1 0 0
outer loop
vertex 21 35.333157203764806 -7.727635347630572
vertex -19.5 37.407798811618925 -8.836554390135442
vertex -19.5 35.33315720376477 -7.727635347630544
endloop
endfacet
facet normal 1 0 0
outer loop
vertex 21 33.514718625761404 -6.235281374238552
vertex 21 34.142146527250304 -6.75019814576463
vertex 21 35.333157203764806 -7.727635347630572
endloop
endfacet
facet normal 1 0 0
outer loop
vertex 21 33.514718625761404 -6.235281374238552
vertex 21 35.333157203764806 -7.727635347630572
vertex -19.5 35.33315720376477 -7.727635347630544
endloop
endfacet
facet normal 1 0 0
outer loop
vertex 21 33.514718625761404 -6.235281374238552
vertex -19.5 35.33315720376477 -7.727635347630544
vertex -19.5 33.51471862576143 -6.235281374238573
endloop
endfacet
facet normal 0 0.7730104533627384 0.6343932841636436
outer loop
vertex 21 32.022364652369454 -4.416842796235226
vertex 21 33.514718625761404 -6.235281374238552
vertex -19.5 33.51471862576143 -6.235281374238573
endloop
endfacet
facet normal 0 0.7730104533627384 0.6343932841636436
outer loop
vertex 21 32.022364652369454 -4.416842796235226
vertex -19.5 33.51471862576143 -6.235281374238573
vertex -19.5 32.02236465236946 -4.416842796235229
endloop
endfacet
facet normal -1 0 0
outer loop
vertex 21 30.913445609864574 -2.342201188381115
vertex 21 32.022035148005266 -4.416226336928712
vertex 21 32.022364652369454 -4.416842796235226
endloop
endfacet
facet normal -1 0 0
outer loop
vertex 21 30.913445609864574 -2.342201188381115
vertex 21 32.022364652369454 -4.416842796235226
vertex -19.5 32.02236465236946 -4.416842796235229
endloop
endfacet
facet normal -1 0 0
outer loop
vertex 21 30.913445609864574 -2.342201188381115
vertex -19.5 32.02236465236946 -4.416842796235229
vertex -19.5 30.91344560986456 -2.342201188381079
endloop
endfacet
facet normal 1 0 0
outer loop
vertex 21 30.23057663516124 -0.0910838641935412
vertex 21 30.77436666385347 -1.8837193472177312
vertex 21 30.913445609864574 -2.342201188381115
endloop
endfacet
facet normal 1 0 0
outer loop
vertex 21 30.23057663516124 -0.0910838641935412
vertex 21 30.913445609864574 -2.342201188381115
vertex -19.5 30.91344560986456 -2.342201188381079
endloop
endfacet
facet normal 1 0 0
outer loop
vertex 21 30.23057663516124 -0.0910838641935412
vertex -19.5 30.91344560986456 -2.342201188381079
vertex -19.5 30.230576635161235 -0.09108386419354142
endloop
endfacet
facet normal -3.605274990306965e-17 0.9951847266721966 0.09801714032956334
outer loop
vertex -16.700000000000003 30 2.25
vertex 21 30.000000000000004 2.249999999999978
vertex 21 30.147737105035752 0.7500000000000003
endloop
endfacet
facet normal -3.605274990306965e-17 0.9951847266721966 0.09801714032956334
outer loop
vertex -16.700000000000003 30 2.25
vertex 21 30.147737105035752 0.7500000000000003
vertex 21 30.23057663516124 -0.0910838641935412
endloop
endfacet
facet normal -3.605274990306965e-17 0.9951847266721966 0.09801714032956334
outer loop
vertex -16.700000000000003 30 2.25
vertex 21 30.23057663516124 -0.0910838641935412
vertex -19.5 30.230576635161235 -0.09108386419354142
endloop
endfacet
facet normal -3.605274990306965e-17 0.9951847266721966 0.09801714032956334
outer loop
vertex -16.700000000000003 30 2.25
vertex -19.5 30.230576635161235 -0.09108386419354142
vertex -19.5 30 2.2499999999999987
endloop
endfacet
facet normal 5.883739931027141e-17 -0.9951847266721968 0.09801714032956153
outer loop
vertex 21 53.769423364838765 -0.0910838641935412
vertex 21 54 2.249999999999978
vertex -16.700000000000003 54 2.25
endloop
endfacet
facet normal 5.883739931027141e-17 -0.9951847266721968 0.09801714032956153
outer loop
vertex 21 53.769423364838765 -0.0910838641935412
vertex -16.700000000000003 54 2.25
vertex -19.5 54 2.2499999999999987
endloop
endfacet
facet normal 5.883739931027141e-17 -0.9951847266721968 0.09801714032956153
outer loop
vertex 21 53.769423364838765 -0.0910838641935412
vertex -19.5 54 2.2499999999999987
vertex -19.5 53.769423364838765 -0.09108386419354142
endloop
endfacet
facet normal 0 -0.956940335732209 0.29028467725446205
outer loop
vertex 21 53.08655439013544 -2.342201188381115
vertex 21 53.769423364838765 -0.0910838641935412
vertex -19.5 53.769423364838765 -0.09108386419354142
endloop
endfacet
facet normal 0 -0.956940335732209 0.29028467725446205
outer loop
vertex 21 53.08655439013544 -2.342201188381115
vertex -19.5 53.769423364838765 -0.09108386419354142
vertex -19.5 53.08655439013544 -2.342201188381079
endloop
endfacet
facet normal 0 -0.8819212643483564 0.47139673682599514
outer loop
vertex 21 51.977635347630546 -4.416842796235226
vertex 21 53.08655439013544 -2.342201188381115
vertex -19.5 53.08655439013544 -2.342201188381079
endloop
endfacet
facet normal 0 -0.8819212643483564 0.47139673682599514
outer loop
vertex 21 51.977635347630546 -4.416842796235226
vertex -19.5 53.08655439013544 -2.342201188381079
vertex -19.5 51.977635347630546 -4.416842796235229
endloop
endfacet
facet normal 0 -0.7730104533627343 0.6343932841636487
outer loop
vertex 21 50.48528137423857 -6.235281374238552
vertex 21 51.977635347630546 -4.416842796235226
vertex -19.5 51.977635347630546 -4.416842796235229
endloop
endfacet
facet normal 0 -0.7730104533627343 0.6343932841636487
outer loop
vertex 21 50.48528137423857 -6.235281374238552
vertex -19.5 51.977635347630546 -4.416842796235229
vertex -19.5 50.48528137423857 -6.235281374238573
endloop
endfacet
facet normal 0 -0.6343932841636462 0.7730104533627363
outer loop
vertex 21 48.666842796235215 -7.727635347630572
vertex 21 50.48528137423857 -6.235281374238552
vertex -19.5 50.48528137423857 -6.235281374238573
endloop
endfacet
facet normal 0 -0.6343932841636462 0.7730104533627363
outer loop
vertex 21 48.666842796235215 -7.727635347630572
vertex -19.5 50.48528137423857 -6.235281374238573
vertex -19.5 48.66684279623523 -7.727635347630544
endloop
endfacet
facet normal 0 -0.4713967368259972 0.8819212643483554
outer loop
vertex 21 46.592201188381104 -8.836554390135435
vertex 21 48.666842796235215 -7.727635347630572
vertex -19.5 48.66684279623523 -7.727635347630544
endloop
endfacet
facet normal 0 -0.4713967368259972 0.8819212643483554
outer loop
vertex 21 46.592201188381104 -8.836554390135435
vertex -19.5 48.66684279623523 -7.727635347630544
vertex -19.5 46.59220118838108 -8.836554390135442
endloop
endfacet
facet normal 0 -0.2902846772544629 0.9569403357322087
outer loop
vertex 21 44.341083864193536 -9.519423364838758
vertex 21 46.592201188381104 -8.836554390135435
vertex -19.5 46.59220118838108 -8.836554390135442
endloop
endfacet
facet normal 0 -0.2902846772544629 0.9569403357322087
outer loop
vertex 21 44.341083864193536 -9.519423364838758
vertex -19.5 46.59220118838108 -8.836554390135442
vertex -19.5 44.34108386419354 -9.519423364838767
endloop
endfacet
facet normal 0 -0.09801714032956217 0.9951847266721968
outer loop
vertex 21 42.00000000000001 -9.749999999999995
vertex 21 44.341083864193536 -9.519423364838758
vertex -19.5 44.34108386419354 -9.519423364838767
endloop
endfacet
facet normal 0 -0.09801714032956217 0.9951847266721968
outer loop
vertex 21 42.00000000000001 -9.749999999999995
vertex -19.5 44.34108386419354 -9.519423364838767
vertex -19.5 42 -9.750000000000002
endloop
endfacet
facet normal 0 1 0
outer loop
vertex 21 33 14.25
vertex 21 33 10.295941546018392
vertex 21 33 10.108094914062503
endloop
endfacet
facet normal 0 1 0
outer loop
vertex 21 33 14.25
vertex 21 33 10.108094914062503
vertex -16.700000000000003 33 10.108094914062473
endloop
endfacet
facet normal 0 1 0
outer loop
vertex 21 33 14.25
vertex -16.700000000000003 33 10.108094914062473
vertex -16.700000000000003 33 14.25
endloop
endfacet
facet normal 0 1 0
outer loop
vertex -19.5 33 14.25
vertex -19.5 33 2.2499999999999987
vertex -21 33 2.25
endloop
endfacet
facet normal 0 1 0
outer loop
vertex -19.5 33 14.25
vertex -21 33 2.25
vertex -21 33 14.25
endloop
endfacet
facet normal 0 -1 0
outer loop
vertex -19.5 51 2.2499999999999987
vertex -19.5 51 14.25
vertex -21 51 14.25
endloop
endfacet
facet normal 0 -1 0
outer loop
vertex -19.5 51 2.2499999999999987
vertex -21 51 14.25
vertex -21 51 2.25
endloop
endfacet
facet normal 0 -1 0
outer loop
vertex 21 51 10.108094914062503
vertex 21 51 14.25
vertex -16.700000000000003 51 14.25
endloop
endfacet
facet normal 0 -1 0
outer loop
vertex 21 51 10.108094914062503
vertex -16.700000000000003 51 14.25
vertex -16.700000000000003 51 10.108094914062473
endloop
endfacet
facet normal 0 0 1
outer loop
vertex -19.5 33 2.2499999999999987
vertex -19.5 51 2.2499999999999987
vertex -21 51 2.25
endloop
endfacet
facet normal 0 0 1
outer loop
vertex -19.5 33 2.2499999999999987
vertex -21 51 2.25
vertex -21 33 2.25
endloop
endfacet
facet normal 0 1 0
outer loop
vertex -19.5 30 14.25
vertex -16.700000000000003 30 14.25
vertex -16.700000000000003 30 8.916842796235244
endloop
endfacet
facet normal 0 1 0
outer loop
vertex -19.5 30 14.25
vertex -16.700000000000003 30 8.916842796235244
vertex -16.700000000000003 30 6.84220118838109
endloop
endfacet
facet normal 0 1 0
outer loop
vertex -19.5 30 14.25
vertex -16.700000000000003 30 6.84220118838109
vertex -16.700000000000003 30 4.5910838641935925
endloop
endfacet
facet normal 0 1 0
outer loop
vertex -19.5 30 14.25
vertex -16.700000000000003 30 4.5910838641935925
vertex -16.700000000000003 30 2.25
endloop
endfacet
facet normal 0 1 0
outer loop
vertex -19.5 30 14.25
vertex -16.700000000000003 30 2.25
vertex -19.5 30 2.2499999999999987
endloop
endfacet
facet normal 0 -1 0
outer loop
vertex -16.700000000000003 54 2.25
vertex -16.700000000000003 54 4.5910838641935925
vertex -16.700000000000003 54 6.84220118838109
endloop
endfacet
facet normal 0 -1 0
outer loop
vertex -16.700000000000003 54 2.25
vertex -16.700000000000003 54 6.84220118838109
vertex -16.700000000000003 54 8.916842796235244
endloop
endfacet
facet normal 0 -1 0
outer loop
vertex -16.700000000000003 54 2.25
vertex -16.700000000000003 54 8.916842796235244
vertex -16.700000000000003 54 14.25
endloop
endfacet
facet normal 0 -1 0
outer loop
vertex -16.700000000000003 54 2.25
vertex -16.700000000000003 54 14.25
vertex -19.5 54 14.25
endloop
endfacet
facet normal 0 -1 0
outer loop
vertex -16.700000000000003 54 2.25
vertex -19.5 54 14.25
vertex -19.5 54 2.2499999999999987
endloop
endfacet
facet normal -1.6164375639523612e-17 0.9951847266721969 -0.09801714032956035
outer loop
vertex -16.700000000000003 30.230576635161242 4.5910838641935925
vertex 21 30.230576635161242 4.591083864193586
vertex 21 30.111661609520645 3.383719347217729
endloop
endfacet
facet normal -1.6164375639523612e-17 0.9951847266721969 -0.09801714032956035
outer loop
vertex -16.700000000000003 30.230576635161242 4.5910838641935925
vertex 21 30.111661609520645 3.383719347217729
vertex 21 30.000000000000004 2.249999999999978
endloop
endfacet
facet normal -1.6164375639523612e-17 0.9951847266721969 -0.09801714032956035
outer loop
vertex -16.700000000000003 30.230576635161242 4.5910838641935925
vertex 21 30.000000000000004 2.249999999999978
vertex -16.700000000000003 30 2.25
endloop
endfacet
facet normal -1.3248535649215627e-16 0.9569403357322078 -0.29028467725446555
outer loop
vertex -16.700000000000003 30.91344560986456 6.84220118838109
vertex 21 30.913445609864567 6.842201188381096
vertex 21 30.63255420957268 5.9162263369287125
endloop
endfacet
facet normal -1.3248535649215627e-16 0.9569403357322078 -0.29028467725446555
outer loop
vertex -16.700000000000003 30.91344560986456 6.84220118838109
vertex 21 30.63255420957268 5.9162263369287125
vertex 21 30.230576635161242 4.591083864193586
endloop
endfacet
facet normal -1.3248535649215627e-16 0.9569403357322078 -0.29028467725446555
outer loop
vertex -16.700000000000003 30.91344560986456 6.84220118838109
vertex 21 30.230576635161242 4.591083864193586
vertex -16.700000000000003 30.230576635161242 4.5910838641935925
endloop
endfacet
facet normal -6.663412341102047e-17 0.8819212643483542 -0.4713967368259995
outer loop
vertex -16.700000000000003 32.02236465236946 8.916842796235244
vertex 21 32.02236465236946 8.916842796235239
vertex 21 31.666035662970895 8.250198145764628
endloop
endfacet
facet normal -6.663412341102047e-17 0.8819212643483542 -0.4713967368259995
outer loop
vertex -16.700000000000003 32.02236465236946 8.916842796235244
vertex 21 31.666035662970895 8.250198145764628
vertex 21 30.913445609864567 6.842201188381096
endloop
endfacet
facet normal -6.663412341102047e-17 0.8819212643483542 -0.4713967368259995
outer loop
vertex -16.700000000000003 32.02236465236946 8.916842796235244
vertex 21 30.913445609864567 6.842201188381096
vertex -16.700000000000003 30.91344560986456 6.84220118838109
endloop
endfacet
facet normal 0 -0.8819212643483564 -0.47139673682599514
outer loop
vertex -16.700000000000003 53.08655439013543 6.84220118838109
vertex 21 53.08655439013547 6.842201188381096
vertex 21 51.97763534763056 8.916842796235239
endloop
endfacet
facet normal 0 -0.8819212643483564 -0.47139673682599514
outer loop
vertex -16.700000000000003 53.08655439013543 6.84220118838109
vertex 21 51.97763534763056 8.916842796235239
vertex -16.700000000000003 51.977635347630574 8.916842796235244
endloop
endfacet
facet normal 0 -0.9569403357322089 -0.29028467725446216
outer loop
vertex -16.700000000000003 53.76942336483876 4.5910838641935925
vertex 21 53.769423364838744 4.591083864193586
vertex 21 53.08655439013547 6.842201188381096
endloop
endfacet
facet normal 0 -0.9569403357322089 -0.29028467725446216
outer loop
vertex -16.700000000000003 53.76942336483876 4.5910838641935925
vertex 21 53.08655439013547 6.842201188381096
vertex -16.700000000000003 53.08655439013543 6.84220118838109
endloop
endfacet
facet normal 0 -0.9951847266721963 -0.09801714032956702
outer loop
vertex -16.700000000000003 54 2.25
vertex 21 54 2.249999999999978
vertex 21 53.769423364838744 4.591083864193586
endloop
endfacet
facet normal 0 -0.9951847266721963 -0.09801714032956702
outer loop
vertex -16.700000000000003 54 2.25
vertex 21 53.769423364838744 4.591083864193586
vertex -16.700000000000003 53.76942336483876 4.5910838641935925
endloop
endfacet
facet normal 0 0.7730104533627354 -0.6343932841636475
outer loop
vertex -16.700000000000003 33 10.108094914062473
vertex 21 33 10.108094914062503
vertex 21 32.02236465236946 8.916842796235239
endloop
endfacet
facet normal 0 0.7730104533627354 -0.6343932841636475
outer loop
vertex -16.700000000000003 33 10.108094914062473
vertex 21 32.02236465236946 8.916842796235239
vertex -16.700000000000003 32.02236465236946 8.916842796235244
endloop
endfacet
facet normal 0 -0.7730104533627382 -0.6343932841636442
outer loop
vertex -16.700000000000003 51.977635347630574 8.916842796235244
vertex 21 51.97763534763056 8.916842796235239
vertex 21 51 10.108094914062503
endloop
endfacet
facet normal 0 -0.7730104533627382 -0.6343932841636442
outer loop
vertex -16.700000000000003 51.977635347630574 8.916842796235244
vertex 21 51 10.108094914062503
vertex -16.700000000000003 51 10.108094914062473
endloop
endfacet
endsolid csg.js
