solid JSCAD
facet normal 0 0 1
outer loop
vertex 1.0000588745030459 0 0
vertex 0 0 0
vertex 0 -14.999883058671184 0
endloop
endfacet
facet normal 0 0 1
outer loop
vertex 1.0000588745030459 0 0
vertex 0 -14.999883058671184 0
vertex 1.0000588745030459 -14.999883058671184 0
endloop
endfacet
facet normal 1 0 0
outer loop
vertex 0 0 0
vertex 0 0 40.00002150941466
vertex 0 -14.999883058671184 40.00002150941466
endloop
endfacet
facet normal 1 0 0
outer loop
vertex 0 0 0
vertex 0 -14.999883058671184 40.00002150941466
vertex 0 -14.999883058671184 0
endloop
endfacet
facet normal 0 0 -1
outer loop
vertex 0 0 40.00002150941466
vertex 41.20575915910717 0 40.00002150941466
vertex 41.20575915910717 -14.999883058671184 40.00002150941466
endloop
endfacet
facet normal 0 0 -1
outer loop
vertex 0 0 40.00002150941466
vertex 41.20575915910717 -14.999883058671184 40.00002150941466
vertex 0 -14.999883058671184 40.00002150941466
endloop
endfacet
facet normal -0.04913556933212991 0 -0.9987921184242532
outer loop
vertex 41.20575915910717 0 40.00002150941466
vertex 41.578447766338634 0 39.98168709671544
vertex 41.578447766338634 -14.999883058671184 39.98168709671544
endloop
endfacet
facet normal -0.04913556933212991 0 -0.9987921184242532
outer loop
vertex 41.20575915910717 0 40.00002150941466
vertex 41.578447766338634 -14.999883058671184 39.98168709671544
vertex 41.20575915910717 -14.999883058671184 40.00002150941466
endloop
endfacet
facet normal -0.14667831491341593 0 -0.9891842456965034
outer loop
vertex 41.578447766338634 0 39.98168709671544
vertex 41.94713613807209 0 39.92701721157594
vertex 41.94713613807209 -14.999883058671184 39.92701721157594
endloop
endfacet
facet normal -0.14667831491341593 0 -0.9891842456965034
outer loop
vertex 41.578447766338634 0 39.98168709671544
vertex 41.94713613807209 -14.999883058671184 39.92701721157594
vertex 41.578447766338634 -14.999883058671184 39.98168709671544
endloop
endfacet
facet normal -0.24316662899101762 0 -0.9699845310854934
outer loop
vertex 41.94713613807209 0 39.92701721157594
vertex 42.308824097684024 0 39.83634520695433
vertex 42.308824097684024 -14.999883058671184 39.83634520695433
endloop
endfacet
facet normal -0.24316662899101762 0 -0.9699845310854934
outer loop
vertex 41.94713613807209 0 39.92701721157594
vertex 42.308824097684024 -14.999883058671184 39.83634520695433
vertex 41.94713613807209 -14.999883058671184 39.92701721157594
endloop
endfacet
facet normal -0.3367890914071576 0 -0.9415801123160691
outer loop
vertex 42.308824097684024 0 39.83634520695433
vertex 42.660178115592764 0 39.710671141725115
vertex 42.660178115592764 -14.999883058671184 39.710671141725115
endloop
endfacet
facet normal -0.3367890914071576 0 -0.9415801123160691
outer loop
vertex 42.308824097684024 0 39.83634520695433
vertex 42.660178115592764 -14.999883058671184 39.710671141725115
vertex 42.308824097684024 -14.999883058671184 39.83634520695433
endloop
endfacet
facet normal -0.4274327710804215 0 -0.904047137159624
outer loop
vertex 42.660178115592764 0 39.710671141725115
vertex 42.99719795630029 0 39.55132842772096
vertex 42.99719795630029 -14.999883058671184 39.55132842772096
endloop
endfacet
facet normal -0.4274327710804215 0 -0.904047137159624
outer loop
vertex 42.660178115592764 0 39.710671141725115
vertex 42.99719795630029 -14.999883058671184 39.55132842772096
vertex 42.660178115592764 -14.999883058671184 39.710671141725115
endloop
endfacet
facet normal -0.5138385218653324 0 -0.8578869234620902
outer loop
vertex 42.99719795630029 0 39.55132842772096
vertex 43.31721679614126 0 39.35965047677454
vertex 43.31721679614126 -14.999883058671184 39.35965047677454
endloop
endfacet
facet normal -0.5138385218653324 0 -0.8578869234620902
outer loop
vertex 42.99719795630029 0 39.55132842772096
vertex 43.31721679614126 -14.999883058671184 39.35965047677454
vertex 42.99719795630029 -14.999883058671184 39.55132842772096
endloop
endfacet
facet normal -0.5962746228712552 0 -0.8027805267442292
outer loop
vertex 43.31721679614126 0 39.35965047677454
vertex 43.61656775257584 0 39.1373040536767
vertex 43.61656775257584 -14.999883058671184 39.1373040536767
endloop
endfacet
facet normal -0.5962746228712552 0 -0.8027805267442292
outer loop
vertex 43.31721679614126 0 39.35965047677454
vertex 43.61656775257584 -14.999883058671184 39.1373040536767
vertex 43.31721679614126 -14.999883058671184 39.35965047677454
endloop
endfacet
facet normal -0.6713813609915525 0 -0.7411120482849612
outer loop
vertex 43.61656775257584 0 39.1373040536767
vertex 43.89291735489685 0 38.88695598209277
vertex 43.89291735489685 -14.999883058671184 38.88695598209277
endloop
endfacet
facet normal -0.6713813609915525 0 -0.7411120482849612
outer loop
vertex 43.61656775257584 0 39.1373040536767
vertex 43.89291735489685 -14.999883058671184 38.88695598209277
vertex 43.61656775257584 -14.999883058671184 39.1373040536767
endloop
endfacet
facet normal -0.7411120482849612 0 -0.6713813609915525
outer loop
vertex 43.89291735489685 0 38.88695598209277
vertex 44.14326542648078 0 38.61060637977176
vertex 44.14326542648078 -14.999883058671184 38.61060637977176
endloop
endfacet
facet normal -0.7411120482849612 0 -0.6713813609915525
outer loop
vertex 43.89291735489685 0 38.88695598209277
vertex 44.14326542648078 -14.999883058671184 38.61060637977176
vertex 43.89291735489685 -14.999883058671184 38.88695598209277
endloop
endfacet
facet normal -0.8027805267442292 0 -0.5962746228712552
outer loop
vertex 44.14326542648078 0 38.61060637977176
vertex 44.36561184957862 0 38.31125542333718
vertex 44.36561184957862 -14.999883058671184 38.31125542333718
endloop
endfacet
facet normal -0.8027805267442292 0 -0.5962746228712552
outer loop
vertex 44.14326542648078 0 38.61060637977176
vertex 44.36561184957862 -14.999883058671184 38.31125542333718
vertex 44.14326542648078 -14.999883058671184 38.61060637977176
endloop
endfacet
facet normal -0.8578869234620902 0 -0.5138385218653324
outer loop
vertex 44.36561184957862 0 38.31125542333718
vertex 44.55728980052504 0 37.99123658349621
vertex 44.55728980052504 -14.999883058671184 37.99123658349621
endloop
endfacet
facet normal -0.8578869234620902 0 -0.5138385218653324
outer loop
vertex 44.36561184957862 0 38.31125542333718
vertex 44.55728980052504 -14.999883058671184 37.99123658349621
vertex 44.36561184957862 -14.999883058671184 38.31125542333718
endloop
endfacet
facet normal -0.904047137159624 0 -0.4274327710804215
outer loop
vertex 44.55728980052504 0 37.99123658349621
vertex 44.716632514529195 0 37.654216742788684
vertex 44.716632514529195 -14.999883058671184 37.654216742788684
endloop
endfacet
facet normal -0.904047137159624 0 -0.4274327710804215
outer loop
vertex 44.55728980052504 0 37.99123658349621
vertex 44.716632514529195 -14.999883058671184 37.654216742788684
vertex 44.55728980052504 -14.999883058671184 37.99123658349621
endloop
endfacet
facet normal -0.941478655574838 0 -0.3370726050823407
outer loop
vertex 44.716632514529195 0 37.654216742788684
vertex 44.84230657975841 0 37.303196077838116
vertex 44.84230657975841 -14.999883058671184 37.303196077838116
endloop
endfacet
facet normal -0.941478655574838 0 -0.3370726050823407
outer loop
vertex 44.716632514529195 0 37.654216742788684
vertex 44.84230657975841 -14.999883058671184 37.303196077838116
vertex 44.716632514529195 -14.999883058671184 37.654216742788684
endloop
endfacet
facet normal -0.9699845310854948 0 -0.24316662899101318
outer loop
vertex 44.84230657975841 0 37.303196077838116
vertex 44.93297858438002 0 36.941508118226174
vertex 44.93297858438002 -14.999883058671184 36.941508118226174
endloop
endfacet
facet normal -0.9699845310854948 0 -0.24316662899101318
outer loop
vertex 44.84230657975841 0 37.303196077838116
vertex 44.93297858438002 -14.999883058671184 36.941508118226174
vertex 44.84230657975841 -14.999883058671184 37.303196077838116
endloop
endfacet
facet normal -0.989203462353869 0 -0.14654866108947337
outer loop
vertex 44.93297858438002 0 36.941508118226174
vertex 44.98764846951952 0 36.572486393534554
vertex 44.98764846951952 -14.999883058671184 36.572486393534554
endloop
endfacet
facet normal -0.989203462353869 0 -0.14654866108947337
outer loop
vertex 44.93297858438002 0 36.941508118226174
vertex 44.98764846951952 -14.999883058671184 36.572486393534554
vertex 44.93297858438002 -14.999883058671184 36.941508118226174
endloop
endfacet
facet normal -0.9987899586574146 0 -0.04917945185867929
outer loop
vertex 44.98764846951952 0 36.572486393534554
vertex 45.00598288221874 0 36.20013113926125
vertex 45.00598288221874 -14.999883058671184 36.20013113926125
endloop
endfacet
facet normal -0.9987899586574146 0 -0.04917945185867929
outer loop
vertex 44.98764846951952 0 36.572486393534554
vertex 45.00598288221874 -14.999883058671184 36.20013113926125
vertex 44.98764846951952 -14.999883058671184 36.572486393534554
endloop
endfacet
facet normal -0.9987921184242532 0 0.04913556933212991
outer loop
vertex 45.00598288221874 0 36.20013113926125
vertex 44.98764846951952 0 35.827442532029785
vertex 44.98764846951952 -14.999883058671184 35.827442532029785
endloop
endfacet
facet normal -0.9987921184242532 0 0.04913556933212991
outer loop
vertex 45.00598288221874 0 36.20013113926125
vertex 44.98764846951952 -14.999883058671184 35.827442532029785
vertex 45.00598288221874 -14.999883058671184 36.20013113926125
endloop
endfacet
facet normal -0.9891842456965034 0 0.14667831491341593
outer loop
vertex 44.98764846951952 0 35.827442532029785
vertex 44.93297858438002 0 35.45875416029633
vertex 44.93297858438002 -14.999883058671184 35.45875416029633
endloop
endfacet
facet normal -0.9891842456965034 0 0.14667831491341593
outer loop
vertex 44.98764846951952 0 35.827442532029785
vertex 44.93297858438002 -14.999883058671184 35.45875416029633
vertex 44.98764846951952 -14.999883058671184 35.827442532029785
endloop
endfacet
facet normal -0.9699845310854934 0 0.24316662899101762
outer loop
vertex 44.93297858438002 0 35.45875416029633
vertex 44.84230657975841 0 35.097066200684395
vertex 44.84230657975841 -14.999883058671184 35.097066200684395
endloop
endfacet
facet normal -0.9699845310854934 0 0.24316662899101762
outer loop
vertex 44.93297858438002 0 35.45875416029633
vertex 44.84230657975841 -14.999883058671184 35.097066200684395
vertex 44.93297858438002 -14.999883058671184 35.45875416029633
endloop
endfacet
facet normal -0.9415801123160691 0 0.3367890914071576
outer loop
vertex 44.84230657975841 0 35.097066200684395
vertex 44.716632514529195 0 34.745712182775655
vertex 44.716632514529195 -14.999883058671184 34.745712182775655
endloop
endfacet
facet normal -0.9415801123160691 0 0.3367890914071576
outer loop
vertex 44.84230657975841 0 35.097066200684395
vertex 44.716632514529195 -14.999883058671184 34.745712182775655
vertex 44.84230657975841 -14.999883058671184 35.097066200684395
endloop
endfacet
facet normal -0.904047137159624 0 0.4274327710804215
outer loop
vertex 44.716632514529195 0 34.745712182775655
vertex 44.55728980052504 0 34.40869234206813
vertex 44.55728980052504 -14.999883058671184 34.40869234206813
endloop
endfacet
facet normal -0.904047137159624 0 0.4274327710804215
outer loop
vertex 44.716632514529195 0 34.745712182775655
vertex 44.55728980052504 -14.999883058671184 34.40869234206813
vertex 44.716632514529195 -14.999883058671184 34.745712182775655
endloop
endfacet
facet normal -0.8578869234620953 0 0.513838521865324
outer loop
vertex 44.55728980052504 0 34.40869234206813
vertex 44.36561184957862 0 34.08867350222715
vertex 44.36561184957862 -14.999883058671184 34.08867350222715
endloop
endfacet
facet normal -0.8578869234620953 0 0.513838521865324
outer loop
vertex 44.55728980052504 0 34.40869234206813
vertex 44.36561184957862 -14.999883058671184 34.08867350222715
vertex 44.55728980052504 -14.999883058671184 34.40869234206813
endloop
endfacet
facet normal -0.8027805267442226 0 0.5962746228712645
outer loop
vertex 44.36561184957862 0 34.08867350222715
vertex 44.14326542648078 0 33.78932254579258
vertex 44.14326542648078 -14.999883058671184 33.78932254579258
endloop
endfacet
facet normal -0.8027805267442226 0 0.5962746228712645
outer loop
vertex 44.36561184957862 0 34.08867350222715
vertex 44.14326542648078 -14.999883058671184 33.78932254579258
vertex 44.36561184957862 -14.999883058671184 34.08867350222715
endloop
endfacet
facet normal -0.7411120482849612 0 0.6713813609915525
outer loop
vertex 44.14326542648078 0 33.78932254579258
vertex 43.89291735489685 0 33.51297294347157
vertex 43.89291735489685 -14.999883058671184 33.51297294347157
endloop
endfacet
facet normal -0.7411120482849612 0 0.6713813609915525
outer loop
vertex 44.14326542648078 0 33.78932254579258
vertex 43.89291735489685 -14.999883058671184 33.51297294347157
vertex 44.14326542648078 -14.999883058671184 33.78932254579258
endloop
endfacet
facet normal -0.706822239387382 0 0.7073912085313235
outer loop
vertex 43.89291735489685 0 33.51297294347157
vertex 32.2882341751635 0 21.91762364656692
vertex 32.2882341751635 -14.999883058671184 21.91762364656692
endloop
endfacet
facet normal -0.706822239387382 0 0.7073912085313235
outer loop
vertex 43.89291735489685 0 33.51297294347157
vertex 32.2882341751635 -14.999883058671184 21.91762364656692
vertex 43.89291735489685 -14.999883058671184 33.51297294347157
endloop
endfacet
facet normal -0.594937146389414 0 0.8037722263465075
outer loop
vertex 32.2882341751635 0 21.91762364656692
vertex 32.17789434601 0 21.835952171815837
vertex 32.17789434601 -14.999883058671184 21.835952171815837
endloop
endfacet
facet normal -0.594937146389414 0 0.8037722263465075
outer loop
vertex 32.2882341751635 0 21.91762364656692
vertex 32.17789434601 -14.999883058671184 21.835952171815837
vertex 32.2882341751635 -14.999883058671184 21.91762364656692
endloop
endfacet
facet normal -0.5137827824699466 0 0.8579203065771549
outer loop
vertex 32.17789434601 0 21.835952171815837
vertex 32.059887398818645 0 21.76528134468429
vertex 32.059887398818645 -14.999883058671184 21.76528134468429
endloop
endfacet
facet normal -0.5137827824699466 0 0.8579203065771549
outer loop
vertex 32.17789434601 0 21.835952171815837
vertex 32.059887398818645 -14.999883058671184 21.76528134468429
vertex 32.17789434601 -14.999883058671184 21.835952171815837
endloop
endfacet
facet normal -0.4276684821875298 0 0.9039356555327457
outer loop
vertex 32.059887398818645 0 21.76528134468429
vertex 31.935880098380267 0 21.706611224046778
vertex 31.935880098380267 -14.999883058671184 21.706611224046778
endloop
endfacet
facet normal -0.4276684821875298 0 0.9039356555327457
outer loop
vertex 32.059887398818645 0 21.76528134468429
vertex 31.935880098380267 -14.999883058671184 21.706611224046778
vertex 32.059887398818645 -14.999883058671184 21.76528134468429
endloop
endfacet
facet normal -0.33725845684251887 0 0.9414120953589894
outer loop
vertex 31.935880098380267 0 21.706611224046778
vertex 31.806539150611204 0 21.66027516286147
vertex 31.806539150611204 -14.999883058671184 21.66027516286147
endloop
endfacet
facet normal -0.33725845684251887 0 0.9414120953589894
outer loop
vertex 31.935880098380267 0 21.706611224046778
vertex 31.806539150611204 -14.999883058671184 21.66027516286147
vertex 31.935880098380267 -14.999883058671184 21.706611224046778
endloop
endfacet
facet normal -0.24253562503634513 0 0.9701425001453289
outer loop
vertex 31.806539150611204 0 21.66027516286147
vertex 31.673197967344134 0 21.6269398670447
vertex 31.673197967344134 -14.999883058671184 21.6269398670447
endloop
endfacet
facet normal -0.24253562503634513 0 0.9701425001453289
outer loop
vertex 31.806539150611204 0 21.66027516286147
vertex 31.673197967344134 -14.999883058671184 21.6269398670447
vertex 31.806539150611204 -14.999883058671184 21.66027516286147
endloop
endfacet
facet normal -0.1478662964878747 0 0.9890073601156667
outer loop
vertex 31.673197967344134 0 21.6269398670447
vertex 31.53718996041172 0 21.606605336596473
vertex 31.53718996041172 -14.999883058671184 21.606605336596473
endloop
endfacet
facet normal -0.1478662964878747 0 0.9890073601156667
outer loop
vertex 31.673197967344134 0 21.6269398670447
vertex 31.53718996041172 -14.999883058671184 21.606605336596473
vertex 31.673197967344134 -14.999883058671184 21.6269398670447
endloop
endfacet
facet normal -0.04848659385555724 0 0.9988238334242362
outer loop
vertex 31.53718996041172 0 21.606605336596473
vertex 31.399848541646634 0 21.599938277433118
vertex 31.399848541646634 -14.999883058671184 21.599938277433118
endloop
endfacet
facet normal -0.04848659385555724 0 0.9988238334242362
outer loop
vertex 31.53718996041172 0 21.606605336596473
vertex 31.399848541646634 -14.999883058671184 21.599938277433118
vertex 31.53718996041172 -14.999883058671184 21.606605336596473
endloop
endfacet
facet normal 0.048604287745906485 0 0.9988181131781269
outer loop
vertex 31.399848541646634 0 21.599938277433118
vertex 31.262840475839717 0 21.606605336596473
vertex 31.262840475839717 -14.999883058671184 21.606605336596473
endloop
endfacet
facet normal 0.048604287745906485 0 0.9988181131781269
outer loop
vertex 31.399848541646634 0 21.599938277433118
vertex 31.262840475839717 -14.999883058671184 21.606605336596473
vertex 31.399848541646634 -14.999883058671184 21.599938277433118
endloop
endfacet
facet normal 0.1478662964878747 0 0.9890073601156667
outer loop
vertex 31.262840475839717 0 21.606605336596473
vertex 31.126832468907303 0 21.6269398670447
vertex 31.126832468907303 -14.999883058671184 21.6269398670447
endloop
endfacet
facet normal 0.1478662964878747 0 0.9890073601156667
outer loop
vertex 31.262840475839717 0 21.606605336596473
vertex 31.126832468907303 -14.999883058671184 21.6269398670447
vertex 31.262840475839717 -14.999883058671184 21.606605336596473
endloop
endfacet
facet normal 0.24253562503633905 0 0.9701425001453303
outer loop
vertex 31.126832468907303 0 21.6269398670447
vertex 30.99349128564023 0 21.66027516286147
vertex 30.99349128564023 -14.999883058671184 21.66027516286147
endloop
endfacet
facet normal 0.24253562503633905 0 0.9701425001453303
outer loop
vertex 31.126832468907303 0 21.6269398670447
vertex 30.99349128564023 -14.999883058671184 21.66027516286147
vertex 31.126832468907303 -14.999883058671184 21.6269398670447
endloop
endfacet
facet normal 0.3372584568425271 0 0.9414120953589864
outer loop
vertex 30.99349128564023 0 21.66027516286147
vertex 30.86415033787117 0 21.706611224046778
vertex 30.86415033787117 -14.999883058671184 21.706611224046778
endloop
endfacet
facet normal 0.3372584568425271 0 0.9414120953589864
outer loop
vertex 30.99349128564023 0 21.66027516286147
vertex 30.86415033787117 -14.999883058671184 21.706611224046778
vertex 30.99349128564023 -14.999883058671184 21.66027516286147
endloop
endfacet
facet normal 0.4276684821875298 0 0.9039356555327457
outer loop
vertex 30.86415033787117 0 21.706611224046778
vertex 30.74014303743279 0 21.76528134468429
vertex 30.74014303743279 -14.999883058671184 21.76528134468429
endloop
endfacet
facet normal 0.4276684821875298 0 0.9039356555327457
outer loop
vertex 30.86415033787117 0 21.706611224046778
vertex 30.74014303743279 -14.999883058671184 21.76528134468429
vertex 30.86415033787117 -14.999883058671184 21.706611224046778
endloop
endfacet
facet normal 0.5137827824699239 0 0.8579203065771686
outer loop
vertex 30.74014303743279 0 21.76528134468429
vertex 30.62213609024143 0 21.835952171815837
vertex 30.62213609024143 -14.999883058671184 21.835952171815837
endloop
endfacet
facet normal 0.5137827824699239 0 0.8579203065771686
outer loop
vertex 30.74014303743279 0 21.76528134468429
vertex 30.62213609024143 -14.999883058671184 21.835952171815837
vertex 30.74014303743279 -14.999883058671184 21.76528134468429
endloop
endfacet
facet normal 0.594937146389414 0 0.8037722263465075
outer loop
vertex 30.62213609024143 0 21.835952171815837
vertex 30.511796261087927 0 21.91762364656692
vertex 30.511796261087927 -14.999883058671184 21.91762364656692
endloop
endfacet
facet normal 0.594937146389414 0 0.8037722263465075
outer loop
vertex 30.62213609024143 0 21.835952171815837
vertex 30.511796261087927 -14.999883058671184 21.91762364656692
vertex 30.62213609024143 -14.999883058671184 21.835952171815837
endloop
endfacet
facet normal 0.6723102937249107 0 0.7402694569894966
outer loop
vertex 30.511796261087927 0 21.91762364656692
vertex 30.410123608846785 0 22.00996241597937
vertex 30.410123608846785 -14.999883058671184 22.00996241597937
endloop
endfacet
facet normal 0.6723102937249107 0 0.7402694569894966
outer loop
vertex 30.511796261087927 0 21.91762364656692
vertex 30.410123608846785 -14.999883058671184 22.00996241597937
vertex 30.511796261087927 -14.999883058671184 21.91762364656692
endloop
endfacet
facet normal 0.7413635637606083 0 0.6711036181754427
outer loop
vertex 30.410123608846785 0 22.00996241597937
vertex 30.31778483943434 0 22.11196842117868
vertex 30.31778483943434 -14.999883058671184 22.11196842117868
endloop
endfacet
facet normal 0.7413635637606083 0 0.6711036181754427
outer loop
vertex 30.410123608846785 0 22.00996241597937
vertex 30.31778483943434 -14.999883058671184 22.11196842117868
vertex 30.410123608846785 -14.999883058671184 22.00996241597937
endloop
endfacet
facet normal 0.8026111716239576 0 0.59650256259669
outer loop
vertex 30.31778483943434 0 22.11196842117868
vertex 30.235780011725087 0 22.22230825033218
vertex 30.235780011725087 -14.999883058671184 22.22230825033218
endloop
endfacet
facet normal 0.8026111716239576 0 0.59650256259669
outer loop
vertex 30.31778483943434 0 22.11196842117868
vertex 30.235780011725087 -14.999883058671184 22.22230825033218
vertex 30.31778483943434 -14.999883058671184 22.11196842117868
endloop
endfacet
facet normal 0.8583499396704115 0 0.5130646948171359
outer loop
vertex 30.235780011725087 0 22.22230825033218
vertex 30.16544253755171 0 22.339981844565372
vertex 30.16544253755171 -14.999883058671184 22.339981844565372
endloop
endfacet
facet normal 0.8583499396704115 0 0.5130646948171359
outer loop
vertex 30.235780011725087 0 22.22230825033218
vertex 30.16544253755171 -14.999883058671184 22.339981844565372
vertex 30.235780011725087 -14.999883058671184 22.22230825033218
endloop
endfacet
facet normal 0.9034417108330731 0 0.42871094589129594
outer loop
vertex 30.16544253755171 0 22.339981844565372
vertex 30.106439063956028 0 22.46432249796192
vertex 30.106439063956028 -14.999883058671184 22.46432249796192
endloop
endfacet
facet normal 0.9034417108330731 0 0.42871094589129594
outer loop
vertex 30.16544253755171 0 22.339981844565372
vertex 30.106439063956028 -14.999883058671184 22.46432249796192
vertex 30.16544253755171 -14.999883058671184 22.339981844565372
endloop
endfacet
facet normal 0.9421806189376761 0 0.3351054778696069
outer loop
vertex 30.106439063956028 0 22.46432249796192
vertex 30.060436355728886 0 22.59366344573098
vertex 30.060436355728886 -14.999883058671184 22.59366344573098
endloop
endfacet
facet normal 0.9421806189376761 0 0.3351054778696069
outer loop
vertex 30.106439063956028 0 22.46432249796192
vertex 30.060436355728886 -14.999883058671184 22.59366344573098
vertex 30.106439063956028 -14.999883058671184 22.46432249796192
endloop
endfacet
facet normal 0.9695694828076457 0 0.24481629440891953
outer loop
vertex 30.060436355728886 0 22.59366344573098
vertex 30.02676770695395 0 22.727004628998053
vertex 30.02676770695395 -14.999883058671184 22.727004628998053
endloop
endfacet
facet normal 0.9695694828076457 0 0.24481629440891953
outer loop
vertex 30.060436355728886 0 22.59366344573098
vertex 30.02676770695395 -14.999883058671184 22.727004628998053
vertex 30.060436355728886 -14.999883058671184 22.59366344573098
endloop
endfacet
facet normal 0.9893076185561877 0 0.14584387497144005
outer loop
vertex 30.02676770695395 0 22.727004628998053
vertex 30.00676652946389 0 22.862679282972298
vertex 30.00676652946389 -14.999883058671184 22.862679282972298
endloop
endfacet
facet normal 0.9893076185561877 0 0.14584387497144005
outer loop
vertex 30.02676770695395 0 22.727004628998053
vertex 30.00676652946389 -14.999883058671184 22.862679282972298
vertex 30.02676770695395 -14.999883058671184 22.727004628998053
endloop
endfacet
facet normal 0.9988238334242374 0 0.04848659385553147
outer loop
vertex 30.00676652946389 0 22.862679282972298
vertex 30.000099470300537 0 23.000020701737384
vertex 30.000099470300537 -14.999883058671184 23.000020701737384
endloop
endfacet
facet normal 0.9988238334242374 0 0.04848659385553147
outer loop
vertex 30.00676652946389 0 22.862679282972298
vertex 30.000099470300537 -14.999883058671184 23.000020701737384
vertex 30.00676652946389 -14.999883058671184 22.862679282972298
endloop
endfacet
facet normal 1 0 0
outer loop
vertex 30.000099470300537 0 23.000020701737384
vertex 30.000099470300537 0 31.000158344803584
vertex 30.000099470300537 -14.999883058671184 31.000158344803584
endloop
endfacet
facet normal 1 0 0
outer loop
vertex 30.000099470300537 0 23.000020701737384
vertex 30.000099470300537 -14.999883058671184 31.000158344803584
vertex 30.000099470300537 -14.999883058671184 23.000020701737384
endloop
endfacet
facet normal 0.9987859965109241 0 0.049259853569414425
outer loop
vertex 30.000099470300537 0 31.000158344803584
vertex 29.980764998726812 0 31.392181423608776
vertex 29.980764998726812 -14.999883058671184 31.392181423608776
endloop
endfacet
facet normal 0.9987859965109241 0 0.049259853569414425
outer loop
vertex 30.000099470300537 0 31.000158344803584
vertex 29.980764998726812 -14.999883058671184 31.392181423608776
vertex 30.000099470300537 -14.999883058671184 31.000158344803584
endloop
endfacet
facet normal 0.9891349164525024 0 0.14701060184388462
outer loop
vertex 29.980764998726812 0 31.392181423608776
vertex 29.923094936963803 0 31.78020426691596
vertex 29.923094936963803 -14.999883058671184 31.78020426691596
endloop
endfacet
facet normal 0.9891349164525024 0 0.14701060184388462
outer loop
vertex 29.980764998726812 0 31.392181423608776
vertex 29.923094936963803 -14.999883058671184 31.78020426691596
vertex 29.980764998726812 -14.999883058671184 31.392181423608776
endloop
endfacet
facet normal 0.9700925545978046 0 0.24273531987311947
outer loop
vertex 29.923094936963803 0 31.78020426691596
vertex 29.827755990927844 0 32.16122669810162
vertex 29.827755990927844 -14.999883058671184 32.16122669810162
endloop
endfacet
facet normal 0.9700925545978046 0 0.24273531987311947
outer loop
vertex 29.923094936963803 0 31.78020426691596
vertex 29.827755990927844 -14.999883058671184 32.16122669810162
vertex 29.923094936963803 -14.999883058671184 31.78020426691596
endloop
endfacet
facet normal 0.9413954081216919 0 0.33730503341544366
outer loop
vertex 29.827755990927844 0 32.16122669810162
vertex 29.695414866535277 0 32.53058177575141
vertex 29.695414866535277 -14.999883058671184 32.53058177575141
endloop
endfacet
facet normal 0.9413954081216919 0 0.33730503341544366
outer loop
vertex 29.827755990927844 0 32.16122669810162
vertex 29.695414866535277 -14.999883058671184 32.53058177575141
vertex 29.827755990927844 -14.999883058671184 32.16122669810162
endloop
endfacet
facet normal 0.9042213258167752 0 0.4270641567003173
outer loop
vertex 29.695414866535277 0 32.53058177575141
vertex 29.52773832857693 0 32.885602676199994
vertex 29.52773832857693 -14.999883058671184 32.885602676199994
endloop
endfacet
facet normal 0.9042213258167752 0 0.4270641567003173
outer loop
vertex 29.695414866535277 0 32.53058177575141
vertex 29.52773832857693 -14.999883058671184 32.885602676199994
vertex 29.695414866535277 -14.999883058671184 32.53058177575141
endloop
endfacet
facet normal 0.8574929257125411 0 0.5144957554275319
outer loop
vertex 29.52773832857693 0 32.885602676199994
vertex 29.325726435927315 0 33.22228916394935
vertex 29.325726435927315 -14.999883058671184 33.22228916394935
endloop
endfacet
facet normal 0.8574929257125411 0 0.5144957554275319
outer loop
vertex 29.52773832857693 0 32.885602676199994
vertex 29.325726435927315 -14.999883058671184 33.22228916394935
vertex 29.52773832857693 -14.999883058671184 32.885602676199994
endloop
endfacet
facet normal 0.8034518627139152 0 0.5953697206791252
outer loop
vertex 29.325726435927315 0 33.22228916394935
vertex 29.09204601225177 0 33.537641062375975
vertex 29.09204601225177 -14.999883058671184 33.537641062375975
endloop
endfacet
facet normal 0.8034518627139152 0 0.5953697206791252
outer loop
vertex 29.325726435927315 0 33.22228916394935
vertex 29.09204601225177 -14.999883058671184 33.537641062375975
vertex 29.325726435927315 -14.999883058671184 33.22228916394935
endloop
endfacet
facet normal 0.7406698839593294 0 0.6718691263897111
outer loop
vertex 29.09204601225177 0 33.537641062375975
vertex 28.828363822341135 0 33.828324841898194
vertex 28.828363822341135 -14.999883058671184 33.828324841898194
endloop
endfacet
facet normal 0.7406698839593294 0 0.6718691263897111
outer loop
vertex 29.09204601225177 0 33.537641062375975
vertex 28.828363822341135 -14.999883058671184 33.828324841898194
vertex 29.09204601225177 -14.999883058671184 33.537641062375975
endloop
endfacet
facet normal 0.6718691263897161 0 0.7406698839593249
outer loop
vertex 28.828363822341135 0 33.828324841898194
vertex 28.537680042818916 0 34.09200703180883
vertex 28.537680042818916 -14.999883058671184 34.09200703180883
endloop
endfacet
facet normal 0.6718691263897161 0 0.7406698839593249
outer loop
vertex 28.828363822341135 0 33.828324841898194
vertex 28.537680042818916 -14.999883058671184 34.09200703180883
vertex 28.828363822341135 -14.999883058671184 33.828324841898194
endloop
endfacet
facet normal 0.5959175673664517 0 0.803045610724603
outer loop
vertex 28.537680042818916 0 34.09200703180883
vertex 28.22232814439229 0 34.32602080844254
vertex 28.22232814439229 -14.999883058671184 34.32602080844254
endloop
endfacet
facet normal 0.5959175673664517 0 0.803045610724603
outer loop
vertex 28.537680042818916 0 34.09200703180883
vertex 28.22232814439229 -14.999883058671184 34.32602080844254
vertex 28.537680042818916 -14.999883058671184 34.09200703180883
endloop
endfacet
facet normal 0.5138710794915572 0 0.8578674219610987
outer loop
vertex 28.22232814439229 0 34.32602080844254
vertex 27.88564165664293 0 34.52769934813399
vertex 27.88564165664293 -14.999883058671184 34.52769934813399
endloop
endfacet
facet normal 0.5138710794915572 0 0.8578674219610987
outer loop
vertex 28.22232814439229 0 34.32602080844254
vertex 27.88564165664293 -14.999883058671184 34.52769934813399
vertex 28.22232814439229 -14.999883058671184 34.32602080844254
endloop
endfacet
facet normal 0.4270641567003134 0 0.904221325816777
outer loop
vertex 27.88564165664293 0 34.52769934813399
vertex 27.53062075619435 0 34.695375886092336
vertex 27.53062075619435 -14.999883058671184 34.695375886092336
endloop
endfacet
facet normal 0.4270641567003134 0 0.904221325816777
outer loop
vertex 27.88564165664293 0 34.52769934813399
vertex 27.53062075619435 -14.999883058671184 34.695375886092336
vertex 27.88564165664293 -14.999883058671184 34.52769934813399
endloop
endfacet
facet normal 0.3373050334154378 0 0.9413954081216938
outer loop
vertex 27.53062075619435 0 34.695375886092336
vertex 27.161265678544556 0 34.8277170104849
vertex 27.161265678544556 -14.999883058671184 34.8277170104849
endloop
endfacet
facet normal 0.3373050334154378 0 0.9413954081216938
outer loop
vertex 27.53062075619435 0 34.695375886092336
vertex 27.161265678544556 -14.999883058671184 34.8277170104849
vertex 27.53062075619435 -14.999883058671184 34.695375886092336
endloop
endfacet
facet normal 0.24273531987312155 0 0.970092554597804
outer loop
vertex 27.161265678544556 0 34.8277170104849
vertex 26.780243247358896 0 34.92305595652086
vertex 26.780243247358896 -14.999883058671184 34.92305595652086
endloop
endfacet
facet normal 0.24273531987312155 0 0.970092554597804
outer loop
vertex 27.161265678544556 0 34.8277170104849
vertex 26.780243247358896 -14.999883058671184 34.92305595652086
vertex 27.161265678544556 -14.999883058671184 34.8277170104849
endloop
endfacet
facet normal 0.14701060184389478 0 0.9891349164525007
outer loop
vertex 26.780243247358896 0 34.92305595652086
vertex 26.392220404051717 0 34.980726018283875
vertex 26.392220404051717 -14.999883058671184 34.980726018283875
endloop
endfacet
facet normal 0.14701060184389478 0 0.9891349164525007
outer loop
vertex 26.780243247358896 0 34.92305595652086
vertex 26.392220404051717 -14.999883058671184 34.980726018283875
vertex 26.780243247358896 -14.999883058671184 34.92305595652086
endloop
endfacet
facet normal 0.04921810295358367 0 0.9987880547651992
outer loop
vertex 26.392220404051717 0 34.980726018283875
vertex 25.999863972288352 0 35.000060489857596
vertex 25.999863972288352 -14.999883058671184 35.000060489857596
endloop
endfacet
facet normal 0.04921810295358367 0 0.9987880547651992
outer loop
vertex 26.392220404051717 0 34.980726018283875
vertex 25.999863972288352 -14.999883058671184 35.000060489857596
vertex 26.392220404051717 -14.999883058671184 34.980726018283875
endloop
endfacet
facet normal 0 0 1
outer loop
vertex 25.999863972288352 0 35.000060489857596
vertex 8.999863164611078 0 35.000060489857596
vertex 8.999863164611078 -14.999883058671184 35.000060489857596
endloop
endfacet
facet normal 0 0 1
outer loop
vertex 25.999863972288352 0 35.000060489857596
vertex 8.999863164611078 -14.999883058671184 35.000060489857596
vertex 25.999863972288352 -14.999883058671184 35.000060489857596
endloop
endfacet
facet normal -0.04925985356940496 0 0.9987859965109247
outer loop
vertex 8.999863164611078 0 35.000060489857596
vertex 8.607840085805883 0 34.980726018283875
vertex 8.607840085805883 -14.999883058671184 34.980726018283875
endloop
endfacet
facet normal -0.04925985356940496 0 0.9987859965109247
outer loop
vertex 8.999863164611078 0 35.000060489857596
vertex 8.607840085805883 -14.999883058671184 34.980726018283875
vertex 8.999863164611078 -14.999883058671184 35.000060489857596
endloop
endfacet
facet normal -0.1468871362705859 0 0.9891532587007063
outer loop
vertex 8.607840085805883 0 34.980726018283875
vertex 8.219483889540534 0 34.92305595652086
vertex 8.219483889540534 -14.999883058671184 34.92305595652086
endloop
endfacet
facet normal -0.1468871362705859 0 0.9891532587007063
outer loop
vertex 8.607840085805883 0 34.980726018283875
vertex 8.219483889540534 -14.999883058671184 34.92305595652086
vertex 8.607840085805883 -14.999883058671184 34.980726018283875
endloop
endfacet
facet normal -0.24293533350426658 0 0.9700424855310054
outer loop
vertex 8.219483889540534 0 34.92305595652086
vertex 7.838794811313041 0 34.8277170104849
vertex 7.838794811313041 -14.999883058671184 34.8277170104849
endloop
endfacet
facet normal -0.24293533350426658 0 0.9700424855310054
outer loop
vertex 8.219483889540534 0 34.92305595652086
vertex 7.838794811313041 -14.999883058671184 34.8277170104849
vertex 8.219483889540534 -14.999883058671184 34.92305595652086
endloop
endfacet
facet normal -0.33703544436686467 0 0.9414919592011555
outer loop
vertex 7.838794811313041 0 34.8277170104849
vertex 7.469106380705082 0 34.695375886092336
vertex 7.469106380705082 -14.999883058671184 34.695375886092336
endloop
endfacet
facet normal -0.33703544436686467 0 0.9414919592011555
outer loop
vertex 7.838794811313041 0 34.8277170104849
vertex 7.469106380705082 -14.999883058671184 34.695375886092336
vertex 7.838794811313041 -14.999883058671184 34.8277170104849
endloop
endfacet
facet normal -0.4273922439120718 0 0.9040662972613258
outer loop
vertex 7.469106380705082 0 34.695375886092336
vertex 7.1144188332146685 0 34.52769934813399
vertex 7.1144188332146685 -14.999883058671184 34.52769934813399
endloop
endfacet
facet normal -0.4273922439120718 0 0.9040662972613258
outer loop
vertex 7.469106380705082 0 34.695375886092336
vertex 7.1144188332146685 -14.999883058671184 34.52769934813399
vertex 7.469106380705082 -14.999883058671184 34.695375886092336
endloop
endfacet
facet normal -0.5138710794915552 0 0.8578674219610999
outer loop
vertex 7.1144188332146685 0 34.52769934813399
vertex 6.777732345465309 0 34.32602080844254
vertex 6.777732345465309 -14.999883058671184 34.32602080844254
endloop
endfacet
facet normal -0.5138710794915552 0 0.8578674219610999
outer loop
vertex 7.1144188332146685 0 34.52769934813399
vertex 6.777732345465309 -14.999883058671184 34.32602080844254
vertex 7.1144188332146685 -14.999883058671184 34.52769934813399
endloop
endfacet
facet normal -0.5959175673664517 0 0.803045610724603
outer loop
vertex 6.777732345465309 0 34.32602080844254
vertex 6.462380447038682 0 34.09200703180883
vertex 6.462380447038682 -14.999883058671184 34.09200703180883
endloop
endfacet
facet normal -0.5959175673664517 0 0.803045610724603
outer loop
vertex 6.777732345465309 0 34.32602080844254
vertex 6.462380447038682 -14.999883058671184 34.09200703180883
vertex 6.777732345465309 -14.999883058671184 34.32602080844254
endloop
endfacet
facet normal -0.6718691263897161 0 0.7406698839593249
outer loop
vertex 6.462380447038682 0 34.09200703180883
vertex 6.171696667516463 0 33.828324841898194
vertex 6.171696667516463 -14.999883058671184 33.828324841898194
endloop
endfacet
facet normal -0.6718691263897161 0 0.7406698839593249
outer loop
vertex 6.462380447038682 0 34.09200703180883
vertex 6.171696667516463 -14.999883058671184 33.828324841898194
vertex 6.462380447038682 -14.999883058671184 34.09200703180883
endloop
endfacet
facet normal -0.7406698839593294 0 0.6718691263897111
outer loop
vertex 6.171696667516463 0 33.828324841898194
vertex 5.908014477605827 0 33.537641062375975
vertex 5.908014477605827 -14.999883058671184 33.537641062375975
endloop
endfacet
facet normal -0.7406698839593294 0 0.6718691263897111
outer loop
vertex 6.171696667516463 0 33.828324841898194
vertex 5.908014477605827 -14.999883058671184 33.537641062375975
vertex 6.171696667516463 -14.999883058671184 33.828324841898194
endloop
endfacet
facet normal -0.8030456107245987 0 0.5959175673664575
outer loop
vertex 5.908014477605827 0 33.537641062375975
vertex 5.6740007009721145 0 33.22228916394935
vertex 5.6740007009721145 -14.999883058671184 33.22228916394935
endloop
endfacet
facet normal -0.8030456107245987 0 0.5959175673664575
outer loop
vertex 5.908014477605827 0 33.537641062375975
vertex 5.6740007009721145 -14.999883058671184 33.22228916394935
vertex 5.908014477605827 -14.999883058671184 33.537641062375975
endloop
endfacet
facet normal -0.8578674219610992 0 0.5138710794915561
outer loop
vertex 5.6740007009721145 0 33.22228916394935
vertex 5.472322161280667 0 32.885602676199994
vertex 5.472322161280667 -14.999883058671184 32.885602676199994
endloop
endfacet
facet normal -0.8578674219610992 0 0.5138710794915561
outer loop
vertex 5.6740007009721145 0 33.22228916394935
vertex 5.472322161280667 -14.999883058671184 32.885602676199994
vertex 5.6740007009721145 -14.999883058671184 33.22228916394935
endloop
endfacet
facet normal -0.9042213258167769 0 0.4270641567003136
outer loop
vertex 5.472322161280667 0 32.885602676199994
vertex 5.3046456233223225 0 32.53058177575141
vertex 5.3046456233223225 -14.999883058671184 32.53058177575141
endloop
endfacet
facet normal -0.9042213258167769 0 0.4270641567003136
outer loop
vertex 5.472322161280667 0 32.885602676199994
vertex 5.3046456233223225 -14.999883058671184 32.53058177575141
vertex 5.472322161280667 -14.999883058671184 32.885602676199994
endloop
endfacet
facet normal -0.9413954081216901 0 0.33730503341544754
outer loop
vertex 5.3046456233223225 0 32.53058177575141
vertex 5.172304498929753 0 32.16122669810162
vertex 5.172304498929753 -14.999883058671184 32.16122669810162
endloop
endfacet
facet normal -0.9413954081216901 0 0.33730503341544754
outer loop
vertex 5.3046456233223225 0 32.53058177575141
vertex 5.172304498929753 -14.999883058671184 32.16122669810162
vertex 5.3046456233223225 -14.999883058671184 32.53058177575141
endloop
endfacet
facet normal -0.9700925545978055 0 0.24273531987311517
outer loop
vertex 5.172304498929753 0 32.16122669810162
vertex 5.076965552893796 0 31.78020426691596
vertex 5.076965552893796 -14.999883058671184 31.78020426691596
endloop
endfacet
facet normal -0.9700925545978055 0 0.24273531987311517
outer loop
vertex 5.172304498929753 0 32.16122669810162
vertex 5.076965552893796 -14.999883058671184 31.78020426691596
vertex 5.172304498929753 -14.999883058671184 32.16122669810162
endloop
endfacet
facet normal -0.9891349164525024 0 0.14701060184388462
outer loop
vertex 5.076965552893796 0 31.78020426691596
vertex 5.019295491130787 0 31.392181423608776
vertex 5.019295491130787 -14.999883058671184 31.392181423608776
endloop
endfacet
facet normal -0.9891349164525024 0 0.14701060184388462
outer loop
vertex 5.076965552893796 0 31.78020426691596
vertex 5.019295491130787 -14.999883058671184 31.392181423608776
vertex 5.076965552893796 -14.999883058671184 31.78020426691596
endloop
endfacet
facet normal -0.9987859965109239 0 0.04925985356941668
outer loop
vertex 5.019295491130787 0 31.392181423608776
vertex 4.999961019557062 0 31.000158344803584
vertex 4.999961019557062 -14.999883058671184 31.000158344803584
endloop
endfacet
facet normal -0.9987859965109239 0 0.04925985356941668
outer loop
vertex 5.019295491130787 0 31.392181423608776
vertex 4.999961019557062 -14.999883058671184 31.000158344803584
vertex 5.019295491130787 -14.999883058671184 31.392181423608776
endloop
endfacet
facet normal -1 0 0
outer loop
vertex 4.999961019557062 0 31.000158344803584
vertex 4.999961019557062 0 3.9999021450540155
vertex 4.999961019557062 -14.999883058671184 3.9999021450540155
endloop
endfacet
facet normal -1 0 0
outer loop
vertex 4.999961019557062 0 31.000158344803584
vertex 4.999961019557062 -14.999883058671184 3.9999021450540155
vertex 4.999961019557062 -14.999883058671184 31.000158344803584
endloop
endfacet
facet normal -0.998785996510924 0 0.04925985356941641
outer loop
vertex 4.999961019557062 0 3.9999021450540155
vertex 4.980626547983336 0 3.6078790662488216
vertex 4.980626547983336 -14.999883058671184 3.6078790662488216
endloop
endfacet
facet normal -0.998785996510924 0 0.04925985356941641
outer loop
vertex 4.999961019557062 0 3.9999021450540155
vertex 4.980626547983336 -14.999883058671184 3.6078790662488216
vertex 4.999961019557062 -14.999883058671184 3.9999021450540155
endloop
endfacet
facet normal -0.9892762881348234 0 0.1460562416817091
outer loop
vertex 4.980626547983336 0 3.6078790662488216
vertex 4.923289839178494 0 3.2195228699834724
vertex 4.923289839178494 -14.999883058671184 3.2195228699834724
endloop
endfacet
facet normal -0.9892762881348234 0 0.1460562416817091
outer loop
vertex 4.980626547983336 0 3.6078790662488216
vertex 4.923289839178494 -14.999883058671184 3.2195228699834724
vertex 4.980626547983336 -14.999883058671184 3.6078790662488216
endloop
endfacet
facet normal -0.9698420244593116 0 0.2437343791767256
outer loop
vertex 4.923289839178494 0 3.2195228699834724
vertex 4.82761754018437 0 2.8388337917559796
vertex 4.82761754018437 -14.999883058671184 2.8388337917559796
endloop
endfacet
facet normal -0.9698420244593116 0 0.2437343791767256
outer loop
vertex 4.923289839178494 0 3.2195228699834724
vertex 4.82761754018437 -14.999883058671184 2.8388337917559796
vertex 4.923289839178494 -14.999883058671184 3.2195228699834724
endloop
endfacet
facet normal -0.9417611226938182 0 0.3362826010701105
outer loop
vertex 4.82761754018437 0 2.8388337917559796
vertex 4.695609768749968 0 2.46914536114802
vertex 4.695609768749968 -14.999883058671184 2.46914536114802
endloop
endfacet
facet normal -0.9417611226938182 0 0.3362826010701105
outer loop
vertex 4.82761754018437 0 2.8388337917559796
vertex 4.695609768749968 -14.999883058671184 2.46914536114802
vertex 4.82761754018437 -14.999883058671184 2.8388337917559796
endloop
endfacet
facet normal -0.9037378388935386 0 0.42808634473904467
outer loop
vertex 4.695609768749968 0 2.46914536114802
vertex 4.527599877833456 0 2.1144578136576064
vertex 4.527599877833456 -14.999883058671184 2.1144578136576064
endloop
endfacet
facet normal -0.9037378388935386 0 0.42808634473904467
outer loop
vertex 4.695609768749968 0 2.46914536114802
vertex 4.527599877833456 -14.999883058671184 2.1144578136576064
vertex 4.695609768749968 -14.999883058671184 2.46914536114802
endloop
endfacet
facet normal -0.8578674219611024 0 0.5138710794915509
outer loop
vertex 4.527599877833456 0 2.1144578136576064
vertex 4.325921338142009 0 1.7777713259082477
vertex 4.325921338142009 -14.999883058671184 1.7777713259082477
endloop
endfacet
facet normal -0.8578674219611024 0 0.5138710794915509
outer loop
vertex 4.527599877833456 0 2.1144578136576064
vertex 4.325921338142009 -14.999883058671184 1.7777713259082477
vertex 4.527599877833456 -14.999883058671184 2.1144578136576064
endloop
endfacet
facet normal -0.8030456107245987 0 0.5959175673664575
outer loop
vertex 4.325921338142009 0 1.7777713259082477
vertex 4.091907561508296 0 1.4624194274816207
vertex 4.091907561508296 -14.999883058671184 1.4624194274816207
endloop
endfacet
facet normal -0.8030456107245987 0 0.5959175673664575
outer loop
vertex 4.325921338142009 0 1.7777713259082477
vertex 4.091907561508296 -14.999883058671184 1.4624194274816207
vertex 4.325921338142009 -14.999883058671184 1.7777713259082477
endloop
endfacet
facet normal -0.7410926642060165 0 0.6714027577095796
outer loop
vertex 4.091907561508296 0 1.4624194274816207
vertex 3.828558724555827 0 1.171735647959402
vertex 3.828558724555827 -14.999883058671184 1.171735647959402
endloop
endfacet
facet normal -0.7410926642060165 0 0.6714027577095796
outer loop
vertex 4.091907561508296 0 1.4624194274816207
vertex 3.828558724555827 -14.999883058671184 1.171735647959402
vertex 4.091907561508296 -14.999883058671184 1.4624194274816207
endloop
endfacet
facet normal -0.6714465972257042 0 0.7410529448521359
outer loop
vertex 3.828558724555827 0 1.171735647959402
vertex 3.5375415920754407 0 0.9080534580487656
vertex 3.5375415920754407 -14.999883058671184 0.9080534580487656
endloop
endfacet
facet normal -0.6714465972257042 0 0.7410529448521359
outer loop
vertex 3.828558724555827 0 1.171735647959402
vertex 3.5375415920754407 -14.999883058671184 0.9080534580487656
vertex 3.828558724555827 -14.999883058671184 1.171735647959402
endloop
endfacet
facet normal -0.5959175673664572 0 0.8030456107245989
outer loop
vertex 3.5375415920754407 0 0.9080534580487656
vertex 3.2221896936488137 0 0.6740396814150529
vertex 3.2221896936488137 -14.999883058671184 0.6740396814150529
endloop
endfacet
facet normal -0.5959175673664572 0 0.8030456107245989
outer loop
vertex 3.5375415920754407 0 0.9080534580487656
vertex 3.2221896936488137 -14.999883058671184 0.6740396814150529
vertex 3.5375415920754407 -14.999883058671184 0.9080534580487656
endloop
endfacet
facet normal -0.513871079491551 0 0.8578674219611023
outer loop
vertex 3.2221896936488137 0 0.6740396814150529
vertex 2.8855032058994547 0 0.4723611417236053
vertex 2.8855032058994547 -14.999883058671184 0.4723611417236053
endloop
endfacet
facet normal -0.513871079491551 0 0.8578674219611023
outer loop
vertex 3.2221896936488137 0 0.6740396814150529
vertex 2.8855032058994547 -14.999883058671184 0.4723611417236053
vertex 3.2221896936488137 -14.999883058671184 0.6740396814150529
endloop
endfacet
facet normal -0.4280863447390451 0 0.9037378388935386
outer loop
vertex 2.8855032058994547 0 0.4723611417236053
vertex 2.5308156584090415 0 0.30435125080709363
vertex 2.5308156584090415 -14.999883058671184 0.30435125080709363
endloop
endfacet
facet normal -0.4280863447390451 0 0.9037378388935386
outer loop
vertex 2.8855032058994547 0 0.4723611417236053
vertex 2.5308156584090415 -14.999883058671184 0.30435125080709363
vertex 2.8855032058994547 -14.999883058671184 0.4723611417236053
endloop
endfacet
facet normal -0.3362826010701099 0 0.9417611226938184
outer loop
vertex 2.5308156584090415 0 0.30435125080709363
vertex 2.161127227801082 0 0.17234347937269157
vertex 2.161127227801082 -14.999883058671184 0.17234347937269157
endloop
endfacet
facet normal -0.3362826010701099 0 0.9417611226938184
outer loop
vertex 2.5308156584090415 0 0.30435125080709363
vertex 2.161127227801082 -14.999883058671184 0.17234347937269157
vertex 2.5308156584090415 -14.999883058671184 0.30435125080709363
endloop
endfacet
facet normal -0.24293533350426252 0 0.9700424855310064
outer loop
vertex 2.161127227801082 0 0.17234347937269157
vertex 1.7804381495735893 0 0.07700453333673453
vertex 1.7804381495735893 -14.999883058671184 0.07700453333673453
endloop
endfacet
facet normal -0.24293533350426252 0 0.9700424855310064
outer loop
vertex 2.161127227801082 0 0.17234347937269157
vertex 1.7804381495735893 -14.999883058671184 0.07700453333673453
vertex 2.161127227801082 -14.999883058671184 0.17234347937269157
endloop
endfacet
facet normal -0.1468871362705772 0 0.9891532587007076
outer loop
vertex 1.7804381495735893 0 0.07700453333673453
vertex 1.3920819533082398 0 0.019334471573725552
vertex 1.3920819533082398 -14.999883058671184 0.019334471573725552
endloop
endfacet
facet normal -0.1468871362705772 0 0.9891532587007076
outer loop
vertex 1.7804381495735893 0 0.07700453333673453
vertex 1.3920819533082398 -14.999883058671184 0.019334471573725552
vertex 1.7804381495735893 -14.999883058671184 0.07700453333673453
endloop
endfacet
facet normal -0.049259853569416326 0 0.998785996510924
outer loop
vertex 1.3920819533082398 0 0.019334471573725552
vertex 1.0000588745030459 0 0
vertex 1.0000588745030459 -14.999883058671184 0
endloop
endfacet
facet normal -0.049259853569416326 0 0.998785996510924
outer loop
vertex 1.3920819533082398 0 0.019334471573725552
vertex 1.0000588745030459 -14.999883058671184 0
vertex 1.3920819533082398 -14.999883058671184 0.019334471573725552
endloop
endfacet
facet normal 0 1 0
outer loop
vertex 1.3920819533082398 -14.999883058671184 0.019334471573725552
vertex 1.0000588745030459 -14.999883058671184 0
vertex 0 -14.999883058671184 0
endloop
endfacet
facet normal 0 1 0
outer loop
vertex 0 -14.999883058671184 40.00002150941466
vertex 41.20575915910717 -14.999883058671184 40.00002150941466
vertex 41.578447766338634 -14.999883058671184 39.98168709671544
endloop
endfacet
facet normal 0 1 0
outer loop
vertex 41.578447766338634 -14.999883058671184 39.98168709671544
vertex 41.94713613807209 -14.999883058671184 39.92701721157594
vertex 42.308824097684024 -14.999883058671184 39.83634520695433
endloop
endfacet
facet normal 0 1 0
outer loop
vertex 42.308824097684024 -14.999883058671184 39.83634520695433
vertex 42.660178115592764 -14.999883058671184 39.710671141725115
vertex 42.99719795630029 -14.999883058671184 39.55132842772096
endloop
endfacet
facet normal 0 0.9999999999999999 0
outer loop
vertex 42.99719795630029 -14.999883058671184 39.55132842772096
vertex 43.31721679614126 -14.999883058671184 39.35965047677454
vertex 43.61656775257584 -14.999883058671184 39.1373040536767
endloop
endfacet
facet normal 0 1 0
outer loop
vertex 43.61656775257584 -14.999883058671184 39.1373040536767
vertex 43.89291735489685 -14.999883058671184 38.88695598209277
vertex 44.14326542648078 -14.999883058671184 38.61060637977176
endloop
endfacet
facet normal 0 1 0
outer loop
vertex 44.14326542648078 -14.999883058671184 38.61060637977176
vertex 44.36561184957862 -14.999883058671184 38.31125542333718
vertex 44.55728980052504 -14.999883058671184 37.99123658349621
endloop
endfacet
facet normal 0 1 0
outer loop
vertex 44.55728980052504 -14.999883058671184 37.99123658349621
vertex 44.716632514529195 -14.999883058671184 37.654216742788684
vertex 44.84230657975841 -14.999883058671184 37.303196077838116
endloop
endfacet
facet normal 0 1 0
outer loop
vertex 44.84230657975841 -14.999883058671184 37.303196077838116
vertex 44.93297858438002 -14.999883058671184 36.941508118226174
vertex 44.98764846951952 -14.999883058671184 36.572486393534554
endloop
endfacet
facet normal 0 1 0
outer loop
vertex 44.98764846951952 -14.999883058671184 36.572486393534554
vertex 45.00598288221874 -14.999883058671184 36.20013113926125
vertex 44.98764846951952 -14.999883058671184 35.827442532029785
endloop
endfacet
facet normal 0 1 0
outer loop
vertex 44.98764846951952 -14.999883058671184 35.827442532029785
vertex 44.93297858438002 -14.999883058671184 35.45875416029633
vertex 44.84230657975841 -14.999883058671184 35.097066200684395
endloop
endfacet
facet normal 0 1 0
outer loop
vertex 44.84230657975841 -14.999883058671184 35.097066200684395
vertex 44.716632514529195 -14.999883058671184 34.745712182775655
vertex 44.55728980052504 -14.999883058671184 34.40869234206813
endloop
endfacet
facet normal 0 1 0
outer loop
vertex 44.55728980052504 -14.999883058671184 34.40869234206813
vertex 44.36561184957862 -14.999883058671184 34.08867350222715
vertex 44.14326542648078 -14.999883058671184 33.78932254579258
endloop
endfacet
facet normal 0 1 0
outer loop
vertex 44.14326542648078 -14.999883058671184 33.78932254579258
vertex 43.89291735489685 -14.999883058671184 33.51297294347157
vertex 32.2882341751635 -14.999883058671184 21.91762364656692
endloop
endfacet
facet normal 0 1 0
outer loop
vertex 32.2882341751635 -14.999883058671184 21.91762364656692
vertex 32.17789434601 -14.999883058671184 21.835952171815837
vertex 32.059887398818645 -14.999883058671184 21.76528134468429
endloop
endfacet
facet normal 0 1 0
outer loop
vertex 32.059887398818645 -14.999883058671184 21.76528134468429
vertex 31.935880098380267 -14.999883058671184 21.706611224046778
vertex 31.806539150611204 -14.999883058671184 21.66027516286147
endloop
endfacet
facet normal 0 0.9999999999999999 0
outer loop
vertex 31.806539150611204 -14.999883058671184 21.66027516286147
vertex 31.673197967344134 -14.999883058671184 21.6269398670447
vertex 31.53718996041172 -14.999883058671184 21.606605336596473
endloop
endfacet
facet normal 0 1 0
outer loop
vertex 31.53718996041172 -14.999883058671184 21.606605336596473
vertex 31.399848541646634 -14.999883058671184 21.599938277433118
vertex 31.262840475839717 -14.999883058671184 21.606605336596473
endloop
endfacet
facet normal 0 0.9999999999999999 0
outer loop
vertex 31.262840475839717 -14.999883058671184 21.606605336596473
vertex 31.126832468907303 -14.999883058671184 21.6269398670447
vertex 30.99349128564023 -14.999883058671184 21.66027516286147
endloop
endfacet
facet normal 0 1 0
outer loop
vertex 30.99349128564023 -14.999883058671184 21.66027516286147
vertex 30.86415033787117 -14.999883058671184 21.706611224046778
vertex 30.74014303743279 -14.999883058671184 21.76528134468429
endloop
endfacet
facet normal 0 1 0
outer loop
vertex 30.74014303743279 -14.999883058671184 21.76528134468429
vertex 30.62213609024143 -14.999883058671184 21.835952171815837
vertex 30.511796261087927 -14.999883058671184 21.91762364656692
endloop
endfacet
facet normal 0 1 0
outer loop
vertex 30.511796261087927 -14.999883058671184 21.91762364656692
vertex 30.410123608846785 -14.999883058671184 22.00996241597937
vertex 30.31778483943434 -14.999883058671184 22.11196842117868
endloop
endfacet
facet normal 0 1 0
outer loop
vertex 30.31778483943434 -14.999883058671184 22.11196842117868
vertex 30.235780011725087 -14.999883058671184 22.22230825033218
vertex 30.16544253755171 -14.999883058671184 22.339981844565372
endloop
endfacet
facet normal 0 1 0
outer loop
vertex 30.16544253755171 -14.999883058671184 22.339981844565372
vertex 30.106439063956028 -14.999883058671184 22.46432249796192
vertex 30.060436355728886 -14.999883058671184 22.59366344573098
endloop
endfacet
facet normal 0 1 0
outer loop
vertex 30.060436355728886 -14.999883058671184 22.59366344573098
vertex 30.02676770695395 -14.999883058671184 22.727004628998053
vertex 30.00676652946389 -14.999883058671184 22.862679282972298
endloop
endfacet
facet normal 0 1 0
outer loop
vertex 30.00676652946389 -14.999883058671184 22.862679282972298
vertex 30.000099470300537 -14.999883058671184 23.000020701737384
vertex 30.000099470300537 -14.999883058671184 31.000158344803584
endloop
endfacet
facet normal 0 1 0
outer loop
vertex 4.999961019557062 -14.999883058671184 31.000158344803584
vertex 4.999961019557062 -14.999883058671184 3.9999021450540155
vertex 4.980626547983336 -14.999883058671184 3.6078790662488216
endloop
endfacet
facet normal 0 1 0
outer loop
vertex 4.980626547983336 -14.999883058671184 3.6078790662488216
vertex 4.923289839178494 -14.999883058671184 3.2195228699834724
vertex 4.82761754018437 -14.999883058671184 2.8388337917559796
endloop
endfacet
facet normal 0 1 0
outer loop
vertex 4.82761754018437 -14.999883058671184 2.8388337917559796
vertex 4.695609768749968 -14.999883058671184 2.46914536114802
vertex 4.527599877833456 -14.999883058671184 2.1144578136576064
endloop
endfacet
facet normal 0 0.9999999999999999 0
outer loop
vertex 4.527599877833456 -14.999883058671184 2.1144578136576064
vertex 4.325921338142009 -14.999883058671184 1.7777713259082477
vertex 4.091907561508296 -14.999883058671184 1.4624194274816207
endloop
endfacet
facet normal 0 1 0
outer loop
vertex 4.091907561508296 -14.999883058671184 1.4624194274816207
vertex 3.828558724555827 -14.999883058671184 1.171735647959402
vertex 3.5375415920754407 -14.999883058671184 0.9080534580487656
endloop
endfacet
facet normal 0 1 0
outer loop
vertex 3.5375415920754407 -14.999883058671184 0.9080534580487656
vertex 3.2221896936488137 -14.999883058671184 0.6740396814150529
vertex 2.8855032058994547 -14.999883058671184 0.4723611417236053
endloop
endfacet
facet normal 0 1 0
outer loop
vertex 2.8855032058994547 -14.999883058671184 0.4723611417236053
vertex 2.5308156584090415 -14.999883058671184 0.30435125080709363
vertex 2.161127227801082 -14.999883058671184 0.17234347937269157
endloop
endfacet
facet normal 0 1 0
outer loop
vertex 2.161127227801082 -14.999883058671184 0.17234347937269157
vertex 1.7804381495735893 -14.999883058671184 0.07700453333673453
vertex 1.3920819533082398 -14.999883058671184 0.019334471573725552
endloop
endfacet
facet normal 0 1 0
outer loop
vertex 1.3920819533082398 -14.999883058671184 0.019334471573725552
vertex 0 -14.999883058671184 0
vertex 0 -14.999883058671184 40.00002150941466
endloop
endfacet
facet normal 0 1 0
outer loop
vertex 0 -14.999883058671184 40.00002150941466
vertex 41.578447766338634 -14.999883058671184 39.98168709671544
vertex 42.308824097684024 -14.999883058671184 39.83634520695433
endloop
endfacet
facet normal 0 1 0
outer loop
vertex 42.308824097684024 -14.999883058671184 39.83634520695433
vertex 42.99719795630029 -14.999883058671184 39.55132842772096
vertex 43.61656775257584 -14.999883058671184 39.1373040536767
endloop
endfacet
facet normal 0 1 0
outer loop
vertex 43.61656775257584 -14.999883058671184 39.1373040536767
vertex 44.14326542648078 -14.999883058671184 38.61060637977176
vertex 44.55728980052504 -14.999883058671184 37.99123658349621
endloop
endfacet
facet normal 0 1 0
outer loop
vertex 44.55728980052504 -14.999883058671184 37.99123658349621
vertex 44.84230657975841 -14.999883058671184 37.303196077838116
vertex 44.98764846951952 -14.999883058671184 36.572486393534554
endloop
endfacet
facet normal 0 1 0
outer loop
vertex 44.98764846951952 -14.999883058671184 36.572486393534554
vertex 44.98764846951952 -14.999883058671184 35.827442532029785
vertex 44.84230657975841 -14.999883058671184 35.097066200684395
endloop
endfacet
facet normal 0 1 0
outer loop
vertex 44.84230657975841 -14.999883058671184 35.097066200684395
vertex 44.55728980052504 -14.999883058671184 34.40869234206813
vertex 44.14326542648078 -14.999883058671184 33.78932254579258
endloop
endfacet
facet normal 0 1 0
outer loop
vertex 44.14326542648078 -14.999883058671184 33.78932254579258
vertex 32.2882341751635 -14.999883058671184 21.91762364656692
vertex 32.059887398818645 -14.999883058671184 21.76528134468429
endloop
endfacet
facet normal 0 1 0
outer loop
vertex 32.059887398818645 -14.999883058671184 21.76528134468429
vertex 31.806539150611204 -14.999883058671184 21.66027516286147
vertex 31.53718996041172 -14.999883058671184 21.606605336596473
endloop
endfacet
facet normal 0 1 0
outer loop
vertex 31.53718996041172 -14.999883058671184 21.606605336596473
vertex 31.262840475839717 -14.999883058671184 21.606605336596473
vertex 30.99349128564023 -14.999883058671184 21.66027516286147
endloop
endfacet
facet normal 0 1 0
outer loop
vertex 30.99349128564023 -14.999883058671184 21.66027516286147
vertex 30.74014303743279 -14.999883058671184 21.76528134468429
vertex 30.511796261087927 -14.999883058671184 21.91762364656692
endloop
endfacet
facet normal 0 1 0
outer loop
vertex 30.511796261087927 -14.999883058671184 21.91762364656692
vertex 30.31778483943434 -14.999883058671184 22.11196842117868
vertex 30.16544253755171 -14.999883058671184 22.339981844565372
endloop
endfacet
facet normal 0 1 0
outer loop
vertex 30.16544253755171 -14.999883058671184 22.339981844565372
vertex 30.060436355728886 -14.999883058671184 22.59366344573098
vertex 30.00676652946389 -14.999883058671184 22.862679282972298
endloop
endfacet
facet normal 0 1 0
outer loop
vertex 4.999961019557062 -14.999883058671184 31.000158344803584
vertex 4.980626547983336 -14.999883058671184 3.6078790662488216
vertex 4.82761754018437 -14.999883058671184 2.8388337917559796
endloop
endfacet
facet normal 0 1 0
outer loop
vertex 4.82761754018437 -14.999883058671184 2.8388337917559796
vertex 4.527599877833456 -14.999883058671184 2.1144578136576064
vertex 4.091907561508296 -14.999883058671184 1.4624194274816207
endloop
endfacet
facet normal 0 1 0
outer loop
vertex 4.091907561508296 -14.999883058671184 1.4624194274816207
vertex 3.5375415920754407 -14.999883058671184 0.9080534580487656
vertex 2.8855032058994547 -14.999883058671184 0.4723611417236053
endloop
endfacet
facet normal 0 1 0
outer loop
vertex 2.8855032058994547 -14.999883058671184 0.4723611417236053
vertex 2.161127227801082 -14.999883058671184 0.17234347937269157
vertex 1.3920819533082398 -14.999883058671184 0.019334471573725552
endloop
endfacet
facet normal 0 1 0
outer loop
vertex 0 -14.999883058671184 40.00002150941466
vertex 42.308824097684024 -14.999883058671184 39.83634520695433
vertex 43.61656775257584 -14.999883058671184 39.1373040536767
endloop
endfacet
facet normal 0 1 0
outer loop
vertex 43.61656775257584 -14.999883058671184 39.1373040536767
vertex 44.55728980052504 -14.999883058671184 37.99123658349621
vertex 44.98764846951952 -14.999883058671184 36.572486393534554
endloop
endfacet
facet normal 0 1 0
outer loop
vertex 44.98764846951952 -14.999883058671184 36.572486393534554
vertex 44.84230657975841 -14.999883058671184 35.097066200684395
vertex 44.14326542648078 -14.999883058671184 33.78932254579258
endloop
endfacet
facet normal 0 1 0
outer loop
vertex 44.14326542648078 -14.999883058671184 33.78932254579258
vertex 32.059887398818645 -14.999883058671184 21.76528134468429
vertex 31.53718996041172 -14.999883058671184 21.606605336596473
endloop
endfacet
facet normal 0 1 0
outer loop
vertex 31.53718996041172 -14.999883058671184 21.606605336596473
vertex 30.99349128564023 -14.999883058671184 21.66027516286147
vertex 30.511796261087927 -14.999883058671184 21.91762364656692
endloop
endfacet
facet normal 0 1 0
outer loop
vertex 30.511796261087927 -14.999883058671184 21.91762364656692
vertex 30.16544253755171 -14.999883058671184 22.339981844565372
vertex 30.00676652946389 -14.999883058671184 22.862679282972298
endloop
endfacet
facet normal 0 1 0
outer loop
vertex 4.999961019557062 -14.999883058671184 31.000158344803584
vertex 4.82761754018437 -14.999883058671184 2.8388337917559796
vertex 4.091907561508296 -14.999883058671184 1.4624194274816207
endloop
endfacet
facet normal 0 0.9999999999999999 0
outer loop
vertex 4.091907561508296 -14.999883058671184 1.4624194274816207
vertex 2.8855032058994547 -14.999883058671184 0.4723611417236053
vertex 1.3920819533082398 -14.999883058671184 0.019334471573725552
endloop
endfacet
facet normal 0 0.9999999999999999 0
outer loop
vertex 0 -14.999883058671184 40.00002150941466
vertex 43.61656775257584 -14.999883058671184 39.1373040536767
vertex 44.98764846951952 -14.999883058671184 36.572486393534554
endloop
endfacet
facet normal 0 0.9999999999999999 0
outer loop
vertex 44.98764846951952 -14.999883058671184 36.572486393534554
vertex 44.14326542648078 -14.999883058671184 33.78932254579258
vertex 31.53718996041172 -14.999883058671184 21.606605336596473
endloop
endfacet
facet normal 0 1 0
outer loop
vertex 31.53718996041172 -14.999883058671184 21.606605336596473
vertex 30.511796261087927 -14.999883058671184 21.91762364656692
vertex 30.00676652946389 -14.999883058671184 22.862679282972298
endloop
endfacet
facet normal 0 1 0
outer loop
vertex 4.999961019557062 -14.999883058671184 31.000158344803584
vertex 4.091907561508296 -14.999883058671184 1.4624194274816207
vertex 1.3920819533082398 -14.999883058671184 0.019334471573725552
endloop
endfacet
facet normal 0 1 0
outer loop
vertex 44.98764846951952 -14.999883058671184 36.572486393534554
vertex 31.53718996041172 -14.999883058671184 21.606605336596473
vertex 30.00676652946389 -14.999883058671184 22.862679282972298
endloop
endfacet
facet normal 0 1 0
outer loop
vertex 5.019295491130787 -14.999883058671184 31.392181423608776
vertex 4.999961019557062 -14.999883058671184 31.000158344803584
vertex 1.3920819533082398 -14.999883058671184 0.019334471573725552
endloop
endfacet
facet normal 0 0.9999999999999999 0
outer loop
vertex 44.98764846951952 -14.999883058671184 36.572486393534554
vertex 30.00676652946389 -14.999883058671184 22.862679282972298
vertex 30.000099470300537 -14.999883058671184 31.000158344803584
endloop
endfacet
facet normal 0 1 0
outer loop
vertex 5.019295491130787 -14.999883058671184 31.392181423608776
vertex 1.3920819533082398 -14.999883058671184 0.019334471573725552
vertex 0 -14.999883058671184 40.00002150941466
endloop
endfacet
facet normal 0 1 0
outer loop
vertex 44.98764846951952 -14.999883058671184 36.572486393534554
vertex 30.000099470300537 -14.999883058671184 31.000158344803584
vertex 29.980764998726812 -14.999883058671184 31.392181423608776
endloop
endfacet
facet normal 0 1 0
outer loop
vertex 5.076965552893796 -14.999883058671184 31.78020426691596
vertex 5.019295491130787 -14.999883058671184 31.392181423608776
vertex 0 -14.999883058671184 40.00002150941466
endloop
endfacet
facet normal 0 1 0
outer loop
vertex 44.98764846951952 -14.999883058671184 36.572486393534554
vertex 29.980764998726812 -14.999883058671184 31.392181423608776
vertex 29.923094936963803 -14.999883058671184 31.78020426691596
endloop
endfacet
facet normal 0 1 0
outer loop
vertex 5.172304498929753 -14.999883058671184 32.16122669810162
vertex 5.076965552893796 -14.999883058671184 31.78020426691596
vertex 0 -14.999883058671184 40.00002150941466
endloop
endfacet
facet normal 0 1 0
outer loop
vertex 44.98764846951952 -14.999883058671184 36.572486393534554
vertex 29.923094936963803 -14.999883058671184 31.78020426691596
vertex 29.827755990927844 -14.999883058671184 32.16122669810162
endloop
endfacet
facet normal 0 0.9999999999999999 0
outer loop
vertex 5.3046456233223225 -14.999883058671184 32.53058177575141
vertex 5.172304498929753 -14.999883058671184 32.16122669810162
vertex 0 -14.999883058671184 40.00002150941466
endloop
endfacet
facet normal 0 1 0
outer loop
vertex 44.98764846951952 -14.999883058671184 36.572486393534554
vertex 29.827755990927844 -14.999883058671184 32.16122669810162
vertex 29.695414866535277 -14.999883058671184 32.53058177575141
endloop
endfacet
facet normal 0 1 0
outer loop
vertex 5.472322161280667 -14.999883058671184 32.885602676199994
vertex 5.3046456233223225 -14.999883058671184 32.53058177575141
vertex 0 -14.999883058671184 40.00002150941466
endloop
endfacet
facet normal 0 0.9999999999999999 0
outer loop
vertex 44.98764846951952 -14.999883058671184 36.572486393534554
vertex 29.695414866535277 -14.999883058671184 32.53058177575141
vertex 29.52773832857693 -14.999883058671184 32.885602676199994
endloop
endfacet
facet normal 0 0.9999999999999999 0
outer loop
vertex 5.6740007009721145 -14.999883058671184 33.22228916394935
vertex 5.472322161280667 -14.999883058671184 32.885602676199994
vertex 0 -14.999883058671184 40.00002150941466
endloop
endfacet
facet normal 0 1 0
outer loop
vertex 44.98764846951952 -14.999883058671184 36.572486393534554
vertex 29.52773832857693 -14.999883058671184 32.885602676199994
vertex 29.325726435927315 -14.999883058671184 33.22228916394935
endloop
endfacet
facet normal 0 0.9999999999999999 0
outer loop
vertex 5.908014477605827 -14.999883058671184 33.537641062375975
vertex 5.6740007009721145 -14.999883058671184 33.22228916394935
vertex 0 -14.999883058671184 40.00002150941466
endloop
endfacet
facet normal 0 1 0
outer loop
vertex 44.98764846951952 -14.999883058671184 36.572486393534554
vertex 29.325726435927315 -14.999883058671184 33.22228916394935
vertex 29.09204601225177 -14.999883058671184 33.537641062375975
endloop
endfacet
facet normal 0 1 0
outer loop
vertex 6.171696667516463 -14.999883058671184 33.828324841898194
vertex 5.908014477605827 -14.999883058671184 33.537641062375975
vertex 0 -14.999883058671184 40.00002150941466
endloop
endfacet
facet normal 0 1 0
outer loop
vertex 44.98764846951952 -14.999883058671184 36.572486393534554
vertex 29.09204601225177 -14.999883058671184 33.537641062375975
vertex 28.828363822341135 -14.999883058671184 33.828324841898194
endloop
endfacet
facet normal 0 1 0
outer loop
vertex 6.462380447038682 -14.999883058671184 34.09200703180883
vertex 6.171696667516463 -14.999883058671184 33.828324841898194
vertex 0 -14.999883058671184 40.00002150941466
endloop
endfacet
facet normal 0 1 0
outer loop
vertex 44.98764846951952 -14.999883058671184 36.572486393534554
vertex 28.828363822341135 -14.999883058671184 33.828324841898194
vertex 28.537680042818916 -14.999883058671184 34.09200703180883
endloop
endfacet
facet normal 0 1 0
outer loop
vertex 6.777732345465309 -14.999883058671184 34.32602080844254
vertex 6.462380447038682 -14.999883058671184 34.09200703180883
vertex 0 -14.999883058671184 40.00002150941466
endloop
endfacet
facet normal 0 1 0
outer loop
vertex 44.98764846951952 -14.999883058671184 36.572486393534554
vertex 28.537680042818916 -14.999883058671184 34.09200703180883
vertex 28.22232814439229 -14.999883058671184 34.32602080844254
endloop
endfacet
facet normal 0 1 0
outer loop
vertex 7.1144188332146685 -14.999883058671184 34.52769934813399
vertex 6.777732345465309 -14.999883058671184 34.32602080844254
vertex 0 -14.999883058671184 40.00002150941466
endloop
endfacet
facet normal 0 1 0
outer loop
vertex 44.98764846951952 -14.999883058671184 36.572486393534554
vertex 28.22232814439229 -14.999883058671184 34.32602080844254
vertex 27.88564165664293 -14.999883058671184 34.52769934813399
endloop
endfacet
facet normal 0 1 0
outer loop
vertex 7.469106380705082 -14.999883058671184 34.695375886092336
vertex 7.1144188332146685 -14.999883058671184 34.52769934813399
vertex 0 -14.999883058671184 40.00002150941466
endloop
endfacet
facet normal 0 1 0
outer loop
vertex 44.98764846951952 -14.999883058671184 36.572486393534554
vertex 27.88564165664293 -14.999883058671184 34.52769934813399
vertex 27.53062075619435 -14.999883058671184 34.695375886092336
endloop
endfacet
facet normal 0 1 0
outer loop
vertex 7.838794811313041 -14.999883058671184 34.8277170104849
vertex 7.469106380705082 -14.999883058671184 34.695375886092336
vertex 0 -14.999883058671184 40.00002150941466
endloop
endfacet
facet normal 0 1 0
outer loop
vertex 44.98764846951952 -14.999883058671184 36.572486393534554
vertex 27.53062075619435 -14.999883058671184 34.695375886092336
vertex 27.161265678544556 -14.999883058671184 34.8277170104849
endloop
endfacet
facet normal 0 1 0
outer loop
vertex 8.219483889540534 -14.999883058671184 34.92305595652086
vertex 7.838794811313041 -14.999883058671184 34.8277170104849
vertex 0 -14.999883058671184 40.00002150941466
endloop
endfacet
facet normal 0 1 0
outer loop
vertex 44.98764846951952 -14.999883058671184 36.572486393534554
vertex 27.161265678544556 -14.999883058671184 34.8277170104849
vertex 26.780243247358896 -14.999883058671184 34.92305595652086
endloop
endfacet
facet normal 0 1 0
outer loop
vertex 8.607840085805883 -14.999883058671184 34.980726018283875
vertex 8.219483889540534 -14.999883058671184 34.92305595652086
vertex 0 -14.999883058671184 40.00002150941466
endloop
endfacet
facet normal 0 1 0
outer loop
vertex 0 -14.999883058671184 40.00002150941466
vertex 44.98764846951952 -14.999883058671184 36.572486393534554
vertex 26.780243247358896 -14.999883058671184 34.92305595652086
endloop
endfacet
facet normal 0 1 0
outer loop
vertex 8.999863164611078 -14.999883058671184 35.000060489857596
vertex 8.607840085805883 -14.999883058671184 34.980726018283875
vertex 0 -14.999883058671184 40.00002150941466
endloop
endfacet
facet normal 0 1 0
outer loop
vertex 0 -14.999883058671184 40.00002150941466
vertex 26.780243247358896 -14.999883058671184 34.92305595652086
vertex 26.392220404051717 -14.999883058671184 34.980726018283875
endloop
endfacet
facet normal 0 1 0
outer loop
vertex 25.999863972288352 -14.999883058671184 35.000060489857596
vertex 8.999863164611078 -14.999883058671184 35.000060489857596
vertex 0 -14.999883058671184 40.00002150941466
endloop
endfacet
facet normal 0 1 0
outer loop
vertex 0 -14.999883058671184 40.00002150941466
vertex 26.392220404051717 -14.999883058671184 34.980726018283875
vertex 25.999863972288352 -14.999883058671184 35.000060489857596
endloop
endfacet
facet normal 0 -1 0
outer loop
vertex 0 0 0
vertex 1.0000588745030459 0 0
vertex 1.3920819533082398 0 0.019334471573725552
endloop
endfacet
facet normal 0 -1 0
outer loop
vertex 41.578447766338634 0 39.98168709671544
vertex 41.20575915910717 0 40.00002150941466
vertex 0 0 40.00002150941466
endloop
endfacet
facet normal 0 -1 0
outer loop
vertex 42.308824097684024 0 39.83634520695433
vertex 41.94713613807209 0 39.92701721157594
vertex 41.578447766338634 0 39.98168709671544
endloop
endfacet
facet normal 0 -1 0
outer loop
vertex 42.99719795630029 0 39.55132842772096
vertex 42.660178115592764 0 39.710671141725115
vertex 42.308824097684024 0 39.83634520695433
endloop
endfacet
facet normal 0 -1 0
outer loop
vertex 43.61656775257584 0 39.1373040536767
vertex 43.31721679614126 0 39.35965047677454
vertex 42.99719795630029 0 39.55132842772096
endloop
endfacet
facet normal 0 -1 0
outer loop
vertex 44.14326542648078 0 38.61060637977176
vertex 43.89291735489685 0 38.88695598209277
vertex 43.61656775257584 0 39.1373040536767
endloop
endfacet
facet normal 0 -0.9999999999999999 0
outer loop
vertex 44.55728980052504 0 37.99123658349621
vertex 44.36561184957862 0 38.31125542333718
vertex 44.14326542648078 0 38.61060637977176
endloop
endfacet
facet normal 0 -1 0
outer loop
vertex 44.84230657975841 0 37.303196077838116
vertex 44.716632514529195 0 37.654216742788684
vertex 44.55728980052504 0 37.99123658349621
endloop
endfacet
facet normal 0 -0.9999999999999999 0
outer loop
vertex 44.98764846951952 0 36.572486393534554
vertex 44.93297858438002 0 36.941508118226174
vertex 44.84230657975841 0 37.303196077838116
endloop
endfacet
facet normal 0 -1 0
outer loop
vertex 44.98764846951952 0 35.827442532029785
vertex 45.00598288221874 0 36.20013113926125
vertex 44.98764846951952 0 36.572486393534554
endloop
endfacet
facet normal 0 -1 0
outer loop
vertex 44.84230657975841 0 35.097066200684395
vertex 44.93297858438002 0 35.45875416029633
vertex 44.98764846951952 0 35.827442532029785
endloop
endfacet
facet normal 0 -1 0
outer loop
vertex 44.55728980052504 0 34.40869234206813
vertex 44.716632514529195 0 34.745712182775655
vertex 44.84230657975841 0 35.097066200684395
endloop
endfacet
facet normal 0 -1 0
outer loop
vertex 44.14326542648078 0 33.78932254579258
vertex 44.36561184957862 0 34.08867350222715
vertex 44.55728980052504 0 34.40869234206813
endloop
endfacet
facet normal 0 -1 0
outer loop
vertex 32.2882341751635 0 21.91762364656692
vertex 43.89291735489685 0 33.51297294347157
vertex 44.14326542648078 0 33.78932254579258
endloop
endfacet
facet normal 0 -1 0
outer loop
vertex 32.059887398818645 0 21.76528134468429
vertex 32.17789434601 0 21.835952171815837
vertex 32.2882341751635 0 21.91762364656692
endloop
endfacet
facet normal 0 -0.9999999999999999 0
outer loop
vertex 31.806539150611204 0 21.66027516286147
vertex 31.935880098380267 0 21.706611224046778
vertex 32.059887398818645 0 21.76528134468429
endloop
endfacet
facet normal 0 -1 0
outer loop
vertex 31.53718996041172 0 21.606605336596473
vertex 31.673197967344134 0 21.6269398670447
vertex 31.806539150611204 0 21.66027516286147
endloop
endfacet
facet normal 0 -1 0
outer loop
vertex 31.262840475839717 0 21.606605336596473
vertex 31.399848541646634 0 21.599938277433118
vertex 31.53718996041172 0 21.606605336596473
endloop
endfacet
facet normal 0 -0.9999999999999999 0
outer loop
vertex 30.99349128564023 0 21.66027516286147
vertex 31.126832468907303 0 21.6269398670447
vertex 31.262840475839717 0 21.606605336596473
endloop
endfacet
facet normal 0 -0.9999999999999999 0
outer loop
vertex 30.74014303743279 0 21.76528134468429
vertex 30.86415033787117 0 21.706611224046778
vertex 30.99349128564023 0 21.66027516286147
endloop
endfacet
facet normal 0 -1 0
outer loop
vertex 30.511796261087927 0 21.91762364656692
vertex 30.62213609024143 0 21.835952171815837
vertex 30.74014303743279 0 21.76528134468429
endloop
endfacet
facet normal 0 -1 0
outer loop
vertex 30.31778483943434 0 22.11196842117868
vertex 30.410123608846785 0 22.00996241597937
vertex 30.511796261087927 0 21.91762364656692
endloop
endfacet
facet normal 0 -1 0
outer loop
vertex 30.16544253755171 0 22.339981844565372
vertex 30.235780011725087 0 22.22230825033218
vertex 30.31778483943434 0 22.11196842117868
endloop
endfacet
facet normal 0 -1 0
outer loop
vertex 30.060436355728886 0 22.59366344573098
vertex 30.106439063956028 0 22.46432249796192
vertex 30.16544253755171 0 22.339981844565372
endloop
endfacet
facet normal 0 -1 0
outer loop
vertex 30.00676652946389 0 22.862679282972298
vertex 30.02676770695395 0 22.727004628998053
vertex 30.060436355728886 0 22.59366344573098
endloop
endfacet
facet normal 0 -1 0
outer loop
vertex 30.000099470300537 0 31.000158344803584
vertex 30.000099470300537 0 23.000020701737384
vertex 30.00676652946389 0 22.862679282972298
endloop
endfacet
facet normal 0 -1 0
outer loop
vertex 4.980626547983336 0 3.6078790662488216
vertex 4.999961019557062 0 3.9999021450540155
vertex 4.999961019557062 0 31.000158344803584
endloop
endfacet
facet normal 0 -1 0
outer loop
vertex 4.82761754018437 0 2.8388337917559796
vertex 4.923289839178494 0 3.2195228699834724
vertex 4.980626547983336 0 3.6078790662488216
endloop
endfacet
facet normal 0 -1 0
outer loop
vertex 4.527599877833456 0 2.1144578136576064
vertex 4.695609768749968 0 2.46914536114802
vertex 4.82761754018437 0 2.8388337917559796
endloop
endfacet
facet normal 0 -1 0
outer loop
vertex 4.091907561508296 0 1.4624194274816207
vertex 4.325921338142009 0 1.7777713259082477
vertex 4.527599877833456 0 2.1144578136576064
endloop
endfacet
facet normal 0 -1 0
outer loop
vertex 3.5375415920754407 0 0.9080534580487656
vertex 3.828558724555827 0 1.171735647959402
vertex 4.091907561508296 0 1.4624194274816207
endloop
endfacet
facet normal 0 -1 0
outer loop
vertex 2.8855032058994547 0 0.4723611417236053
vertex 3.2221896936488137 0 0.6740396814150529
vertex 3.5375415920754407 0 0.9080534580487656
endloop
endfacet
facet normal 0 -1 0
outer loop
vertex 2.161127227801082 0 0.17234347937269157
vertex 2.5308156584090415 0 0.30435125080709363
vertex 2.8855032058994547 0 0.4723611417236053
endloop
endfacet
facet normal 0 -1 0
outer loop
vertex 1.3920819533082398 0 0.019334471573725552
vertex 1.7804381495735893 0 0.07700453333673453
vertex 2.161127227801082 0 0.17234347937269157
endloop
endfacet
facet normal 0 -1 0
outer loop
vertex 0 0 40.00002150941466
vertex 0 0 0
vertex 1.3920819533082398 0 0.019334471573725552
endloop
endfacet
facet normal 0 -1 0
outer loop
vertex 42.308824097684024 0 39.83634520695433
vertex 41.578447766338634 0 39.98168709671544
vertex 0 0 40.00002150941466
endloop
endfacet
facet normal 0 -1 0
outer loop
vertex 43.61656775257584 0 39.1373040536767
vertex 42.99719795630029 0 39.55132842772096
vertex 42.308824097684024 0 39.83634520695433
endloop
endfacet
facet normal 0 -1 0
outer loop
vertex 44.55728980052504 0 37.99123658349621
vertex 44.14326542648078 0 38.61060637977176
vertex 43.61656775257584 0 39.1373040536767
endloop
endfacet
facet normal 0 -0.9999999999999999 0
outer loop
vertex 44.98764846951952 0 36.572486393534554
vertex 44.84230657975841 0 37.303196077838116
vertex 44.55728980052504 0 37.99123658349621
endloop
endfacet
facet normal 0 -0.9999999999999999 0
outer loop
vertex 44.84230657975841 0 35.097066200684395
vertex 44.98764846951952 0 35.827442532029785
vertex 44.98764846951952 0 36.572486393534554
endloop
endfacet
facet normal 0 -1 0
outer loop
vertex 44.14326542648078 0 33.78932254579258
vertex 44.55728980052504 0 34.40869234206813
vertex 44.84230657975841 0 35.097066200684395
endloop
endfacet
facet normal 0 -1 0
outer loop
vertex 32.059887398818645 0 21.76528134468429
vertex 32.2882341751635 0 21.91762364656692
vertex 44.14326542648078 0 33.78932254579258
endloop
endfacet
facet normal 0 -1 0
outer loop
vertex 31.53718996041172 0 21.606605336596473
vertex 31.806539150611204 0 21.66027516286147
vertex 32.059887398818645 0 21.76528134468429
endloop
endfacet
facet normal 0 -0.9999999999999999 0
outer loop
vertex 30.99349128564023 0 21.66027516286147
vertex 31.262840475839717 0 21.606605336596473
vertex 31.53718996041172 0 21.606605336596473
endloop
endfacet
facet normal 0 -1 0
outer loop
vertex 30.511796261087927 0 21.91762364656692
vertex 30.74014303743279 0 21.76528134468429
vertex 30.99349128564023 0 21.66027516286147
endloop
endfacet
facet normal 0 -1 0
outer loop
vertex 30.16544253755171 0 22.339981844565372
vertex 30.31778483943434 0 22.11196842117868
vertex 30.511796261087927 0 21.91762364656692
endloop
endfacet
facet normal 0 -1 0
outer loop
vertex 30.00676652946389 0 22.862679282972298
vertex 30.060436355728886 0 22.59366344573098
vertex 30.16544253755171 0 22.339981844565372
endloop
endfacet
facet normal 0 -1 0
outer loop
vertex 4.82761754018437 0 2.8388337917559796
vertex 4.980626547983336 0 3.6078790662488216
vertex 4.999961019557062 0 31.000158344803584
endloop
endfacet
facet normal 0 -1 0
outer loop
vertex 4.091907561508296 0 1.4624194274816207
vertex 4.527599877833456 0 2.1144578136576064
vertex 4.82761754018437 0 2.8388337917559796
endloop
endfacet
facet normal 0 -1 0
outer loop
vertex 2.8855032058994547 0 0.4723611417236053
vertex 3.5375415920754407 0 0.9080534580487656
vertex 4.091907561508296 0 1.4624194274816207
endloop
endfacet
facet normal 0 -1 0
outer loop
vertex 1.3920819533082398 0 0.019334471573725552
vertex 2.161127227801082 0 0.17234347937269157
vertex 2.8855032058994547 0 0.4723611417236053
endloop
endfacet
facet normal 0 -1 0
outer loop
vertex 43.61656775257584 0 39.1373040536767
vertex 42.308824097684024 0 39.83634520695433
vertex 0 0 40.00002150941466
endloop
endfacet
facet normal 0 -1 0
outer loop
vertex 44.98764846951952 0 36.572486393534554
vertex 44.55728980052504 0 37.99123658349621
vertex 43.61656775257584 0 39.1373040536767
endloop
endfacet
facet normal 0 -1 0
outer loop
vertex 44.14326542648078 0 33.78932254579258
vertex 44.84230657975841 0 35.097066200684395
vertex 44.98764846951952 0 36.572486393534554
endloop
endfacet
facet normal 0 -1 0
outer loop
vertex 31.53718996041172 0 21.606605336596473
vertex 32.059887398818645 0 21.76528134468429
vertex 44.14326542648078 0 33.78932254579258
endloop
endfacet
facet normal 0 -1 0
outer loop
vertex 30.511796261087927 0 21.91762364656692
vertex 30.99349128564023 0 21.66027516286147
vertex 31.53718996041172 0 21.606605336596473
endloop
endfacet
facet normal 0 -1 0
outer loop
vertex 30.00676652946389 0 22.862679282972298
vertex 30.16544253755171 0 22.339981844565372
vertex 30.511796261087927 0 21.91762364656692
endloop
endfacet
facet normal 0 -1 0
outer loop
vertex 4.091907561508296 0 1.4624194274816207
vertex 4.82761754018437 0 2.8388337917559796
vertex 4.999961019557062 0 31.000158344803584
endloop
endfacet
facet normal 0 -1 0
outer loop
vertex 1.3920819533082398 0 0.019334471573725552
vertex 2.8855032058994547 0 0.4723611417236053
vertex 4.091907561508296 0 1.4624194274816207
endloop
endfacet
facet normal 0 -0.9999999999999999 0
outer loop
vertex 44.98764846951952 0 36.572486393534554
vertex 43.61656775257584 0 39.1373040536767
vertex 0 0 40.00002150941466
endloop
endfacet
facet normal 0 -1 0
outer loop
vertex 31.53718996041172 0 21.606605336596473
vertex 44.14326542648078 0 33.78932254579258
vertex 44.98764846951952 0 36.572486393534554
endloop
endfacet
facet normal 0 -1 0
outer loop
vertex 30.00676652946389 0 22.862679282972298
vertex 30.511796261087927 0 21.91762364656692
vertex 31.53718996041172 0 21.606605336596473
endloop
endfacet
facet normal 0 -0.9999999999999999 0
outer loop
vertex 1.3920819533082398 0 0.019334471573725552
vertex 4.091907561508296 0 1.4624194274816207
vertex 4.999961019557062 0 31.000158344803584
endloop
endfacet
facet normal 0 -1 0
outer loop
vertex 30.00676652946389 0 22.862679282972298
vertex 31.53718996041172 0 21.606605336596473
vertex 44.98764846951952 0 36.572486393534554
endloop
endfacet
facet normal 0 -1 0
outer loop
vertex 1.3920819533082398 0 0.019334471573725552
vertex 4.999961019557062 0 31.000158344803584
vertex 5.019295491130787 0 31.392181423608776
endloop
endfacet
facet normal 0 -1 0
outer loop
vertex 30.000099470300537 0 31.000158344803584
vertex 30.00676652946389 0 22.862679282972298
vertex 44.98764846951952 0 36.572486393534554
endloop
endfacet
facet normal 0 -1 0
outer loop
vertex 0 0 40.00002150941466
vertex 1.3920819533082398 0 0.019334471573725552
vertex 5.019295491130787 0 31.392181423608776
endloop
endfacet
facet normal 0 -1 0
outer loop
vertex 29.980764998726812 0 31.392181423608776
vertex 30.000099470300537 0 31.000158344803584
vertex 44.98764846951952 0 36.572486393534554
endloop
endfacet
facet normal 0 -1 0
outer loop
vertex 0 0 40.00002150941466
vertex 5.019295491130787 0 31.392181423608776
vertex 5.076965552893796 0 31.78020426691596
endloop
endfacet
facet normal 0 -1 0
outer loop
vertex 29.923094936963803 0 31.78020426691596
vertex 29.980764998726812 0 31.392181423608776
vertex 44.98764846951952 0 36.572486393534554
endloop
endfacet
facet normal 0 -1 0
outer loop
vertex 0 0 40.00002150941466
vertex 5.076965552893796 0 31.78020426691596
vertex 5.172304498929753 0 32.16122669810162
endloop
endfacet
facet normal 0 -1 0
outer loop
vertex 29.827755990927844 0 32.16122669810162
vertex 29.923094936963803 0 31.78020426691596
vertex 44.98764846951952 0 36.572486393534554
endloop
endfacet
facet normal 0 -1 0
outer loop
vertex 0 0 40.00002150941466
vertex 5.172304498929753 0 32.16122669810162
vertex 5.3046456233223225 0 32.53058177575141
endloop
endfacet
facet normal 0 -1 0
outer loop
vertex 29.695414866535277 0 32.53058177575141
vertex 29.827755990927844 0 32.16122669810162
vertex 44.98764846951952 0 36.572486393534554
endloop
endfacet
facet normal 0 -0.9999999999999999 0
outer loop
vertex 0 0 40.00002150941466
vertex 5.3046456233223225 0 32.53058177575141
vertex 5.472322161280667 0 32.885602676199994
endloop
endfacet
facet normal 0 -1 0
outer loop
vertex 29.52773832857693 0 32.885602676199994
vertex 29.695414866535277 0 32.53058177575141
vertex 44.98764846951952 0 36.572486393534554
endloop
endfacet
facet normal 0 -1 0
outer loop
vertex 0 0 40.00002150941466
vertex 5.472322161280667 0 32.885602676199994
vertex 5.6740007009721145 0 33.22228916394935
endloop
endfacet
facet normal 0 -1 0
outer loop
vertex 29.325726435927315 0 33.22228916394935
vertex 29.52773832857693 0 32.885602676199994
vertex 44.98764846951952 0 36.572486393534554
endloop
endfacet
facet normal 0 -1 0
outer loop
vertex 0 0 40.00002150941466
vertex 5.6740007009721145 0 33.22228916394935
vertex 5.908014477605827 0 33.537641062375975
endloop
endfacet
facet normal 0 -1 0
outer loop
vertex 29.09204601225177 0 33.537641062375975
vertex 29.325726435927315 0 33.22228916394935
vertex 44.98764846951952 0 36.572486393534554
endloop
endfacet
facet normal 0 -1 0
outer loop
vertex 0 0 40.00002150941466
vertex 5.908014477605827 0 33.537641062375975
vertex 6.171696667516463 0 33.828324841898194
endloop
endfacet
facet normal 0 -0.9999999999999999 0
outer loop
vertex 28.828363822341135 0 33.828324841898194
vertex 29.09204601225177 0 33.537641062375975
vertex 44.98764846951952 0 36.572486393534554
endloop
endfacet
facet normal 0 -1 0
outer loop
vertex 0 0 40.00002150941466
vertex 6.171696667516463 0 33.828324841898194
vertex 6.462380447038682 0 34.09200703180883
endloop
endfacet
facet normal 0 -0.9999999999999999 0
outer loop
vertex 28.537680042818916 0 34.09200703180883
vertex 28.828363822341135 0 33.828324841898194
vertex 44.98764846951952 0 36.572486393534554
endloop
endfacet
facet normal 0 -1 0
outer loop
vertex 0 0 40.00002150941466
vertex 6.462380447038682 0 34.09200703180883
vertex 6.777732345465309 0 34.32602080844254
endloop
endfacet
facet normal 0 -0.9999999999999999 0
outer loop
vertex 28.22232814439229 0 34.32602080844254
vertex 28.537680042818916 0 34.09200703180883
vertex 44.98764846951952 0 36.572486393534554
endloop
endfacet
facet normal 0 -1 0
outer loop
vertex 0 0 40.00002150941466
vertex 6.777732345465309 0 34.32602080844254
vertex 7.1144188332146685 0 34.52769934813399
endloop
endfacet
facet normal 0 -1 0
outer loop
vertex 27.88564165664293 0 34.52769934813399
vertex 28.22232814439229 0 34.32602080844254
vertex 44.98764846951952 0 36.572486393534554
endloop
endfacet
facet normal 0 -1 0
outer loop
vertex 0 0 40.00002150941466
vertex 7.1144188332146685 0 34.52769934813399
vertex 7.469106380705082 0 34.695375886092336
endloop
endfacet
facet normal 0 -0.9999999999999999 0
outer loop
vertex 27.53062075619435 0 34.695375886092336
vertex 27.88564165664293 0 34.52769934813399
vertex 44.98764846951952 0 36.572486393534554
endloop
endfacet
facet normal 0 -1 0
outer loop
vertex 0 0 40.00002150941466
vertex 7.469106380705082 0 34.695375886092336
vertex 7.838794811313041 0 34.8277170104849
endloop
endfacet
facet normal 0 -1 0
outer loop
vertex 27.161265678544556 0 34.8277170104849
vertex 27.53062075619435 0 34.695375886092336
vertex 44.98764846951952 0 36.572486393534554
endloop
endfacet
facet normal 0 -1 0
outer loop
vertex 0 0 40.00002150941466
vertex 7.838794811313041 0 34.8277170104849
vertex 8.219483889540534 0 34.92305595652086
endloop
endfacet
facet normal 0 -1 0
outer loop
vertex 26.780243247358896 0 34.92305595652086
vertex 27.161265678544556 0 34.8277170104849
vertex 44.98764846951952 0 36.572486393534554
endloop
endfacet
facet normal 0 -1 0
outer loop
vertex 0 0 40.00002150941466
vertex 8.219483889540534 0 34.92305595652086
vertex 8.607840085805883 0 34.980726018283875
endloop
endfacet
facet normal 0 -1 0
outer loop
vertex 26.780243247358896 0 34.92305595652086
vertex 44.98764846951952 0 36.572486393534554
vertex 0 0 40.00002150941466
endloop
endfacet
facet normal 0 -1 0
outer loop
vertex 0 0 40.00002150941466
vertex 8.607840085805883 0 34.980726018283875
vertex 8.999863164611078 0 35.000060489857596
endloop
endfacet
facet normal 0 -1 0
outer loop
vertex 26.392220404051717 0 34.980726018283875
vertex 26.780243247358896 0 34.92305595652086
vertex 0 0 40.00002150941466
endloop
endfacet
facet normal 0 -1 0
outer loop
vertex 0 0 40.00002150941466
vertex 8.999863164611078 0 35.000060489857596
vertex 25.999863972288352 0 35.000060489857596
endloop
endfacet
facet normal 0 -1 0
outer loop
vertex 25.999863972288352 0 35.000060489857596
vertex 26.392220404051717 0 34.980726018283875
vertex 0 0 40.00002150941466
endloop
endfacet
endsolid JSCAD
