solid JSCAD
facet normal 0 -0.9999999999999999 0
outer loop
vertex -12.500125 -5.99995 10.0001
vertex -12.890075000000001 -5.99995 11.961675000000001
vertex -13.265450000000001 -5.99995 11.847825
endloop
endfacet
facet normal 0 -1 0
outer loop
vertex -12.500125 -5.99995 10.0001
vertex -13.265450000000001 -5.99995 11.847825
vertex -13.611125000000001 -5.99995 11.663025000000001
endloop
endfacet
facet normal 0 -1 0
outer loop
vertex -12.500125 -5.99995 10.0001
vertex -13.611125000000001 -5.99995 11.663025000000001
vertex -13.914175 -5.99995 11.414150000000001
endloop
endfacet
facet normal 0 -0.9999999999999999 0
outer loop
vertex -12.500125 -5.99995 10.0001
vertex -13.914175 -5.99995 11.414150000000001
vertex -14.16305 -5.99995 11.1111
endloop
endfacet
facet normal 0 -0.9999999999999999 0
outer loop
vertex -12.500125 -5.99995 10.0001
vertex -14.16305 -5.99995 11.1111
vertex -14.347850000000001 -5.99995 10.765425
endloop
endfacet
facet normal 0 -1 0
outer loop
vertex -12.500125 -5.99995 10.0001
vertex -14.347850000000001 -5.99995 10.765425
vertex -14.4617 -5.99995 10.39005
endloop
endfacet
facet normal 0 -1 0
outer loop
vertex -12.500125 -5.99995 10.0001
vertex -14.4617 -5.99995 10.39005
vertex -14.499925000000001 -5.99995 10.0001
endloop
endfacet
facet normal 0 -1 0
outer loop
vertex -12.500125 -5.99995 10.0001
vertex -14.499925000000001 -5.99995 10.0001
vertex -14.4617 -5.99995 9.609875
endloop
endfacet
facet normal 0 -1 0
outer loop
vertex -12.500125 -5.99995 10.0001
vertex -14.4617 -5.99995 9.609875
vertex -14.347850000000001 -5.99995 9.2345
endloop
endfacet
facet normal 0 -1 0
outer loop
vertex -12.500125 -5.99995 10.0001
vertex -14.347850000000001 -5.99995 9.2345
vertex -14.16305 -5.99995 8.888825
endloop
endfacet
facet normal 0 -1 0
outer loop
vertex -12.500125 -5.99995 10.0001
vertex -14.16305 -5.99995 8.888825
vertex -13.914175 -5.99995 8.585775
endloop
endfacet
facet normal 0 -1 0
outer loop
vertex -12.500125 -5.99995 10.0001
vertex -13.914175 -5.99995 8.585775
vertex -13.611125000000001 -5.99995 8.337175
endloop
endfacet
facet normal 0 -1 0
outer loop
vertex -12.500125 -5.99995 10.0001
vertex -13.611125000000001 -5.99995 8.337175
vertex -13.265450000000001 -5.99995 8.152375000000001
endloop
endfacet
facet normal 0 -0.9999999999999999 0
outer loop
vertex -12.500125 -5.99995 10.0001
vertex -13.265450000000001 -5.99995 8.152375000000001
vertex -12.890075000000001 -5.99995 8.038525
endloop
endfacet
facet normal 0 -1 0
outer loop
vertex -12.500125 -5.99995 10.0001
vertex -12.890075000000001 -5.99995 8.038525
vertex -12.500125 -5.99995 8.000025
endloop
endfacet
facet normal 0 -0.9999999999999999 0
outer loop
vertex -12.500125 -5.99995 10.0001
vertex -12.500125 -5.99995 8.000025
vertex -12.109900000000001 -5.99995 8.038525
endloop
endfacet
facet normal 0 -1 0
outer loop
vertex -12.500125 -5.99995 10.0001
vertex -12.109900000000001 -5.99995 8.038525
vertex -11.734525000000001 -5.99995 8.152375000000001
endloop
endfacet
facet normal 0 -1 0
outer loop
vertex -12.500125 -5.99995 10.0001
vertex -11.734525000000001 -5.99995 8.152375000000001
vertex -11.388850000000001 -5.99995 8.337175
endloop
endfacet
facet normal 0 -1 0
outer loop
vertex -12.500125 -5.99995 10.0001
vertex -11.388850000000001 -5.99995 8.337175
vertex -11.0858 -5.99995 8.585775
endloop
endfacet
facet normal 0 -0.9999999999999999 0
outer loop
vertex -12.500125 -5.99995 10.0001
vertex -11.0858 -5.99995 8.585775
vertex -10.836925 -5.99995 8.888825
endloop
endfacet
facet normal 0 -0.9999999999999999 0
outer loop
vertex -12.500125 -5.99995 10.0001
vertex -10.836925 -5.99995 8.888825
vertex -10.652125 -5.99995 9.2345
endloop
endfacet
facet normal 0 -1 0
outer loop
vertex -12.500125 -5.99995 10.0001
vertex -10.652125 -5.99995 9.2345
vertex -10.53855 -5.99995 9.609875
endloop
endfacet
facet normal 0 -0.9999999999999999 0
outer loop
vertex -12.500125 -5.99995 10.0001
vertex -10.53855 -5.99995 9.609875
vertex -10.50005 -5.99995 10.0001
endloop
endfacet
facet normal 0 -1 0
outer loop
vertex -12.500125 -5.99995 10.0001
vertex -10.50005 -5.99995 10.0001
vertex -10.53855 -5.99995 10.39005
endloop
endfacet
facet normal 0 -1 0
outer loop
vertex -12.500125 -5.99995 10.0001
vertex -10.53855 -5.99995 10.39005
vertex -10.652125 -5.99995 10.765425
endloop
endfacet
facet normal 0 -1 0
outer loop
vertex -12.500125 -5.99995 10.0001
vertex -10.652125 -5.99995 10.765425
vertex -10.836925 -5.99995 11.1111
endloop
endfacet
facet normal 0 -1 0
outer loop
vertex -12.500125 -5.99995 10.0001
vertex -10.836925 -5.99995 11.1111
vertex -11.0858 -5.99995 11.414150000000001
endloop
endfacet
facet normal 0 -0.9999999999999999 0
outer loop
vertex -12.500125 -5.99995 10.0001
vertex -11.0858 -5.99995 11.414150000000001
vertex -11.388850000000001 -5.99995 11.663025000000001
endloop
endfacet
facet normal 0 -1 0
outer loop
vertex -12.500125 -5.99995 10.0001
vertex -11.388850000000001 -5.99995 11.663025000000001
vertex -11.734525000000001 -5.99995 11.847825
endloop
endfacet
facet normal 0 -1 0
outer loop
vertex -12.500125 -5.99995 10.0001
vertex -11.734525000000001 -5.99995 11.847825
vertex -12.109900000000001 -5.99995 11.961675000000001
endloop
endfacet
facet normal 0 -1 0
outer loop
vertex -12.500125 -5.99995 10.0001
vertex -12.109900000000001 -5.99995 11.961675000000001
vertex -12.500125 -5.99995 11.9999
endloop
endfacet
facet normal 0 -1 0
outer loop
vertex -12.500125 -5.99995 10.0001
vertex -12.500125 -5.99995 11.9999
vertex -12.890075000000001 -5.99995 11.961675000000001
endloop
endfacet
facet normal 0 -0.9999999999999999 0
outer loop
vertex -12.500125 -5.99995 -10.0001
vertex -12.890075000000001 -5.99995 -8.038525
vertex -13.265450000000001 -5.99995 -8.152375000000001
endloop
endfacet
facet normal 0 -1 0
outer loop
vertex -12.500125 -5.99995 -10.0001
vertex -13.265450000000001 -5.99995 -8.152375000000001
vertex -13.611125000000001 -5.99995 -8.337175
endloop
endfacet
facet normal 0 -1 0
outer loop
vertex -12.500125 -5.99995 -10.0001
vertex -13.611125000000001 -5.99995 -8.337175
vertex -13.914175 -5.99995 -8.585775
endloop
endfacet
facet normal 0 -1 0
outer loop
vertex -12.500125 -5.99995 -10.0001
vertex -13.914175 -5.99995 -8.585775
vertex -14.16305 -5.99995 -8.888825
endloop
endfacet
facet normal 0 -1 0
outer loop
vertex -12.500125 -5.99995 -10.0001
vertex -14.16305 -5.99995 -8.888825
vertex -14.347850000000001 -5.99995 -9.2345
endloop
endfacet
facet normal 0 -1 0
outer loop
vertex -12.500125 -5.99995 -10.0001
vertex -14.347850000000001 -5.99995 -9.2345
vertex -14.4617 -5.99995 -9.609875
endloop
endfacet
facet normal 0 -1 0
outer loop
vertex -12.500125 -5.99995 -10.0001
vertex -14.4617 -5.99995 -9.609875
vertex -14.499925000000001 -5.99995 -10.0001
endloop
endfacet
facet normal 0 -1 0
outer loop
vertex -12.500125 -5.99995 -10.0001
vertex -14.499925000000001 -5.99995 -10.0001
vertex -14.4617 -5.99995 -10.39005
endloop
endfacet
facet normal 0 -1 0
outer loop
vertex -12.500125 -5.99995 -10.0001
vertex -14.4617 -5.99995 -10.39005
vertex -14.347850000000001 -5.99995 -10.765425
endloop
endfacet
facet normal 0 -0.9999999999999999 0
outer loop
vertex -12.500125 -5.99995 -10.0001
vertex -14.347850000000001 -5.99995 -10.765425
vertex -14.16305 -5.99995 -11.1111
endloop
endfacet
facet normal 0 -0.9999999999999999 0
outer loop
vertex -12.500125 -5.99995 -10.0001
vertex -14.16305 -5.99995 -11.1111
vertex -13.914175 -5.99995 -11.414150000000001
endloop
endfacet
facet normal 0 -1 0
outer loop
vertex -12.500125 -5.99995 -10.0001
vertex -13.914175 -5.99995 -11.414150000000001
vertex -13.611125000000001 -5.99995 -11.663025000000001
endloop
endfacet
facet normal 0 -1 0
outer loop
vertex -12.500125 -5.99995 -10.0001
vertex -13.611125000000001 -5.99995 -11.663025000000001
vertex -13.265450000000001 -5.99995 -11.847825
endloop
endfacet
facet normal 0 -0.9999999999999999 0
outer loop
vertex -12.500125 -5.99995 -10.0001
vertex -13.265450000000001 -5.99995 -11.847825
vertex -12.890075000000001 -5.99995 -11.961675000000001
endloop
endfacet
facet normal 0 -1 0
outer loop
vertex -12.500125 -5.99995 -10.0001
vertex -12.890075000000001 -5.99995 -11.961675000000001
vertex -12.500125 -5.99995 -11.9999
endloop
endfacet
facet normal 0 -1 0
outer loop
vertex -12.500125 -5.99995 -10.0001
vertex -12.500125 -5.99995 -11.9999
vertex -12.109900000000001 -5.99995 -11.961675000000001
endloop
endfacet
facet normal 0 -1 0
outer loop
vertex -12.500125 -5.99995 -10.0001
vertex -12.109900000000001 -5.99995 -11.961675000000001
vertex -11.734525000000001 -5.99995 -11.847825
endloop
endfacet
facet normal 0 -1 0
outer loop
vertex -12.500125 -5.99995 -10.0001
vertex -11.734525000000001 -5.99995 -11.847825
vertex -11.388850000000001 -5.99995 -11.663025000000001
endloop
endfacet
facet normal 0 -0.9999999999999999 0
outer loop
vertex -12.500125 -5.99995 -10.0001
vertex -11.388850000000001 -5.99995 -11.663025000000001
vertex -11.0858 -5.99995 -11.414150000000001
endloop
endfacet
facet normal 0 -1 0
outer loop
vertex -12.500125 -5.99995 -10.0001
vertex -11.0858 -5.99995 -11.414150000000001
vertex -10.836925 -5.99995 -11.1111
endloop
endfacet
facet normal 0 -1 0
outer loop
vertex -12.500125 -5.99995 -10.0001
vertex -10.836925 -5.99995 -11.1111
vertex -10.652125 -5.99995 -10.765425
endloop
endfacet
facet normal 0 -1 0
outer loop
vertex -12.500125 -5.99995 -10.0001
vertex -10.652125 -5.99995 -10.765425
vertex -10.53855 -5.99995 -10.39005
endloop
endfacet
facet normal 0 -1 0
outer loop
vertex -12.500125 -5.99995 -10.0001
vertex -10.53855 -5.99995 -10.39005
vertex -10.50005 -5.99995 -10.0001
endloop
endfacet
facet normal 0 -0.9999999999999999 0
outer loop
vertex -12.500125 -5.99995 -10.0001
vertex -10.50005 -5.99995 -10.0001
vertex -10.53855 -5.99995 -9.609875
endloop
endfacet
facet normal 0 -1 0
outer loop
vertex -12.500125 -5.99995 -10.0001
vertex -10.53855 -5.99995 -9.609875
vertex -10.652125 -5.99995 -9.2345
endloop
endfacet
facet normal 0 -0.9999999999999999 0
outer loop
vertex -12.500125 -5.99995 -10.0001
vertex -10.652125 -5.99995 -9.2345
vertex -10.836925 -5.99995 -8.888825
endloop
endfacet
facet normal 0 -0.9999999999999999 0
outer loop
vertex -12.500125 -5.99995 -10.0001
vertex -10.836925 -5.99995 -8.888825
vertex -11.0858 -5.99995 -8.585775
endloop
endfacet
facet normal 0 -1 0
outer loop
vertex -12.500125 -5.99995 -10.0001
vertex -11.0858 -5.99995 -8.585775
vertex -11.388850000000001 -5.99995 -8.337175
endloop
endfacet
facet normal 0 -1 0
outer loop
vertex -12.500125 -5.99995 -10.0001
vertex -11.388850000000001 -5.99995 -8.337175
vertex -11.734525000000001 -5.99995 -8.152375000000001
endloop
endfacet
facet normal 0 -1 0
outer loop
vertex -12.500125 -5.99995 -10.0001
vertex -11.734525000000001 -5.99995 -8.152375000000001
vertex -12.109900000000001 -5.99995 -8.038525
endloop
endfacet
facet normal 0 -0.9999999999999999 0
outer loop
vertex -12.500125 -5.99995 -10.0001
vertex -12.109900000000001 -5.99995 -8.038525
vertex -12.500125 -5.99995 -8.000025
endloop
endfacet
facet normal 0 -1 0
outer loop
vertex -12.500125 -5.99995 -10.0001
vertex -12.500125 -5.99995 -8.000025
vertex -12.890075000000001 -5.99995 -8.038525
endloop
endfacet
facet normal 0.9951614785364642 0 0.09825289632941317
outer loop
vertex -10.53855 -2.500025 10.39005
vertex -10.53855 -5.99995 10.39005
vertex -10.50005 -5.99995 10.0001
endloop
endfacet
facet normal 0.9951614785364642 0 0.09825289632941317
outer loop
vertex -10.53855 -2.500025 10.39005
vertex -10.50005 -5.99995 10.0001
vertex -10.50005 -2.500025 10.0001
endloop
endfacet
facet normal 0.9571481637311333 0 0.2895986751801868
outer loop
vertex -10.652125 -2.500025 10.765425
vertex -10.652125 -5.99995 10.765425
vertex -10.53855 -5.99995 10.39005
endloop
endfacet
facet normal 0.9571481637311333 0 0.2895986751801868
outer loop
vertex -10.652125 -2.500025 10.765425
vertex -10.53855 -5.99995 10.39005
vertex -10.53855 -2.500025 10.39005
endloop
endfacet
facet normal 0.881886406597025 0 0.4714619452929228
outer loop
vertex -10.836925 -2.500025 11.1111
vertex -10.836925 -5.99995 11.1111
vertex -10.652125 -5.99995 10.765425
endloop
endfacet
facet normal 0.881886406597025 0 0.4714619452929228
outer loop
vertex -10.836925 -2.500025 11.1111
vertex -10.652125 -5.99995 10.765425
vertex -10.652125 -2.500025 10.765425
endloop
endfacet
facet normal 0.7727999548083573 0 0.6346496906547745
outer loop
vertex -11.0858 -2.500025 11.414150000000001
vertex -11.0858 -5.99995 11.414150000000001
vertex -10.836925 -5.99995 11.1111
endloop
endfacet
facet normal 0.7727999548083573 0 0.6346496906547745
outer loop
vertex -11.0858 -2.500025 11.414150000000001
vertex -10.836925 -5.99995 11.1111
vertex -10.836925 -2.500025 11.1111
endloop
endfacet
facet normal 0.6346496906547745 0 0.7727999548083573
outer loop
vertex -11.388850000000001 -2.500025 11.663025000000001
vertex -11.388850000000001 -5.99995 11.663025000000001
vertex -11.0858 -5.99995 11.414150000000001
endloop
endfacet
facet normal 0.6346496906547745 0 0.7727999548083573
outer loop
vertex -11.388850000000001 -2.500025 11.663025000000001
vertex -11.0858 -5.99995 11.414150000000001
vertex -11.0858 -2.500025 11.414150000000001
endloop
endfacet
facet normal 0.4714619452929192 0 0.8818864065970267
outer loop
vertex -11.734525000000001 -2.500025 11.847825
vertex -11.734525000000001 -5.99995 11.847825
vertex -11.388850000000001 -5.99995 11.663025000000001
endloop
endfacet
facet normal 0.4714619452929192 0 0.8818864065970267
outer loop
vertex -11.734525000000001 -2.500025 11.847825
vertex -11.388850000000001 -5.99995 11.663025000000001
vertex -11.388850000000001 -2.500025 11.663025000000001
endloop
endfacet
facet normal 0.2902408784175877 0 0.9569536208695734
outer loop
vertex -12.109900000000001 -2.500025 11.961675000000001
vertex -12.109900000000001 -5.99995 11.961675000000001
vertex -11.734525000000001 -5.99995 11.847825
endloop
endfacet
facet normal 0.2902408784175877 0 0.9569536208695734
outer loop
vertex -12.109900000000001 -2.500025 11.961675000000001
vertex -11.734525000000001 -5.99995 11.847825
vertex -11.734525000000001 -2.500025 11.847825
endloop
endfacet
facet normal 0.09748969574974878 0 0.9952365343086144
outer loop
vertex -12.500125 -2.500025 11.9999
vertex -12.500125 -5.99995 11.9999
vertex -12.109900000000001 -5.99995 11.961675000000001
endloop
endfacet
facet normal 0.09748969574974878 0 0.9952365343086144
outer loop
vertex -12.500125 -2.500025 11.9999
vertex -12.109900000000001 -5.99995 11.961675000000001
vertex -12.109900000000001 -2.500025 11.961675000000001
endloop
endfacet
facet normal -0.09755779318215976 0 0.9952298613835032
outer loop
vertex -12.890075000000001 -2.500025 11.961675000000001
vertex -12.890075000000001 -5.99995 11.961675000000001
vertex -12.500125 -5.99995 11.9999
endloop
endfacet
facet normal -0.09755779318215976 0 0.9952298613835032
outer loop
vertex -12.890075000000001 -2.500025 11.961675000000001
vertex -12.500125 -5.99995 11.9999
vertex -12.500125 -2.500025 11.9999
endloop
endfacet
facet normal -0.2902408784175877 0 0.9569536208695734
outer loop
vertex -13.265450000000001 -2.500025 11.847825
vertex -13.265450000000001 -5.99995 11.847825
vertex -12.890075000000001 -5.99995 11.961675000000001
endloop
endfacet
facet normal -0.2902408784175877 0 0.9569536208695734
outer loop
vertex -13.265450000000001 -2.500025 11.847825
vertex -12.890075000000001 -5.99995 11.961675000000001
vertex -12.890075000000001 -2.500025 11.961675000000001
endloop
endfacet
facet normal -0.4714619452929192 0 0.8818864065970267
outer loop
vertex -13.611125000000001 -2.500025 11.663025000000001
vertex -13.611125000000001 -5.99995 11.663025000000001
vertex -13.265450000000001 -5.99995 11.847825
endloop
endfacet
facet normal -0.4714619452929192 0 0.8818864065970267
outer loop
vertex -13.611125000000001 -2.500025 11.663025000000001
vertex -13.265450000000001 -5.99995 11.847825
vertex -13.265450000000001 -2.500025 11.847825
endloop
endfacet
facet normal -0.6346496906547767 0 0.7727999548083555
outer loop
vertex -13.914175 -2.500025 11.414150000000001
vertex -13.914175 -5.99995 11.414150000000001
vertex -13.611125000000001 -5.99995 11.663025000000001
endloop
endfacet
facet normal -0.6346496906547767 0 0.7727999548083555
outer loop
vertex -13.914175 -2.500025 11.414150000000001
vertex -13.611125000000001 -5.99995 11.663025000000001
vertex -13.611125000000001 -2.500025 11.663025000000001
endloop
endfacet
facet normal -0.7727999548083573 0 0.6346496906547745
outer loop
vertex -14.16305 -2.500025 11.1111
vertex -14.16305 -5.99995 11.1111
vertex -13.914175 -5.99995 11.414150000000001
endloop
endfacet
facet normal -0.7727999548083573 0 0.6346496906547745
outer loop
vertex -14.16305 -2.500025 11.1111
vertex -13.914175 -5.99995 11.414150000000001
vertex -13.914175 -2.500025 11.414150000000001
endloop
endfacet
facet normal -0.881886406597025 0 0.4714619452929228
outer loop
vertex -14.347850000000001 -2.500025 10.765425
vertex -14.347850000000001 -5.99995 10.765425
vertex -14.16305 -5.99995 11.1111
endloop
endfacet
facet normal -0.881886406597025 0 0.4714619452929228
outer loop
vertex -14.347850000000001 -2.500025 10.765425
vertex -14.16305 -5.99995 11.1111
vertex -14.16305 -2.500025 11.1111
endloop
endfacet
facet normal -0.9569536208695745 0 0.29024087841758356
outer loop
vertex -14.4617 -2.500025 10.39005
vertex -14.4617 -5.99995 10.39005
vertex -14.347850000000001 -5.99995 10.765425
endloop
endfacet
facet normal -0.9569536208695745 0 0.29024087841758356
outer loop
vertex -14.4617 -2.500025 10.39005
vertex -14.347850000000001 -5.99995 10.765425
vertex -14.347850000000001 -2.500025 10.765425
endloop
endfacet
facet normal -0.9952298613835027 0 0.09755779318216422
outer loop
vertex -14.499925000000001 -2.500025 10.0001
vertex -14.499925000000001 -5.99995 10.0001
vertex -14.4617 -5.99995 10.39005
endloop
endfacet
facet normal -0.9952298613835027 0 0.09755779318216422
outer loop
vertex -14.499925000000001 -2.500025 10.0001
vertex -14.4617 -5.99995 10.39005
vertex -14.4617 -2.500025 10.39005
endloop
endfacet
facet normal -0.9952365343086137 0 -0.09748969574975323
outer loop
vertex -14.4617 -2.500025 9.609875
vertex -14.4617 -5.99995 9.609875
vertex -14.499925000000001 -5.99995 10.0001
endloop
endfacet
facet normal -0.9952365343086137 0 -0.09748969574975323
outer loop
vertex -14.4617 -2.500025 9.609875
vertex -14.499925000000001 -5.99995 10.0001
vertex -14.499925000000001 -2.500025 10.0001
endloop
endfacet
facet normal -0.9569536208695745 0 -0.29024087841758356
outer loop
vertex -14.347850000000001 -2.500025 9.2345
vertex -14.347850000000001 -5.99995 9.2345
vertex -14.4617 -5.99995 9.609875
endloop
endfacet
facet normal -0.9569536208695745 0 -0.29024087841758356
outer loop
vertex -14.347850000000001 -2.500025 9.2345
vertex -14.4617 -5.99995 9.609875
vertex -14.4617 -2.500025 9.609875
endloop
endfacet
facet normal -0.881886406597025 0 -0.4714619452929228
outer loop
vertex -14.16305 -2.500025 8.888825
vertex -14.16305 -5.99995 8.888825
vertex -14.347850000000001 -5.99995 9.2345
endloop
endfacet
facet normal -0.881886406597025 0 -0.4714619452929228
outer loop
vertex -14.16305 -2.500025 8.888825
vertex -14.347850000000001 -5.99995 9.2345
vertex -14.347850000000001 -2.500025 9.2345
endloop
endfacet
facet normal -0.7727999548083573 0 -0.6346496906547745
outer loop
vertex -13.914175 -2.500025 8.585775
vertex -13.914175 -5.99995 8.585775
vertex -14.16305 -5.99995 8.888825
endloop
endfacet
facet normal -0.7727999548083573 0 -0.6346496906547745
outer loop
vertex -13.914175 -2.500025 8.585775
vertex -14.16305 -5.99995 8.888825
vertex -14.16305 -2.500025 8.888825
endloop
endfacet
facet normal -0.6342305984216526 0 -0.7731439374564819
outer loop
vertex -13.611125000000001 -2.500025 8.337175
vertex -13.611125000000001 -5.99995 8.337175
vertex -13.914175 -5.99995 8.585775
endloop
endfacet
facet normal -0.6342305984216526 0 -0.7731439374564819
outer loop
vertex -13.611125000000001 -2.500025 8.337175
vertex -13.914175 -5.99995 8.585775
vertex -13.914175 -2.500025 8.585775
endloop
endfacet
facet normal -0.4714619452929192 0 -0.8818864065970267
outer loop
vertex -13.265450000000001 -2.500025 8.152375000000001
vertex -13.265450000000001 -5.99995 8.152375000000001
vertex -13.611125000000001 -5.99995 8.337175
endloop
endfacet
facet normal -0.4714619452929192 0 -0.8818864065970267
outer loop
vertex -13.265450000000001 -2.500025 8.152375000000001
vertex -13.611125000000001 -5.99995 8.337175
vertex -13.611125000000001 -2.500025 8.337175
endloop
endfacet
facet normal -0.2902408784175877 0 -0.9569536208695734
outer loop
vertex -12.890075000000001 -2.500025 8.038525
vertex -12.890075000000001 -5.99995 8.038525
vertex -13.265450000000001 -5.99995 8.152375000000001
endloop
endfacet
facet normal -0.2902408784175877 0 -0.9569536208695734
outer loop
vertex -12.890075000000001 -2.500025 8.038525
vertex -13.265450000000001 -5.99995 8.152375000000001
vertex -13.265450000000001 -2.500025 8.152375000000001
endloop
endfacet
facet normal -0.09825289632940869 0 -0.9951614785364646
outer loop
vertex -12.500125 -2.500025 8.000025
vertex -12.500125 -5.99995 8.000025
vertex -12.890075000000001 -5.99995 8.038525
endloop
endfacet
facet normal -0.09825289632940869 0 -0.9951614785364646
outer loop
vertex -12.500125 -2.500025 8.000025
vertex -12.890075000000001 -5.99995 8.038525
vertex -12.890075000000001 -2.500025 8.038525
endloop
endfacet
facet normal 0.09818432311461016 0 -0.9951682464259628
outer loop
vertex -12.109900000000001 -2.500025 8.038525
vertex -12.109900000000001 -5.99995 8.038525
vertex -12.500125 -5.99995 8.000025
endloop
endfacet
facet normal 0.09818432311461016 0 -0.9951682464259628
outer loop
vertex -12.109900000000001 -2.500025 8.038525
vertex -12.500125 -5.99995 8.000025
vertex -12.500125 -2.500025 8.000025
endloop
endfacet
facet normal 0.2902408784175877 0 -0.9569536208695734
outer loop
vertex -11.734525000000001 -2.500025 8.152375000000001
vertex -11.734525000000001 -5.99995 8.152375000000001
vertex -12.109900000000001 -5.99995 8.038525
endloop
endfacet
facet normal 0.2902408784175877 0 -0.9569536208695734
outer loop
vertex -11.734525000000001 -2.500025 8.152375000000001
vertex -12.109900000000001 -5.99995 8.038525
vertex -12.109900000000001 -2.500025 8.038525
endloop
endfacet
facet normal 0.4714619452929192 0 -0.8818864065970267
outer loop
vertex -11.388850000000001 -2.500025 8.337175
vertex -11.388850000000001 -5.99995 8.337175
vertex -11.734525000000001 -5.99995 8.152375000000001
endloop
endfacet
facet normal 0.4714619452929192 0 -0.8818864065970267
outer loop
vertex -11.388850000000001 -2.500025 8.337175
vertex -11.734525000000001 -5.99995 8.152375000000001
vertex -11.734525000000001 -2.500025 8.152375000000001
endloop
endfacet
facet normal 0.6342305984216504 0 -0.7731439374564837
outer loop
vertex -11.0858 -2.500025 8.585775
vertex -11.0858 -5.99995 8.585775
vertex -11.388850000000001 -5.99995 8.337175
endloop
endfacet
facet normal 0.6342305984216504 0 -0.7731439374564837
outer loop
vertex -11.0858 -2.500025 8.585775
vertex -11.388850000000001 -5.99995 8.337175
vertex -11.388850000000001 -2.500025 8.337175
endloop
endfacet
facet normal 0.7727999548083573 0 -0.6346496906547745
outer loop
vertex -10.836925 -2.500025 8.888825
vertex -10.836925 -5.99995 8.888825
vertex -11.0858 -5.99995 8.585775
endloop
endfacet
facet normal 0.7727999548083573 0 -0.6346496906547745
outer loop
vertex -10.836925 -2.500025 8.888825
vertex -11.0858 -5.99995 8.585775
vertex -11.0858 -2.500025 8.585775
endloop
endfacet
facet normal 0.881886406597025 0 -0.4714619452929228
outer loop
vertex -10.652125 -2.500025 9.2345
vertex -10.652125 -5.99995 9.2345
vertex -10.836925 -5.99995 8.888825
endloop
endfacet
facet normal 0.881886406597025 0 -0.4714619452929228
outer loop
vertex -10.652125 -2.500025 9.2345
vertex -10.836925 -5.99995 8.888825
vertex -10.836925 -2.500025 8.888825
endloop
endfacet
facet normal 0.9571481637311333 0 -0.2895986751801868
outer loop
vertex -10.53855 -2.500025 9.609875
vertex -10.53855 -5.99995 9.609875
vertex -10.652125 -5.99995 9.2345
endloop
endfacet
facet normal 0.9571481637311333 0 -0.2895986751801868
outer loop
vertex -10.53855 -2.500025 9.609875
vertex -10.652125 -5.99995 9.2345
vertex -10.652125 -2.500025 9.2345
endloop
endfacet
facet normal 0.9951682464259624 0 -0.09818432311461464
outer loop
vertex -10.50005 -2.500025 10.0001
vertex -10.50005 -5.99995 10.0001
vertex -10.53855 -5.99995 9.609875
endloop
endfacet
facet normal 0.9951682464259624 0 -0.09818432311461464
outer loop
vertex -10.50005 -2.500025 10.0001
vertex -10.53855 -5.99995 9.609875
vertex -10.53855 -2.500025 9.609875
endloop
endfacet
facet normal -1 0 0
outer loop
vertex -22.499950000000002 -1.9046500000000002 -2.1428000000000003
vertex -22.499950000000002 -2.500025 -16.999950000000002
vertex -22.499950000000002 -2.500025 -15.250125
endloop
endfacet
facet normal -1 0 0
outer loop
vertex -22.499950000000002 -1.9046500000000002 -2.1428000000000003
vertex -22.499950000000002 -2.500025 -15.250125
vertex -22.499950000000002 -2.500025 -13.75
endloop
endfacet
facet normal -0.9999999999999999 0 0
outer loop
vertex -22.499950000000002 -1.9046500000000002 -2.1428000000000003
vertex -22.499950000000002 -2.500025 -13.75
vertex -22.499950000000002 -2.500025 -11.9999
endloop
endfacet
facet normal -1 0 0
outer loop
vertex -22.499950000000002 -1.9046500000000002 -2.1428000000000003
vertex -22.499950000000002 -2.500025 -11.9999
vertex -22.499950000000002 -2.500025 -11.961675000000001
endloop
endfacet
facet normal -1 0 0
outer loop
vertex -22.499950000000002 -1.9046500000000002 -2.1428000000000003
vertex -22.499950000000002 -2.500025 -11.961675000000001
vertex -22.499950000000002 -2.500025 -11.847825
endloop
endfacet
facet normal -1 0 0
outer loop
vertex -22.499950000000002 -1.9046500000000002 -2.1428000000000003
vertex -22.499950000000002 -2.500025 -11.847825
vertex -22.499950000000002 -2.500025 -11.663025000000001
endloop
endfacet
facet normal -1 0 0
outer loop
vertex -22.499950000000002 -1.9046500000000002 -2.1428000000000003
vertex -22.499950000000002 -2.500025 -11.663025000000001
vertex -22.499950000000002 -2.500025 -11.414150000000001
endloop
endfacet
facet normal -1 0 0
outer loop
vertex -22.499950000000002 -1.9046500000000002 -2.1428000000000003
vertex -22.499950000000002 -2.500025 -11.414150000000001
vertex -22.499950000000002 -2.500025 -11.1111
endloop
endfacet
facet normal -1 0 0
outer loop
vertex -22.499950000000002 -1.9046500000000002 -2.1428000000000003
vertex -22.499950000000002 -2.500025 -11.1111
vertex -22.499950000000002 -2.500025 -10.765425
endloop
endfacet
facet normal -1 0 0
outer loop
vertex -22.499950000000002 -1.9046500000000002 -2.1428000000000003
vertex -22.499950000000002 -2.500025 -10.765425
vertex -22.499950000000002 -2.500025 -10.39005
endloop
endfacet
facet normal -0.9999999999999999 0 0
outer loop
vertex -22.499950000000002 -1.9046500000000002 -2.1428000000000003
vertex -22.499950000000002 -2.500025 -10.39005
vertex -22.499950000000002 -2.500025 -10.0001
endloop
endfacet
facet normal -1 0 0
outer loop
vertex -22.499950000000002 -1.9046500000000002 -2.1428000000000003
vertex -22.499950000000002 -2.500025 -10.0001
vertex -22.499950000000002 -2.500025 -9.609875
endloop
endfacet
facet normal -1 0 0
outer loop
vertex -22.499950000000002 -1.9046500000000002 -2.1428000000000003
vertex -22.499950000000002 -2.500025 -9.609875
vertex -22.499950000000002 -2.500025 -9.2345
endloop
endfacet
facet normal -1 0 0
outer loop
vertex -22.499950000000002 -1.9046500000000002 -2.1428000000000003
vertex -22.499950000000002 -2.500025 -9.2345
vertex -22.499950000000002 -2.500025 -8.888825
endloop
endfacet
facet normal -1 0 0
outer loop
vertex -22.499950000000002 -1.9046500000000002 -2.1428000000000003
vertex -22.499950000000002 -2.500025 -8.888825
vertex -22.499950000000002 -2.500025 -8.585775
endloop
endfacet
facet normal -1 0 0
outer loop
vertex -22.499950000000002 -1.9046500000000002 -2.1428000000000003
vertex -22.499950000000002 -2.500025 -8.585775
vertex -22.499950000000002 -2.500025 -8.337175
endloop
endfacet
facet normal -1 0 0
outer loop
vertex -22.499950000000002 -1.9046500000000002 -2.1428000000000003
vertex -22.499950000000002 -2.500025 -8.337175
vertex -22.499950000000002 -2.500025 -8.152375000000001
endloop
endfacet
facet normal -1 0 0
outer loop
vertex -22.499950000000002 -1.9046500000000002 -2.1428000000000003
vertex -22.499950000000002 -2.500025 -8.152375000000001
vertex -22.499950000000002 -2.500025 -8.038525
endloop
endfacet
facet normal -1 0 0
outer loop
vertex -22.499950000000002 -1.9046500000000002 -2.1428000000000003
vertex -22.499950000000002 -2.500025 -8.038525
vertex -22.499950000000002 -2.500025 -8.000025
endloop
endfacet
facet normal -1 0 0
outer loop
vertex -22.499950000000002 -1.9046500000000002 -2.1428000000000003
vertex -22.499950000000002 -2.500025 -8.000025
vertex -22.499950000000002 -2.500025 8.000025
endloop
endfacet
facet normal -1 0 0
outer loop
vertex -22.499950000000002 -1.9046500000000002 -2.1428000000000003
vertex -22.499950000000002 -2.500025 8.000025
vertex -22.499950000000002 -2.500025 8.038525
endloop
endfacet
facet normal -1 0 0
outer loop
vertex -22.499950000000002 -1.9046500000000002 -2.1428000000000003
vertex -22.499950000000002 -2.500025 8.038525
vertex -22.499950000000002 -2.500025 8.152375000000001
endloop
endfacet
facet normal -1 0 0
outer loop
vertex -22.499950000000002 -1.9046500000000002 -2.1428000000000003
vertex -22.499950000000002 -2.500025 8.152375000000001
vertex -22.499950000000002 -2.500025 8.337175
endloop
endfacet
facet normal -1 0 0
outer loop
vertex -22.499950000000002 -1.9046500000000002 -2.1428000000000003
vertex -22.499950000000002 -2.500025 8.337175
vertex -22.499950000000002 -2.500025 8.585775
endloop
endfacet
facet normal -1 0 0
outer loop
vertex -22.499950000000002 -1.9046500000000002 -2.1428000000000003
vertex -22.499950000000002 -2.500025 8.585775
vertex -22.499950000000002 -2.500025 8.888825
endloop
endfacet
facet normal -1 0 0
outer loop
vertex -22.499950000000002 -1.9046500000000002 -2.1428000000000003
vertex -22.499950000000002 -2.500025 8.888825
vertex -22.499950000000002 -2.500025 9.2345
endloop
endfacet
facet normal -1 0 0
outer loop
vertex -22.499950000000002 -1.9046500000000002 -2.1428000000000003
vertex -22.499950000000002 -2.500025 9.2345
vertex -22.499950000000002 -2.500025 9.609875
endloop
endfacet
facet normal -1 0 0
outer loop
vertex -22.499950000000002 -1.9046500000000002 -2.1428000000000003
vertex -22.499950000000002 -2.500025 9.609875
vertex -22.499950000000002 -2.500025 10.0001
endloop
endfacet
facet normal -1 0 0
outer loop
vertex -22.499950000000002 -1.9046500000000002 -2.1428000000000003
vertex -22.499950000000002 -2.500025 10.0001
vertex -22.499950000000002 -2.500025 10.39005
endloop
endfacet
facet normal -1 0 0
outer loop
vertex -22.499950000000002 -1.9046500000000002 -2.1428000000000003
vertex -22.499950000000002 -2.500025 10.39005
vertex -22.499950000000002 -2.500025 10.765425
endloop
endfacet
facet normal -1 0 0
outer loop
vertex -22.499950000000002 -1.9046500000000002 -2.1428000000000003
vertex -22.499950000000002 -2.500025 10.765425
vertex -22.499950000000002 -2.500025 11.1111
endloop
endfacet
facet normal -0.9999999999999999 0 0
outer loop
vertex -22.499950000000002 -1.9046500000000002 -2.1428000000000003
vertex -22.499950000000002 -2.500025 11.1111
vertex -22.499950000000002 -2.500025 11.414150000000001
endloop
endfacet
facet normal -1 0 0
outer loop
vertex -22.499950000000002 -1.9046500000000002 -2.1428000000000003
vertex -22.499950000000002 -2.500025 11.414150000000001
vertex -22.499950000000002 -2.500025 11.663025000000001
endloop
endfacet
facet normal -1 0 0
outer loop
vertex -22.499950000000002 -1.9046500000000002 -2.1428000000000003
vertex -22.499950000000002 -2.500025 11.663025000000001
vertex -22.499950000000002 -2.500025 11.847825
endloop
endfacet
facet normal -1 0 0
outer loop
vertex -22.499950000000002 -1.9046500000000002 -2.1428000000000003
vertex -22.499950000000002 -2.500025 11.847825
vertex -22.499950000000002 -2.500025 11.961675000000001
endloop
endfacet
facet normal -1 0 0
outer loop
vertex -22.499950000000002 -1.9046500000000002 -2.1428000000000003
vertex -22.499950000000002 -2.500025 11.961675000000001
vertex -22.499950000000002 -2.500025 11.9999
endloop
endfacet
facet normal -1 0 0
outer loop
vertex -22.499950000000002 -1.9046500000000002 -2.1428000000000003
vertex -22.499950000000002 -2.500025 11.9999
vertex -22.499950000000002 2.500025 11.9999
endloop
endfacet
facet normal -1 0 0
outer loop
vertex -22.499950000000002 -1.9046500000000002 -2.1428000000000003
vertex -22.499950000000002 2.500025 11.9999
vertex -22.499950000000002 2.500025 -10.0001
endloop
endfacet
facet normal -1 0 0
outer loop
vertex -22.499950000000002 -1.9046500000000002 -2.1428000000000003
vertex -22.499950000000002 2.500025 -10.0001
vertex -22.499950000000002 2.500025 -13.75
endloop
endfacet
facet normal -1 0 0
outer loop
vertex -22.499950000000002 -1.9046500000000002 -2.1428000000000003
vertex -22.499950000000002 2.500025 -13.75
vertex -22.499950000000002 2.500025 -15.250125
endloop
endfacet
facet normal -1 0 0
outer loop
vertex -22.499950000000002 -1.9046500000000002 -2.1428000000000003
vertex -22.499950000000002 2.500025 -15.250125
vertex -22.499950000000002 2.500025 -16.999950000000002
endloop
endfacet
facet normal -1 0 0
outer loop
vertex -22.499950000000002 -1.9046500000000002 -2.1428000000000003
vertex -22.499950000000002 2.500025 -16.999950000000002
vertex -22.499950000000002 -2.500025 -16.999950000000002
endloop
endfacet
facet normal 1 0 0
outer loop
vertex 22.499950000000002 -1.111 -9.953075
vertex 22.499950000000002 -2.500025 -10.0001
vertex 22.499950000000002 -2.500025 -10.39005
endloop
endfacet
facet normal 1 0 0
outer loop
vertex 22.499950000000002 -1.111 -9.953075
vertex 22.499950000000002 -2.500025 -10.39005
vertex 22.499950000000002 -2.500025 -10.765425
endloop
endfacet
facet normal 0.9999999999999999 0 0
outer loop
vertex 22.499950000000002 -1.111 -9.953075
vertex 22.499950000000002 -2.500025 -10.765425
vertex 22.499950000000002 -2.500025 -11.1111
endloop
endfacet
facet normal 1 0 0
outer loop
vertex 22.499950000000002 -1.111 -9.953075
vertex 22.499950000000002 -2.500025 -11.1111
vertex 22.499950000000002 -2.500025 -11.414150000000001
endloop
endfacet
facet normal 1 0 0
outer loop
vertex 22.499950000000002 -1.111 -9.953075
vertex 22.499950000000002 -2.500025 -11.414150000000001
vertex 22.499950000000002 -2.500025 -11.663025000000001
endloop
endfacet
facet normal 1 0 0
outer loop
vertex 22.499950000000002 -1.111 -9.953075
vertex 22.499950000000002 -2.500025 -11.663025000000001
vertex 22.499950000000002 -2.500025 -11.847825
endloop
endfacet
facet normal 1 0 0
outer loop
vertex 22.499950000000002 -1.111 -9.953075
vertex 22.499950000000002 -2.500025 -11.847825
vertex 22.499950000000002 -2.500025 -11.961675000000001
endloop
endfacet
facet normal 1 0 0
outer loop
vertex 22.499950000000002 -1.111 -9.953075
vertex 22.499950000000002 -2.500025 -11.961675000000001
vertex 22.499950000000002 -2.500025 -11.9999
endloop
endfacet
facet normal 1 0 0
outer loop
vertex 22.499950000000002 -1.111 -9.953075
vertex 22.499950000000002 -2.500025 -11.9999
vertex 22.499950000000002 -2.500025 -13.75
endloop
endfacet
facet normal 1 0 0
outer loop
vertex 22.499950000000002 -1.111 -9.953075
vertex 22.499950000000002 -2.500025 -13.75
vertex 22.499950000000002 -2.500025 -15.250125
endloop
endfacet
facet normal 1 0 0
outer loop
vertex 22.499950000000002 -1.111 -9.953075
vertex 22.499950000000002 -2.500025 -15.250125
vertex 22.499950000000002 -2.500025 -16.999950000000002
endloop
endfacet
facet normal 1 0 0
outer loop
vertex 22.499950000000002 -1.111 -9.953075
vertex 22.499950000000002 -2.500025 -16.999950000000002
vertex 22.499950000000002 2.500025 -16.999950000000002
endloop
endfacet
facet normal 1 0 0
outer loop
vertex 22.499950000000002 -1.111 -9.953075
vertex 22.499950000000002 2.500025 -16.999950000000002
vertex 22.499950000000002 2.500025 -15.250125
endloop
endfacet
facet normal 1 0 0
outer loop
vertex 22.499950000000002 -1.111 -9.953075
vertex 22.499950000000002 2.500025 -15.250125
vertex 22.499950000000002 2.500025 -13.75
endloop
endfacet
facet normal 1 0 0
outer loop
vertex 22.499950000000002 -1.111 -9.953075
vertex 22.499950000000002 2.500025 -13.75
vertex 22.499950000000002 2.500025 -10.0001
endloop
endfacet
facet normal 1 0 0
outer loop
vertex 22.499950000000002 -1.111 -9.953075
vertex 22.499950000000002 2.500025 -10.0001
vertex 22.499950000000002 2.500025 11.9999
endloop
endfacet
facet normal 1 0 0
outer loop
vertex 22.499950000000002 -1.111 -9.953075
vertex 22.499950000000002 2.500025 11.9999
vertex 22.499950000000002 -2.500025 11.9999
endloop
endfacet
facet normal 1 0 0
outer loop
vertex 22.499950000000002 -1.111 -9.953075
vertex 22.499950000000002 -2.500025 11.9999
vertex 22.499950000000002 -2.500025 -10.0001
endloop
endfacet
facet normal 0 0 -1
outer loop
vertex -22.499950000000002 -2.500025 -16.999950000000002
vertex -22.499950000000002 2.500025 -16.999950000000002
vertex 22.499950000000002 2.500025 -16.999950000000002
endloop
endfacet
facet normal 0 0 -1
outer loop
vertex -22.499950000000002 -2.500025 -16.999950000000002
vertex 22.499950000000002 2.500025 -16.999950000000002
vertex 22.499950000000002 -2.500025 -16.999950000000002
endloop
endfacet
facet normal 1 0 0
outer loop
vertex 18.500075000000002 -2.1428000000000003 3.32695
vertex 18.500075000000002 2.500025 -10.0001
vertex 18.500075000000002 2.500025 11.9999
endloop
endfacet
facet normal 1 0 0
outer loop
vertex 18.500075000000002 -2.1428000000000003 3.32695
vertex 18.500075000000002 2.500025 11.9999
vertex 18.500075000000002 -2.500025 11.9999
endloop
endfacet
facet normal 1 0 0
outer loop
vertex 18.500075000000002 -2.1428000000000003 3.32695
vertex 18.500075000000002 -2.500025 11.9999
vertex 18.500075000000002 -2.500025 11.961675000000001
endloop
endfacet
facet normal 1 0 0
outer loop
vertex 18.500075000000002 -2.1428000000000003 3.32695
vertex 18.500075000000002 -2.500025 11.961675000000001
vertex 18.500075000000002 -2.500025 11.847825
endloop
endfacet
facet normal 1 0 0
outer loop
vertex 18.500075000000002 -2.1428000000000003 3.32695
vertex 18.500075000000002 -2.500025 11.847825
vertex 18.500075000000002 -2.500025 11.663025000000001
endloop
endfacet
facet normal 0.9999999999999999 0 0
outer loop
vertex 18.500075000000002 -2.1428000000000003 3.32695
vertex 18.500075000000002 -2.500025 11.663025000000001
vertex 18.500075000000002 -2.500025 11.414150000000001
endloop
endfacet
facet normal 1 0 0
outer loop
vertex 18.500075000000002 -2.1428000000000003 3.32695
vertex 18.500075000000002 -2.500025 11.414150000000001
vertex 18.500075000000002 -2.500025 11.1111
endloop
endfacet
facet normal 0.9999999999999999 0 0
outer loop
vertex 18.500075000000002 -2.1428000000000003 3.32695
vertex 18.500075000000002 -2.500025 11.1111
vertex 18.500075000000002 -2.500025 10.765425
endloop
endfacet
facet normal 1 0 0
outer loop
vertex 18.500075000000002 -2.1428000000000003 3.32695
vertex 18.500075000000002 -2.500025 10.765425
vertex 18.500075000000002 -2.500025 10.39005
endloop
endfacet
facet normal 0.9999999999999999 0 0
outer loop
vertex 18.500075000000002 -2.1428000000000003 3.32695
vertex 18.500075000000002 -2.500025 10.39005
vertex 18.500075000000002 -2.500025 10.0001
endloop
endfacet
facet normal 1 0 0
outer loop
vertex 18.500075000000002 -2.1428000000000003 3.32695
vertex 18.500075000000002 -2.500025 10.0001
vertex 18.500075000000002 -2.500025 9.609875
endloop
endfacet
facet normal 1 0 0
outer loop
vertex 18.500075000000002 -2.1428000000000003 3.32695
vertex 18.500075000000002 -2.500025 9.609875
vertex 18.500075000000002 -2.500025 9.2345
endloop
endfacet
facet normal 0.9999999999999999 0 0
outer loop
vertex 18.500075000000002 -2.1428000000000003 3.32695
vertex 18.500075000000002 -2.500025 9.2345
vertex 18.500075000000002 -2.500025 8.888825
endloop
endfacet
facet normal 1 0 0
outer loop
vertex 18.500075000000002 -2.1428000000000003 3.32695
vertex 18.500075000000002 -2.500025 8.888825
vertex 18.500075000000002 -2.500025 8.585775
endloop
endfacet
facet normal 1 0 0
outer loop
vertex 18.500075000000002 -2.1428000000000003 3.32695
vertex 18.500075000000002 -2.500025 8.585775
vertex 18.500075000000002 -2.500025 8.337175
endloop
endfacet
facet normal 1 0 0
outer loop
vertex 18.500075000000002 -2.1428000000000003 3.32695
vertex 18.500075000000002 -2.500025 8.337175
vertex 18.500075000000002 -2.500025 8.152375000000001
endloop
endfacet
facet normal 1 0 0
outer loop
vertex 18.500075000000002 -2.1428000000000003 3.32695
vertex 18.500075000000002 -2.500025 8.152375000000001
vertex 18.500075000000002 -2.500025 8.038525
endloop
endfacet
facet normal 1 0 0
outer loop
vertex 18.500075000000002 -2.1428000000000003 3.32695
vertex 18.500075000000002 -2.500025 8.038525
vertex 18.500075000000002 -2.500025 8.000025
endloop
endfacet
facet normal 1 0 0
outer loop
vertex 18.500075000000002 -2.1428000000000003 3.32695
vertex 18.500075000000002 -2.500025 8.000025
vertex 18.500075000000002 -2.500025 -8.000025
endloop
endfacet
facet normal 1 0 0
outer loop
vertex 18.500075000000002 -2.1428000000000003 3.32695
vertex 18.500075000000002 -2.500025 -8.000025
vertex 18.500075000000002 -2.500025 -8.038525
endloop
endfacet
facet normal 1 0 0
outer loop
vertex 18.500075000000002 -2.1428000000000003 3.32695
vertex 18.500075000000002 -2.500025 -8.038525
vertex 18.500075000000002 -2.500025 -8.152375000000001
endloop
endfacet
facet normal 1 0 0
outer loop
vertex 18.500075000000002 -2.1428000000000003 3.32695
vertex 18.500075000000002 -2.500025 -8.152375000000001
vertex 18.500075000000002 -2.500025 -8.337175
endloop
endfacet
facet normal 1 0 0
outer loop
vertex 18.500075000000002 -2.1428000000000003 3.32695
vertex 18.500075000000002 -2.500025 -8.337175
vertex 18.500075000000002 -2.500025 -8.585775
endloop
endfacet
facet normal 1 0 0
outer loop
vertex 18.500075000000002 -2.1428000000000003 3.32695
vertex 18.500075000000002 -2.500025 -8.585775
vertex 18.500075000000002 -2.500025 -8.888825
endloop
endfacet
facet normal 0.9999999999999999 0 0
outer loop
vertex 18.500075000000002 -2.1428000000000003 3.32695
vertex 18.500075000000002 -2.500025 -8.888825
vertex 18.500075000000002 -2.500025 -9.2345
endloop
endfacet
facet normal 1 0 0
outer loop
vertex 18.500075000000002 -2.1428000000000003 3.32695
vertex 18.500075000000002 -2.500025 -9.2345
vertex 18.500075000000002 -2.500025 -9.609875
endloop
endfacet
facet normal 1 0 0
outer loop
vertex 18.500075000000002 -2.1428000000000003 3.32695
vertex 18.500075000000002 -2.500025 -9.609875
vertex 18.500075000000002 -2.500025 -10.0001
endloop
endfacet
facet normal 1 0 0
outer loop
vertex 18.500075000000002 -2.1428000000000003 3.32695
vertex 18.500075000000002 -2.500025 -10.0001
vertex 18.500075000000002 2.500025 -10.0001
endloop
endfacet
facet normal -1 0 0
outer loop
vertex 20.499875000000003 -2.500025 11.9999
vertex 20.499875000000003 2.500025 11.9999
vertex 20.499875000000003 2.500025 -10.0001
endloop
endfacet
facet normal -1 0 0
outer loop
vertex 20.499875000000003 -2.500025 11.9999
vertex 20.499875000000003 2.500025 -10.0001
vertex 20.499875000000003 -2.500025 -10.0001
endloop
endfacet
facet normal 0 0 1
outer loop
vertex 20.499875000000003 -2.500025 -10.0001
vertex 20.499875000000003 2.500025 -10.0001
vertex 18.500075000000002 2.500025 -10.0001
endloop
endfacet
facet normal 0 0 1
outer loop
vertex 20.499875000000003 -2.500025 -10.0001
vertex 18.500075000000002 2.500025 -10.0001
vertex 18.500075000000002 -2.500025 -10.0001
endloop
endfacet
facet normal 0 0 1
outer loop
vertex 20.499875000000003 2.500025 11.9999
vertex 20.499875000000003 -2.500025 11.9999
vertex 22.499950000000002 -2.500025 11.9999
endloop
endfacet
facet normal 0 0 1
outer loop
vertex 20.499875000000003 2.500025 11.9999
vertex 22.499950000000002 -2.500025 11.9999
vertex 22.499950000000002 2.500025 11.9999
endloop
endfacet
facet normal 0 0 1
outer loop
vertex -4.099975000000001 -0.49995 11.9999
vertex -22.499950000000002 2.500025 11.9999
vertex -22.499950000000002 -2.500025 11.9999
endloop
endfacet
facet normal 0 0 1
outer loop
vertex -4.099975000000001 -0.49995 11.9999
vertex -22.499950000000002 -2.500025 11.9999
vertex -12.500125 -2.500025 11.9999
endloop
endfacet
facet normal 0 0 1
outer loop
vertex -4.099975000000001 -0.49995 11.9999
vertex -12.500125 -2.500025 11.9999
vertex 18.500075000000002 -2.500025 11.9999
endloop
endfacet
facet normal 0 0 1
outer loop
vertex -4.099975000000001 -0.49995 11.9999
vertex 18.500075000000002 -2.500025 11.9999
vertex 18.500075000000002 2.500025 11.9999
endloop
endfacet
facet normal 0 0 1
outer loop
vertex -4.099975000000001 -0.49995 11.9999
vertex 18.500075000000002 2.500025 11.9999
vertex -22.499950000000002 2.500025 11.9999
endloop
endfacet
facet normal 0 -1 0
outer loop
vertex -12.500125 -2.500025 11.9999
vertex -12.109900000000001 -2.500025 11.961675000000001
vertex 18.500075000000002 -2.500025 11.961675000000001
endloop
endfacet
facet normal 0 -1 0
outer loop
vertex -12.500125 -2.500025 11.9999
vertex 18.500075000000002 -2.500025 11.961675000000001
vertex 18.500075000000002 -2.500025 11.9999
endloop
endfacet
facet normal 0 -1 0
outer loop
vertex -22.499950000000002 -2.500025 11.9999
vertex -22.499950000000002 -2.500025 11.961675000000001
vertex -12.890075000000001 -2.500025 11.961675000000001
endloop
endfacet
facet normal 0 -1 0
outer loop
vertex -22.499950000000002 -2.500025 11.9999
vertex -12.890075000000001 -2.500025 11.961675000000001
vertex -12.500125 -2.500025 11.9999
endloop
endfacet
facet normal 0 -1 0
outer loop
vertex -12.109900000000001 -2.500025 11.961675000000001
vertex -11.734525000000001 -2.500025 11.847825
vertex 18.500075000000002 -2.500025 11.847825
endloop
endfacet
facet normal 0 -1 0
outer loop
vertex -12.109900000000001 -2.500025 11.961675000000001
vertex 18.500075000000002 -2.500025 11.847825
vertex 18.500075000000002 -2.500025 11.961675000000001
endloop
endfacet
facet normal 0 -1 0
outer loop
vertex -22.499950000000002 -2.500025 11.961675000000001
vertex -22.499950000000002 -2.500025 11.847825
vertex -13.265450000000001 -2.500025 11.847825
endloop
endfacet
facet normal 0 -1 0
outer loop
vertex -22.499950000000002 -2.500025 11.961675000000001
vertex -13.265450000000001 -2.500025 11.847825
vertex -12.890075000000001 -2.500025 11.961675000000001
endloop
endfacet
facet normal 0 -1 0
outer loop
vertex -11.734525000000001 -2.500025 11.847825
vertex -11.388850000000001 -2.500025 11.663025000000001
vertex 18.500075000000002 -2.500025 11.663025000000001
endloop
endfacet
facet normal 0 -0.9999999999999999 0
outer loop
vertex -11.734525000000001 -2.500025 11.847825
vertex 18.500075000000002 -2.500025 11.663025000000001
vertex 18.500075000000002 -2.500025 11.847825
endloop
endfacet
facet normal 0 -1 0
outer loop
vertex -22.499950000000002 -2.500025 11.847825
vertex -22.499950000000002 -2.500025 11.663025000000001
vertex -13.611125000000001 -2.500025 11.663025000000001
endloop
endfacet
facet normal 0 -0.9999999999999999 0
outer loop
vertex -22.499950000000002 -2.500025 11.847825
vertex -13.611125000000001 -2.500025 11.663025000000001
vertex -13.265450000000001 -2.500025 11.847825
endloop
endfacet
facet normal 0 -1 0
outer loop
vertex -11.388850000000001 -2.500025 11.663025000000001
vertex -11.0858 -2.500025 11.414150000000001
vertex 18.500075000000002 -2.500025 11.414150000000001
endloop
endfacet
facet normal 0 -0.9999999999999999 0
outer loop
vertex -11.388850000000001 -2.500025 11.663025000000001
vertex 18.500075000000002 -2.500025 11.414150000000001
vertex 18.500075000000002 -2.500025 11.663025000000001
endloop
endfacet
facet normal 0 -1 0
outer loop
vertex -22.499950000000002 -2.500025 11.663025000000001
vertex -22.499950000000002 -2.500025 11.414150000000001
vertex -13.914175 -2.500025 11.414150000000001
endloop
endfacet
facet normal 0 -1 0
outer loop
vertex -22.499950000000002 -2.500025 11.663025000000001
vertex -13.914175 -2.500025 11.414150000000001
vertex -13.611125000000001 -2.500025 11.663025000000001
endloop
endfacet
facet normal 0 -1 0
outer loop
vertex -11.0858 -2.500025 11.414150000000001
vertex -10.836925 -2.500025 11.1111
vertex 18.500075000000002 -2.500025 11.1111
endloop
endfacet
facet normal 0 -1 0
outer loop
vertex -11.0858 -2.500025 11.414150000000001
vertex 18.500075000000002 -2.500025 11.1111
vertex 18.500075000000002 -2.500025 11.414150000000001
endloop
endfacet
facet normal 0 -1 0
outer loop
vertex -22.499950000000002 -2.500025 11.414150000000001
vertex -22.499950000000002 -2.500025 11.1111
vertex -14.16305 -2.500025 11.1111
endloop
endfacet
facet normal 0 -1 0
outer loop
vertex -22.499950000000002 -2.500025 11.414150000000001
vertex -14.16305 -2.500025 11.1111
vertex -13.914175 -2.500025 11.414150000000001
endloop
endfacet
facet normal 0 -1 0
outer loop
vertex -10.836925 -2.500025 11.1111
vertex -10.652125 -2.500025 10.765425
vertex 18.500075000000002 -2.500025 10.765425
endloop
endfacet
facet normal 0 -1 0
outer loop
vertex -10.836925 -2.500025 11.1111
vertex 18.500075000000002 -2.500025 10.765425
vertex 18.500075000000002 -2.500025 11.1111
endloop
endfacet
facet normal 0 -1 0
outer loop
vertex -22.499950000000002 -2.500025 11.1111
vertex -22.499950000000002 -2.500025 10.765425
vertex -14.347850000000001 -2.500025 10.765425
endloop
endfacet
facet normal 0 -1 0
outer loop
vertex -22.499950000000002 -2.500025 11.1111
vertex -14.347850000000001 -2.500025 10.765425
vertex -14.16305 -2.500025 11.1111
endloop
endfacet
facet normal 0 -1 0
outer loop
vertex -10.652125 -2.500025 10.765425
vertex -10.53855 -2.500025 10.39005
vertex 18.500075000000002 -2.500025 10.39005
endloop
endfacet
facet normal 0 -1 0
outer loop
vertex -10.652125 -2.500025 10.765425
vertex 18.500075000000002 -2.500025 10.39005
vertex 18.500075000000002 -2.500025 10.765425
endloop
endfacet
facet normal 0 -0.9999999999999999 0
outer loop
vertex -22.499950000000002 -2.500025 10.765425
vertex -22.499950000000002 -2.500025 10.39005
vertex -14.4617 -2.500025 10.39005
endloop
endfacet
facet normal 0 -0.9999999999999999 0
outer loop
vertex -22.499950000000002 -2.500025 10.765425
vertex -14.4617 -2.500025 10.39005
vertex -14.347850000000001 -2.500025 10.765425
endloop
endfacet
facet normal 0 -1 0
outer loop
vertex -10.53855 -2.500025 10.39005
vertex -10.50005 -2.500025 10.0001
vertex 18.500075000000002 -2.500025 10.0001
endloop
endfacet
facet normal 0 -1 0
outer loop
vertex -10.53855 -2.500025 10.39005
vertex 18.500075000000002 -2.500025 10.0001
vertex 18.500075000000002 -2.500025 10.39005
endloop
endfacet
facet normal 0 -0.9999999999999999 0
outer loop
vertex -22.499950000000002 -2.500025 10.39005
vertex -22.499950000000002 -2.500025 10.0001
vertex -14.499925000000001 -2.500025 10.0001
endloop
endfacet
facet normal 0 -0.9999999999999999 0
outer loop
vertex -22.499950000000002 -2.500025 10.39005
vertex -14.499925000000001 -2.500025 10.0001
vertex -14.4617 -2.500025 10.39005
endloop
endfacet
facet normal 0 -1 0
outer loop
vertex -10.50005 -2.500025 10.0001
vertex -10.53855 -2.500025 9.609875
vertex 18.500075000000002 -2.500025 9.609875
endloop
endfacet
facet normal 0 -1 0
outer loop
vertex -10.50005 -2.500025 10.0001
vertex 18.500075000000002 -2.500025 9.609875
vertex 18.500075000000002 -2.500025 10.0001
endloop
endfacet
facet normal 0 -1 0
outer loop
vertex -22.499950000000002 -2.500025 10.0001
vertex -22.499950000000002 -2.500025 9.609875
vertex -14.4617 -2.500025 9.609875
endloop
endfacet
facet normal 0 -1 0
outer loop
vertex -22.499950000000002 -2.500025 10.0001
vertex -14.4617 -2.500025 9.609875
vertex -14.499925000000001 -2.500025 10.0001
endloop
endfacet
facet normal 0 -1 0
outer loop
vertex -10.53855 -2.500025 9.609875
vertex -10.652125 -2.500025 9.2345
vertex 18.500075000000002 -2.500025 9.2345
endloop
endfacet
facet normal 0 -1 0
outer loop
vertex -10.53855 -2.500025 9.609875
vertex 18.500075000000002 -2.500025 9.2345
vertex 18.500075000000002 -2.500025 9.609875
endloop
endfacet
facet normal 0 -0.9999999999999999 0
outer loop
vertex -22.499950000000002 -2.500025 9.609875
vertex -22.499950000000002 -2.500025 9.2345
vertex -14.347850000000001 -2.500025 9.2345
endloop
endfacet
facet normal 0 -0.9999999999999999 0
outer loop
vertex -22.499950000000002 -2.500025 9.609875
vertex -14.347850000000001 -2.500025 9.2345
vertex -14.4617 -2.500025 9.609875
endloop
endfacet
facet normal 0 -1 0
outer loop
vertex -10.652125 -2.500025 9.2345
vertex -10.836925 -2.500025 8.888825
vertex 18.500075000000002 -2.500025 8.888825
endloop
endfacet
facet normal 0 -1 0
outer loop
vertex -10.652125 -2.500025 9.2345
vertex 18.500075000000002 -2.500025 8.888825
vertex 18.500075000000002 -2.500025 9.2345
endloop
endfacet
facet normal 0 -1 0
outer loop
vertex -22.499950000000002 -2.500025 9.2345
vertex -22.499950000000002 -2.500025 8.888825
vertex -14.16305 -2.500025 8.888825
endloop
endfacet
facet normal 0 -1 0
outer loop
vertex -22.499950000000002 -2.500025 9.2345
vertex -14.16305 -2.500025 8.888825
vertex -14.347850000000001 -2.500025 9.2345
endloop
endfacet
facet normal 0 -1 0
outer loop
vertex -10.836925 -2.500025 8.888825
vertex -11.0858 -2.500025 8.585775
vertex 18.500075000000002 -2.500025 8.585775
endloop
endfacet
facet normal 0 -1 0
outer loop
vertex -10.836925 -2.500025 8.888825
vertex 18.500075000000002 -2.500025 8.585775
vertex 18.500075000000002 -2.500025 8.888825
endloop
endfacet
facet normal 0 -1 0
outer loop
vertex -22.499950000000002 -2.500025 8.888825
vertex -22.499950000000002 -2.500025 8.585775
vertex -13.914175 -2.500025 8.585775
endloop
endfacet
facet normal 0 -1 0
outer loop
vertex -22.499950000000002 -2.500025 8.888825
vertex -13.914175 -2.500025 8.585775
vertex -14.16305 -2.500025 8.888825
endloop
endfacet
facet normal 0 -1 0
outer loop
vertex -11.0858 -2.500025 8.585775
vertex -11.388850000000001 -2.500025 8.337175
vertex 18.500075000000002 -2.500025 8.337175
endloop
endfacet
facet normal 0 -1 0
outer loop
vertex -11.0858 -2.500025 8.585775
vertex 18.500075000000002 -2.500025 8.337175
vertex 18.500075000000002 -2.500025 8.585775
endloop
endfacet
facet normal 0 -1 0
outer loop
vertex -22.499950000000002 -2.500025 8.585775
vertex -22.499950000000002 -2.500025 8.337175
vertex -13.611125000000001 -2.500025 8.337175
endloop
endfacet
facet normal 0 -1 0
outer loop
vertex -22.499950000000002 -2.500025 8.585775
vertex -13.611125000000001 -2.500025 8.337175
vertex -13.914175 -2.500025 8.585775
endloop
endfacet
facet normal 0 -1 0
outer loop
vertex -11.388850000000001 -2.500025 8.337175
vertex -11.734525000000001 -2.500025 8.152375000000001
vertex 18.500075000000002 -2.500025 8.152375000000001
endloop
endfacet
facet normal 0 -1 0
outer loop
vertex -11.388850000000001 -2.500025 8.337175
vertex 18.500075000000002 -2.500025 8.152375000000001
vertex 18.500075000000002 -2.500025 8.337175
endloop
endfacet
facet normal 0 -0.9999999999999999 0
outer loop
vertex -22.499950000000002 -2.500025 8.337175
vertex -22.499950000000002 -2.500025 8.152375000000001
vertex -13.265450000000001 -2.500025 8.152375000000001
endloop
endfacet
facet normal 0 -1 0
outer loop
vertex -22.499950000000002 -2.500025 8.337175
vertex -13.265450000000001 -2.500025 8.152375000000001
vertex -13.611125000000001 -2.500025 8.337175
endloop
endfacet
facet normal 0 -1 0
outer loop
vertex -11.734525000000001 -2.500025 8.152375000000001
vertex -12.109900000000001 -2.500025 8.038525
vertex 18.500075000000002 -2.500025 8.038525
endloop
endfacet
facet normal 0 -1 0
outer loop
vertex -11.734525000000001 -2.500025 8.152375000000001
vertex 18.500075000000002 -2.500025 8.038525
vertex 18.500075000000002 -2.500025 8.152375000000001
endloop
endfacet
facet normal 0 -1 0
outer loop
vertex -22.499950000000002 -2.500025 8.152375000000001
vertex -22.499950000000002 -2.500025 8.038525
vertex -12.890075000000001 -2.500025 8.038525
endloop
endfacet
facet normal 0 -1 0
outer loop
vertex -22.499950000000002 -2.500025 8.152375000000001
vertex -12.890075000000001 -2.500025 8.038525
vertex -13.265450000000001 -2.500025 8.152375000000001
endloop
endfacet
facet normal 0 -1 0
outer loop
vertex -12.109900000000001 -2.500025 8.038525
vertex -12.500125 -2.500025 8.000025
vertex 18.500075000000002 -2.500025 8.000025
endloop
endfacet
facet normal 0 -1 0
outer loop
vertex -12.109900000000001 -2.500025 8.038525
vertex 18.500075000000002 -2.500025 8.000025
vertex 18.500075000000002 -2.500025 8.038525
endloop
endfacet
facet normal 0 -1 0
outer loop
vertex -22.499950000000002 -2.500025 8.038525
vertex -22.499950000000002 -2.500025 8.000025
vertex -12.500125 -2.500025 8.000025
endloop
endfacet
facet normal 0 -1 0
outer loop
vertex -22.499950000000002 -2.500025 8.038525
vertex -12.500125 -2.500025 8.000025
vertex -12.890075000000001 -2.500025 8.038525
endloop
endfacet
facet normal 0 -0.9999999999999999 0
outer loop
vertex -5.5 -2.500025 0
vertex -12.500125 -2.500025 8.000025
vertex -22.499950000000002 -2.500025 8.000025
endloop
endfacet
facet normal 0 -1 0
outer loop
vertex -5.5 -2.500025 0
vertex -22.499950000000002 -2.500025 8.000025
vertex -22.499950000000002 -2.500025 -8.000025
endloop
endfacet
facet normal 0 -0.9999999999999999 0
outer loop
vertex -5.5 -2.500025 0
vertex -22.499950000000002 -2.500025 -8.000025
vertex -12.500125 -2.500025 -8.000025
endloop
endfacet
facet normal 0 -1 0
outer loop
vertex -5.5 -2.500025 0
vertex -12.500125 -2.500025 -8.000025
vertex 18.500075000000002 -2.500025 -8.000025
endloop
endfacet
facet normal 0 -1 0
outer loop
vertex -5.5 -2.500025 0
vertex 18.500075000000002 -2.500025 -8.000025
vertex 18.500075000000002 -2.500025 8.000025
endloop
endfacet
facet normal 0 -1 0
outer loop
vertex -5.5 -2.500025 0
vertex 18.500075000000002 -2.500025 8.000025
vertex -12.500125 -2.500025 8.000025
endloop
endfacet
facet normal 0 -1 0
outer loop
vertex -12.500125 -2.500025 -8.000025
vertex -12.109900000000001 -2.500025 -8.038525
vertex 18.500075000000002 -2.500025 -8.038525
endloop
endfacet
facet normal 0 -1 0
outer loop
vertex -12.500125 -2.500025 -8.000025
vertex 18.500075000000002 -2.500025 -8.038525
vertex 18.500075000000002 -2.500025 -8.000025
endloop
endfacet
facet normal 0 -1 0
outer loop
vertex -22.499950000000002 -2.500025 -8.000025
vertex -22.499950000000002 -2.500025 -8.038525
vertex -12.890075000000001 -2.500025 -8.038525
endloop
endfacet
facet normal 0 -1 0
outer loop
vertex -22.499950000000002 -2.500025 -8.000025
vertex -12.890075000000001 -2.500025 -8.038525
vertex -12.500125 -2.500025 -8.000025
endloop
endfacet
facet normal 0 -1 0
outer loop
vertex -12.109900000000001 -2.500025 -8.038525
vertex -11.734525000000001 -2.500025 -8.152375000000001
vertex 18.500075000000002 -2.500025 -8.152375000000001
endloop
endfacet
facet normal 0 -1 0
outer loop
vertex -12.109900000000001 -2.500025 -8.038525
vertex 18.500075000000002 -2.500025 -8.152375000000001
vertex 18.500075000000002 -2.500025 -8.038525
endloop
endfacet
facet normal 0 -1 0
outer loop
vertex -22.499950000000002 -2.500025 -8.038525
vertex -22.499950000000002 -2.500025 -8.152375000000001
vertex -13.265450000000001 -2.500025 -8.152375000000001
endloop
endfacet
facet normal 0 -1 0
outer loop
vertex -22.499950000000002 -2.500025 -8.038525
vertex -13.265450000000001 -2.500025 -8.152375000000001
vertex -12.890075000000001 -2.500025 -8.038525
endloop
endfacet
facet normal 0 -1 0
outer loop
vertex -11.734525000000001 -2.500025 -8.152375000000001
vertex -11.388850000000001 -2.500025 -8.337175
vertex 18.500075000000002 -2.500025 -8.337175
endloop
endfacet
facet normal 0 -0.9999999999999999 0
outer loop
vertex -11.734525000000001 -2.500025 -8.152375000000001
vertex 18.500075000000002 -2.500025 -8.337175
vertex 18.500075000000002 -2.500025 -8.152375000000001
endloop
endfacet
facet normal 0 -1 0
outer loop
vertex -22.499950000000002 -2.500025 -8.152375000000001
vertex -22.499950000000002 -2.500025 -8.337175
vertex -13.611125000000001 -2.500025 -8.337175
endloop
endfacet
facet normal 0 -0.9999999999999999 0
outer loop
vertex -22.499950000000002 -2.500025 -8.152375000000001
vertex -13.611125000000001 -2.500025 -8.337175
vertex -13.265450000000001 -2.500025 -8.152375000000001
endloop
endfacet
facet normal 0 -1 0
outer loop
vertex -11.388850000000001 -2.500025 -8.337175
vertex -11.0858 -2.500025 -8.585775
vertex 18.500075000000002 -2.500025 -8.585775
endloop
endfacet
facet normal 0 -0.9999999999999999 0
outer loop
vertex -11.388850000000001 -2.500025 -8.337175
vertex 18.500075000000002 -2.500025 -8.585775
vertex 18.500075000000002 -2.500025 -8.337175
endloop
endfacet
facet normal 0 -1 0
outer loop
vertex -22.499950000000002 -2.500025 -8.337175
vertex -22.499950000000002 -2.500025 -8.585775
vertex -13.914175 -2.500025 -8.585775
endloop
endfacet
facet normal 0 -1 0
outer loop
vertex -22.499950000000002 -2.500025 -8.337175
vertex -13.914175 -2.500025 -8.585775
vertex -13.611125000000001 -2.500025 -8.337175
endloop
endfacet
facet normal 0 -1 0
outer loop
vertex -11.0858 -2.500025 -8.585775
vertex -10.836925 -2.500025 -8.888825
vertex 18.500075000000002 -2.500025 -8.888825
endloop
endfacet
facet normal 0 -1 0
outer loop
vertex -11.0858 -2.500025 -8.585775
vertex 18.500075000000002 -2.500025 -8.888825
vertex 18.500075000000002 -2.500025 -8.585775
endloop
endfacet
facet normal 0 -1 0
outer loop
vertex -22.499950000000002 -2.500025 -8.585775
vertex -22.499950000000002 -2.500025 -8.888825
vertex -14.16305 -2.500025 -8.888825
endloop
endfacet
facet normal 0 -1 0
outer loop
vertex -22.499950000000002 -2.500025 -8.585775
vertex -14.16305 -2.500025 -8.888825
vertex -13.914175 -2.500025 -8.585775
endloop
endfacet
facet normal 0 -1 0
outer loop
vertex -10.836925 -2.500025 -8.888825
vertex -10.652125 -2.500025 -9.2345
vertex 18.500075000000002 -2.500025 -9.2345
endloop
endfacet
facet normal 0 -1 0
outer loop
vertex -10.836925 -2.500025 -8.888825
vertex 18.500075000000002 -2.500025 -9.2345
vertex 18.500075000000002 -2.500025 -8.888825
endloop
endfacet
facet normal 0 -1 0
outer loop
vertex -22.499950000000002 -2.500025 -8.888825
vertex -22.499950000000002 -2.500025 -9.2345
vertex -14.347850000000001 -2.500025 -9.2345
endloop
endfacet
facet normal 0 -1 0
outer loop
vertex -22.499950000000002 -2.500025 -8.888825
vertex -14.347850000000001 -2.500025 -9.2345
vertex -14.16305 -2.500025 -8.888825
endloop
endfacet
facet normal 0 -1 0
outer loop
vertex -10.652125 -2.500025 -9.2345
vertex -10.53855 -2.500025 -9.609875
vertex 18.500075000000002 -2.500025 -9.609875
endloop
endfacet
facet normal 0 -1 0
outer loop
vertex -10.652125 -2.500025 -9.2345
vertex 18.500075000000002 -2.500025 -9.609875
vertex 18.500075000000002 -2.500025 -9.2345
endloop
endfacet
facet normal 0 -0.9999999999999999 0
outer loop
vertex -22.499950000000002 -2.500025 -9.2345
vertex -22.499950000000002 -2.500025 -9.609875
vertex -14.4617 -2.500025 -9.609875
endloop
endfacet
facet normal 0 -0.9999999999999999 0
outer loop
vertex -22.499950000000002 -2.500025 -9.2345
vertex -14.4617 -2.500025 -9.609875
vertex -14.347850000000001 -2.500025 -9.2345
endloop
endfacet
facet normal 0 -1 0
outer loop
vertex 20.499875000000003 -2.500025 11.9999
vertex 20.499875000000003 -2.500025 -10.0001
vertex 22.499950000000002 -2.500025 -10.0001
endloop
endfacet
facet normal 0 -1 0
outer loop
vertex 20.499875000000003 -2.500025 11.9999
vertex 22.499950000000002 -2.500025 -10.0001
vertex 22.499950000000002 -2.500025 11.9999
endloop
endfacet
facet normal 0 -1 0
outer loop
vertex -10.53855 -2.500025 -9.609875
vertex -10.50005 -2.500025 -10.0001
vertex 18.500075000000002 -2.500025 -10.0001
endloop
endfacet
facet normal 0 -1 0
outer loop
vertex -10.53855 -2.500025 -9.609875
vertex 18.500075000000002 -2.500025 -10.0001
vertex 18.500075000000002 -2.500025 -9.609875
endloop
endfacet
facet normal 0 -1 0
outer loop
vertex -22.499950000000002 -2.500025 -9.609875
vertex -22.499950000000002 -2.500025 -10.0001
vertex -14.499925000000001 -2.500025 -10.0001
endloop
endfacet
facet normal 0 -1 0
outer loop
vertex -22.499950000000002 -2.500025 -9.609875
vertex -14.499925000000001 -2.500025 -10.0001
vertex -14.4617 -2.500025 -9.609875
endloop
endfacet
facet normal 0 -1 0
outer loop
vertex 10.493450000000001 -2.500025 -10.130175000000001
vertex 20.499875000000003 -2.500025 -10.0001
vertex 18.500075000000002 -2.500025 -10.0001
endloop
endfacet
facet normal 0 -1 0
outer loop
vertex 10.493450000000001 -2.500025 -10.130175000000001
vertex 18.500075000000002 -2.500025 -10.0001
vertex -10.50005 -2.500025 -10.0001
endloop
endfacet
facet normal 0 -1 0
outer loop
vertex 10.493450000000001 -2.500025 -10.130175000000001
vertex -10.50005 -2.500025 -10.0001
vertex -10.53855 -2.500025 -10.39005
endloop
endfacet
facet normal 0 -1 0
outer loop
vertex 10.493450000000001 -2.500025 -10.130175000000001
vertex -10.53855 -2.500025 -10.39005
vertex 22.499950000000002 -2.500025 -10.39005
endloop
endfacet
facet normal 0 -1 0
outer loop
vertex 10.493450000000001 -2.500025 -10.130175000000001
vertex 22.499950000000002 -2.500025 -10.39005
vertex 22.499950000000002 -2.500025 -10.0001
endloop
endfacet
facet normal 0 -1 0
outer loop
vertex 10.493450000000001 -2.500025 -10.130175000000001
vertex 22.499950000000002 -2.500025 -10.0001
vertex 20.499875000000003 -2.500025 -10.0001
endloop
endfacet
facet normal 0 -0.9999999999999999 0
outer loop
vertex -22.499950000000002 -2.500025 -10.0001
vertex -22.499950000000002 -2.500025 -10.39005
vertex -14.4617 -2.500025 -10.39005
endloop
endfacet
facet normal 0 -0.9999999999999999 0
outer loop
vertex -22.499950000000002 -2.500025 -10.0001
vertex -14.4617 -2.500025 -10.39005
vertex -14.499925000000001 -2.500025 -10.0001
endloop
endfacet
facet normal 0 -1 0
outer loop
vertex -10.53855 -2.500025 -10.39005
vertex -10.652125 -2.500025 -10.765425
vertex 22.499950000000002 -2.500025 -10.765425
endloop
endfacet
facet normal 0 -1 0
outer loop
vertex -10.53855 -2.500025 -10.39005
vertex 22.499950000000002 -2.500025 -10.765425
vertex 22.499950000000002 -2.500025 -10.39005
endloop
endfacet
facet normal 0 -0.9999999999999999 0
outer loop
vertex -22.499950000000002 -2.500025 -10.39005
vertex -22.499950000000002 -2.500025 -10.765425
vertex -14.347850000000001 -2.500025 -10.765425
endloop
endfacet
facet normal 0 -0.9999999999999999 0
outer loop
vertex -22.499950000000002 -2.500025 -10.39005
vertex -14.347850000000001 -2.500025 -10.765425
vertex -14.4617 -2.500025 -10.39005
endloop
endfacet
facet normal 0 -1 0
outer loop
vertex -10.652125 -2.500025 -10.765425
vertex -10.836925 -2.500025 -11.1111
vertex 22.499950000000002 -2.500025 -11.1111
endloop
endfacet
facet normal 0 -1 0
outer loop
vertex -10.652125 -2.500025 -10.765425
vertex 22.499950000000002 -2.500025 -11.1111
vertex 22.499950000000002 -2.500025 -10.765425
endloop
endfacet
facet normal 0 -1 0
outer loop
vertex -22.499950000000002 -2.500025 -10.765425
vertex -22.499950000000002 -2.500025 -11.1111
vertex -14.16305 -2.500025 -11.1111
endloop
endfacet
facet normal 0 -1 0
outer loop
vertex -22.499950000000002 -2.500025 -10.765425
vertex -14.16305 -2.500025 -11.1111
vertex -14.347850000000001 -2.500025 -10.765425
endloop
endfacet
facet normal 0 -1 0
outer loop
vertex -10.836925 -2.500025 -11.1111
vertex -11.0858 -2.500025 -11.414150000000001
vertex 22.499950000000002 -2.500025 -11.414150000000001
endloop
endfacet
facet normal 0 -1 0
outer loop
vertex -10.836925 -2.500025 -11.1111
vertex 22.499950000000002 -2.500025 -11.414150000000001
vertex 22.499950000000002 -2.500025 -11.1111
endloop
endfacet
facet normal 0 -1 0
outer loop
vertex -22.499950000000002 -2.500025 -11.1111
vertex -22.499950000000002 -2.500025 -11.414150000000001
vertex -13.914175 -2.500025 -11.414150000000001
endloop
endfacet
facet normal 0 -1 0
outer loop
vertex -22.499950000000002 -2.500025 -11.1111
vertex -13.914175 -2.500025 -11.414150000000001
vertex -14.16305 -2.500025 -11.1111
endloop
endfacet
facet normal 0 -1 0
outer loop
vertex -11.0858 -2.500025 -11.414150000000001
vertex -11.388850000000001 -2.500025 -11.663025000000001
vertex 22.499950000000002 -2.500025 -11.663025000000001
endloop
endfacet
facet normal 0 -1 0
outer loop
vertex -11.0858 -2.500025 -11.414150000000001
vertex 22.499950000000002 -2.500025 -11.663025000000001
vertex 22.499950000000002 -2.500025 -11.414150000000001
endloop
endfacet
facet normal 0 -1 0
outer loop
vertex -22.499950000000002 -2.500025 -11.414150000000001
vertex -22.499950000000002 -2.500025 -11.663025000000001
vertex -13.611125000000001 -2.500025 -11.663025000000001
endloop
endfacet
facet normal 0 -1 0
outer loop
vertex -22.499950000000002 -2.500025 -11.414150000000001
vertex -13.611125000000001 -2.500025 -11.663025000000001
vertex -13.914175 -2.500025 -11.414150000000001
endloop
endfacet
facet normal 0 -1 0
outer loop
vertex -11.388850000000001 -2.500025 -11.663025000000001
vertex -11.734525000000001 -2.500025 -11.847825
vertex 22.499950000000002 -2.500025 -11.847825
endloop
endfacet
facet normal 0 -1 0
outer loop
vertex -11.388850000000001 -2.500025 -11.663025000000001
vertex 22.499950000000002 -2.500025 -11.847825
vertex 22.499950000000002 -2.500025 -11.663025000000001
endloop
endfacet
facet normal 0 -0.9999999999999999 0
outer loop
vertex -22.499950000000002 -2.500025 -11.663025000000001
vertex -22.499950000000002 -2.500025 -11.847825
vertex -13.265450000000001 -2.500025 -11.847825
endloop
endfacet
facet normal 0 -1 0
outer loop
vertex -22.499950000000002 -2.500025 -11.663025000000001
vertex -13.265450000000001 -2.500025 -11.847825
vertex -13.611125000000001 -2.500025 -11.663025000000001
endloop
endfacet
facet normal 0 -1 0
outer loop
vertex -11.734525000000001 -2.500025 -11.847825
vertex -12.109900000000001 -2.500025 -11.961675000000001
vertex 22.499950000000002 -2.500025 -11.961675000000001
endloop
endfacet
facet normal 0 -1 0
outer loop
vertex -11.734525000000001 -2.500025 -11.847825
vertex 22.499950000000002 -2.500025 -11.961675000000001
vertex 22.499950000000002 -2.500025 -11.847825
endloop
endfacet
facet normal 0 -1 0
outer loop
vertex -22.499950000000002 -2.500025 -11.847825
vertex -22.499950000000002 -2.500025 -11.961675000000001
vertex -12.890075000000001 -2.500025 -11.961675000000001
endloop
endfacet
facet normal 0 -1 0
outer loop
vertex -22.499950000000002 -2.500025 -11.847825
vertex -12.890075000000001 -2.500025 -11.961675000000001
vertex -13.265450000000001 -2.500025 -11.847825
endloop
endfacet
facet normal 0 -1 0
outer loop
vertex -12.109900000000001 -2.500025 -11.961675000000001
vertex -12.500125 -2.500025 -11.9999
vertex 22.499950000000002 -2.500025 -11.9999
endloop
endfacet
facet normal 0 -1 0
outer loop
vertex -12.109900000000001 -2.500025 -11.961675000000001
vertex 22.499950000000002 -2.500025 -11.9999
vertex 22.499950000000002 -2.500025 -11.961675000000001
endloop
endfacet
facet normal 0 -1 0
outer loop
vertex -22.499950000000002 -2.500025 -11.961675000000001
vertex -22.499950000000002 -2.500025 -11.9999
vertex -12.500125 -2.500025 -11.9999
endloop
endfacet
facet normal 0 -1 0
outer loop
vertex -22.499950000000002 -2.500025 -11.961675000000001
vertex -12.500125 -2.500025 -11.9999
vertex -12.890075000000001 -2.500025 -11.961675000000001
endloop
endfacet
facet normal 0 -1 0
outer loop
vertex -1.7858500000000002 -2.500025 -13.000075
vertex -12.500125 -2.500025 -11.9999
vertex -22.499950000000002 -2.500025 -11.9999
endloop
endfacet
facet normal 0 -1 0
outer loop
vertex -1.7858500000000002 -2.500025 -13.000075
vertex -22.499950000000002 -2.500025 -11.9999
vertex -22.499950000000002 -2.500025 -13.75
endloop
endfacet
facet normal 0 -1 0
outer loop
vertex -1.7858500000000002 -2.500025 -13.000075
vertex -22.499950000000002 -2.500025 -13.75
vertex -8.999925000000001 -2.500025 -13.75
endloop
endfacet
facet normal 0 -1 0
outer loop
vertex -1.7858500000000002 -2.500025 -13.000075
vertex -8.999925000000001 -2.500025 -13.75
vertex 8.999925000000001 -2.500025 -13.75
endloop
endfacet
facet normal 0 -1 0
outer loop
vertex -1.7858500000000002 -2.500025 -13.000075
vertex 8.999925000000001 -2.500025 -13.75
vertex 22.499950000000002 -2.500025 -13.75
endloop
endfacet
facet normal 0 -1 0
outer loop
vertex -1.7858500000000002 -2.500025 -13.000075
vertex 22.499950000000002 -2.500025 -13.75
vertex 22.499950000000002 -2.500025 -11.9999
endloop
endfacet
facet normal 0 -1 0
outer loop
vertex -1.7858500000000002 -2.500025 -13.000075
vertex 22.499950000000002 -2.500025 -11.9999
vertex -12.500125 -2.500025 -11.9999
endloop
endfacet
facet normal 0 -1 0
outer loop
vertex 8.999925000000001 -2.500025 -13.75
vertex 8.999925000000001 -2.500025 -15.250125
vertex 22.499950000000002 -2.500025 -15.250125
endloop
endfacet
facet normal 0 -1 0
outer loop
vertex 8.999925000000001 -2.500025 -13.75
vertex 22.499950000000002 -2.500025 -15.250125
vertex 22.499950000000002 -2.500025 -13.75
endloop
endfacet
facet normal 0 -1 0
outer loop
vertex -22.499950000000002 -2.500025 -13.75
vertex -22.499950000000002 -2.500025 -15.250125
vertex -8.999925000000001 -2.500025 -15.250125
endloop
endfacet
facet normal 0 -1 0
outer loop
vertex -22.499950000000002 -2.500025 -13.75
vertex -8.999925000000001 -2.500025 -15.250125
vertex -8.999925000000001 -2.500025 -13.75
endloop
endfacet
facet normal 0 -1 0
outer loop
vertex 0 -2.500025 -15.833400000000001
vertex 8.999925000000001 -2.500025 -15.250125
vertex -8.999925000000001 -2.500025 -15.250125
endloop
endfacet
facet normal 0 -1 0
outer loop
vertex 0 -2.500025 -15.833400000000001
vertex -8.999925000000001 -2.500025 -15.250125
vertex -22.499950000000002 -2.500025 -15.250125
endloop
endfacet
facet normal 0 -1 0
outer loop
vertex 0 -2.500025 -15.833400000000001
vertex -22.499950000000002 -2.500025 -15.250125
vertex -22.499950000000002 -2.500025 -16.999950000000002
endloop
endfacet
facet normal 0 -0.9999999999999999 0
outer loop
vertex 0 -2.500025 -15.833400000000001
vertex -22.499950000000002 -2.500025 -16.999950000000002
vertex 22.499950000000002 -2.500025 -16.999950000000002
endloop
endfacet
facet normal 0 -1 0
outer loop
vertex 0 -2.500025 -15.833400000000001
vertex 22.499950000000002 -2.500025 -16.999950000000002
vertex 22.499950000000002 -2.500025 -15.250125
endloop
endfacet
facet normal 0 -1 0
outer loop
vertex 0 -2.500025 -15.833400000000001
vertex 22.499950000000002 -2.500025 -15.250125
vertex 8.999925000000001 -2.500025 -15.250125
endloop
endfacet
facet normal 0 1 0
outer loop
vertex 18.500075000000002 2.500025 11.9999
vertex 18.500075000000002 2.500025 -10.0001
vertex -22.499950000000002 2.500025 -10.0001
endloop
endfacet
facet normal 0 1 0
outer loop
vertex 18.500075000000002 2.500025 11.9999
vertex -22.499950000000002 2.500025 -10.0001
vertex -22.499950000000002 2.500025 11.9999
endloop
endfacet
facet normal 0 1 0
outer loop
vertex 22.499950000000002 2.500025 11.9999
vertex 22.499950000000002 2.500025 -10.0001
vertex 20.499875000000003 2.500025 -10.0001
endloop
endfacet
facet normal 0 1 0
outer loop
vertex 22.499950000000002 2.500025 11.9999
vertex 20.499875000000003 2.500025 -10.0001
vertex 20.499875000000003 2.500025 11.9999
endloop
endfacet
facet normal 0 1 0
outer loop
vertex 4.874925 2.500025 -11.87505
vertex 18.500075000000002 2.500025 -10.0001
vertex 20.499875000000003 2.500025 -10.0001
endloop
endfacet
facet normal 0 1 0
outer loop
vertex 4.874925 2.500025 -11.87505
vertex 20.499875000000003 2.500025 -10.0001
vertex 22.499950000000002 2.500025 -10.0001
endloop
endfacet
facet normal 0 1 0
outer loop
vertex 4.874925 2.500025 -11.87505
vertex 22.499950000000002 2.500025 -10.0001
vertex 22.499950000000002 2.500025 -13.75
endloop
endfacet
facet normal 0 1 0
outer loop
vertex 4.874925 2.500025 -11.87505
vertex 22.499950000000002 2.500025 -13.75
vertex 8.999925000000001 2.500025 -13.75
endloop
endfacet
facet normal 0 1 0
outer loop
vertex 4.874925 2.500025 -11.87505
vertex 8.999925000000001 2.500025 -13.75
vertex -8.999925000000001 2.500025 -13.75
endloop
endfacet
facet normal 0 1 0
outer loop
vertex 4.874925 2.500025 -11.87505
vertex -8.999925000000001 2.500025 -13.75
vertex -22.499950000000002 2.500025 -13.75
endloop
endfacet
facet normal 0 1 0
outer loop
vertex 4.874925 2.500025 -11.87505
vertex -22.499950000000002 2.500025 -13.75
vertex -22.499950000000002 2.500025 -10.0001
endloop
endfacet
facet normal 0 1 0
outer loop
vertex 4.874925 2.500025 -11.87505
vertex -22.499950000000002 2.500025 -10.0001
vertex 18.500075000000002 2.500025 -10.0001
endloop
endfacet
facet normal 0 1 0
outer loop
vertex -8.999925000000001 2.500025 -13.75
vertex -8.999925000000001 2.500025 -15.250125
vertex -22.499950000000002 2.500025 -15.250125
endloop
endfacet
facet normal 0 1 0
outer loop
vertex -8.999925000000001 2.500025 -13.75
vertex -22.499950000000002 2.500025 -15.250125
vertex -22.499950000000002 2.500025 -13.75
endloop
endfacet
facet normal 0 1 0
outer loop
vertex 22.499950000000002 2.500025 -13.75
vertex 22.499950000000002 2.500025 -15.250125
vertex 8.999925000000001 2.500025 -15.250125
endloop
endfacet
facet normal 0 1 0
outer loop
vertex 22.499950000000002 2.500025 -13.75
vertex 8.999925000000001 2.500025 -15.250125
vertex 8.999925000000001 2.500025 -13.75
endloop
endfacet
facet normal 0 1 0
outer loop
vertex 0 2.500025 -15.833400000000001
vertex -8.999925000000001 2.500025 -15.250125
vertex 8.999925000000001 2.500025 -15.250125
endloop
endfacet
facet normal 0 1 0
outer loop
vertex 0 2.500025 -15.833400000000001
vertex 8.999925000000001 2.500025 -15.250125
vertex 22.499950000000002 2.500025 -15.250125
endloop
endfacet
facet normal 0 1 0
outer loop
vertex 0 2.500025 -15.833400000000001
vertex 22.499950000000002 2.500025 -15.250125
vertex 22.499950000000002 2.500025 -16.999950000000002
endloop
endfacet
facet normal 0 0.9999999999999999 0
outer loop
vertex 0 2.500025 -15.833400000000001
vertex 22.499950000000002 2.500025 -16.999950000000002
vertex -22.499950000000002 2.500025 -16.999950000000002
endloop
endfacet
facet normal 0 1 0
outer loop
vertex 0 2.500025 -15.833400000000001
vertex -22.499950000000002 2.500025 -16.999950000000002
vertex -22.499950000000002 2.500025 -15.250125
endloop
endfacet
facet normal 0 1 0
outer loop
vertex 0 2.500025 -15.833400000000001
vertex -22.499950000000002 2.500025 -15.250125
vertex -8.999925000000001 2.500025 -15.250125
endloop
endfacet
facet normal 1 0 0
outer loop
vertex -8.999925000000001 2.500025 -15.250125
vertex -8.999925000000001 2.500025 -13.75
vertex -8.999925000000001 -2.500025 -13.75
endloop
endfacet
facet normal 1 0 0
outer loop
vertex -8.999925000000001 2.500025 -15.250125
vertex -8.999925000000001 -2.500025 -13.75
vertex -8.999925000000001 -2.500025 -15.250125
endloop
endfacet
facet normal -1 0 0
outer loop
vertex 8.999925000000001 -2.500025 -13.75
vertex 8.999925000000001 2.500025 -13.75
vertex 8.999925000000001 2.500025 -15.250125
endloop
endfacet
facet normal -1 0 0
outer loop
vertex 8.999925000000001 -2.500025 -13.75
vertex 8.999925000000001 2.500025 -15.250125
vertex 8.999925000000001 -2.500025 -15.250125
endloop
endfacet
facet normal 0 0 1
outer loop
vertex 8.999925000000001 -2.500025 -15.250125
vertex 8.999925000000001 2.500025 -15.250125
vertex -8.999925000000001 2.500025 -15.250125
endloop
endfacet
facet normal 0 0 1
outer loop
vertex 8.999925000000001 -2.500025 -15.250125
vertex -8.999925000000001 2.500025 -15.250125
vertex -8.999925000000001 -2.500025 -15.250125
endloop
endfacet
facet normal 0 0 -1
outer loop
vertex -8.999925000000001 2.500025 -13.75
vertex 8.999925000000001 2.500025 -13.75
vertex 8.999925000000001 -2.500025 -13.75
endloop
endfacet
facet normal 0 0 -1
outer loop
vertex -8.999925000000001 2.500025 -13.75
vertex 8.999925000000001 -2.500025 -13.75
vertex -8.999925000000001 -2.500025 -13.75
endloop
endfacet
facet normal 0.9951682464259624 0 0.09818432311461464
outer loop
vertex -10.53855 -2.500025 -9.609875
vertex -10.53855 -5.99995 -9.609875
vertex -10.50005 -5.99995 -10.0001
endloop
endfacet
facet normal 0.9951682464259624 0 0.09818432311461464
outer loop
vertex -10.53855 -2.500025 -9.609875
vertex -10.50005 -5.99995 -10.0001
vertex -10.50005 -2.500025 -10.0001
endloop
endfacet
facet normal 0.9571481637311333 0 0.2895986751801868
outer loop
vertex -10.652125 -2.500025 -9.2345
vertex -10.652125 -5.99995 -9.2345
vertex -10.53855 -5.99995 -9.609875
endloop
endfacet
facet normal 0.9571481637311333 0 0.2895986751801868
outer loop
vertex -10.652125 -2.500025 -9.2345
vertex -10.53855 -5.99995 -9.609875
vertex -10.53855 -2.500025 -9.609875
endloop
endfacet
facet normal 0.881886406597025 0 0.4714619452929228
outer loop
vertex -10.836925 -2.500025 -8.888825
vertex -10.836925 -5.99995 -8.888825
vertex -10.652125 -5.99995 -9.2345
endloop
endfacet
facet normal 0.881886406597025 0 0.4714619452929228
outer loop
vertex -10.836925 -2.500025 -8.888825
vertex -10.652125 -5.99995 -9.2345
vertex -10.652125 -2.500025 -9.2345
endloop
endfacet
facet normal 0.7727999548083573 0 0.6346496906547745
outer loop
vertex -11.0858 -2.500025 -8.585775
vertex -11.0858 -5.99995 -8.585775
vertex -10.836925 -5.99995 -8.888825
endloop
endfacet
facet normal 0.7727999548083573 0 0.6346496906547745
outer loop
vertex -11.0858 -2.500025 -8.585775
vertex -10.836925 -5.99995 -8.888825
vertex -10.836925 -2.500025 -8.888825
endloop
endfacet
facet normal 0.6342305984216504 0 0.7731439374564837
outer loop
vertex -11.388850000000001 -2.500025 -8.337175
vertex -11.388850000000001 -5.99995 -8.337175
vertex -11.0858 -5.99995 -8.585775
endloop
endfacet
facet normal 0.6342305984216504 0 0.7731439374564837
outer loop
vertex -11.388850000000001 -2.500025 -8.337175
vertex -11.0858 -5.99995 -8.585775
vertex -11.0858 -2.500025 -8.585775
endloop
endfacet
facet normal 0.4714619452929192 0 0.8818864065970267
outer loop
vertex -11.734525000000001 -2.500025 -8.152375000000001
vertex -11.734525000000001 -5.99995 -8.152375000000001
vertex -11.388850000000001 -5.99995 -8.337175
endloop
endfacet
facet normal 0.4714619452929192 0 0.8818864065970267
outer loop
vertex -11.734525000000001 -2.500025 -8.152375000000001
vertex -11.388850000000001 -5.99995 -8.337175
vertex -11.388850000000001 -2.500025 -8.337175
endloop
endfacet
facet normal 0.2902408784175877 0 0.9569536208695734
outer loop
vertex -12.109900000000001 -2.500025 -8.038525
vertex -12.109900000000001 -5.99995 -8.038525
vertex -11.734525000000001 -5.99995 -8.152375000000001
endloop
endfacet
facet normal 0.2902408784175877 0 0.9569536208695734
outer loop
vertex -12.109900000000001 -2.500025 -8.038525
vertex -11.734525000000001 -5.99995 -8.152375000000001
vertex -11.734525000000001 -2.500025 -8.152375000000001
endloop
endfacet
facet normal 0.09818432311461016 0 0.9951682464259628
outer loop
vertex -12.500125 -2.500025 -8.000025
vertex -12.500125 -5.99995 -8.000025
vertex -12.109900000000001 -5.99995 -8.038525
endloop
endfacet
facet normal 0.09818432311461016 0 0.9951682464259628
outer loop
vertex -12.500125 -2.500025 -8.000025
vertex -12.109900000000001 -5.99995 -8.038525
vertex -12.109900000000001 -2.500025 -8.038525
endloop
endfacet
facet normal -0.09825289632940869 0 0.9951614785364646
outer loop
vertex -12.890075000000001 -2.500025 -8.038525
vertex -12.890075000000001 -5.99995 -8.038525
vertex -12.500125 -5.99995 -8.000025
endloop
endfacet
facet normal -0.09825289632940869 0 0.9951614785364646
outer loop
vertex -12.890075000000001 -2.500025 -8.038525
vertex -12.500125 -5.99995 -8.000025
vertex -12.500125 -2.500025 -8.000025
endloop
endfacet
facet normal -0.2902408784175877 0 0.9569536208695734
outer loop
vertex -13.265450000000001 -2.500025 -8.152375000000001
vertex -13.265450000000001 -5.99995 -8.152375000000001
vertex -12.890075000000001 -5.99995 -8.038525
endloop
endfacet
facet normal -0.2902408784175877 0 0.9569536208695734
outer loop
vertex -13.265450000000001 -2.500025 -8.152375000000001
vertex -12.890075000000001 -5.99995 -8.038525
vertex -12.890075000000001 -2.500025 -8.038525
endloop
endfacet
facet normal -0.4714619452929192 0 0.8818864065970267
outer loop
vertex -13.611125000000001 -2.500025 -8.337175
vertex -13.611125000000001 -5.99995 -8.337175
vertex -13.265450000000001 -5.99995 -8.152375000000001
endloop
endfacet
facet normal -0.4714619452929192 0 0.8818864065970267
outer loop
vertex -13.611125000000001 -2.500025 -8.337175
vertex -13.265450000000001 -5.99995 -8.152375000000001
vertex -13.265450000000001 -2.500025 -8.152375000000001
endloop
endfacet
facet normal -0.6342305984216526 0 0.7731439374564819
outer loop
vertex -13.914175 -2.500025 -8.585775
vertex -13.914175 -5.99995 -8.585775
vertex -13.611125000000001 -5.99995 -8.337175
endloop
endfacet
facet normal -0.6342305984216526 0 0.7731439374564819
outer loop
vertex -13.914175 -2.500025 -8.585775
vertex -13.611125000000001 -5.99995 -8.337175
vertex -13.611125000000001 -2.500025 -8.337175
endloop
endfacet
facet normal -0.7727999548083573 0 0.6346496906547745
outer loop
vertex -14.16305 -2.500025 -8.888825
vertex -14.16305 -5.99995 -8.888825
vertex -13.914175 -5.99995 -8.585775
endloop
endfacet
facet normal -0.7727999548083573 0 0.6346496906547745
outer loop
vertex -14.16305 -2.500025 -8.888825
vertex -13.914175 -5.99995 -8.585775
vertex -13.914175 -2.500025 -8.585775
endloop
endfacet
facet normal -0.881886406597025 0 0.4714619452929228
outer loop
vertex -14.347850000000001 -2.500025 -9.2345
vertex -14.347850000000001 -5.99995 -9.2345
vertex -14.16305 -5.99995 -8.888825
endloop
endfacet
facet normal -0.881886406597025 0 0.4714619452929228
outer loop
vertex -14.347850000000001 -2.500025 -9.2345
vertex -14.16305 -5.99995 -8.888825
vertex -14.16305 -2.500025 -8.888825
endloop
endfacet
facet normal -0.9569536208695745 0 0.29024087841758356
outer loop
vertex -14.4617 -2.500025 -9.609875
vertex -14.4617 -5.99995 -9.609875
vertex -14.347850000000001 -5.99995 -9.2345
endloop
endfacet
facet normal -0.9569536208695745 0 0.29024087841758356
outer loop
vertex -14.4617 -2.500025 -9.609875
vertex -14.347850000000001 -5.99995 -9.2345
vertex -14.347850000000001 -2.500025 -9.2345
endloop
endfacet
facet normal -0.9952365343086137 0 0.09748969574975323
outer loop
vertex -14.499925000000001 -2.500025 -10.0001
vertex -14.499925000000001 -5.99995 -10.0001
vertex -14.4617 -5.99995 -9.609875
endloop
endfacet
facet normal -0.9952365343086137 0 0.09748969574975323
outer loop
vertex -14.499925000000001 -2.500025 -10.0001
vertex -14.4617 -5.99995 -9.609875
vertex -14.4617 -2.500025 -9.609875
endloop
endfacet
facet normal -0.9952298613835027 0 -0.09755779318216422
outer loop
vertex -14.4617 -2.500025 -10.39005
vertex -14.4617 -5.99995 -10.39005
vertex -14.499925000000001 -5.99995 -10.0001
endloop
endfacet
facet normal -0.9952298613835027 0 -0.09755779318216422
outer loop
vertex -14.4617 -2.500025 -10.39005
vertex -14.499925000000001 -5.99995 -10.0001
vertex -14.499925000000001 -2.500025 -10.0001
endloop
endfacet
facet normal -0.9569536208695745 0 -0.29024087841758356
outer loop
vertex -14.347850000000001 -2.500025 -10.765425
vertex -14.347850000000001 -5.99995 -10.765425
vertex -14.4617 -5.99995 -10.39005
endloop
endfacet
facet normal -0.9569536208695745 0 -0.29024087841758356
outer loop
vertex -14.347850000000001 -2.500025 -10.765425
vertex -14.4617 -5.99995 -10.39005
vertex -14.4617 -2.500025 -10.39005
endloop
endfacet
facet normal -0.881886406597025 0 -0.4714619452929228
outer loop
vertex -14.16305 -2.500025 -11.1111
vertex -14.16305 -5.99995 -11.1111
vertex -14.347850000000001 -5.99995 -10.765425
endloop
endfacet
facet normal -0.881886406597025 0 -0.4714619452929228
outer loop
vertex -14.16305 -2.500025 -11.1111
vertex -14.347850000000001 -5.99995 -10.765425
vertex -14.347850000000001 -2.500025 -10.765425
endloop
endfacet
facet normal -0.7727999548083573 0 -0.6346496906547745
outer loop
vertex -13.914175 -2.500025 -11.414150000000001
vertex -13.914175 -5.99995 -11.414150000000001
vertex -14.16305 -5.99995 -11.1111
endloop
endfacet
facet normal -0.7727999548083573 0 -0.6346496906547745
outer loop
vertex -13.914175 -2.500025 -11.414150000000001
vertex -14.16305 -5.99995 -11.1111
vertex -14.16305 -2.500025 -11.1111
endloop
endfacet
facet normal -0.6346496906547767 0 -0.7727999548083555
outer loop
vertex -13.611125000000001 -2.500025 -11.663025000000001
vertex -13.611125000000001 -5.99995 -11.663025000000001
vertex -13.914175 -5.99995 -11.414150000000001
endloop
endfacet
facet normal -0.6346496906547767 0 -0.7727999548083555
outer loop
vertex -13.611125000000001 -2.500025 -11.663025000000001
vertex -13.914175 -5.99995 -11.414150000000001
vertex -13.914175 -2.500025 -11.414150000000001
endloop
endfacet
facet normal -0.4714619452929192 0 -0.8818864065970267
outer loop
vertex -13.265450000000001 -2.500025 -11.847825
vertex -13.265450000000001 -5.99995 -11.847825
vertex -13.611125000000001 -5.99995 -11.663025000000001
endloop
endfacet
facet normal -0.4714619452929192 0 -0.8818864065970267
outer loop
vertex -13.265450000000001 -2.500025 -11.847825
vertex -13.611125000000001 -5.99995 -11.663025000000001
vertex -13.611125000000001 -2.500025 -11.663025000000001
endloop
endfacet
facet normal -0.2902408784175877 0 -0.9569536208695734
outer loop
vertex -12.890075000000001 -2.500025 -11.961675000000001
vertex -12.890075000000001 -5.99995 -11.961675000000001
vertex -13.265450000000001 -5.99995 -11.847825
endloop
endfacet
facet normal -0.2902408784175877 0 -0.9569536208695734
outer loop
vertex -12.890075000000001 -2.500025 -11.961675000000001
vertex -13.265450000000001 -5.99995 -11.847825
vertex -13.265450000000001 -2.500025 -11.847825
endloop
endfacet
facet normal -0.09755779318215976 0 -0.9952298613835032
outer loop
vertex -12.500125 -2.500025 -11.9999
vertex -12.500125 -5.99995 -11.9999
vertex -12.890075000000001 -5.99995 -11.961675000000001
endloop
endfacet
facet normal -0.09755779318215976 0 -0.9952298613835032
outer loop
vertex -12.500125 -2.500025 -11.9999
vertex -12.890075000000001 -5.99995 -11.961675000000001
vertex -12.890075000000001 -2.500025 -11.961675000000001
endloop
endfacet
facet normal 0.09748969574974878 0 -0.9952365343086144
outer loop
vertex -12.109900000000001 -2.500025 -11.961675000000001
vertex -12.109900000000001 -5.99995 -11.961675000000001
vertex -12.500125 -5.99995 -11.9999
endloop
endfacet
facet normal 0.09748969574974878 0 -0.9952365343086144
outer loop
vertex -12.109900000000001 -2.500025 -11.961675000000001
vertex -12.500125 -5.99995 -11.9999
vertex -12.500125 -2.500025 -11.9999
endloop
endfacet
facet normal 0.2902408784175877 0 -0.9569536208695734
outer loop
vertex -11.734525000000001 -2.500025 -11.847825
vertex -11.734525000000001 -5.99995 -11.847825
vertex -12.109900000000001 -5.99995 -11.961675000000001
endloop
endfacet
facet normal 0.2902408784175877 0 -0.9569536208695734
outer loop
vertex -11.734525000000001 -2.500025 -11.847825
vertex -12.109900000000001 -5.99995 -11.961675000000001
vertex -12.109900000000001 -2.500025 -11.961675000000001
endloop
endfacet
facet normal 0.4714619452929192 0 -0.8818864065970267
outer loop
vertex -11.388850000000001 -2.500025 -11.663025000000001
vertex -11.388850000000001 -5.99995 -11.663025000000001
vertex -11.734525000000001 -5.99995 -11.847825
endloop
endfacet
facet normal 0.4714619452929192 0 -0.8818864065970267
outer loop
vertex -11.388850000000001 -2.500025 -11.663025000000001
vertex -11.734525000000001 -5.99995 -11.847825
vertex -11.734525000000001 -2.500025 -11.847825
endloop
endfacet
facet normal 0.6346496906547745 0 -0.7727999548083573
outer loop
vertex -11.0858 -2.500025 -11.414150000000001
vertex -11.0858 -5.99995 -11.414150000000001
vertex -11.388850000000001 -5.99995 -11.663025000000001
endloop
endfacet
facet normal 0.6346496906547745 0 -0.7727999548083573
outer loop
vertex -11.0858 -2.500025 -11.414150000000001
vertex -11.388850000000001 -5.99995 -11.663025000000001
vertex -11.388850000000001 -2.500025 -11.663025000000001
endloop
endfacet
facet normal 0.7727999548083573 0 -0.6346496906547745
outer loop
vertex -10.836925 -2.500025 -11.1111
vertex -10.836925 -5.99995 -11.1111
vertex -11.0858 -5.99995 -11.414150000000001
endloop
endfacet
facet normal 0.7727999548083573 0 -0.6346496906547745
outer loop
vertex -10.836925 -2.500025 -11.1111
vertex -11.0858 -5.99995 -11.414150000000001
vertex -11.0858 -2.500025 -11.414150000000001
endloop
endfacet
facet normal 0.881886406597025 0 -0.4714619452929228
outer loop
vertex -10.652125 -2.500025 -10.765425
vertex -10.652125 -5.99995 -10.765425
vertex -10.836925 -5.99995 -11.1111
endloop
endfacet
facet normal 0.881886406597025 0 -0.4714619452929228
outer loop
vertex -10.652125 -2.500025 -10.765425
vertex -10.836925 -5.99995 -11.1111
vertex -10.836925 -2.500025 -11.1111
endloop
endfacet
facet normal 0.9571481637311333 0 -0.2895986751801868
outer loop
vertex -10.53855 -2.500025 -10.39005
vertex -10.53855 -5.99995 -10.39005
vertex -10.652125 -5.99995 -10.765425
endloop
endfacet
facet normal 0.9571481637311333 0 -0.2895986751801868
outer loop
vertex -10.53855 -2.500025 -10.39005
vertex -10.652125 -5.99995 -10.765425
vertex -10.652125 -2.500025 -10.765425
endloop
endfacet
facet normal 0.9951614785364642 0 -0.09825289632941317
outer loop
vertex -10.50005 -2.500025 -10.0001
vertex -10.50005 -5.99995 -10.0001
vertex -10.53855 -5.99995 -10.39005
endloop
endfacet
facet normal 0.9951614785364642 0 -0.09825289632941317
outer loop
vertex -10.50005 -2.500025 -10.0001
vertex -10.53855 -5.99995 -10.39005
vertex -10.53855 -2.500025 -10.39005
endloop
endfacet
endsolid JSCAD
