solid csg.js
facet normal 1 0 0
outer loop
vertex 28 18 0
vertex 28 18.086466238185466 0
vertex 28 18.342542103699206 0
endloop
endfacet
facet normal 1 0 0
outer loop
vertex 28 18 0
vertex 28 18.342542103699206 0
vertex 28 18.758386744638557 0
endloop
endfacet
facet normal 1 0 0
outer loop
vertex 28 18 0
vertex 28 18.758386744638557 0
vertex 28 19.31801948466054 0
endloop
endfacet
facet normal 1 0 0
outer loop
vertex 28 18 0
vertex 28 19.31801948466054 0
vertex 28 19.999933951411776 0
endloop
endfacet
facet normal 1 0 0
outer loop
vertex 28 18 0
vertex 28 19.999933951411776 0
vertex 28 20.77792455435712 0
endloop
endfacet
facet normal 1 0 0
outer loop
vertex 28 18 0
vertex 28 20.77792455435712 0
vertex 28 21.62209355092741 0
endloop
endfacet
facet normal 1 0 0
outer loop
vertex 28 18 0
vertex 28 21.62209355092741 0
vertex 28 22.5 0
endloop
endfacet
facet normal 1 0 0
outer loop
vertex 28 18 0
vertex 28 22.5 0
vertex 28 23.377906449072558 0
endloop
endfacet
facet normal 1 0 0
outer loop
vertex 28 18 0
vertex 28 23.377906449072558 0
vertex 28 24.222075445642925 0
endloop
endfacet
facet normal 1 0 0
outer loop
vertex 28 18 0
vertex 28 24.222075445642925 0
vertex 28 25.00006604858821 0
endloop
endfacet
facet normal 1 0 0
outer loop
vertex 28 18 0
vertex 28 25.00006604858821 0
vertex 28 25.681980515339475 0
endloop
endfacet
facet normal 1 0 0
outer loop
vertex 28 18 0
vertex 28 25.681980515339475 0
vertex 28 26.24161325536144 0
endloop
endfacet
facet normal 1 0 0
outer loop
vertex 28 18 0
vertex 28 26.24161325536144 0
vertex 28 26.657457896300794 0
endloop
endfacet
facet normal 1 0 0
outer loop
vertex 28 18 0
vertex 28 26.657457896300794 0
vertex 28 26.913533761814534 0
endloop
endfacet
facet normal 1 0 0
outer loop
vertex 28 18 0
vertex 28 26.913533761814534 0
vertex 28 27 0
endloop
endfacet
facet normal 1 0 0
outer loop
vertex 28 18 0
vertex 28 27 0
vertex 28 45 0
endloop
endfacet
facet normal 1 0 0
outer loop
vertex 28 18 0
vertex 28 45 0
vertex 28 45 3
endloop
endfacet
facet normal 1 0 0
outer loop
vertex 28 18 0
vertex 28 45 3
vertex 28 45 22
endloop
endfacet
facet normal 1 0 0
outer loop
vertex 28 18 0
vertex 28 45 22
vertex 28 0 22
endloop
endfacet
facet normal 1 0 0
outer loop
vertex 28 18 0
vertex 28 0 22
vertex 28 0 3
endloop
endfacet
facet normal 1 0 0
outer loop
vertex 28 18 0
vertex 28 0 3
vertex 28 0 0
endloop
endfacet
facet normal -1 0 0
outer loop
vertex 34 0 22
vertex 34 45 22
vertex 34 45 0
endloop
endfacet
facet normal -1 0 0
outer loop
vertex 34 0 22
vertex 34 45 0
vertex 34 0 0
endloop
endfacet
facet normal 0 0 -1
outer loop
vertex 28 45 22
vertex 34 45 22
vertex 34 0 22
endloop
endfacet
facet normal 0 0 -1
outer loop
vertex 28 45 22
vertex 34 0 22
vertex 28 0 22
endloop
endfacet
facet normal 0 1 0
outer loop
vertex 0.09289321881344992 18 3.2928932188134543
vertex 0 18 3.2928932188134543
vertex 0 18 3.4060839334408586
endloop
endfacet
facet normal 0 1 0
outer loop
vertex 0.09289321881344992 18 3.2928932188134543
vertex 0.2444297669803961 18 3.168530387697456
vertex 0 18 3.168530387697456
endloop
endfacet
facet normal 0 1 0
outer loop
vertex 0.09289321881344992 18 3.2928932188134543
vertex 0 18 3.168530387697456
vertex 0 18 3.2928932188134543
endloop
endfacet
facet normal 0 1 0
outer loop
vertex 0.2444297669803961 18 3.168530387697456
vertex 0.41731656763491065 18 3.0761204674887135
vertex 0 18 3.0761204674887135
endloop
endfacet
facet normal 0 1 0
outer loop
vertex 0.2444297669803961 18 3.168530387697456
vertex 0 18 3.0761204674887135
vertex 0 18 3.168530387697456
endloop
endfacet
facet normal 0 1 0
outer loop
vertex 0.41731656763491065 18 3.0761204674887135
vertex 0.6049096779838317 18 3.019214719596782
vertex 0 18 3.019214719596782
endloop
endfacet
facet normal 0 1 0
outer loop
vertex 0.41731656763491065 18 3.0761204674887135
vertex 0 18 3.019214719596782
vertex 0 18 3.0761204674887135
endloop
endfacet
facet normal 0 1 0
outer loop
vertex 0.6049096779838317 18 3.019214719596782
vertex 0.800000000000044 18 3.000000000000004
vertex 0 18 3.000000000000004
endloop
endfacet
facet normal 0 1 0
outer loop
vertex 0.6049096779838317 18 3.019214719596782
vertex 0 18 3.000000000000004
vertex 0 18 3.019214719596782
endloop
endfacet
facet normal 0 1 0
outer loop
vertex 0.800000000000044 18 3.000000000000004
vertex 12.500000000000009 18 3.000000000000004
vertex 12.5 18 0
endloop
endfacet
facet normal 0 1 0
outer loop
vertex 0.800000000000044 18 3.000000000000004
vertex 12.5 18 0
vertex 0 18 0
endloop
endfacet
facet normal 0 1 0
outer loop
vertex 0.800000000000044 18 3.000000000000004
vertex 0 18 0
vertex 0 18 3.000000000000004
endloop
endfacet
facet normal 0 -1 0
outer loop
vertex 12.5 27 0
vertex 12.50000000000002 27 3.0000000000000058
vertex 0.8000000000000674 27 3.0000000000000058
endloop
endfacet
facet normal 0 -1 0
outer loop
vertex 12.5 27 0
vertex 0.8000000000000674 27 3.0000000000000058
vertex 0 27 3.0000000000000058
endloop
endfacet
facet normal 0 -1 0
outer loop
vertex 12.5 27 0
vertex 0 27 3.0000000000000058
vertex 0 27 0
endloop
endfacet
facet normal 0 -1 0
outer loop
vertex 0.8000000000000674 27 3.0000000000000058
vertex 0.6049096779838131 27 3.0192147195967878
vertex 0 27 3.0192147195967878
endloop
endfacet
facet normal 0 -1 0
outer loop
vertex 0.8000000000000674 27 3.0000000000000058
vertex 0 27 3.0192147195967878
vertex 0 27 3.0000000000000058
endloop
endfacet
facet normal 0 -1 0
outer loop
vertex 0.6049096779838131 27 3.0192147195967878
vertex 0.4173165676349098 27 3.076120467488714
vertex 0 27 3.076120467488714
endloop
endfacet
facet normal 0 -1 0
outer loop
vertex 0.6049096779838131 27 3.0192147195967878
vertex 0 27 3.076120467488714
vertex 0 27 3.0192147195967878
endloop
endfacet
facet normal 0 -1 0
outer loop
vertex 0.4173165676349098 27 3.076120467488714
vertex 0.2444297669803962 27 3.168530387697456
vertex 0 27 3.168530387697456
endloop
endfacet
facet normal 0 -1 0
outer loop
vertex 0.4173165676349098 27 3.076120467488714
vertex 0 27 3.168530387697456
vertex 0 27 3.076120467488714
endloop
endfacet
facet normal 0 -1 0
outer loop
vertex 0.2444297669803962 27 3.168530387697456
vertex 0.09289321881344847 27 3.2928932188134556
vertex 0 27 3.2928932188134556
endloop
endfacet
facet normal 0 -1 0
outer loop
vertex 0.2444297669803962 27 3.168530387697456
vertex 0 27 3.2928932188134556
vertex 0 27 3.168530387697456
endloop
endfacet
facet normal 0 -1 0
outer loop
vertex 0.09289321881344847 27 3.2928932188134556
vertex 0 27 3.4060839334408586
vertex 0 27 3.2928932188134556
endloop
endfacet
facet normal 0.7730104533627375 0 0.6343932841636449
outer loop
vertex 0.09289321881344992 18 3.2928932188134543
vertex 0 18 3.4060839334408586
vertex -1.5543122344752192e-15 3.636687049369193e-17 3.4060839334408612
endloop
endfacet
facet normal 0.7730104533627375 0 0.6343932841636449
outer loop
vertex 0.09289321881344992 18 3.2928932188134543
vertex -1.5543122344752192e-15 3.636687049369193e-17 3.4060839334408612
vertex 0.0928932188134517 0 3.292893218813453
endloop
endfacet
facet normal 0.7730104533627375 0 0.6343932841636449
outer loop
vertex 0.0928932188134517 45.000000000000014 3.292893218813453
vertex -1.5543122344752192e-15 45.00000000000007 3.4060839334408612
vertex 0 27 3.4060839334408586
endloop
endfacet
facet normal 0.7730104533627375 0 0.6343932841636449
outer loop
vertex 0.0928932188134517 45.000000000000014 3.292893218813453
vertex 0 27 3.4060839334408586
vertex 0.09289321881344847 27 3.2928932188134556
endloop
endfacet
facet normal 0.6343932841636453 0 0.7730104533627373
outer loop
vertex 0.2444297669803961 18 3.168530387697456
vertex 0.09289321881344992 18 3.2928932188134543
vertex 0.0928932188134517 0 3.292893218813453
endloop
endfacet
facet normal 0.6343932841636453 0 0.7730104533627373
outer loop
vertex 0.2444297669803961 18 3.168530387697456
vertex 0.0928932188134517 0 3.292893218813453
vertex 0.24442976698039787 0 3.168530387697455
endloop
endfacet
facet normal 0.6343932841636453 0 0.7730104533627373
outer loop
vertex 0.24442976698039787 45.000000000000014 3.168530387697455
vertex 0.0928932188134517 45.000000000000014 3.292893218813453
vertex 0.09289321881344847 27 3.2928932188134556
endloop
endfacet
facet normal 0.6343932841636453 0 0.7730104533627373
outer loop
vertex 0.24442976698039787 45.000000000000014 3.168530387697455
vertex 0.09289321881344847 27 3.2928932188134556
vertex 0.2444297669803962 27 3.168530387697456
endloop
endfacet
facet normal 0.47139673682599803 -2.6167775547869422e-17 0.8819212643483549
outer loop
vertex 0.41731656763491065 18 3.0761204674887135
vertex 0.2444297669803961 18 3.168530387697456
vertex 0.24442976698039787 0 3.168530387697455
endloop
endfacet
facet normal 0.47139673682599803 -2.6167775547869422e-17 0.8819212643483549
outer loop
vertex 0.41731656763491065 18 3.0761204674887135
vertex 0.24442976698039787 0 3.168530387697455
vertex 0.41731656763490976 1.232595164407831e-32 3.076120467488714
endloop
endfacet
facet normal 0.47139673682599803 -2.6167775547869422e-17 0.8819212643483549
outer loop
vertex 0.4173165676349102 45.000000000000014 3.076120467488715
vertex 0.24442976698039787 45.000000000000014 3.168530387697455
vertex 0.2444297669803962 27 3.168530387697456
endloop
endfacet
facet normal 0.47139673682599803 -2.6167775547869422e-17 0.8819212643483549
outer loop
vertex 0.4173165676349102 45.000000000000014 3.076120467488715
vertex 0.2444297669803962 27 3.168530387697456
vertex 0.4173165676349098 27 3.076120467488714
endloop
endfacet
facet normal 0.2902846772544625 -3.2228073238378674e-17 0.9569403357322088
outer loop
vertex 0.6049096779838317 18 3.019214719596782
vertex 0.41731656763491065 18 3.0761204674887135
vertex 0.41731656763490976 1.232595164407831e-32 3.076120467488714
endloop
endfacet
facet normal 0.2902846772544625 -3.2228073238378674e-17 0.9569403357322088
outer loop
vertex 0.6049096779838317 18 3.019214719596782
vertex 0.41731656763490976 1.232595164407831e-32 3.076120467488714
vertex 0.6049096779838714 0 3.0192147195967696
endloop
endfacet
facet normal 0.2902846772544625 -3.2228073238378674e-17 0.9569403357322088
outer loop
vertex 0.6049096779838719 45 3.019214719596771
vertex 0.4173165676349102 45.000000000000014 3.076120467488715
vertex 0.4173165676349098 27 3.076120467488714
endloop
endfacet
facet normal 0.2902846772544625 -3.2228073238378674e-17 0.9569403357322088
outer loop
vertex 0.6049096779838719 45 3.019214719596771
vertex 0.4173165676349098 27 3.076120467488714
vertex 0.6049096779838131 27 3.0192147195967878
endloop
endfacet
facet normal 0.09801714032956133 -4.419507989227064e-16 0.9951847266721968
outer loop
vertex 0.800000000000044 18 3.000000000000004
vertex 0.6049096779838317 18 3.019214719596782
vertex 0.6049096779838714 0 3.0192147195967696
endloop
endfacet
facet normal 0.09801714032956133 -4.419507989227064e-16 0.9951847266721968
outer loop
vertex 0.800000000000044 18 3.000000000000004
vertex 0.6049096779838714 0 3.0192147195967696
vertex 0.7999999999999998 -1.9721522630525295e-31 3.0000000000000004
endloop
endfacet
facet normal 0.09801714032956133 -4.419507989227064e-16 0.9951847266721968
outer loop
vertex 0.8000000000000018 45 3.0000000000000204
vertex 0.6049096779838719 45 3.019214719596771
vertex 0.6049096779838131 27 3.0192147195967878
endloop
endfacet
facet normal 0.09801714032956133 -4.419507989227064e-16 0.9951847266721968
outer loop
vertex 0.8000000000000018 45 3.0000000000000204
vertex 0.6049096779838131 27 3.0192147195967878
vertex 0.8000000000000674 27 3.0000000000000058
endloop
endfacet
facet normal -0.9951847266721969 0.09801714032956006 0
outer loop
vertex 16.913533761814534 21.622093550927413 3
vertex 17 22.499999999999986 3
vertex 17 22.5 0
endloop
endfacet
facet normal -0.9951847266721969 0.09801714032956006 0
outer loop
vertex 16.913533761814534 21.622093550927413 3
vertex 17 22.5 0
vertex 16.913533761814538 21.622093550927424 0
endloop
endfacet
facet normal -0.9569403357322092 0.29028467725446194 0
outer loop
vertex 16.657457896300798 20.777924554357114 3
vertex 16.913533761814534 21.622093550927413 3
vertex 16.913533761814538 21.622093550927424 0
endloop
endfacet
facet normal -0.9569403357322092 0.29028467725446194 0
outer loop
vertex 16.657457896300798 20.777924554357114 3
vertex 16.913533761814538 21.622093550927424 0
vertex 16.65745789630079 20.777924554357096 0
endloop
endfacet
facet normal -0.8819212643483562 0.4713967368259958 0
outer loop
vertex 16.241613255361443 19.999933951411776 3
vertex 16.657457896300798 20.777924554357114 3
vertex 16.65745789630079 20.777924554357096 0
endloop
endfacet
facet normal -0.8819212643483562 0.4713967368259958 0
outer loop
vertex 16.241613255361443 19.999933951411776 3
vertex 16.65745789630079 20.777924554357096 0
vertex 16.241613255361454 19.99993395141179 0
endloop
endfacet
facet normal -0.7730104533627373 0.6343932841636452 0
outer loop
vertex 15.681980515339465 19.318019484660535 3
vertex 16.241613255361443 19.999933951411776 3
vertex 16.241613255361454 19.99993395141179 0
endloop
endfacet
facet normal -0.7730104533627373 0.6343932841636452 0
outer loop
vertex 15.681980515339465 19.318019484660535 3
vertex 16.241613255361454 19.99993395141179 0
vertex 15.681980515339465 19.318019484660535 0
endloop
endfacet
facet normal -0.634393284163644 0.7730104533627381 0
outer loop
vertex 15.000066048588216 18.75838674463855 3
vertex 15.681980515339465 19.318019484660535 3
vertex 15.681980515339465 19.318019484660535 0
endloop
endfacet
facet normal -0.634393284163644 0.7730104533627381 0
outer loop
vertex 15.000066048588216 18.75838674463855 3
vertex 15.681980515339465 19.318019484660535 0
vertex 15.00006604858821 18.758386744638546 0
endloop
endfacet
facet normal -0.4713967368259979 0.8819212643483549 0
outer loop
vertex 14.2220754456429 18.34254210369921 3
vertex 15.000066048588216 18.75838674463855 3
vertex 15.00006604858821 18.758386744638546 0
endloop
endfacet
facet normal -0.4713967368259979 0.8819212643483549 0
outer loop
vertex 14.2220754456429 18.34254210369921 3
vertex 15.00006604858821 18.758386744638546 0
vertex 14.222075445642904 18.34254210369921 0
endloop
endfacet
facet normal -0.2902846772544624 0.9569403357322089 0
outer loop
vertex 13.377906449072572 18.086466238185462 3
vertex 14.2220754456429 18.34254210369921 3
vertex 14.222075445642904 18.34254210369921 0
endloop
endfacet
facet normal -0.2902846772544624 0.9569403357322089 0
outer loop
vertex 13.377906449072572 18.086466238185462 3
vertex 14.222075445642904 18.34254210369921 0
vertex 13.377906449072578 18.086466238185462 0
endloop
endfacet
facet normal -0.09801714032956342 0.9951847266721967 0
outer loop
vertex 12.500000000000009 18 3.000000000000004
vertex 13.377906449072572 18.086466238185462 3
vertex 13.377906449072578 18.086466238185462 0
endloop
endfacet
facet normal -0.09801714032956342 0.9951847266721967 0
outer loop
vertex 12.500000000000009 18 3.000000000000004
vertex 13.377906449072578 18.086466238185462 0
vertex 12.5 18 0
endloop
endfacet
facet normal -0.09801714032955988 -0.9951847266721969 0
outer loop
vertex 13.377906449072608 26.913533761814534 3
vertex 12.50000000000002 27 3.0000000000000058
vertex 12.5 27 0
endloop
endfacet
facet normal -0.09801714032955988 -0.9951847266721969 0
outer loop
vertex 13.377906449072608 26.913533761814534 3
vertex 12.5 27 0
vertex 13.377906449072578 26.913533761814534 0
endloop
endfacet
facet normal -0.2902846772544624 -0.9569403357322089 0
outer loop
vertex 14.222075445642893 26.657457896300787 3
vertex 13.377906449072608 26.913533761814534 3
vertex 13.377906449072578 26.913533761814534 0
endloop
endfacet
facet normal -0.2902846772544624 -0.9569403357322089 0
outer loop
vertex 14.222075445642893 26.657457896300787 3
vertex 13.377906449072578 26.913533761814534 0
vertex 14.222075445642904 26.65745789630079 0
endloop
endfacet
facet normal -0.47139673682599514 -0.8819212643483564 0
outer loop
vertex 15.00006604858821 26.24161325536145 3
vertex 14.222075445642893 26.657457896300787 3
vertex 14.222075445642904 26.65745789630079 0
endloop
endfacet
facet normal -0.47139673682599514 -0.8819212643483564 0
outer loop
vertex 15.00006604858821 26.24161325536145 3
vertex 14.222075445642904 26.65745789630079 0
vertex 15.00006604858821 26.241613255361454 0
endloop
endfacet
facet normal -0.6343932841636449 -0.7730104533627374 0
outer loop
vertex 15.68198051533948 25.681980515339458 3
vertex 15.00006604858821 26.24161325536145 3
vertex 15.00006604858821 26.241613255361454 0
endloop
endfacet
facet normal -0.6343932841636449 -0.7730104533627374 0
outer loop
vertex 15.68198051533948 25.681980515339458 3
vertex 15.00006604858821 26.241613255361454 0
vertex 15.681980515339463 25.681980515339465 0
endloop
endfacet
facet normal -0.7730104533627382 -0.6343932841636442 0
outer loop
vertex 16.24161325536144 25.00006604858821 3
vertex 15.68198051533948 25.681980515339458 3
vertex 15.681980515339463 25.681980515339465 0
endloop
endfacet
facet normal -0.7730104533627382 -0.6343932841636442 0
outer loop
vertex 16.24161325536144 25.00006604858821 3
vertex 15.681980515339463 25.681980515339465 0
vertex 16.241613255361454 25.000066048588206 0
endloop
endfacet
facet normal -0.8819212643483545 -0.47139673682599864 0
outer loop
vertex 16.657457896300798 24.222075445642904 3
vertex 16.24161325536144 25.00006604858821 3
vertex 16.241613255361454 25.000066048588206 0
endloop
endfacet
facet normal -0.8819212643483545 -0.47139673682599864 0
outer loop
vertex 16.657457896300798 24.222075445642904 3
vertex 16.241613255361454 25.000066048588206 0
vertex 16.65745789630079 24.2220754456429 0
endloop
endfacet
facet normal -0.956940335732209 -0.29028467725446194 0
outer loop
vertex 16.91353376181453 23.377906449072583 3
vertex 16.657457896300798 24.222075445642904 3
vertex 16.65745789630079 24.2220754456429 0
endloop
endfacet
facet normal -0.956940335732209 -0.29028467725446194 0
outer loop
vertex 16.91353376181453 23.377906449072583 3
vertex 16.65745789630079 24.2220754456429 0
vertex 16.913533761814534 23.37790644907258 0
endloop
endfacet
facet normal -0.9951847266721969 -0.09801714032956005 0
outer loop
vertex 17 22.499999999999986 3
vertex 16.91353376181453 23.377906449072583 3
vertex 16.913533761814534 23.37790644907258 0
endloop
endfacet
facet normal -0.9951847266721969 -0.09801714032956005 0
outer loop
vertex 17 22.499999999999986 3
vertex 16.913533761814534 23.37790644907258 0
vertex 17 22.5 0
endloop
endfacet
facet normal 3.197442310920453e-16 0 1
outer loop
vertex 25 0 3
vertex 25 18 3
vertex 12.500000000000009 18 3.000000000000004
endloop
endfacet
facet normal 3.197442310920453e-16 0 1
outer loop
vertex 25 0 3
vertex 12.500000000000009 18 3.000000000000004
vertex 0.800000000000044 18 3.000000000000004
endloop
endfacet
facet normal 3.197442310920453e-16 0 1
outer loop
vertex 25 0 3
vertex 0.800000000000044 18 3.000000000000004
vertex 0.7999999999999998 -1.9721522630525295e-31 3.0000000000000004
endloop
endfacet
facet normal 0 0 1
outer loop
vertex 25 18 3
vertex 25 18.086466238185462 3
vertex 13.377906449072572 18.086466238185462 3
endloop
endfacet
facet normal 0 0 1
outer loop
vertex 25 18 3
vertex 13.377906449072572 18.086466238185462 3
vertex 12.500000000000009 18 3.000000000000004
endloop
endfacet
facet normal 0 0 1
outer loop
vertex 25 18.086466238185462 3
vertex 25 18.34254210369921 3
vertex 14.2220754456429 18.34254210369921 3
endloop
endfacet
facet normal 0 0 1
outer loop
vertex 25 18.086466238185462 3
vertex 14.2220754456429 18.34254210369921 3
vertex 13.377906449072572 18.086466238185462 3
endloop
endfacet
facet normal 0 0 1
outer loop
vertex 25 18.34254210369921 3
vertex 25 18.75838674463855 3
vertex 15.000066048588216 18.75838674463855 3
endloop
endfacet
facet normal 0 0 1
outer loop
vertex 25 18.34254210369921 3
vertex 15.000066048588216 18.75838674463855 3
vertex 14.2220754456429 18.34254210369921 3
endloop
endfacet
facet normal 0 0 1
outer loop
vertex 25 18.75838674463855 3
vertex 25 19.318019484660535 3
vertex 15.681980515339465 19.318019484660535 3
endloop
endfacet
facet normal 0 0 1
outer loop
vertex 25 18.75838674463855 3
vertex 15.681980515339465 19.318019484660535 3
vertex 15.000066048588216 18.75838674463855 3
endloop
endfacet
facet normal 0 0 1
outer loop
vertex 25 19.318019484660535 3
vertex 25 19.999933951411776 3
vertex 16.241613255361443 19.999933951411776 3
endloop
endfacet
facet normal 0 0 1
outer loop
vertex 25 19.318019484660535 3
vertex 16.241613255361443 19.999933951411776 3
vertex 15.681980515339465 19.318019484660535 3
endloop
endfacet
facet normal 0 0 1
outer loop
vertex 25 19.999933951411776 3
vertex 25 20.777924554357114 3
vertex 16.657457896300798 20.777924554357114 3
endloop
endfacet
facet normal 0 0 1
outer loop
vertex 25 19.999933951411776 3
vertex 16.657457896300798 20.777924554357114 3
vertex 16.241613255361443 19.999933951411776 3
endloop
endfacet
facet normal 0 0 1
outer loop
vertex 25 20.777924554357114 3
vertex 25 21.622093550927413 3
vertex 16.913533761814534 21.622093550927413 3
endloop
endfacet
facet normal 0 0 1
outer loop
vertex 25 20.777924554357114 3
vertex 16.913533761814534 21.622093550927413 3
vertex 16.657457896300798 20.777924554357114 3
endloop
endfacet
facet normal 0 0 1
outer loop
vertex 25 21.622093550927413 3
vertex 25 22.499999999999986 3
vertex 17 22.499999999999986 3
endloop
endfacet
facet normal 0 0 1
outer loop
vertex 25 21.622093550927413 3
vertex 17 22.499999999999986 3
vertex 16.913533761814534 21.622093550927413 3
endloop
endfacet
facet normal 0 0 1
outer loop
vertex 25 22.499999999999986 3
vertex 25 23.377906449072583 3
vertex 16.91353376181453 23.377906449072583 3
endloop
endfacet
facet normal 0 0 1
outer loop
vertex 25 22.499999999999986 3
vertex 16.91353376181453 23.377906449072583 3
vertex 17 22.499999999999986 3
endloop
endfacet
facet normal 0 0 1
outer loop
vertex 25 23.377906449072583 3
vertex 25 24.222075445642904 3
vertex 16.657457896300798 24.222075445642904 3
endloop
endfacet
facet normal 0 0 1
outer loop
vertex 25 23.377906449072583 3
vertex 16.657457896300798 24.222075445642904 3
vertex 16.91353376181453 23.377906449072583 3
endloop
endfacet
facet normal 0 0 1
outer loop
vertex 25 24.222075445642904 3
vertex 25 25.00006604858821 3
vertex 16.24161325536144 25.00006604858821 3
endloop
endfacet
facet normal 0 0 1
outer loop
vertex 25 24.222075445642904 3
vertex 16.24161325536144 25.00006604858821 3
vertex 16.657457896300798 24.222075445642904 3
endloop
endfacet
facet normal 0 0 1
outer loop
vertex 25 25.00006604858821 3
vertex 25 25.681980515339458 3
vertex 15.68198051533948 25.681980515339458 3
endloop
endfacet
facet normal 0 0 1
outer loop
vertex 25 25.00006604858821 3
vertex 15.68198051533948 25.681980515339458 3
vertex 16.24161325536144 25.00006604858821 3
endloop
endfacet
facet normal 0 0 1
outer loop
vertex 25 25.681980515339458 3
vertex 25 26.24161325536145 3
vertex 15.00006604858821 26.24161325536145 3
endloop
endfacet
facet normal 0 0 1
outer loop
vertex 25 25.681980515339458 3
vertex 15.00006604858821 26.24161325536145 3
vertex 15.68198051533948 25.681980515339458 3
endloop
endfacet
facet normal 0 0 1
outer loop
vertex 25 26.24161325536145 3
vertex 25 26.657457896300787 3
vertex 14.222075445642893 26.657457896300787 3
endloop
endfacet
facet normal 0 0 1
outer loop
vertex 25 26.24161325536145 3
vertex 14.222075445642893 26.657457896300787 3
vertex 15.00006604858821 26.24161325536145 3
endloop
endfacet
facet normal 0 0 1
outer loop
vertex 25 26.657457896300787 3
vertex 25 26.913533761814534 3
vertex 13.377906449072608 26.913533761814534 3
endloop
endfacet
facet normal 0 0 1
outer loop
vertex 25 26.657457896300787 3
vertex 13.377906449072608 26.913533761814534 3
vertex 14.222075445642893 26.657457896300787 3
endloop
endfacet
facet normal 0 0 1
outer loop
vertex 25 26.913533761814534 3
vertex 25 27 3
vertex 12.50000000000002 27 3.0000000000000058
endloop
endfacet
facet normal 0 0 1
outer loop
vertex 25 26.913533761814534 3
vertex 12.50000000000002 27 3.0000000000000058
vertex 13.377906449072608 26.913533761814534 3
endloop
endfacet
facet normal 4.618527782440658e-16 0 1
outer loop
vertex 12.50000000000002 27 3.0000000000000058
vertex 25 27 3
vertex 25 45 3
endloop
endfacet
facet normal 4.618527782440658e-16 0 1
outer loop
vertex 12.50000000000002 27 3.0000000000000058
vertex 25 45 3
vertex 0.8000000000000018 45 3.0000000000000204
endloop
endfacet
facet normal 4.618527782440658e-16 0 1
outer loop
vertex 12.50000000000002 27 3.0000000000000058
vertex 0.8000000000000018 45 3.0000000000000204
vertex 0.8000000000000674 27 3.0000000000000058
endloop
endfacet
facet normal -1 0 0
outer loop
vertex 25 27 3
vertex 25 26.913533761814534 3
vertex 25 26.657457896300787 3
endloop
endfacet
facet normal -1 0 0
outer loop
vertex 25 27 3
vertex 25 26.657457896300787 3
vertex 25 26.24161325536145 3
endloop
endfacet
facet normal -1 0 0
outer loop
vertex 25 27 3
vertex 25 26.24161325536145 3
vertex 25 25.681980515339458 3
endloop
endfacet
facet normal -1 0 0
outer loop
vertex 25 27 3
vertex 25 25.681980515339458 3
vertex 25 25.00006604858821 3
endloop
endfacet
facet normal -1 0 0
outer loop
vertex 25 27 3
vertex 25 25.00006604858821 3
vertex 25 24.222075445642904 3
endloop
endfacet
facet normal -1 0 0
outer loop
vertex 25 27 3
vertex 25 24.222075445642904 3
vertex 25 23.377906449072583 3
endloop
endfacet
facet normal -1 0 0
outer loop
vertex 25 27 3
vertex 25 23.377906449072583 3
vertex 25 22.499999999999986 3
endloop
endfacet
facet normal -1 0 0
outer loop
vertex 25 27 3
vertex 25 22.499999999999986 3
vertex 25 21.622093550927413 3
endloop
endfacet
facet normal -1 0 0
outer loop
vertex 25 27 3
vertex 25 21.622093550927413 3
vertex 25 20.777924554357114 3
endloop
endfacet
facet normal -1 0 0
outer loop
vertex 25 27 3
vertex 25 20.777924554357114 3
vertex 25 19.999933951411776 3
endloop
endfacet
facet normal -1 0 0
outer loop
vertex 25 27 3
vertex 25 19.999933951411776 3
vertex 25 19.318019484660535 3
endloop
endfacet
facet normal -1 0 0
outer loop
vertex 25 27 3
vertex 25 19.318019484660535 3
vertex 25 18.75838674463855 3
endloop
endfacet
facet normal -1 0 0
outer loop
vertex 25 27 3
vertex 25 18.75838674463855 3
vertex 25 18.34254210369921 3
endloop
endfacet
facet normal -1 0 0
outer loop
vertex 25 27 3
vertex 25 18.34254210369921 3
vertex 25 18.086466238185462 3
endloop
endfacet
facet normal -1 0 0
outer loop
vertex 25 27 3
vertex 25 18.086466238185462 3
vertex 25 18 3
endloop
endfacet
facet normal -1 0 0
outer loop
vertex 25 27 3
vertex 25 18 3
vertex 25 0 3
endloop
endfacet
facet normal -1 0 0
outer loop
vertex 25 27 3
vertex 25 0 3
vertex 25 0 22
endloop
endfacet
facet normal -1 0 0
outer loop
vertex 25 27 3
vertex 25 0 22
vertex 25 45 22
endloop
endfacet
facet normal -1 0 0
outer loop
vertex 25 27 3
vertex 25 45 22
vertex 25 45 3
endloop
endfacet
facet normal -0.09801714032956006 0 0.9951847266721969
outer loop
vertex 27.414729033951616 0 24.942355841209693
vertex 28 0 25
vertex 28 45 25
endloop
endfacet
facet normal -0.09801714032956006 0 0.9951847266721969
outer loop
vertex 27.414729033951616 0 24.942355841209693
vertex 28 45 25
vertex 27.414729033951616 45 24.942355841209693
endloop
endfacet
facet normal -0.29028467725446194 0 0.956940335732209
outer loop
vertex 26.85194970290473 0 24.771638597533858
vertex 27.414729033951616 0 24.942355841209693
vertex 27.414729033951616 45 24.942355841209693
endloop
endfacet
facet normal -0.29028467725446194 0 0.956940335732209
outer loop
vertex 26.85194970290473 0 24.771638597533858
vertex 27.414729033951616 45 24.942355841209693
vertex 26.85194970290473 45 24.77163859753386
endloop
endfacet
facet normal -0.47139673682599864 0 0.8819212643483545
outer loop
vertex 26.333289300941193 0 24.494408836907635
vertex 26.85194970290473 0 24.771638597533858
vertex 26.85194970290473 45 24.77163859753386
endloop
endfacet
facet normal -0.47139673682599864 0 0.8819212643483545
outer loop
vertex 26.333289300941193 0 24.494408836907635
vertex 26.85194970290473 45 24.77163859753386
vertex 26.333289300941193 45 24.49440883690764
endloop
endfacet
facet normal -0.6343932841636462 0 0.7730104533627364
outer loop
vertex 25.878679656440358 0 24.121320343559642
vertex 26.333289300941193 0 24.494408836907635
vertex 26.333289300941193 45 24.49440883690764
endloop
endfacet
facet normal -0.6343932841636462 0 0.7730104533627364
outer loop
vertex 25.878679656440358 0 24.121320343559642
vertex 26.333289300941193 45 24.49440883690764
vertex 25.878679656440358 45 24.121320343559645
endloop
endfacet
facet normal -0.7730104533627363 0 0.6343932841636462
outer loop
vertex 25.505591163092365 0 23.666710699058807
vertex 25.878679656440358 0 24.121320343559642
vertex 25.878679656440358 45 24.121320343559645
endloop
endfacet
facet normal -0.7730104533627363 0 0.6343932841636462
outer loop
vertex 25.505591163092365 0 23.666710699058807
vertex 25.878679656440358 45 24.121320343559645
vertex 25.505591163092365 45 23.66671069905881
endloop
endfacet
facet normal -0.8819212643483554 0 0.4713967368259972
outer loop
vertex 25.228361402466142 0 23.14805029709527
vertex 25.505591163092365 0 23.666710699058807
vertex 25.505591163092365 45 23.66671069905881
endloop
endfacet
facet normal -0.8819212643483554 0 0.4713967368259972
outer loop
vertex 25.228361402466142 0 23.14805029709527
vertex 25.505591163092365 45 23.66671069905881
vertex 25.228361402466142 45 23.148050297095274
endloop
endfacet
facet normal -0.9569403357322082 0 0.29028467725446516
outer loop
vertex 25.05764415879031 0 22.585270966048387
vertex 25.228361402466142 0 23.14805029709527
vertex 25.228361402466142 45 23.148050297095274
endloop
endfacet
facet normal -0.9569403357322082 0 0.29028467725446516
outer loop
vertex 25.05764415879031 0 22.585270966048387
vertex 25.228361402466142 45 23.148050297095274
vertex 25.05764415879031 45 22.585270966048387
endloop
endfacet
facet normal -0.9951847266721969 0 0.09801714032956006
outer loop
vertex 25 0 22
vertex 25.05764415879031 0 22.585270966048387
vertex 25.05764415879031 45 22.585270966048387
endloop
endfacet
facet normal -0.9951847266721969 0 0.09801714032956006
outer loop
vertex 25 0 22
vertex 25.05764415879031 45 22.585270966048387
vertex 25 45 22
endloop
endfacet
facet normal 0.9951847266721969 0 0.09801714032955972
outer loop
vertex 36.94235584120969 0 22.585270966048387
vertex 37 0 22
vertex 37 45 22
endloop
endfacet
facet normal 0.9951847266721969 0 0.09801714032955972
outer loop
vertex 36.94235584120969 0 22.585270966048387
vertex 37 45 22
vertex 36.94235584120969 45 22.585270966048387
endloop
endfacet
facet normal 0.9569403357322087 0 0.2902846772544629
outer loop
vertex 36.77163859753386 0 23.14805029709527
vertex 36.94235584120969 0 22.585270966048387
vertex 36.94235584120969 45 22.585270966048387
endloop
endfacet
facet normal 0.9569403357322087 0 0.2902846772544629
outer loop
vertex 36.77163859753386 0 23.14805029709527
vertex 36.94235584120969 45 22.585270966048387
vertex 36.77163859753386 45 23.148050297095274
endloop
endfacet
facet normal 0.8819212643483529 0 0.47139673682600136
outer loop
vertex 36.49440883690764 0 23.666710699058807
vertex 36.77163859753386 0 23.14805029709527
vertex 36.77163859753386 45 23.148050297095274
endloop
endfacet
facet normal 0.8819212643483529 0 0.47139673682600136
outer loop
vertex 36.49440883690764 0 23.666710699058807
vertex 36.77163859753386 45 23.148050297095274
vertex 36.49440883690764 45 23.66671069905881
endloop
endfacet
facet normal 0.7730104533627347 0 0.6343932841636483
outer loop
vertex 36.121320343559645 0 24.121320343559642
vertex 36.49440883690764 0 23.666710699058807
vertex 36.49440883690764 45 23.66671069905881
endloop
endfacet
facet normal 0.7730104533627347 0 0.6343932841636483
outer loop
vertex 36.121320343559645 0 24.121320343559642
vertex 36.49440883690764 45 23.66671069905881
vertex 36.121320343559645 45 24.121320343559645
endloop
endfacet
facet normal 0.6343932841636462 0 0.7730104533627363
outer loop
vertex 35.666710699058804 0 24.494408836907635
vertex 36.121320343559645 0 24.121320343559642
vertex 36.121320343559645 45 24.121320343559645
endloop
endfacet
facet normal 0.6343932841636462 0 0.7730104533627363
outer loop
vertex 35.666710699058804 0 24.494408836907635
vertex 36.121320343559645 45 24.121320343559645
vertex 35.666710699058804 45 24.49440883690764
endloop
endfacet
facet normal 0.4713967368259972 0 0.8819212643483554
outer loop
vertex 35.14805029709527 0 24.771638597533858
vertex 35.666710699058804 0 24.494408836907635
vertex 35.666710699058804 45 24.49440883690764
endloop
endfacet
facet normal 0.4713967368259972 0 0.8819212643483554
outer loop
vertex 35.14805029709527 0 24.771638597533858
vertex 35.666710699058804 45 24.49440883690764
vertex 35.14805029709527 45 24.77163859753386
endloop
endfacet
facet normal 0.2902846772544629 0 0.9569403357322087
outer loop
vertex 34.585270966048384 0 24.942355841209693
vertex 35.14805029709527 0 24.771638597533858
vertex 35.14805029709527 45 24.77163859753386
endloop
endfacet
facet normal 0.2902846772544629 0 0.9569403357322087
outer loop
vertex 34.585270966048384 0 24.942355841209693
vertex 35.14805029709527 45 24.77163859753386
vertex 34.585270966048384 45 24.942355841209693
endloop
endfacet
facet normal 0.09801714032956041 0 0.9951847266721969
outer loop
vertex 34 0 25
vertex 34.585270966048384 0 24.942355841209693
vertex 34.585270966048384 45 24.942355841209693
endloop
endfacet
facet normal 0.09801714032956041 0 0.9951847266721969
outer loop
vertex 34 0 25
vertex 34.585270966048384 45 24.942355841209693
vertex 34 45 25
endloop
endfacet
facet normal 1 0 0
outer loop
vertex 37 0 22
vertex 37 0 0
vertex 37 45 0
endloop
endfacet
facet normal 1 0 0
outer loop
vertex 37 0 22
vertex 37 45 0
vertex 37 45 22
endloop
endfacet
facet normal -1 0 0
outer loop
vertex 0 18 3.4060839334408586
vertex 0 18 3.2928932188134543
vertex 0 18 3.168530387697456
endloop
endfacet
facet normal -1 0 0
outer loop
vertex 0 18 3.4060839334408586
vertex 0 18 3.168530387697456
vertex 0 18 3.0761204674887135
endloop
endfacet
facet normal -1 0 0
outer loop
vertex 0 18 3.4060839334408586
vertex 0 18 3.0761204674887135
vertex 0 18 3.019214719596782
endloop
endfacet
facet normal -1 0 0
outer loop
vertex 0 18 3.4060839334408586
vertex 0 18 3.019214719596782
vertex 0 18 3.000000000000004
endloop
endfacet
facet normal -1 0 0
outer loop
vertex 0 18 3.4060839334408586
vertex 0 18 3.000000000000004
vertex 0 18 0
endloop
endfacet
facet normal -1 0 0
outer loop
vertex 0 18 3.4060839334408586
vertex 0 18 0
vertex 0 0 0
endloop
endfacet
facet normal -1 0 0
outer loop
vertex 0 18 3.4060839334408586
vertex 0 0 0
vertex 0 0 3
endloop
endfacet
facet normal -1 0 0
outer loop
vertex 0 18 3.4060839334408586
vertex 0 0 3
vertex 0 0 3.019214719596771
endloop
endfacet
facet normal -1 0 0
outer loop
vertex 0 18 3.4060839334408586
vertex 0 0 3.019214719596771
vertex 0 0 3.076120467488713
endloop
endfacet
facet normal -1 0 0
outer loop
vertex 0 18 3.4060839334408586
vertex 0 0 3.076120467488713
vertex 0 0 3.1685303876974547
endloop
endfacet
facet normal -1 0 0
outer loop
vertex 0 18 3.4060839334408586
vertex 0 0 3.1685303876974547
vertex 0 0 3.292893218813454
endloop
endfacet
facet normal -1 0 0
outer loop
vertex 0 18 3.4060839334408586
vertex 0 0 3.292893218813454
vertex -1.5543122344752192e-15 3.636687049369193e-17 3.4060839334408612
endloop
endfacet
facet normal 0.9997608280197253 0.021869768112931492 0
outer loop
vertex -1.5543122344752192e-15 45.00000000000007 3.4060839334408612
vertex 0 45 3.292893218813455
vertex 0 45 3.168530387697458
endloop
endfacet
facet normal 0.9997608280197253 0.021869768112931492 0
outer loop
vertex -1.5543122344752192e-15 45.00000000000007 3.4060839334408612
vertex 0 45 3.168530387697458
vertex 0 45 3.0761204674887153
endloop
endfacet
facet normal 0.9997608280197253 0.021869768112931492 0
outer loop
vertex -1.5543122344752192e-15 45.00000000000007 3.4060839334408612
vertex 0 45 3.0761204674887153
vertex 0 45 3.0192147195967998
endloop
endfacet
facet normal 0.9997608280197253 0.021869768112931492 0
outer loop
vertex -1.5543122344752192e-15 45.00000000000007 3.4060839334408612
vertex 0 45 3.0192147195967998
vertex 0 45 3
endloop
endfacet
facet normal 0.9997608280197253 0.021869768112931492 0
outer loop
vertex -1.5543122344752192e-15 45.00000000000007 3.4060839334408612
vertex 0 45 3
vertex 0 45 0
endloop
endfacet
facet normal 0.9997608280197253 0.021869768112931492 0
outer loop
vertex -1.5543122344752192e-15 45.00000000000007 3.4060839334408612
vertex 0 45 0
vertex 0 27 0
endloop
endfacet
facet normal 0.9997608280197253 0.021869768112931492 0
outer loop
vertex -1.5543122344752192e-15 45.00000000000007 3.4060839334408612
vertex 0 27 0
vertex 0 27 3.0000000000000058
endloop
endfacet
facet normal 0.9997608280197253 0.021869768112931492 0
outer loop
vertex -1.5543122344752192e-15 45.00000000000007 3.4060839334408612
vertex 0 27 3.0000000000000058
vertex 0 27 3.0192147195967878
endloop
endfacet
facet normal 0.9997608280197253 0.021869768112931492 0
outer loop
vertex -1.5543122344752192e-15 45.00000000000007 3.4060839334408612
vertex 0 27 3.0192147195967878
vertex 0 27 3.076120467488714
endloop
endfacet
facet normal 0.9997608280197253 0.021869768112931492 0
outer loop
vertex -1.5543122344752192e-15 45.00000000000007 3.4060839334408612
vertex 0 27 3.076120467488714
vertex 0 27 3.168530387697456
endloop
endfacet
facet normal 0.9997608280197253 0.021869768112931492 0
outer loop
vertex -1.5543122344752192e-15 45.00000000000007 3.4060839334408612
vertex 0 27 3.168530387697456
vertex 0 27 3.2928932188134556
endloop
endfacet
facet normal 0.9997608280197253 0.021869768112931492 0
outer loop
vertex -1.5543122344752192e-15 45.00000000000007 3.4060839334408612
vertex 0 27 3.2928932188134556
vertex 0 27 3.4060839334408586
endloop
endfacet
facet normal 0 -1 0
outer loop
vertex 28 0 0
vertex 28 0 3
vertex 25 0 3
endloop
endfacet
facet normal 0 -1 0
outer loop
vertex 28 0 0
vertex 25 0 3
vertex 0.7999999999999998 -1.9721522630525295e-31 3.0000000000000004
endloop
endfacet
facet normal 0 -1 0
outer loop
vertex 28 0 0
vertex 0.7999999999999998 -1.9721522630525295e-31 3.0000000000000004
vertex 0 0 3
endloop
endfacet
facet normal 0 -1 0
outer loop
vertex 28 0 0
vertex 0 0 3
vertex 0 0 0
endloop
endfacet
facet normal 0 -1 0
outer loop
vertex 0.7999999999999998 -1.9721522630525295e-31 3.0000000000000004
vertex 0.6049096779838714 0 3.0192147195967696
vertex 0 0 3.019214719596771
endloop
endfacet
facet normal 0 -1 0
outer loop
vertex 0.7999999999999998 -1.9721522630525295e-31 3.0000000000000004
vertex 0 0 3.019214719596771
vertex 0 0 3
endloop
endfacet
facet normal 0 -1 0
outer loop
vertex 0.6049096779838714 0 3.0192147195967696
vertex 0.41731656763490976 1.232595164407831e-32 3.076120467488714
vertex 0 0 3.076120467488713
endloop
endfacet
facet normal 0 -1 0
outer loop
vertex 0.6049096779838714 0 3.0192147195967696
vertex 0 0 3.076120467488713
vertex 0 0 3.019214719596771
endloop
endfacet
facet normal 0 -1 0
outer loop
vertex 0.41731656763490976 1.232595164407831e-32 3.076120467488714
vertex 0.24442976698039787 0 3.168530387697455
vertex 0 0 3.1685303876974547
endloop
endfacet
facet normal 0 -1 0
outer loop
vertex 0.41731656763490976 1.232595164407831e-32 3.076120467488714
vertex 0 0 3.1685303876974547
vertex 0 0 3.076120467488713
endloop
endfacet
facet normal 0 -1 0
outer loop
vertex 0.24442976698039787 0 3.168530387697455
vertex 0.0928932188134517 0 3.292893218813453
vertex 0 0 3.292893218813454
endloop
endfacet
facet normal 0 -1 0
outer loop
vertex 0.24442976698039787 0 3.168530387697455
vertex 0 0 3.292893218813454
vertex 0 0 3.1685303876974547
endloop
endfacet
facet normal 0 -1 0
outer loop
vertex 0.0928932188134517 0 3.292893218813453
vertex -1.5543122344752192e-15 3.636687049369193e-17 3.4060839334408612
vertex 0 0 3.292893218813454
endloop
endfacet
facet normal 0 -1 0
outer loop
vertex 28 0 3
vertex 28 0 22
vertex 25 0 22
endloop
endfacet
facet normal 0 -1 0
outer loop
vertex 28 0 3
vertex 25 0 22
vertex 25 0 3
endloop
endfacet
facet normal 0 -1 0
outer loop
vertex 37 0 0
vertex 37 0 22
vertex 34 0 22
endloop
endfacet
facet normal 0 -1 0
outer loop
vertex 37 0 0
vertex 34 0 22
vertex 34 0 0
endloop
endfacet
facet normal 0 -1 0
outer loop
vertex 28 0 22
vertex 34 0 22
vertex 37 0 22
endloop
endfacet
facet normal 0 -1 0
outer loop
vertex 28 0 22
vertex 37 0 22
vertex 36.94235584120969 0 22.585270966048387
endloop
endfacet
facet normal 0 -1 0
outer loop
vertex 28 0 22
vertex 36.94235584120969 0 22.585270966048387
vertex 36.77163859753386 0 23.14805029709527
endloop
endfacet
facet normal 0 -1 0
outer loop
vertex 28 0 22
vertex 36.77163859753386 0 23.14805029709527
vertex 36.49440883690764 0 23.666710699058807
endloop
endfacet
facet normal 0 -1 0
outer loop
vertex 28 0 22
vertex 36.49440883690764 0 23.666710699058807
vertex 36.121320343559645 0 24.121320343559642
endloop
endfacet
facet normal 0 -1 0
outer loop
vertex 28 0 22
vertex 36.121320343559645 0 24.121320343559642
vertex 35.666710699058804 0 24.494408836907635
endloop
endfacet
facet normal 0 -1 0
outer loop
vertex 28 0 22
vertex 35.666710699058804 0 24.494408836907635
vertex 35.14805029709527 0 24.771638597533858
endloop
endfacet
facet normal 0 -1 0
outer loop
vertex 28 0 22
vertex 35.14805029709527 0 24.771638597533858
vertex 34.585270966048384 0 24.942355841209693
endloop
endfacet
facet normal 0 -1 0
outer loop
vertex 28 0 22
vertex 34.585270966048384 0 24.942355841209693
vertex 34 0 25
endloop
endfacet
facet normal 0 -1 0
outer loop
vertex 28 0 22
vertex 34 0 25
vertex 28 0 25
endloop
endfacet
facet normal 0 -1 0
outer loop
vertex 28 0 22
vertex 28 0 25
vertex 27.414729033951616 0 24.942355841209693
endloop
endfacet
facet normal 0 -1 0
outer loop
vertex 28 0 22
vertex 27.414729033951616 0 24.942355841209693
vertex 26.85194970290473 0 24.771638597533858
endloop
endfacet
facet normal 0 -1 0
outer loop
vertex 28 0 22
vertex 26.85194970290473 0 24.771638597533858
vertex 26.333289300941193 0 24.494408836907635
endloop
endfacet
facet normal 0 -1 0
outer loop
vertex 28 0 22
vertex 26.333289300941193 0 24.494408836907635
vertex 25.878679656440358 0 24.121320343559642
endloop
endfacet
facet normal 0 -1 0
outer loop
vertex 28 0 22
vertex 25.878679656440358 0 24.121320343559642
vertex 25.505591163092365 0 23.666710699058807
endloop
endfacet
facet normal 0 -1 0
outer loop
vertex 28 0 22
vertex 25.505591163092365 0 23.666710699058807
vertex 25.228361402466142 0 23.14805029709527
endloop
endfacet
facet normal 0 -1 0
outer loop
vertex 28 0 22
vertex 25.228361402466142 0 23.14805029709527
vertex 25.05764415879031 0 22.585270966048387
endloop
endfacet
facet normal 0 -1 0
outer loop
vertex 28 0 22
vertex 25.05764415879031 0 22.585270966048387
vertex 25 0 22
endloop
endfacet
facet normal 0 1 0
outer loop
vertex 34 45 25
vertex 34.585270966048384 45 24.942355841209693
vertex 35.14805029709527 45 24.77163859753386
endloop
endfacet
facet normal 0 1 0
outer loop
vertex 34 45 25
vertex 35.14805029709527 45 24.77163859753386
vertex 35.666710699058804 45 24.49440883690764
endloop
endfacet
facet normal 0 1 0
outer loop
vertex 34 45 25
vertex 35.666710699058804 45 24.49440883690764
vertex 36.121320343559645 45 24.121320343559645
endloop
endfacet
facet normal 0 1 0
outer loop
vertex 34 45 25
vertex 36.121320343559645 45 24.121320343559645
vertex 36.49440883690764 45 23.66671069905881
endloop
endfacet
facet normal 0 1 0
outer loop
vertex 34 45 25
vertex 36.49440883690764 45 23.66671069905881
vertex 36.77163859753386 45 23.148050297095274
endloop
endfacet
facet normal 0 1 0
outer loop
vertex 34 45 25
vertex 36.77163859753386 45 23.148050297095274
vertex 36.94235584120969 45 22.585270966048387
endloop
endfacet
facet normal 0 1 0
outer loop
vertex 34 45 25
vertex 36.94235584120969 45 22.585270966048387
vertex 37 45 22
endloop
endfacet
facet normal 0 1 0
outer loop
vertex 34 45 25
vertex 37 45 22
vertex 34 45 22
endloop
endfacet
facet normal 0 1 0
outer loop
vertex 34 45 25
vertex 34 45 22
vertex 28 45 22
endloop
endfacet
facet normal 0 1 0
outer loop
vertex 34 45 25
vertex 28 45 22
vertex 25 45 22
endloop
endfacet
facet normal 0 1 0
outer loop
vertex 34 45 25
vertex 25 45 22
vertex 25.05764415879031 45 22.585270966048387
endloop
endfacet
facet normal 0 1 0
outer loop
vertex 34 45 25
vertex 25.05764415879031 45 22.585270966048387
vertex 25.228361402466142 45 23.148050297095274
endloop
endfacet
facet normal 0 1 0
outer loop
vertex 34 45 25
vertex 25.228361402466142 45 23.148050297095274
vertex 25.505591163092365 45 23.66671069905881
endloop
endfacet
facet normal 0 1 0
outer loop
vertex 34 45 25
vertex 25.505591163092365 45 23.66671069905881
vertex 25.878679656440358 45 24.121320343559645
endloop
endfacet
facet normal 0 1 0
outer loop
vertex 34 45 25
vertex 25.878679656440358 45 24.121320343559645
vertex 26.333289300941193 45 24.49440883690764
endloop
endfacet
facet normal 0 1 0
outer loop
vertex 34 45 25
vertex 26.333289300941193 45 24.49440883690764
vertex 26.85194970290473 45 24.77163859753386
endloop
endfacet
facet normal 0 1 0
outer loop
vertex 34 45 25
vertex 26.85194970290473 45 24.77163859753386
vertex 27.414729033951616 45 24.942355841209693
endloop
endfacet
facet normal 0 1 0
outer loop
vertex 34 45 25
vertex 27.414729033951616 45 24.942355841209693
vertex 28 45 25
endloop
endfacet
facet normal 0 1 0
outer loop
vertex 0.0928932188134517 45.000000000000014 3.292893218813453
vertex 0 45 3.292893218813455
vertex -1.5543122344752192e-15 45.00000000000007 3.4060839334408612
endloop
endfacet
facet normal 0 1 0
outer loop
vertex 0.0928932188134517 45.000000000000014 3.292893218813453
vertex 0.24442976698039787 45.000000000000014 3.168530387697455
vertex 0 45 3.168530387697458
endloop
endfacet
facet normal 0 1 0
outer loop
vertex 0.0928932188134517 45.000000000000014 3.292893218813453
vertex 0 45 3.168530387697458
vertex 0 45 3.292893218813455
endloop
endfacet
facet normal 0 1 0
outer loop
vertex 0.24442976698039787 45.000000000000014 3.168530387697455
vertex 0.4173165676349102 45.000000000000014 3.076120467488715
vertex 0 45 3.0761204674887153
endloop
endfacet
facet normal 0 1 0
outer loop
vertex 0.24442976698039787 45.000000000000014 3.168530387697455
vertex 0 45 3.0761204674887153
vertex 0 45 3.168530387697458
endloop
endfacet
facet normal 0 1 0
outer loop
vertex 0.4173165676349102 45.000000000000014 3.076120467488715
vertex 0.6049096779838719 45 3.019214719596771
vertex 0 45 3.0192147195967998
endloop
endfacet
facet normal 0 1 0
outer loop
vertex 0.4173165676349102 45.000000000000014 3.076120467488715
vertex 0 45 3.0192147195967998
vertex 0 45 3.0761204674887153
endloop
endfacet
facet normal 0 1 0
outer loop
vertex 0.6049096779838719 45 3.019214719596771
vertex 0.8000000000000018 45 3.0000000000000204
vertex 0 45 3
endloop
endfacet
facet normal 0 1 0
outer loop
vertex 0.6049096779838719 45 3.019214719596771
vertex 0 45 3
vertex 0 45 3.0192147195967998
endloop
endfacet
facet normal 0 1 0
outer loop
vertex 28 45 22
vertex 28 45 3
vertex 25 45 3
endloop
endfacet
facet normal 0 1 0
outer loop
vertex 28 45 22
vertex 25 45 3
vertex 25 45 22
endloop
endfacet
facet normal 0 -1 0
outer loop
vertex 0.8000000000000018 45 3.0000000000000204
vertex 25 45 3
vertex 28 45 3
endloop
endfacet
facet normal 0 -1 0
outer loop
vertex 0.8000000000000018 45 3.0000000000000204
vertex 28 45 3
vertex 28 45 0
endloop
endfacet
facet normal 0 -1 0
outer loop
vertex 0.8000000000000018 45 3.0000000000000204
vertex 28 45 0
vertex 0 45 0
endloop
endfacet
facet normal 0 -1 0
outer loop
vertex 0.8000000000000018 45 3.0000000000000204
vertex 0 45 0
vertex 0 45 3
endloop
endfacet
facet normal 0 1 0
outer loop
vertex 37 45 22
vertex 37 45 0
vertex 34 45 0
endloop
endfacet
facet normal 0 1 0
outer loop
vertex 37 45 22
vertex 34 45 0
vertex 34 45 22
endloop
endfacet
facet normal 0 0 -1
outer loop
vertex 28 45 0
vertex 28 27 0
vertex 12.5 27 0
endloop
endfacet
facet normal 0 0 -1
outer loop
vertex 28 45 0
vertex 12.5 27 0
vertex 0 27 0
endloop
endfacet
facet normal 0 0 -1
outer loop
vertex 28 45 0
vertex 0 27 0
vertex 0 45 0
endloop
endfacet
facet normal 0 0 -1
outer loop
vertex 28 27 0
vertex 28 26.913533761814534 0
vertex 13.377906449072578 26.913533761814534 0
endloop
endfacet
facet normal 0 0 -1
outer loop
vertex 28 27 0
vertex 13.377906449072578 26.913533761814534 0
vertex 12.5 27 0
endloop
endfacet
facet normal 0 0 -1
outer loop
vertex 28 26.913533761814534 0
vertex 28 26.657457896300794 0
vertex 14.222075445642904 26.65745789630079 0
endloop
endfacet
facet normal 0 0 -1
outer loop
vertex 28 26.913533761814534 0
vertex 14.222075445642904 26.65745789630079 0
vertex 13.377906449072578 26.913533761814534 0
endloop
endfacet
facet normal 0 0 -1
outer loop
vertex 28 26.657457896300794 0
vertex 28 26.24161325536144 0
vertex 15.00006604858821 26.241613255361454 0
endloop
endfacet
facet normal 0 0 -1
outer loop
vertex 28 26.657457896300794 0
vertex 15.00006604858821 26.241613255361454 0
vertex 14.222075445642904 26.65745789630079 0
endloop
endfacet
facet normal 0 0 -1
outer loop
vertex 28 26.24161325536144 0
vertex 28 25.681980515339475 0
vertex 15.681980515339463 25.681980515339465 0
endloop
endfacet
facet normal 0 0 -1
outer loop
vertex 28 26.24161325536144 0
vertex 15.681980515339463 25.681980515339465 0
vertex 15.00006604858821 26.241613255361454 0
endloop
endfacet
facet normal 0 0 -1
outer loop
vertex 28 25.681980515339475 0
vertex 28 25.00006604858821 0
vertex 16.241613255361454 25.000066048588206 0
endloop
endfacet
facet normal 0 0 -1
outer loop
vertex 28 25.681980515339475 0
vertex 16.241613255361454 25.000066048588206 0
vertex 15.681980515339463 25.681980515339465 0
endloop
endfacet
facet normal 0 0 -1
outer loop
vertex 28 25.00006604858821 0
vertex 28 24.222075445642925 0
vertex 16.65745789630079 24.2220754456429 0
endloop
endfacet
facet normal 0 0 -1
outer loop
vertex 28 25.00006604858821 0
vertex 16.65745789630079 24.2220754456429 0
vertex 16.241613255361454 25.000066048588206 0
endloop
endfacet
facet normal 0 0 -1
outer loop
vertex 28 24.222075445642925 0
vertex 28 23.377906449072558 0
vertex 16.913533761814534 23.37790644907258 0
endloop
endfacet
facet normal 0 0 -1
outer loop
vertex 28 24.222075445642925 0
vertex 16.913533761814534 23.37790644907258 0
vertex 16.65745789630079 24.2220754456429 0
endloop
endfacet
facet normal 0 0 -1
outer loop
vertex 28 23.377906449072558 0
vertex 28 22.5 0
vertex 17 22.5 0
endloop
endfacet
facet normal 0 0 -1
outer loop
vertex 28 23.377906449072558 0
vertex 17 22.5 0
vertex 16.913533761814534 23.37790644907258 0
endloop
endfacet
facet normal 0 0 -1
outer loop
vertex 28 22.5 0
vertex 28 21.62209355092741 0
vertex 16.913533761814538 21.622093550927424 0
endloop
endfacet
facet normal 0 0 -1
outer loop
vertex 28 22.5 0
vertex 16.913533761814538 21.622093550927424 0
vertex 17 22.5 0
endloop
endfacet
facet normal 0 0 -1
outer loop
vertex 28 21.62209355092741 0
vertex 28 20.77792455435712 0
vertex 16.65745789630079 20.777924554357096 0
endloop
endfacet
facet normal 0 0 -1
outer loop
vertex 28 21.62209355092741 0
vertex 16.65745789630079 20.777924554357096 0
vertex 16.913533761814538 21.622093550927424 0
endloop
endfacet
facet normal 0 0 -1
outer loop
vertex 28 20.77792455435712 0
vertex 28 19.999933951411776 0
vertex 16.241613255361454 19.99993395141179 0
endloop
endfacet
facet normal 0 0 -1
outer loop
vertex 28 20.77792455435712 0
vertex 16.241613255361454 19.99993395141179 0
vertex 16.65745789630079 20.777924554357096 0
endloop
endfacet
facet normal 0 0 -1
outer loop
vertex 28 19.999933951411776 0
vertex 28 19.31801948466054 0
vertex 15.681980515339465 19.318019484660535 0
endloop
endfacet
facet normal 0 0 -1
outer loop
vertex 28 19.999933951411776 0
vertex 15.681980515339465 19.318019484660535 0
vertex 16.241613255361454 19.99993395141179 0
endloop
endfacet
facet normal 0 0 -1
outer loop
vertex 28 19.31801948466054 0
vertex 28 18.758386744638557 0
vertex 15.00006604858821 18.758386744638546 0
endloop
endfacet
facet normal 0 0 -1
outer loop
vertex 28 19.31801948466054 0
vertex 15.00006604858821 18.758386744638546 0
vertex 15.681980515339465 19.318019484660535 0
endloop
endfacet
facet normal 0 0 -1
outer loop
vertex 28 18.758386744638557 0
vertex 28 18.342542103699206 0
vertex 14.222075445642904 18.34254210369921 0
endloop
endfacet
facet normal 0 0 -1
outer loop
vertex 28 18.758386744638557 0
vertex 14.222075445642904 18.34254210369921 0
vertex 15.00006604858821 18.758386744638546 0
endloop
endfacet
facet normal 0 0 -1
outer loop
vertex 28 18.342542103699206 0
vertex 28 18.086466238185466 0
vertex 13.377906449072578 18.086466238185462 0
endloop
endfacet
facet normal 0 0 -1
outer loop
vertex 28 18.342542103699206 0
vertex 13.377906449072578 18.086466238185462 0
vertex 14.222075445642904 18.34254210369921 0
endloop
endfacet
facet normal 0 0 -1
outer loop
vertex 28 18.086466238185466 0
vertex 28 18 0
vertex 12.5 18 0
endloop
endfacet
facet normal 0 0 -1
outer loop
vertex 28 18.086466238185466 0
vertex 12.5 18 0
vertex 13.377906449072578 18.086466238185462 0
endloop
endfacet
facet normal 0 0 -1
outer loop
vertex 12.5 18 0
vertex 28 18 0
vertex 28 0 0
endloop
endfacet
facet normal 0 0 -1
outer loop
vertex 12.5 18 0
vertex 28 0 0
vertex 0 0 0
endloop
endfacet
facet normal 0 0 -1
outer loop
vertex 12.5 18 0
vertex 0 0 0
vertex 0 18 0
endloop
endfacet
facet normal 0 0 -1
outer loop
vertex 37 45 0
vertex 37 0 0
vertex 34 0 0
endloop
endfacet
facet normal 0 0 -1
outer loop
vertex 37 45 0
vertex 34 0 0
vertex 34 45 0
endloop
endfacet
facet normal 0 0 1
outer loop
vertex 28 0 25
vertex 34 0 25
vertex 34 45 25
endloop
endfacet
facet normal 0 0 1
outer loop
vertex 28 0 25
vertex 34 45 25
vertex 28 45 25
endloop
endfacet
endsolid csg.js
