solid JSCAD
facet normal 1 0 0
outer loop
vertex 28.000116666666663 22.499959999999998 2.1738833333333334
vertex 28.000116666666663 17.999896666666665 0
vertex 28.000116666666663 18.086566666666666 0
endloop
endfacet
facet normal 1 0 0
outer loop
vertex 28.000116666666663 22.499959999999998 2.1738833333333334
vertex 28.000116666666663 18.086566666666666 0
vertex 28.000116666666663 18.34265333333333 0
endloop
endfacet
facet normal 0.9999999999999999 0 0
outer loop
vertex 28.000116666666663 22.499959999999998 2.1738833333333334
vertex 28.000116666666663 18.34265333333333 0
vertex 28.000116666666663 18.758526666666665 0
endloop
endfacet
facet normal 1 0 0
outer loop
vertex 28.000116666666663 22.499959999999998 2.1738833333333334
vertex 28.000116666666663 18.758526666666665 0
vertex 28.000116666666663 19.318136666666664 0
endloop
endfacet
facet normal 1 0 0
outer loop
vertex 28.000116666666663 22.499959999999998 2.1738833333333334
vertex 28.000116666666663 19.318136666666664 0
vertex 28.000116666666663 20.000083333333333 0
endloop
endfacet
facet normal 1 0 0
outer loop
vertex 28.000116666666663 22.499959999999998 2.1738833333333334
vertex 28.000116666666663 20.000083333333333 0
vertex 28.000116666666663 20.777973333333332 0
endloop
endfacet
facet normal 1 0 0
outer loop
vertex 28.000116666666663 22.499959999999998 2.1738833333333334
vertex 28.000116666666663 20.777973333333332 0
vertex 28.000116666666663 21.62220333333333 0
endloop
endfacet
facet normal 1 0 0
outer loop
vertex 28.000116666666663 22.499959999999998 2.1738833333333334
vertex 28.000116666666663 21.62220333333333 0
vertex 28.000116666666663 22.499959999999998 0
endloop
endfacet
facet normal 1 0 0
outer loop
vertex 28.000116666666663 22.499959999999998 2.1738833333333334
vertex 28.000116666666663 22.499959999999998 0
vertex 28.000116666666663 23.378073333333333 0
endloop
endfacet
facet normal 1 0 0
outer loop
vertex 28.000116666666663 22.499959999999998 2.1738833333333334
vertex 28.000116666666663 23.378073333333333 0
vertex 28.000116666666663 24.221946666666664 0
endloop
endfacet
facet normal 1 0 0
outer loop
vertex 28.000116666666663 22.499959999999998 2.1738833333333334
vertex 28.000116666666663 24.221946666666664 0
vertex 28.000116666666663 25.000193333333332 0
endloop
endfacet
facet normal 1 0 0
outer loop
vertex 28.000116666666663 22.499959999999998 2.1738833333333334
vertex 28.000116666666663 25.000193333333332 0
vertex 28.000116666666663 25.682139999999997 0
endloop
endfacet
facet normal 0.9999999999999999 0 0
outer loop
vertex 28.000116666666663 22.499959999999998 2.1738833333333334
vertex 28.000116666666663 25.682139999999997 0
vertex 28.000116666666663 26.24175 0
endloop
endfacet
facet normal 0.9999999999999999 0 0
outer loop
vertex 28.000116666666663 22.499959999999998 2.1738833333333334
vertex 28.000116666666663 26.24175 0
vertex 28.000116666666663 26.657623333333333 0
endloop
endfacet
facet normal 1 0 0
outer loop
vertex 28.000116666666663 22.499959999999998 2.1738833333333334
vertex 28.000116666666663 26.657623333333333 0
vertex 28.000116666666663 26.91371 0
endloop
endfacet
facet normal 1 0 0
outer loop
vertex 28.000116666666663 22.499959999999998 2.1738833333333334
vertex 28.000116666666663 26.91371 0
vertex 28.000116666666663 27.00002333333333 0
endloop
endfacet
facet normal 1 0 0
outer loop
vertex 28.000116666666663 22.499959999999998 2.1738833333333334
vertex 28.000116666666663 27.00002333333333 0
vertex 28.000116666666663 44.999919999999996 0
endloop
endfacet
facet normal 1 0 0
outer loop
vertex 28.000116666666663 22.499959999999998 2.1738833333333334
vertex 28.000116666666663 44.999919999999996 0
vertex 28.000116666666663 44.999919999999996 2.9999233333333333
endloop
endfacet
facet normal 0.9999999999999999 0 0
outer loop
vertex 28.000116666666663 22.499959999999998 2.1738833333333334
vertex 28.000116666666663 44.999919999999996 2.9999233333333333
vertex 28.000116666666663 44.999919999999996 21.999913333333332
endloop
endfacet
facet normal 1 0 0
outer loop
vertex 28.000116666666663 22.499959999999998 2.1738833333333334
vertex 28.000116666666663 44.999919999999996 21.999913333333332
vertex 28.000116666666663 0 21.999913333333332
endloop
endfacet
facet normal 0.9999999999999999 0 0
outer loop
vertex 28.000116666666663 22.499959999999998 2.1738833333333334
vertex 28.000116666666663 0 21.999913333333332
vertex 28.000116666666663 0 2.9999233333333333
endloop
endfacet
facet normal 1 0 0
outer loop
vertex 28.000116666666663 22.499959999999998 2.1738833333333334
vertex 28.000116666666663 0 2.9999233333333333
vertex 28.000116666666663 0 0
endloop
endfacet
facet normal 1 0 0
outer loop
vertex 28.000116666666663 22.499959999999998 2.1738833333333334
vertex 28.000116666666663 0 0
vertex 28.000116666666663 17.999896666666665 0
endloop
endfacet
facet normal -1 0 0
outer loop
vertex 33.99996333333333 0 21.999913333333332
vertex 33.99996333333333 44.999919999999996 21.999913333333332
vertex 33.99996333333333 44.999919999999996 0
endloop
endfacet
facet normal -1 0 0
outer loop
vertex 33.99996333333333 0 21.999913333333332
vertex 33.99996333333333 44.999919999999996 0
vertex 33.99996333333333 0 0
endloop
endfacet
facet normal 0 0 -1
outer loop
vertex 28.000116666666663 44.999919999999996 21.999913333333332
vertex 33.99996333333333 44.999919999999996 21.999913333333332
vertex 33.99996333333333 0 21.999913333333332
endloop
endfacet
facet normal 0 0 -1
outer loop
vertex 28.000116666666663 44.999919999999996 21.999913333333332
vertex 33.99996333333333 0 21.999913333333332
vertex 28.000116666666663 0 21.999913333333332
endloop
endfacet
facet normal -0.9951644325277491 -0.09822297201634324 0
outer loop
vertex 17.000159999999997 22.499959999999998 0
vertex 17.000159999999997 22.499959999999998 2.9999233333333333
vertex 16.91349 23.378073333333333 2.9999233333333333
endloop
endfacet
facet normal -0.9951644325277491 -0.09822297201634324 0
outer loop
vertex 17.000159999999997 22.499959999999998 0
vertex 16.91349 23.378073333333333 2.9999233333333333
vertex 16.91349 23.378073333333333 0
endloop
endfacet
facet normal -0.9569086764228751 -0.2903890235298524 0
outer loop
vertex 16.91349 23.378073333333333 0
vertex 16.91349 23.378073333333333 2.9999233333333333
vertex 16.65740333333333 24.221946666666664 2.9999233333333333
endloop
endfacet
facet normal -0.9569086764228751 -0.2903890235298524 0
outer loop
vertex 16.91349 23.378073333333333 0
vertex 16.65740333333333 24.221946666666664 2.9999233333333333
vertex 16.65740333333333 24.221946666666664 0
endloop
endfacet
facet normal -0.8819722259527929 -0.4713013819711073 0
outer loop
vertex 16.65740333333333 24.221946666666664 0
vertex 16.65740333333333 24.221946666666664 2.9999233333333333
vertex 16.241529999999997 25.000193333333332 2.9999233333333333
endloop
endfacet
facet normal -0.8819722259527929 -0.4713013819711073 0
outer loop
vertex 16.65740333333333 24.221946666666664 0
vertex 16.241529999999997 25.000193333333332 2.9999233333333333
vertex 16.241529999999997 25.000193333333332 0
endloop
endfacet
facet normal -0.7730377837666428 -0.6343599805072491 0
outer loop
vertex 16.241529999999997 25.000193333333332 0
vertex 16.241529999999997 25.000193333333332 2.9999233333333333
vertex 15.68192 25.682139999999997 2.9999233333333333
endloop
endfacet
facet normal -0.7730377837666428 -0.6343599805072491 0
outer loop
vertex 16.241529999999997 25.000193333333332 0
vertex 15.68192 25.682139999999997 2.9999233333333333
vertex 15.68192 25.682139999999997 0
endloop
endfacet
facet normal -0.6343599805072516 -0.7730377837666406 0
outer loop
vertex 15.68192 25.682139999999997 0
vertex 15.68192 25.682139999999997 2.9999233333333333
vertex 14.999973333333333 26.24175 2.9999233333333333
endloop
endfacet
facet normal -0.6343599805072516 -0.7730377837666406 0
outer loop
vertex 15.68192 25.682139999999997 0
vertex 14.999973333333333 26.24175 2.9999233333333333
vertex 14.999973333333333 26.24175 0
endloop
endfacet
facet normal -0.4714694505451616 -0.8818823942015418 0
outer loop
vertex 14.999973333333333 26.24175 0
vertex 14.999973333333333 26.24175 2.9999233333333333
vertex 14.222083333333332 26.657623333333333 2.9999233333333333
endloop
endfacet
facet normal -0.4714694505451616 -0.8818823942015418 0
outer loop
vertex 14.999973333333333 26.24175 0
vertex 14.222083333333332 26.657623333333333 2.9999233333333333
vertex 14.222083333333332 26.657623333333333 0
endloop
endfacet
facet normal -0.29027668050096195 -0.9569427614843754 0
outer loop
vertex 14.222083333333332 26.657623333333333 0
vertex 14.222083333333332 26.657623333333333 2.9999233333333333
vertex 13.377853333333332 26.91371 2.9999233333333333
endloop
endfacet
facet normal -0.29027668050096195 -0.9569427614843754 0
outer loop
vertex 14.222083333333332 26.657623333333333 0
vertex 13.377853333333332 26.91371 2.9999233333333333
vertex 13.377853333333332 26.91371 0
endloop
endfacet
facet normal -0.09786200670365869 -0.995199993792169 0
outer loop
vertex 13.377853333333332 26.91371 0
vertex 13.377853333333332 26.91371 2.9999233333333333
vertex 12.500096666666666 27.00002333333333 2.9999233333333333
endloop
endfacet
facet normal -0.09786200670365869 -0.995199993792169 0
outer loop
vertex 13.377853333333332 26.91371 0
vertex 12.500096666666666 27.00002333333333 2.9999233333333333
vertex 12.500096666666666 27.00002333333333 0
endloop
endfacet
facet normal -0.09826249853769185 0.9951605304578404 0
outer loop
vertex 12.500096666666666 17.999896666666665 0
vertex 12.500096666666666 17.999896666666665 2.9999233333333333
vertex 13.377853333333332 18.086566666666666 2.9999233333333333
endloop
endfacet
facet normal -0.09826249853769185 0.9951605304578404 0
outer loop
vertex 12.500096666666666 17.999896666666665 0
vertex 13.377853333333332 18.086566666666666 2.9999233333333333
vertex 13.377853333333332 18.086566666666666 0
endloop
endfacet
facet normal -0.29027668050096195 0.9569427614843754 0
outer loop
vertex 13.377853333333332 18.086566666666666 0
vertex 13.377853333333332 18.086566666666666 2.9999233333333333
vertex 14.222083333333332 18.34265333333333 2.9999233333333333
endloop
endfacet
facet normal -0.29027668050096195 0.9569427614843754 0
outer loop
vertex 13.377853333333332 18.086566666666666 0
vertex 14.222083333333332 18.34265333333333 2.9999233333333333
vertex 14.222083333333332 18.34265333333333 0
endloop
endfacet
facet normal -0.4714694505451616 0.8818823942015418 0
outer loop
vertex 14.222083333333332 18.34265333333333 0
vertex 14.222083333333332 18.34265333333333 2.9999233333333333
vertex 14.999973333333333 18.758526666666665 2.9999233333333333
endloop
endfacet
facet normal -0.4714694505451616 0.8818823942015418 0
outer loop
vertex 14.222083333333332 18.34265333333333 0
vertex 14.999973333333333 18.758526666666665 2.9999233333333333
vertex 14.999973333333333 18.758526666666665 0
endloop
endfacet
facet normal -0.6343599805072492 0.7730377837666425 0
outer loop
vertex 14.999973333333333 18.758526666666665 0
vertex 14.999973333333333 18.758526666666665 2.9999233333333333
vertex 15.68192 19.318136666666664 2.9999233333333333
endloop
endfacet
facet normal -0.6343599805072492 0.7730377837666425 0
outer loop
vertex 14.999973333333333 18.758526666666665 0
vertex 15.68192 19.318136666666664 2.9999233333333333
vertex 15.68192 19.318136666666664 0
endloop
endfacet
facet normal -0.7730377837666443 0.6343599805072471 0
outer loop
vertex 15.68192 19.318136666666664 0
vertex 15.68192 19.318136666666664 2.9999233333333333
vertex 16.241529999999997 20.000083333333333 2.9999233333333333
endloop
endfacet
facet normal -0.7730377837666443 0.6343599805072471 0
outer loop
vertex 15.68192 19.318136666666664 0
vertex 16.241529999999997 20.000083333333333 2.9999233333333333
vertex 16.241529999999997 20.000083333333333 0
endloop
endfacet
facet normal -0.8818823942015414 0.4714694505451624 0
outer loop
vertex 16.241529999999997 20.000083333333333 0
vertex 16.241529999999997 20.000083333333333 2.9999233333333333
vertex 16.65740333333333 20.777973333333332 2.9999233333333333
endloop
endfacet
facet normal -0.8818823942015414 0.4714694505451624 0
outer loop
vertex 16.241529999999997 20.000083333333333 0
vertex 16.65740333333333 20.777973333333332 2.9999233333333333
vertex 16.65740333333333 20.777973333333332 0
endloop
endfacet
facet normal -0.9569427614843743 0.2902766805009656 0
outer loop
vertex 16.65740333333333 20.777973333333332 0
vertex 16.65740333333333 20.777973333333332 2.9999233333333333
vertex 16.91349 21.62220333333333 2.9999233333333333
endloop
endfacet
facet normal -0.9569427614843743 0.2902766805009656 0
outer loop
vertex 16.65740333333333 20.777973333333332 0
vertex 16.91349 21.62220333333333 2.9999233333333333
vertex 16.91349 21.62220333333333 0
endloop
endfacet
facet normal -0.9951605304578407 0.09826249853768786 0
outer loop
vertex 16.91349 21.62220333333333 0
vertex 16.91349 21.62220333333333 2.9999233333333333
vertex 17.000159999999997 22.499959999999998 2.9999233333333333
endloop
endfacet
facet normal -0.9951605304578407 0.09826249853768786 0
outer loop
vertex 16.91349 21.62220333333333 0
vertex 17.000159999999997 22.499959999999998 2.9999233333333333
vertex 17.000159999999997 22.499959999999998 0
endloop
endfacet
facet normal -0.9999999999999999 0 0
outer loop
vertex 24.999836666666663 22.499959999999998 4.809293333333333
vertex 24.999836666666663 44.999919999999996 21.999913333333332
vertex 24.999836666666663 44.999919999999996 2.9999233333333333
endloop
endfacet
facet normal -1 0 0
outer loop
vertex 24.999836666666663 22.499959999999998 4.809293333333333
vertex 24.999836666666663 44.999919999999996 2.9999233333333333
vertex 24.999836666666663 27.00002333333333 2.9999233333333333
endloop
endfacet
facet normal -1 0 0
outer loop
vertex 24.999836666666663 22.499959999999998 4.809293333333333
vertex 24.999836666666663 27.00002333333333 2.9999233333333333
vertex 24.999836666666663 26.91371 2.9999233333333333
endloop
endfacet
facet normal -1 0 0
outer loop
vertex 24.999836666666663 22.499959999999998 4.809293333333333
vertex 24.999836666666663 26.91371 2.9999233333333333
vertex 24.999836666666663 26.657623333333333 2.9999233333333333
endloop
endfacet
facet normal -1 0 0
outer loop
vertex 24.999836666666663 22.499959999999998 4.809293333333333
vertex 24.999836666666663 26.657623333333333 2.9999233333333333
vertex 24.999836666666663 26.24175 2.9999233333333333
endloop
endfacet
facet normal -1 0 0
outer loop
vertex 24.999836666666663 22.499959999999998 4.809293333333333
vertex 24.999836666666663 26.24175 2.9999233333333333
vertex 24.999836666666663 25.682139999999997 2.9999233333333333
endloop
endfacet
facet normal -1 0 0
outer loop
vertex 24.999836666666663 22.499959999999998 4.809293333333333
vertex 24.999836666666663 25.682139999999997 2.9999233333333333
vertex 24.999836666666663 25.000193333333332 2.9999233333333333
endloop
endfacet
facet normal -1 0 0
outer loop
vertex 24.999836666666663 22.499959999999998 4.809293333333333
vertex 24.999836666666663 25.000193333333332 2.9999233333333333
vertex 24.999836666666663 24.221946666666664 2.9999233333333333
endloop
endfacet
facet normal -1 0 0
outer loop
vertex 24.999836666666663 22.499959999999998 4.809293333333333
vertex 24.999836666666663 24.221946666666664 2.9999233333333333
vertex 24.999836666666663 23.378073333333333 2.9999233333333333
endloop
endfacet
facet normal -1 0 0
outer loop
vertex 24.999836666666663 22.499959999999998 4.809293333333333
vertex 24.999836666666663 23.378073333333333 2.9999233333333333
vertex 24.999836666666663 22.499959999999998 2.9999233333333333
endloop
endfacet
facet normal -0.9999999999999999 0 0
outer loop
vertex 24.999836666666663 22.499959999999998 4.809293333333333
vertex 24.999836666666663 22.499959999999998 2.9999233333333333
vertex 24.999836666666663 21.62220333333333 2.9999233333333333
endloop
endfacet
facet normal -0.9999999999999999 0 0
outer loop
vertex 24.999836666666663 22.499959999999998 4.809293333333333
vertex 24.999836666666663 21.62220333333333 2.9999233333333333
vertex 24.999836666666663 20.777973333333332 2.9999233333333333
endloop
endfacet
facet normal -1 0 0
outer loop
vertex 24.999836666666663 22.499959999999998 4.809293333333333
vertex 24.999836666666663 20.777973333333332 2.9999233333333333
vertex 24.999836666666663 20.000083333333333 2.9999233333333333
endloop
endfacet
facet normal -1 0 0
outer loop
vertex 24.999836666666663 22.499959999999998 4.809293333333333
vertex 24.999836666666663 20.000083333333333 2.9999233333333333
vertex 24.999836666666663 19.318136666666664 2.9999233333333333
endloop
endfacet
facet normal -1 0 0
outer loop
vertex 24.999836666666663 22.499959999999998 4.809293333333333
vertex 24.999836666666663 19.318136666666664 2.9999233333333333
vertex 24.999836666666663 18.758526666666665 2.9999233333333333
endloop
endfacet
facet normal -1 0 0
outer loop
vertex 24.999836666666663 22.499959999999998 4.809293333333333
vertex 24.999836666666663 18.758526666666665 2.9999233333333333
vertex 24.999836666666663 18.34265333333333 2.9999233333333333
endloop
endfacet
facet normal -1 0 0
outer loop
vertex 24.999836666666663 22.499959999999998 4.809293333333333
vertex 24.999836666666663 18.34265333333333 2.9999233333333333
vertex 24.999836666666663 18.086566666666666 2.9999233333333333
endloop
endfacet
facet normal -1 0 0
outer loop
vertex 24.999836666666663 22.499959999999998 4.809293333333333
vertex 24.999836666666663 18.086566666666666 2.9999233333333333
vertex 24.999836666666663 17.999896666666665 2.9999233333333333
endloop
endfacet
facet normal -1 0 0
outer loop
vertex 24.999836666666663 22.499959999999998 4.809293333333333
vertex 24.999836666666663 17.999896666666665 2.9999233333333333
vertex 24.999836666666663 0 2.9999233333333333
endloop
endfacet
facet normal -0.9999999999999999 0 0
outer loop
vertex 24.999836666666663 22.499959999999998 4.809293333333333
vertex 24.999836666666663 0 2.9999233333333333
vertex 24.999836666666663 0 21.999913333333332
endloop
endfacet
facet normal -0.9999999999999999 0 0
outer loop
vertex 24.999836666666663 22.499959999999998 4.809293333333333
vertex 24.999836666666663 0 21.999913333333332
vertex 24.999836666666663 44.999919999999996 21.999913333333332
endloop
endfacet
facet normal 0 0 1
outer loop
vertex 0 44.999919999999996 4.000016666666666
vertex 0 27.00002333333333 4.000016666666666
vertex 0.5000466666666666 27.00002333333333 4.000016666666666
endloop
endfacet
facet normal 0 0 1
outer loop
vertex 0 44.999919999999996 4.000016666666666
vertex 0.5000466666666666 27.00002333333333 4.000016666666666
vertex 0.5000466666666666 44.999919999999996 4.000016666666666
endloop
endfacet
facet normal 0 0 1
outer loop
vertex 0 17.999896666666665 4.000016666666666
vertex 0 0 4.000016666666666
vertex 0.5000466666666666 0 4.000016666666666
endloop
endfacet
facet normal 0 0 1
outer loop
vertex 0 17.999896666666665 4.000016666666666
vertex 0.5000466666666666 0 4.000016666666666
vertex 0.5000466666666666 17.999896666666665 4.000016666666666
endloop
endfacet
facet normal 0 0.9999999999999999 0
outer loop
vertex 0.5000466666666666 17.999896666666665 4.000016666666666
vertex 0.5193066666666666 17.999896666666665 3.8049199999999996
vertex 0 17.999896666666665 3.8049199999999996
endloop
endfacet
facet normal 0 1 0
outer loop
vertex 0.5000466666666666 17.999896666666665 4.000016666666666
vertex 0 17.999896666666665 3.8049199999999996
vertex 0 17.999896666666665 4.000016666666666
endloop
endfacet
facet normal 0 0.9999999999999999 0
outer loop
vertex 0.5193066666666666 17.999896666666665 3.8049199999999996
vertex 0.5760166666666666 17.999896666666665 3.617313333333333
vertex 0 17.999896666666665 3.617313333333333
endloop
endfacet
facet normal 0 1 0
outer loop
vertex 0.5193066666666666 17.999896666666665 3.8049199999999996
vertex 0 17.999896666666665 3.617313333333333
vertex 0 17.999896666666665 3.8049199999999996
endloop
endfacet
facet normal 0 1 0
outer loop
vertex 0.5760166666666666 17.999896666666665 3.617313333333333
vertex 0.6683933333333333 17.999896666666665 3.44433
vertex 0 17.999896666666665 3.44433
endloop
endfacet
facet normal 0 1 0
outer loop
vertex 0.5760166666666666 17.999896666666665 3.617313333333333
vertex 0 17.999896666666665 3.44433
vertex 0 17.999896666666665 3.617313333333333
endloop
endfacet
facet normal 0 0.9999999999999999 0
outer loop
vertex 0.6683933333333333 17.999896666666665 3.44433
vertex 0.79287 17.999896666666665 3.2927466666666665
vertex 0 17.999896666666665 3.2927466666666665
endloop
endfacet
facet normal 0 1 0
outer loop
vertex 0.6683933333333333 17.999896666666665 3.44433
vertex 0 17.999896666666665 3.2927466666666665
vertex 0 17.999896666666665 3.44433
endloop
endfacet
facet normal 0 1 0
outer loop
vertex 0.4786466666666666 17.999896666666665 3.1743333333333332
vertex 0.79287 17.999896666666665 3.2927466666666665
vertex 0.8000033333333333 17.999896666666665 3.2870399999999997
endloop
endfacet
facet normal 0 1 0
outer loop
vertex 0.4786466666666666 17.999896666666665 3.1743333333333332
vertex 0.8000033333333333 17.999896666666665 3.2870399999999997
vertex 0.8000033333333333 17.999896666666665 2.9999233333333333
endloop
endfacet
facet normal 0 1 0
outer loop
vertex 0.4786466666666666 17.999896666666665 3.1743333333333332
vertex 0.8000033333333333 17.999896666666665 2.9999233333333333
vertex 0 17.999896666666665 2.9999233333333333
endloop
endfacet
facet normal 0 1 0
outer loop
vertex 0.4786466666666666 17.999896666666665 3.1743333333333332
vertex 0 17.999896666666665 2.9999233333333333
vertex 0 17.999896666666665 3.2927466666666665
endloop
endfacet
facet normal 0 1 0
outer loop
vertex 0.4786466666666666 17.999896666666665 3.1743333333333332
vertex 0 17.999896666666665 3.2927466666666665
vertex 0.79287 17.999896666666665 3.2927466666666665
endloop
endfacet
facet normal 0 1 0
outer loop
vertex 5.159896666666667 17.999896666666665 1.8000966666666665
vertex 0.8000033333333333 17.999896666666665 2.9999233333333333
vertex 12.500096666666666 17.999896666666665 2.9999233333333333
endloop
endfacet
facet normal 0 0.9999999999999999 0
outer loop
vertex 5.159896666666667 17.999896666666665 1.8000966666666665
vertex 12.500096666666666 17.999896666666665 2.9999233333333333
vertex 12.500096666666666 17.999896666666665 0
endloop
endfacet
facet normal 0 1 0
outer loop
vertex 5.159896666666667 17.999896666666665 1.8000966666666665
vertex 12.500096666666666 17.999896666666665 0
vertex 0 17.999896666666665 0
endloop
endfacet
facet normal 0 1 0
outer loop
vertex 5.159896666666667 17.999896666666665 1.8000966666666665
vertex 0 17.999896666666665 0
vertex 0 17.999896666666665 2.9999233333333333
endloop
endfacet
facet normal 0 1 0
outer loop
vertex 5.159896666666667 17.999896666666665 1.8000966666666665
vertex 0 17.999896666666665 2.9999233333333333
vertex 0.8000033333333333 17.999896666666665 2.9999233333333333
endloop
endfacet
facet normal 0 -0.9999999999999999 0
outer loop
vertex 0 27.00002333333333 4.000016666666666
vertex 0 27.00002333333333 3.8049199999999996
vertex 0.5193066666666666 27.00002333333333 3.8049199999999996
endloop
endfacet
facet normal 0 -1 0
outer loop
vertex 0 27.00002333333333 4.000016666666666
vertex 0.5193066666666666 27.00002333333333 3.8049199999999996
vertex 0.5000466666666666 27.00002333333333 4.000016666666666
endloop
endfacet
facet normal 0 -0.9999999999999999 0
outer loop
vertex 0 27.00002333333333 3.8049199999999996
vertex 0 27.00002333333333 3.617313333333333
vertex 0.5760166666666666 27.00002333333333 3.617313333333333
endloop
endfacet
facet normal 0 -1 0
outer loop
vertex 0 27.00002333333333 3.8049199999999996
vertex 0.5760166666666666 27.00002333333333 3.617313333333333
vertex 0.5193066666666666 27.00002333333333 3.8049199999999996
endloop
endfacet
facet normal 0 -1 0
outer loop
vertex 0 27.00002333333333 3.617313333333333
vertex 0 27.00002333333333 3.44433
vertex 0.6683933333333333 27.00002333333333 3.44433
endloop
endfacet
facet normal 0 -1 0
outer loop
vertex 0 27.00002333333333 3.617313333333333
vertex 0.6683933333333333 27.00002333333333 3.44433
vertex 0.5760166666666666 27.00002333333333 3.617313333333333
endloop
endfacet
facet normal 0 -0.9999999999999999 0
outer loop
vertex 0 27.00002333333333 3.44433
vertex 0 27.00002333333333 3.2927466666666665
vertex 0.79287 27.00002333333333 3.2927466666666665
endloop
endfacet
facet normal 0 -1 0
outer loop
vertex 0 27.00002333333333 3.44433
vertex 0.79287 27.00002333333333 3.2927466666666665
vertex 0.6683933333333333 27.00002333333333 3.44433
endloop
endfacet
facet normal 0 -1 0
outer loop
vertex 0.4786466666666666 27.00002333333333 3.1743333333333332
vertex 0 27.00002333333333 3.2927466666666665
vertex 0 27.00002333333333 2.9999233333333333
endloop
endfacet
facet normal 0 -1 0
outer loop
vertex 0.4786466666666666 27.00002333333333 3.1743333333333332
vertex 0 27.00002333333333 2.9999233333333333
vertex 0.8000033333333333 27.00002333333333 2.9999233333333333
endloop
endfacet
facet normal 0 -1 0
outer loop
vertex 0.4786466666666666 27.00002333333333 3.1743333333333332
vertex 0.8000033333333333 27.00002333333333 2.9999233333333333
vertex 0.8000033333333333 27.00002333333333 3.2870399999999997
endloop
endfacet
facet normal 0 -1 0
outer loop
vertex 0.4786466666666666 27.00002333333333 3.1743333333333332
vertex 0.8000033333333333 27.00002333333333 3.2870399999999997
vertex 0.79287 27.00002333333333 3.2927466666666665
endloop
endfacet
facet normal 0 -1 0
outer loop
vertex 0.4786466666666666 27.00002333333333 3.1743333333333332
vertex 0.79287 27.00002333333333 3.2927466666666665
vertex 0 27.00002333333333 3.2927466666666665
endloop
endfacet
facet normal 0 -1 0
outer loop
vertex 5.159896666666667 27.00002333333333 1.8000966666666665
vertex 0.8000033333333333 27.00002333333333 2.9999233333333333
vertex 0 27.00002333333333 2.9999233333333333
endloop
endfacet
facet normal 0 -1 0
outer loop
vertex 5.159896666666667 27.00002333333333 1.8000966666666665
vertex 0 27.00002333333333 2.9999233333333333
vertex 0 27.00002333333333 0
endloop
endfacet
facet normal 0 -1 0
outer loop
vertex 5.159896666666667 27.00002333333333 1.8000966666666665
vertex 0 27.00002333333333 0
vertex 12.500096666666666 27.00002333333333 0
endloop
endfacet
facet normal 0 -0.9999999999999999 0
outer loop
vertex 5.159896666666667 27.00002333333333 1.8000966666666665
vertex 12.500096666666666 27.00002333333333 0
vertex 12.500096666666666 27.00002333333333 2.9999233333333333
endloop
endfacet
facet normal 0 -1 0
outer loop
vertex 5.159896666666667 27.00002333333333 1.8000966666666665
vertex 12.500096666666666 27.00002333333333 2.9999233333333333
vertex 0.8000033333333333 27.00002333333333 2.9999233333333333
endloop
endfacet
facet normal -0.995162482081522 0 0.09824273132066384
outer loop
vertex 25.057616666666664 0 22.585203333333332
vertex 25.057616666666664 44.999919999999996 22.585203333333332
vertex 24.999836666666663 44.999919999999996 21.999913333333332
endloop
endfacet
facet normal -0.995162482081522 0 0.09824273132066384
outer loop
vertex 25.057616666666664 0 22.585203333333332
vertex 24.999836666666663 44.999919999999996 21.999913333333332
vertex 24.999836666666663 0 21.999913333333332
endloop
endfacet
facet normal -0.9568865960952454 0 0.2904617740998892
outer loop
vertex 25.22846 0 23.14802333333333
vertex 25.22846 44.999919999999996 23.14802333333333
vertex 25.057616666666664 44.999919999999996 22.585203333333332
endloop
endfacet
facet normal -0.9568865960952454 0 0.2904617740998892
outer loop
vertex 25.22846 0 23.14802333333333
vertex 25.057616666666664 44.999919999999996 22.585203333333332
vertex 25.057616666666664 0 22.585203333333332
endloop
endfacet
facet normal -0.8819664481659006 0 0.4713121941024081
outer loop
vertex 25.505589999999998 0 23.666616666666666
vertex 25.505589999999998 44.999919999999996 23.666616666666666
vertex 25.22846 44.999919999999996 23.14802333333333
endloop
endfacet
facet normal -0.8819664481659006 0 0.4713121941024081
outer loop
vertex 25.505589999999998 0 23.666616666666666
vertex 25.22846 44.999919999999996 23.14802333333333
vertex 25.22846 0 23.14802333333333
endloop
endfacet
facet normal -0.7731191141079936 0 0.6342608575348718
outer loop
vertex 25.878663333333332 0 24.121366666666667
vertex 25.878663333333332 44.999919999999996 24.121366666666667
vertex 25.505589999999998 44.999919999999996 23.666616666666666
endloop
endfacet
facet normal -0.7731191141079936 0 0.6342608575348718
outer loop
vertex 25.878663333333332 0 24.121366666666667
vertex 25.505589999999998 44.999919999999996 23.666616666666666
vertex 25.505589999999998 0 23.666616666666666
endloop
endfacet
facet normal -0.6342608575348683 0 0.7731191141079965
outer loop
vertex 26.333413333333333 0 24.494439999999997
vertex 26.333413333333333 44.999919999999996 24.494439999999997
vertex 25.878663333333332 44.999919999999996 24.121366666666667
endloop
endfacet
facet normal -0.6342608575348683 0 0.7731191141079965
outer loop
vertex 26.333413333333333 0 24.494439999999997
vertex 25.878663333333332 44.999919999999996 24.121366666666667
vertex 25.878663333333332 0 24.121366666666667
endloop
endfacet
facet normal -0.4713121941024106 0 0.8819664481658992
outer loop
vertex 26.852006666666664 0 24.771569999999997
vertex 26.852006666666664 44.999919999999996 24.771569999999997
vertex 26.333413333333333 44.999919999999996 24.494439999999997
endloop
endfacet
facet normal -0.4713121941024106 0 0.8819664481658992
outer loop
vertex 26.852006666666664 0 24.771569999999997
vertex 26.333413333333333 44.999919999999996 24.494439999999997
vertex 26.333413333333333 0 24.494439999999997
endloop
endfacet
facet normal -0.2904617740998875 0 0.9568865960952456
outer loop
vertex 27.414826666666666 0 24.94241333333333
vertex 27.414826666666666 44.999919999999996 24.94241333333333
vertex 26.852006666666664 44.999919999999996 24.771569999999997
endloop
endfacet
facet normal -0.2904617740998875 0 0.9568865960952456
outer loop
vertex 27.414826666666666 0 24.94241333333333
vertex 26.852006666666664 44.999919999999996 24.771569999999997
vertex 26.852006666666664 0 24.771569999999997
endloop
endfacet
facet normal -0.09764209424475531 0 0.995221594134441
outer loop
vertex 28.000116666666663 0 24.999836666666663
vertex 28.000116666666663 44.999919999999996 24.999836666666663
vertex 27.414826666666666 44.999919999999996 24.94241333333333
endloop
endfacet
facet normal -0.09764209424475531 0 0.995221594134441
outer loop
vertex 28.000116666666663 0 24.999836666666663
vertex 27.414826666666666 44.999919999999996 24.94241333333333
vertex 27.414826666666666 0 24.94241333333333
endloop
endfacet
facet normal 0.09764209424475474 0 0.9952215941344412
outer loop
vertex 34.585253333333334 0 24.94241333333333
vertex 34.585253333333334 44.999919999999996 24.94241333333333
vertex 33.99996333333333 44.999919999999996 24.999836666666663
endloop
endfacet
facet normal 0.09764209424475474 0 0.9952215941344412
outer loop
vertex 34.585253333333334 0 24.94241333333333
vertex 33.99996333333333 44.999919999999996 24.999836666666663
vertex 33.99996333333333 0 24.999836666666663
endloop
endfacet
facet normal 0.2904617740998909 0 0.9568865960952447
outer loop
vertex 35.14807333333333 0 24.771569999999997
vertex 35.14807333333333 44.999919999999996 24.771569999999997
vertex 34.585253333333334 44.999919999999996 24.94241333333333
endloop
endfacet
facet normal 0.2904617740998909 0 0.9568865960952447
outer loop
vertex 35.14807333333333 0 24.771569999999997
vertex 34.585253333333334 44.999919999999996 24.94241333333333
vertex 34.585253333333334 0 24.94241333333333
endloop
endfacet
facet normal 0.4713121941024081 0 0.8819664481659006
outer loop
vertex 35.666666666666664 0 24.494439999999997
vertex 35.666666666666664 44.999919999999996 24.494439999999997
vertex 35.14807333333333 44.999919999999996 24.771569999999997
endloop
endfacet
facet normal 0.4713121941024081 0 0.8819664481659006
outer loop
vertex 35.666666666666664 0 24.494439999999997
vertex 35.14807333333333 44.999919999999996 24.771569999999997
vertex 35.14807333333333 0 24.771569999999997
endloop
endfacet
facet normal 0.6342608575348712 0 0.773119114107994
outer loop
vertex 36.12141666666666 0 24.121366666666667
vertex 36.12141666666666 44.999919999999996 24.121366666666667
vertex 35.666666666666664 44.999919999999996 24.494439999999997
endloop
endfacet
facet normal 0.6342608575348712 0 0.773119114107994
outer loop
vertex 36.12141666666666 0 24.121366666666667
vertex 35.666666666666664 44.999919999999996 24.494439999999997
vertex 35.666666666666664 0 24.494439999999997
endloop
endfacet
facet normal 0.7731191141079907 0 0.6342608575348756
outer loop
vertex 36.49449 0 23.666616666666666
vertex 36.49449 44.999919999999996 23.666616666666666
vertex 36.12141666666666 44.999919999999996 24.121366666666667
endloop
endfacet
facet normal 0.7731191141079907 0 0.6342608575348756
outer loop
vertex 36.49449 0 23.666616666666666
vertex 36.12141666666666 44.999919999999996 24.121366666666667
vertex 36.12141666666666 0 24.121366666666667
endloop
endfacet
facet normal 0.8819664481659006 0 0.4713121941024081
outer loop
vertex 36.77162 0 23.14802333333333
vertex 36.77162 44.999919999999996 23.14802333333333
vertex 36.49449 44.999919999999996 23.666616666666666
endloop
endfacet
facet normal 0.8819664481659006 0 0.4713121941024081
outer loop
vertex 36.77162 0 23.14802333333333
vertex 36.49449 44.999919999999996 23.666616666666666
vertex 36.49449 0 23.666616666666666
endloop
endfacet
facet normal 0.956886596095247 0 0.29046177409988366
outer loop
vertex 36.94246333333333 0 22.585203333333332
vertex 36.94246333333333 44.999919999999996 22.585203333333332
vertex 36.77162 44.999919999999996 23.14802333333333
endloop
endfacet
facet normal 0.956886596095247 0 0.29046177409988366
outer loop
vertex 36.94246333333333 0 22.585203333333332
vertex 36.77162 44.999919999999996 23.14802333333333
vertex 36.77162 0 23.14802333333333
endloop
endfacet
facet normal 0.9952215941344412 0 0.09764209424475474
outer loop
vertex 36.99988666666666 0 21.999913333333332
vertex 36.99988666666666 44.999919999999996 21.999913333333332
vertex 36.94246333333333 44.999919999999996 22.585203333333332
endloop
endfacet
facet normal 0.9952215941344412 0 0.09764209424475474
outer loop
vertex 36.99988666666666 0 21.999913333333332
vertex 36.94246333333333 44.999919999999996 22.585203333333332
vertex 36.94246333333333 0 22.585203333333332
endloop
endfacet
facet normal 0.7728218054736045 0 0.6346230826124419
outer loop
vertex 0.6683933333333333 44.999919999999996 3.44433
vertex 0.6683933333333333 27.00002333333333 3.44433
vertex 0.79287 27.00002333333333 3.2927466666666665
endloop
endfacet
facet normal 0.7728218054736045 0 0.6346230826124419
outer loop
vertex 0.6683933333333333 44.999919999999996 3.44433
vertex 0.79287 27.00002333333333 3.2927466666666665
vertex 0.79287 44.999919999999996 3.2927466666666665
endloop
endfacet
facet normal 0.7728218054736045 0 0.6346230826124419
outer loop
vertex 0.6683933333333333 17.999896666666665 3.44433
vertex 0.6683933333333333 0 3.44433
vertex 0.79287 0 3.2927466666666665
endloop
endfacet
facet normal 0.7728218054736045 0 0.6346230826124419
outer loop
vertex 0.6683933333333333 17.999896666666665 3.44433
vertex 0.79287 0 3.2927466666666665
vertex 0.79287 17.999896666666665 3.2927466666666665
endloop
endfacet
facet normal 0.8821010827369277 0 0.47106016583270993
outer loop
vertex 0.5760166666666666 44.999919999999996 3.617313333333333
vertex 0.5760166666666666 27.00002333333333 3.617313333333333
vertex 0.6683933333333333 27.00002333333333 3.44433
endloop
endfacet
facet normal 0.8821010827369277 0 0.47106016583270993
outer loop
vertex 0.5760166666666666 44.999919999999996 3.617313333333333
vertex 0.6683933333333333 27.00002333333333 3.44433
vertex 0.6683933333333333 44.999919999999996 3.44433
endloop
endfacet
facet normal 0.8821010827369277 0 0.47106016583270993
outer loop
vertex 0.5760166666666666 17.999896666666665 3.617313333333333
vertex 0.5760166666666666 0 3.617313333333333
vertex 0.6683933333333333 0 3.44433
endloop
endfacet
facet normal 0.8821010827369277 0 0.47106016583270993
outer loop
vertex 0.5760166666666666 17.999896666666665 3.617313333333333
vertex 0.6683933333333333 0 3.44433
vertex 0.6683933333333333 17.999896666666665 3.44433
endloop
endfacet
facet normal 0.9572231498067117 0 0.2893507239910027
outer loop
vertex 0.5193066666666666 44.999919999999996 3.8049199999999996
vertex 0.5193066666666666 27.00002333333333 3.8049199999999996
vertex 0.5760166666666666 27.00002333333333 3.617313333333333
endloop
endfacet
facet normal 0.9572231498067117 0 0.2893507239910027
outer loop
vertex 0.5193066666666666 44.999919999999996 3.8049199999999996
vertex 0.5760166666666666 27.00002333333333 3.617313333333333
vertex 0.5760166666666666 44.999919999999996 3.617313333333333
endloop
endfacet
facet normal 0.9572231498067117 0 0.2893507239910027
outer loop
vertex 0.5193066666666666 17.999896666666665 3.8049199999999996
vertex 0.5193066666666666 0 3.8049199999999996
vertex 0.5760166666666666 0 3.617313333333333
endloop
endfacet
facet normal 0.9572231498067117 0 0.2893507239910027
outer loop
vertex 0.5193066666666666 17.999896666666665 3.8049199999999996
vertex 0.5760166666666666 0 3.617313333333333
vertex 0.5760166666666666 17.999896666666665 3.617313333333333
endloop
endfacet
facet normal 0.9951624820815222 0 0.09824273132066186
outer loop
vertex 0.5000466666666666 44.999919999999996 4.000016666666666
vertex 0.5000466666666666 27.00002333333333 4.000016666666666
vertex 0.5193066666666666 27.00002333333333 3.8049199999999996
endloop
endfacet
facet normal 0.9951624820815222 0 0.09824273132066186
outer loop
vertex 0.5000466666666666 44.999919999999996 4.000016666666666
vertex 0.5193066666666666 27.00002333333333 3.8049199999999996
vertex 0.5193066666666666 44.999919999999996 3.8049199999999996
endloop
endfacet
facet normal 0.9951624820815222 0 0.09824273132066186
outer loop
vertex 0.5000466666666666 17.999896666666665 4.000016666666666
vertex 0.5000466666666666 0 4.000016666666666
vertex 0.5193066666666666 0 3.8049199999999996
endloop
endfacet
facet normal 0.9951624820815222 0 0.09824273132066186
outer loop
vertex 0.5000466666666666 17.999896666666665 4.000016666666666
vertex 0.5193066666666666 0 3.8049199999999996
vertex 0.5193066666666666 17.999896666666665 3.8049199999999996
endloop
endfacet
facet normal 0.6246950475544302 0 0.7808688094430255
outer loop
vertex 0.79287 44.999919999999996 3.2927466666666665
vertex 0.79287 27.00002333333333 3.2927466666666665
vertex 0.8000033333333333 27.00002333333333 3.2870399999999997
endloop
endfacet
facet normal 0.6246950475544302 0 0.7808688094430255
outer loop
vertex 0.79287 44.999919999999996 3.2927466666666665
vertex 0.8000033333333333 27.00002333333333 3.2870399999999997
vertex 0.8000033333333333 44.999919999999996 3.2870399999999997
endloop
endfacet
facet normal 0.6246950475544302 0 0.7808688094430255
outer loop
vertex 0.79287 17.999896666666665 3.2927466666666665
vertex 0.79287 0 3.2927466666666665
vertex 0.8000033333333333 0 3.2870399999999997
endloop
endfacet
facet normal 0.6246950475544302 0 0.7808688094430255
outer loop
vertex 0.79287 17.999896666666665 3.2927466666666665
vertex 0.8000033333333333 0 3.2870399999999997
vertex 0.8000033333333333 17.999896666666665 3.2870399999999997
endloop
endfacet
facet normal 0 0 1
outer loop
vertex 12.820026666666665 34.20005333333333 2.9999233333333333
vertex 0.8000033333333333 44.999919999999996 2.9999233333333333
vertex 0.8000033333333333 27.00002333333333 2.9999233333333333
endloop
endfacet
facet normal 0 0 1
outer loop
vertex 12.820026666666665 34.20005333333333 2.9999233333333333
vertex 0.8000033333333333 27.00002333333333 2.9999233333333333
vertex 12.500096666666666 27.00002333333333 2.9999233333333333
endloop
endfacet
facet normal 0 0 1
outer loop
vertex 12.820026666666665 34.20005333333333 2.9999233333333333
vertex 12.500096666666666 27.00002333333333 2.9999233333333333
vertex 24.999836666666663 27.00002333333333 2.9999233333333333
endloop
endfacet
facet normal 0 0 1
outer loop
vertex 12.820026666666665 34.20005333333333 2.9999233333333333
vertex 24.999836666666663 27.00002333333333 2.9999233333333333
vertex 24.999836666666663 44.999919999999996 2.9999233333333333
endloop
endfacet
facet normal 0 0 1
outer loop
vertex 12.820026666666665 34.20005333333333 2.9999233333333333
vertex 24.999836666666663 44.999919999999996 2.9999233333333333
vertex 0.8000033333333333 44.999919999999996 2.9999233333333333
endloop
endfacet
facet normal 0 0 1
outer loop
vertex 12.500096666666666 27.00002333333333 2.9999233333333333
vertex 13.377853333333332 26.91371 2.9999233333333333
vertex 24.999836666666663 26.91371 2.9999233333333333
endloop
endfacet
facet normal 0 0 1
outer loop
vertex 12.500096666666666 27.00002333333333 2.9999233333333333
vertex 24.999836666666663 26.91371 2.9999233333333333
vertex 24.999836666666663 27.00002333333333 2.9999233333333333
endloop
endfacet
facet normal 0 0 1
outer loop
vertex 13.377853333333332 26.91371 2.9999233333333333
vertex 14.222083333333332 26.657623333333333 2.9999233333333333
vertex 24.999836666666663 26.657623333333333 2.9999233333333333
endloop
endfacet
facet normal 0 0 0.9999999999999999
outer loop
vertex 13.377853333333332 26.91371 2.9999233333333333
vertex 24.999836666666663 26.657623333333333 2.9999233333333333
vertex 24.999836666666663 26.91371 2.9999233333333333
endloop
endfacet
facet normal 0 0 1
outer loop
vertex 14.222083333333332 26.657623333333333 2.9999233333333333
vertex 14.999973333333333 26.24175 2.9999233333333333
vertex 24.999836666666663 26.24175 2.9999233333333333
endloop
endfacet
facet normal 0 0 1
outer loop
vertex 14.222083333333332 26.657623333333333 2.9999233333333333
vertex 24.999836666666663 26.24175 2.9999233333333333
vertex 24.999836666666663 26.657623333333333 2.9999233333333333
endloop
endfacet
facet normal 0 0 0.9999999999999999
outer loop
vertex 14.999973333333333 26.24175 2.9999233333333333
vertex 15.68192 25.682139999999997 2.9999233333333333
vertex 24.999836666666663 25.682139999999997 2.9999233333333333
endloop
endfacet
facet normal 0 0 1
outer loop
vertex 14.999973333333333 26.24175 2.9999233333333333
vertex 24.999836666666663 25.682139999999997 2.9999233333333333
vertex 24.999836666666663 26.24175 2.9999233333333333
endloop
endfacet
facet normal 0 0 0.9999999999999999
outer loop
vertex 15.68192 25.682139999999997 2.9999233333333333
vertex 16.241529999999997 25.000193333333332 2.9999233333333333
vertex 24.999836666666663 25.000193333333332 2.9999233333333333
endloop
endfacet
facet normal 0 0 0.9999999999999999
outer loop
vertex 15.68192 25.682139999999997 2.9999233333333333
vertex 24.999836666666663 25.000193333333332 2.9999233333333333
vertex 24.999836666666663 25.682139999999997 2.9999233333333333
endloop
endfacet
facet normal 0 0 1
outer loop
vertex 16.241529999999997 25.000193333333332 2.9999233333333333
vertex 16.65740333333333 24.221946666666664 2.9999233333333333
vertex 24.999836666666663 24.221946666666664 2.9999233333333333
endloop
endfacet
facet normal 0 0 1
outer loop
vertex 16.241529999999997 25.000193333333332 2.9999233333333333
vertex 24.999836666666663 24.221946666666664 2.9999233333333333
vertex 24.999836666666663 25.000193333333332 2.9999233333333333
endloop
endfacet
facet normal 0 0 1
outer loop
vertex 16.65740333333333 24.221946666666664 2.9999233333333333
vertex 16.91349 23.378073333333333 2.9999233333333333
vertex 24.999836666666663 23.378073333333333 2.9999233333333333
endloop
endfacet
facet normal 0 0 1
outer loop
vertex 16.65740333333333 24.221946666666664 2.9999233333333333
vertex 24.999836666666663 23.378073333333333 2.9999233333333333
vertex 24.999836666666663 24.221946666666664 2.9999233333333333
endloop
endfacet
facet normal 0 0 1
outer loop
vertex 16.91349 23.378073333333333 2.9999233333333333
vertex 17.000159999999997 22.499959999999998 2.9999233333333333
vertex 24.999836666666663 22.499959999999998 2.9999233333333333
endloop
endfacet
facet normal 0 0 0.9999999999999999
outer loop
vertex 16.91349 23.378073333333333 2.9999233333333333
vertex 24.999836666666663 22.499959999999998 2.9999233333333333
vertex 24.999836666666663 23.378073333333333 2.9999233333333333
endloop
endfacet
facet normal 0 0 1
outer loop
vertex 17.000159999999997 22.499959999999998 2.9999233333333333
vertex 16.91349 21.62220333333333 2.9999233333333333
vertex 24.999836666666663 21.62220333333333 2.9999233333333333
endloop
endfacet
facet normal 0 0 1
outer loop
vertex 17.000159999999997 22.499959999999998 2.9999233333333333
vertex 24.999836666666663 21.62220333333333 2.9999233333333333
vertex 24.999836666666663 22.499959999999998 2.9999233333333333
endloop
endfacet
facet normal 0 0 1
outer loop
vertex 16.91349 21.62220333333333 2.9999233333333333
vertex 16.65740333333333 20.777973333333332 2.9999233333333333
vertex 24.999836666666663 20.777973333333332 2.9999233333333333
endloop
endfacet
facet normal 0 0 1
outer loop
vertex 16.91349 21.62220333333333 2.9999233333333333
vertex 24.999836666666663 20.777973333333332 2.9999233333333333
vertex 24.999836666666663 21.62220333333333 2.9999233333333333
endloop
endfacet
facet normal 0 0 1
outer loop
vertex 16.65740333333333 20.777973333333332 2.9999233333333333
vertex 16.241529999999997 20.000083333333333 2.9999233333333333
vertex 24.999836666666663 20.000083333333333 2.9999233333333333
endloop
endfacet
facet normal 0 0 0.9999999999999999
outer loop
vertex 16.65740333333333 20.777973333333332 2.9999233333333333
vertex 24.999836666666663 20.000083333333333 2.9999233333333333
vertex 24.999836666666663 20.777973333333332 2.9999233333333333
endloop
endfacet
facet normal 0 0 1
outer loop
vertex 16.241529999999997 20.000083333333333 2.9999233333333333
vertex 15.68192 19.318136666666664 2.9999233333333333
vertex 24.999836666666663 19.318136666666664 2.9999233333333333
endloop
endfacet
facet normal 0 0 1
outer loop
vertex 16.241529999999997 20.000083333333333 2.9999233333333333
vertex 24.999836666666663 19.318136666666664 2.9999233333333333
vertex 24.999836666666663 20.000083333333333 2.9999233333333333
endloop
endfacet
facet normal 0 0 1
outer loop
vertex 15.68192 19.318136666666664 2.9999233333333333
vertex 14.999973333333333 18.758526666666665 2.9999233333333333
vertex 24.999836666666663 18.758526666666665 2.9999233333333333
endloop
endfacet
facet normal 0 0 1
outer loop
vertex 15.68192 19.318136666666664 2.9999233333333333
vertex 24.999836666666663 18.758526666666665 2.9999233333333333
vertex 24.999836666666663 19.318136666666664 2.9999233333333333
endloop
endfacet
facet normal 0 0 1
outer loop
vertex 14.999973333333333 18.758526666666665 2.9999233333333333
vertex 14.222083333333332 18.34265333333333 2.9999233333333333
vertex 24.999836666666663 18.34265333333333 2.9999233333333333
endloop
endfacet
facet normal 0 0 1
outer loop
vertex 14.999973333333333 18.758526666666665 2.9999233333333333
vertex 24.999836666666663 18.34265333333333 2.9999233333333333
vertex 24.999836666666663 18.758526666666665 2.9999233333333333
endloop
endfacet
facet normal 0 0 0.9999999999999999
outer loop
vertex 14.222083333333332 18.34265333333333 2.9999233333333333
vertex 13.377853333333332 18.086566666666666 2.9999233333333333
vertex 24.999836666666663 18.086566666666666 2.9999233333333333
endloop
endfacet
facet normal 0 0 1
outer loop
vertex 14.222083333333332 18.34265333333333 2.9999233333333333
vertex 24.999836666666663 18.086566666666666 2.9999233333333333
vertex 24.999836666666663 18.34265333333333 2.9999233333333333
endloop
endfacet
facet normal 0 0 1
outer loop
vertex 13.377853333333332 18.086566666666666 2.9999233333333333
vertex 12.500096666666666 17.999896666666665 2.9999233333333333
vertex 24.999836666666663 17.999896666666665 2.9999233333333333
endloop
endfacet
facet normal 0 0 1
outer loop
vertex 13.377853333333332 18.086566666666666 2.9999233333333333
vertex 24.999836666666663 17.999896666666665 2.9999233333333333
vertex 24.999836666666663 18.086566666666666 2.9999233333333333
endloop
endfacet
facet normal 0 0 1
outer loop
vertex 12.820026666666665 10.799866666666667 2.9999233333333333
vertex 12.500096666666666 17.999896666666665 2.9999233333333333
vertex 0.8000033333333333 17.999896666666665 2.9999233333333333
endloop
endfacet
facet normal 0 0 1
outer loop
vertex 12.820026666666665 10.799866666666667 2.9999233333333333
vertex 0.8000033333333333 17.999896666666665 2.9999233333333333
vertex 0.8000033333333333 0 2.9999233333333333
endloop
endfacet
facet normal 0 0 1
outer loop
vertex 12.820026666666665 10.799866666666667 2.9999233333333333
vertex 0.8000033333333333 0 2.9999233333333333
vertex 24.999836666666663 0 2.9999233333333333
endloop
endfacet
facet normal 0 0 1
outer loop
vertex 12.820026666666665 10.799866666666667 2.9999233333333333
vertex 24.999836666666663 0 2.9999233333333333
vertex 24.999836666666663 17.999896666666665 2.9999233333333333
endloop
endfacet
facet normal 0 0 1
outer loop
vertex 12.820026666666665 10.799866666666667 2.9999233333333333
vertex 24.999836666666663 17.999896666666665 2.9999233333333333
vertex 12.500096666666666 17.999896666666665 2.9999233333333333
endloop
endfacet
facet normal 1 0 0
outer loop
vertex 0.8000033333333333 27.00002333333333 3.2870399999999997
vertex 0.8000033333333333 27.00002333333333 2.9999233333333333
vertex 0.8000033333333333 44.999919999999996 2.9999233333333333
endloop
endfacet
facet normal 1 0 0
outer loop
vertex 0.8000033333333333 27.00002333333333 3.2870399999999997
vertex 0.8000033333333333 44.999919999999996 2.9999233333333333
vertex 0.8000033333333333 44.999919999999996 3.2870399999999997
endloop
endfacet
facet normal 1 0 0
outer loop
vertex 0.8000033333333333 0 3.2870399999999997
vertex 0.8000033333333333 0 2.9999233333333333
vertex 0.8000033333333333 17.999896666666665 2.9999233333333333
endloop
endfacet
facet normal 1 0 0
outer loop
vertex 0.8000033333333333 0 3.2870399999999997
vertex 0.8000033333333333 17.999896666666665 2.9999233333333333
vertex 0.8000033333333333 17.999896666666665 3.2870399999999997
endloop
endfacet
facet normal 1 0 0
outer loop
vertex 36.99988666666666 0 21.999913333333332
vertex 36.99988666666666 0 0
vertex 36.99988666666666 44.999919999999996 0
endloop
endfacet
facet normal 1 0 0
outer loop
vertex 36.99988666666666 0 21.999913333333332
vertex 36.99988666666666 44.999919999999996 0
vertex 36.99988666666666 44.999919999999996 21.999913333333332
endloop
endfacet
facet normal -1 0 0
outer loop
vertex 0 9.000126666666667 3.02275
vertex 0 17.999896666666665 4.000016666666666
vertex 0 17.999896666666665 3.8049199999999996
endloop
endfacet
facet normal -0.9999999999999999 0 0
outer loop
vertex 0 9.000126666666667 3.02275
vertex 0 17.999896666666665 3.8049199999999996
vertex 0 17.999896666666665 3.617313333333333
endloop
endfacet
facet normal -1 0 0
outer loop
vertex 0 9.000126666666667 3.02275
vertex 0 17.999896666666665 3.617313333333333
vertex 0 17.999896666666665 3.44433
endloop
endfacet
facet normal -1 0 0
outer loop
vertex 0 9.000126666666667 3.02275
vertex 0 17.999896666666665 3.44433
vertex 0 17.999896666666665 3.2927466666666665
endloop
endfacet
facet normal -0.9999999999999999 0 0
outer loop
vertex 0 9.000126666666667 3.02275
vertex 0 17.999896666666665 3.2927466666666665
vertex 0 17.999896666666665 2.9999233333333333
endloop
endfacet
facet normal -1 0 0
outer loop
vertex 0 9.000126666666667 3.02275
vertex 0 17.999896666666665 2.9999233333333333
vertex 0 17.999896666666665 0
endloop
endfacet
facet normal -0.9999999999999999 0 0
outer loop
vertex 0 9.000126666666667 3.02275
vertex 0 17.999896666666665 0
vertex 0 0 0
endloop
endfacet
facet normal -1 0 0
outer loop
vertex 0 9.000126666666667 3.02275
vertex 0 0 0
vertex 0 0 2.9999233333333333
endloop
endfacet
facet normal -1 0 0
outer loop
vertex 0 9.000126666666667 3.02275
vertex 0 0 2.9999233333333333
vertex 0 0 3.2927466666666665
endloop
endfacet
facet normal -1 0 0
outer loop
vertex 0 9.000126666666667 3.02275
vertex 0 0 3.2927466666666665
vertex 0 0 3.44433
endloop
endfacet
facet normal -1 0 0
outer loop
vertex 0 9.000126666666667 3.02275
vertex 0 0 3.44433
vertex 0 0 3.617313333333333
endloop
endfacet
facet normal -1 0 0
outer loop
vertex 0 9.000126666666667 3.02275
vertex 0 0 3.617313333333333
vertex 0 0 3.8049199999999996
endloop
endfacet
facet normal -1 0 0
outer loop
vertex 0 9.000126666666667 3.02275
vertex 0 0 3.8049199999999996
vertex 0 0 4.000016666666666
endloop
endfacet
facet normal -1 0 0
outer loop
vertex 0 9.000126666666667 3.02275
vertex 0 0 4.000016666666666
vertex 0 17.999896666666665 4.000016666666666
endloop
endfacet
facet normal -1 0 0
outer loop
vertex 0 35.99979333333333 3.02275
vertex 0 44.999919999999996 4.000016666666666
vertex 0 44.999919999999996 3.8049199999999996
endloop
endfacet
facet normal -1 0 0
outer loop
vertex 0 35.99979333333333 3.02275
vertex 0 44.999919999999996 3.8049199999999996
vertex 0 44.999919999999996 3.617313333333333
endloop
endfacet
facet normal -1 0 0
outer loop
vertex 0 35.99979333333333 3.02275
vertex 0 44.999919999999996 3.617313333333333
vertex 0 44.999919999999996 3.44433
endloop
endfacet
facet normal -1 0 0
outer loop
vertex 0 35.99979333333333 3.02275
vertex 0 44.999919999999996 3.44433
vertex 0 44.999919999999996 3.2927466666666665
endloop
endfacet
facet normal -1 0 0
outer loop
vertex 0 35.99979333333333 3.02275
vertex 0 44.999919999999996 3.2927466666666665
vertex 0 44.999919999999996 2.9999233333333333
endloop
endfacet
facet normal -1 0 0
outer loop
vertex 0 35.99979333333333 3.02275
vertex 0 44.999919999999996 2.9999233333333333
vertex 0 44.999919999999996 0
endloop
endfacet
facet normal -0.9999999999999999 0 0
outer loop
vertex 0 35.99979333333333 3.02275
vertex 0 44.999919999999996 0
vertex 0 27.00002333333333 0
endloop
endfacet
facet normal -1 0 0
outer loop
vertex 0 35.99979333333333 3.02275
vertex 0 27.00002333333333 0
vertex 0 27.00002333333333 2.9999233333333333
endloop
endfacet
facet normal -0.9999999999999999 0 0
outer loop
vertex 0 35.99979333333333 3.02275
vertex 0 27.00002333333333 2.9999233333333333
vertex 0 27.00002333333333 3.2927466666666665
endloop
endfacet
facet normal -1 0 0
outer loop
vertex 0 35.99979333333333 3.02275
vertex 0 27.00002333333333 3.2927466666666665
vertex 0 27.00002333333333 3.44433
endloop
endfacet
facet normal -1 0 0
outer loop
vertex 0 35.99979333333333 3.02275
vertex 0 27.00002333333333 3.44433
vertex 0 27.00002333333333 3.617313333333333
endloop
endfacet
facet normal -0.9999999999999999 0 0
outer loop
vertex 0 35.99979333333333 3.02275
vertex 0 27.00002333333333 3.617313333333333
vertex 0 27.00002333333333 3.8049199999999996
endloop
endfacet
facet normal -1 0 0
outer loop
vertex 0 35.99979333333333 3.02275
vertex 0 27.00002333333333 3.8049199999999996
vertex 0 27.00002333333333 4.000016666666666
endloop
endfacet
facet normal -1 0 0
outer loop
vertex 0 35.99979333333333 3.02275
vertex 0 27.00002333333333 4.000016666666666
vertex 0 44.999919999999996 4.000016666666666
endloop
endfacet
facet normal 0 0 -1
outer loop
vertex 13.699923333333333 34.20005333333333 0
vertex 28.000116666666663 44.999919999999996 0
vertex 28.000116666666663 27.00002333333333 0
endloop
endfacet
facet normal 0 0 -1
outer loop
vertex 13.699923333333333 34.20005333333333 0
vertex 28.000116666666663 27.00002333333333 0
vertex 12.500096666666666 27.00002333333333 0
endloop
endfacet
facet normal 0 0 -1
outer loop
vertex 13.699923333333333 34.20005333333333 0
vertex 12.500096666666666 27.00002333333333 0
vertex 0 27.00002333333333 0
endloop
endfacet
facet normal 0 0 -1
outer loop
vertex 13.699923333333333 34.20005333333333 0
vertex 0 27.00002333333333 0
vertex 0 44.999919999999996 0
endloop
endfacet
facet normal 0 0 -1
outer loop
vertex 13.699923333333333 34.20005333333333 0
vertex 0 44.999919999999996 0
vertex 28.000116666666663 44.999919999999996 0
endloop
endfacet
facet normal 0 0 -0.9999999999999999
outer loop
vertex 28.000116666666663 27.00002333333333 0
vertex 28.000116666666663 26.91371 0
vertex 13.377853333333332 26.91371 0
endloop
endfacet
facet normal 0 0 -1
outer loop
vertex 28.000116666666663 27.00002333333333 0
vertex 13.377853333333332 26.91371 0
vertex 12.500096666666666 27.00002333333333 0
endloop
endfacet
facet normal 0 0 -1
outer loop
vertex 28.000116666666663 26.91371 0
vertex 28.000116666666663 26.657623333333333 0
vertex 14.222083333333332 26.657623333333333 0
endloop
endfacet
facet normal 0 0 -1
outer loop
vertex 28.000116666666663 26.91371 0
vertex 14.222083333333332 26.657623333333333 0
vertex 13.377853333333332 26.91371 0
endloop
endfacet
facet normal 0 0 -1
outer loop
vertex 28.000116666666663 26.657623333333333 0
vertex 28.000116666666663 26.24175 0
vertex 14.999973333333333 26.24175 0
endloop
endfacet
facet normal 0 0 -1
outer loop
vertex 28.000116666666663 26.657623333333333 0
vertex 14.999973333333333 26.24175 0
vertex 14.222083333333332 26.657623333333333 0
endloop
endfacet
facet normal 0 0 -1
outer loop
vertex 28.000116666666663 26.24175 0
vertex 28.000116666666663 25.682139999999997 0
vertex 15.68192 25.682139999999997 0
endloop
endfacet
facet normal 0 0 -1
outer loop
vertex 28.000116666666663 26.24175 0
vertex 15.68192 25.682139999999997 0
vertex 14.999973333333333 26.24175 0
endloop
endfacet
facet normal 0 0 -1
outer loop
vertex 28.000116666666663 25.682139999999997 0
vertex 28.000116666666663 25.000193333333332 0
vertex 16.241529999999997 25.000193333333332 0
endloop
endfacet
facet normal 0 0 -1
outer loop
vertex 28.000116666666663 25.682139999999997 0
vertex 16.241529999999997 25.000193333333332 0
vertex 15.68192 25.682139999999997 0
endloop
endfacet
facet normal 0 0 -1
outer loop
vertex 28.000116666666663 25.000193333333332 0
vertex 28.000116666666663 24.221946666666664 0
vertex 16.65740333333333 24.221946666666664 0
endloop
endfacet
facet normal 0 0 -1
outer loop
vertex 28.000116666666663 25.000193333333332 0
vertex 16.65740333333333 24.221946666666664 0
vertex 16.241529999999997 25.000193333333332 0
endloop
endfacet
facet normal 0 0 -1
outer loop
vertex 28.000116666666663 24.221946666666664 0
vertex 28.000116666666663 23.378073333333333 0
vertex 16.91349 23.378073333333333 0
endloop
endfacet
facet normal 0 0 -1
outer loop
vertex 28.000116666666663 24.221946666666664 0
vertex 16.91349 23.378073333333333 0
vertex 16.65740333333333 24.221946666666664 0
endloop
endfacet
facet normal 0 0 -1
outer loop
vertex 28.000116666666663 23.378073333333333 0
vertex 28.000116666666663 22.499959999999998 0
vertex 17.000159999999997 22.499959999999998 0
endloop
endfacet
facet normal 0 0 -1
outer loop
vertex 28.000116666666663 23.378073333333333 0
vertex 17.000159999999997 22.499959999999998 0
vertex 16.91349 23.378073333333333 0
endloop
endfacet
facet normal 0 0 -1
outer loop
vertex 28.000116666666663 22.499959999999998 0
vertex 28.000116666666663 21.62220333333333 0
vertex 16.91349 21.62220333333333 0
endloop
endfacet
facet normal 0 0 -1
outer loop
vertex 28.000116666666663 22.499959999999998 0
vertex 16.91349 21.62220333333333 0
vertex 17.000159999999997 22.499959999999998 0
endloop
endfacet
facet normal 0 0 -1
outer loop
vertex 28.000116666666663 21.62220333333333 0
vertex 28.000116666666663 20.777973333333332 0
vertex 16.65740333333333 20.777973333333332 0
endloop
endfacet
facet normal 0 0 -1
outer loop
vertex 28.000116666666663 21.62220333333333 0
vertex 16.65740333333333 20.777973333333332 0
vertex 16.91349 21.62220333333333 0
endloop
endfacet
facet normal 0 0 -1
outer loop
vertex 28.000116666666663 20.777973333333332 0
vertex 28.000116666666663 20.000083333333333 0
vertex 16.241529999999997 20.000083333333333 0
endloop
endfacet
facet normal 0 0 -1
outer loop
vertex 28.000116666666663 20.777973333333332 0
vertex 16.241529999999997 20.000083333333333 0
vertex 16.65740333333333 20.777973333333332 0
endloop
endfacet
facet normal 0 0 -1
outer loop
vertex 28.000116666666663 20.000083333333333 0
vertex 28.000116666666663 19.318136666666664 0
vertex 15.68192 19.318136666666664 0
endloop
endfacet
facet normal 0 0 -1
outer loop
vertex 28.000116666666663 20.000083333333333 0
vertex 15.68192 19.318136666666664 0
vertex 16.241529999999997 20.000083333333333 0
endloop
endfacet
facet normal 0 0 -1
outer loop
vertex 28.000116666666663 19.318136666666664 0
vertex 28.000116666666663 18.758526666666665 0
vertex 14.999973333333333 18.758526666666665 0
endloop
endfacet
facet normal 0 0 -1
outer loop
vertex 28.000116666666663 19.318136666666664 0
vertex 14.999973333333333 18.758526666666665 0
vertex 15.68192 19.318136666666664 0
endloop
endfacet
facet normal 0 0 -1
outer loop
vertex 28.000116666666663 18.758526666666665 0
vertex 28.000116666666663 18.34265333333333 0
vertex 14.222083333333332 18.34265333333333 0
endloop
endfacet
facet normal 0 0 -1
outer loop
vertex 28.000116666666663 18.758526666666665 0
vertex 14.222083333333332 18.34265333333333 0
vertex 14.999973333333333 18.758526666666665 0
endloop
endfacet
facet normal 0 0 -1
outer loop
vertex 28.000116666666663 18.34265333333333 0
vertex 28.000116666666663 18.086566666666666 0
vertex 13.377853333333332 18.086566666666666 0
endloop
endfacet
facet normal 0 0 -1
outer loop
vertex 28.000116666666663 18.34265333333333 0
vertex 13.377853333333332 18.086566666666666 0
vertex 14.222083333333332 18.34265333333333 0
endloop
endfacet
facet normal 0 0 -1
outer loop
vertex 28.000116666666663 18.086566666666666 0
vertex 28.000116666666663 17.999896666666665 0
vertex 12.500096666666666 17.999896666666665 0
endloop
endfacet
facet normal 0 0 -1
outer loop
vertex 28.000116666666663 18.086566666666666 0
vertex 12.500096666666666 17.999896666666665 0
vertex 13.377853333333332 18.086566666666666 0
endloop
endfacet
facet normal 0 0 -1
outer loop
vertex 13.699923333333333 10.799866666666667 0
vertex 12.500096666666666 17.999896666666665 0
vertex 28.000116666666663 17.999896666666665 0
endloop
endfacet
facet normal 0 0 -1
outer loop
vertex 13.699923333333333 10.799866666666667 0
vertex 28.000116666666663 17.999896666666665 0
vertex 28.000116666666663 0 0
endloop
endfacet
facet normal 0 0 -1
outer loop
vertex 13.699923333333333 10.799866666666667 0
vertex 28.000116666666663 0 0
vertex 0 0 0
endloop
endfacet
facet normal 0 0 -1
outer loop
vertex 13.699923333333333 10.799866666666667 0
vertex 0 0 0
vertex 0 17.999896666666665 0
endloop
endfacet
facet normal 0 0 -1
outer loop
vertex 13.699923333333333 10.799866666666667 0
vertex 0 17.999896666666665 0
vertex 12.500096666666666 17.999896666666665 0
endloop
endfacet
facet normal 0 0 -1
outer loop
vertex 36.99988666666666 44.999919999999996 0
vertex 36.99988666666666 0 0
vertex 33.99996333333333 0 0
endloop
endfacet
facet normal 0 0 -1
outer loop
vertex 36.99988666666666 44.999919999999996 0
vertex 33.99996333333333 0 0
vertex 33.99996333333333 44.999919999999996 0
endloop
endfacet
facet normal 0 -1 0
outer loop
vertex 31.00004 0 23.673036666666665
vertex 28.000116666666663 0 24.999836666666663
vertex 27.414826666666666 0 24.94241333333333
endloop
endfacet
facet normal 0 -1 0
outer loop
vertex 31.00004 0 23.673036666666665
vertex 27.414826666666666 0 24.94241333333333
vertex 26.852006666666664 0 24.771569999999997
endloop
endfacet
facet normal 0 -0.9999999999999999 0
outer loop
vertex 31.00004 0 23.673036666666665
vertex 26.852006666666664 0 24.771569999999997
vertex 26.333413333333333 0 24.494439999999997
endloop
endfacet
facet normal 0 -1 0
outer loop
vertex 31.00004 0 23.673036666666665
vertex 26.333413333333333 0 24.494439999999997
vertex 25.878663333333332 0 24.121366666666667
endloop
endfacet
facet normal 0 -1 0
outer loop
vertex 31.00004 0 23.673036666666665
vertex 25.878663333333332 0 24.121366666666667
vertex 25.505589999999998 0 23.666616666666666
endloop
endfacet
facet normal 0 -0.9999999999999999 0
outer loop
vertex 31.00004 0 23.673036666666665
vertex 25.505589999999998 0 23.666616666666666
vertex 25.22846 0 23.14802333333333
endloop
endfacet
facet normal 0 -1 0
outer loop
vertex 31.00004 0 23.673036666666665
vertex 25.22846 0 23.14802333333333
vertex 25.057616666666664 0 22.585203333333332
endloop
endfacet
facet normal 0 -1 0
outer loop
vertex 31.00004 0 23.673036666666665
vertex 25.057616666666664 0 22.585203333333332
vertex 24.999836666666663 0 21.999913333333332
endloop
endfacet
facet normal 0 -1 0
outer loop
vertex 31.00004 0 23.673036666666665
vertex 24.999836666666663 0 21.999913333333332
vertex 28.000116666666663 0 21.999913333333332
endloop
endfacet
facet normal 0 -1 0
outer loop
vertex 31.00004 0 23.673036666666665
vertex 28.000116666666663 0 21.999913333333332
vertex 33.99996333333333 0 21.999913333333332
endloop
endfacet
facet normal 0 -1 0
outer loop
vertex 31.00004 0 23.673036666666665
vertex 33.99996333333333 0 21.999913333333332
vertex 36.99988666666666 0 21.999913333333332
endloop
endfacet
facet normal 0 -0.9999999999999999 0
outer loop
vertex 31.00004 0 23.673036666666665
vertex 36.99988666666666 0 21.999913333333332
vertex 36.94246333333333 0 22.585203333333332
endloop
endfacet
facet normal 0 -1 0
outer loop
vertex 31.00004 0 23.673036666666665
vertex 36.94246333333333 0 22.585203333333332
vertex 36.77162 0 23.14802333333333
endloop
endfacet
facet normal 0 -0.9999999999999999 0
outer loop
vertex 31.00004 0 23.673036666666665
vertex 36.77162 0 23.14802333333333
vertex 36.49449 0 23.666616666666666
endloop
endfacet
facet normal 0 -1 0
outer loop
vertex 31.00004 0 23.673036666666665
vertex 36.49449 0 23.666616666666666
vertex 36.12141666666666 0 24.121366666666667
endloop
endfacet
facet normal 0 -1 0
outer loop
vertex 31.00004 0 23.673036666666665
vertex 36.12141666666666 0 24.121366666666667
vertex 35.666666666666664 0 24.494439999999997
endloop
endfacet
facet normal 0 -1 0
outer loop
vertex 31.00004 0 23.673036666666665
vertex 35.666666666666664 0 24.494439999999997
vertex 35.14807333333333 0 24.771569999999997
endloop
endfacet
facet normal 0 -1 0
outer loop
vertex 31.00004 0 23.673036666666665
vertex 35.14807333333333 0 24.771569999999997
vertex 34.585253333333334 0 24.94241333333333
endloop
endfacet
facet normal 0 -1 0
outer loop
vertex 31.00004 0 23.673036666666665
vertex 34.585253333333334 0 24.94241333333333
vertex 33.99996333333333 0 24.999836666666663
endloop
endfacet
facet normal 0 -1 0
outer loop
vertex 31.00004 0 23.673036666666665
vertex 33.99996333333333 0 24.999836666666663
vertex 28.000116666666663 0 24.999836666666663
endloop
endfacet
facet normal 0 -0.9999999999999999 0
outer loop
vertex 0 0 4.000016666666666
vertex 0 0 3.8049199999999996
vertex 0.5193066666666666 0 3.8049199999999996
endloop
endfacet
facet normal 0 -1 0
outer loop
vertex 0 0 4.000016666666666
vertex 0.5193066666666666 0 3.8049199999999996
vertex 0.5000466666666666 0 4.000016666666666
endloop
endfacet
facet normal 0 -0.9999999999999999 0
outer loop
vertex 0 0 3.8049199999999996
vertex 0 0 3.617313333333333
vertex 0.5760166666666666 0 3.617313333333333
endloop
endfacet
facet normal 0 -1 0
outer loop
vertex 0 0 3.8049199999999996
vertex 0.5760166666666666 0 3.617313333333333
vertex 0.5193066666666666 0 3.8049199999999996
endloop
endfacet
facet normal 0 -1 0
outer loop
vertex 0 0 3.617313333333333
vertex 0 0 3.44433
vertex 0.6683933333333333 0 3.44433
endloop
endfacet
facet normal 0 -1 0
outer loop
vertex 0 0 3.617313333333333
vertex 0.6683933333333333 0 3.44433
vertex 0.5760166666666666 0 3.617313333333333
endloop
endfacet
facet normal 0 -0.9999999999999999 0
outer loop
vertex 0 0 3.44433
vertex 0 0 3.2927466666666665
vertex 0.79287 0 3.2927466666666665
endloop
endfacet
facet normal 0 -1 0
outer loop
vertex 0 0 3.44433
vertex 0.79287 0 3.2927466666666665
vertex 0.6683933333333333 0 3.44433
endloop
endfacet
facet normal 0 -1 0
outer loop
vertex 24.999836666666663 0 21.999913333333332
vertex 24.999836666666663 0 2.9999233333333333
vertex 28.000116666666663 0 2.9999233333333333
endloop
endfacet
facet normal 0 -1 0
outer loop
vertex 24.999836666666663 0 21.999913333333332
vertex 28.000116666666663 0 2.9999233333333333
vertex 28.000116666666663 0 21.999913333333332
endloop
endfacet
facet normal 0 -1 0
outer loop
vertex 0.4786466666666666 0 3.1743333333333332
vertex 0 0 3.2927466666666665
vertex 0 0 2.9999233333333333
endloop
endfacet
facet normal 0 -1 0
outer loop
vertex 0.4786466666666666 0 3.1743333333333332
vertex 0 0 2.9999233333333333
vertex 0.8000033333333333 0 2.9999233333333333
endloop
endfacet
facet normal 0 -1 0
outer loop
vertex 0.4786466666666666 0 3.1743333333333332
vertex 0.8000033333333333 0 2.9999233333333333
vertex 0.8000033333333333 0 3.2870399999999997
endloop
endfacet
facet normal 0 -1 0
outer loop
vertex 0.4786466666666666 0 3.1743333333333332
vertex 0.8000033333333333 0 3.2870399999999997
vertex 0.79287 0 3.2927466666666665
endloop
endfacet
facet normal 0 -1 0
outer loop
vertex 0.4786466666666666 0 3.1743333333333332
vertex 0.79287 0 3.2927466666666665
vertex 0 0 3.2927466666666665
endloop
endfacet
facet normal 0 -1 0
outer loop
vertex 33.99996333333333 0 21.999913333333332
vertex 33.99996333333333 0 0
vertex 36.99988666666666 0 0
endloop
endfacet
facet normal 0 -1 0
outer loop
vertex 33.99996333333333 0 21.999913333333332
vertex 36.99988666666666 0 0
vertex 36.99988666666666 0 21.999913333333332
endloop
endfacet
facet normal 0 -1 0
outer loop
vertex 13.633226666666665 0 1.9998299999999998
vertex 24.999836666666663 0 2.9999233333333333
vertex 0.8000033333333333 0 2.9999233333333333
endloop
endfacet
facet normal 0 -1 0
outer loop
vertex 13.633226666666665 0 1.9998299999999998
vertex 0.8000033333333333 0 2.9999233333333333
vertex 0 0 2.9999233333333333
endloop
endfacet
facet normal 0 -0.9999999999999999 0
outer loop
vertex 13.633226666666665 0 1.9998299999999998
vertex 0 0 2.9999233333333333
vertex 0 0 0
endloop
endfacet
facet normal 0 -1 0
outer loop
vertex 13.633226666666665 0 1.9998299999999998
vertex 0 0 0
vertex 28.000116666666663 0 0
endloop
endfacet
facet normal 0 -1 0
outer loop
vertex 13.633226666666665 0 1.9998299999999998
vertex 28.000116666666663 0 0
vertex 28.000116666666663 0 2.9999233333333333
endloop
endfacet
facet normal 0 -0.9999999999999999 0
outer loop
vertex 13.633226666666665 0 1.9998299999999998
vertex 28.000116666666663 0 2.9999233333333333
vertex 24.999836666666663 0 2.9999233333333333
endloop
endfacet
facet normal 0 1 0
outer loop
vertex 31.00004 44.999919999999996 23.673036666666665
vertex 33.99996333333333 44.999919999999996 24.999836666666663
vertex 34.585253333333334 44.999919999999996 24.94241333333333
endloop
endfacet
facet normal 0 1 0
outer loop
vertex 31.00004 44.999919999999996 23.673036666666665
vertex 34.585253333333334 44.999919999999996 24.94241333333333
vertex 35.14807333333333 44.999919999999996 24.771569999999997
endloop
endfacet
facet normal 0 1 0
outer loop
vertex 31.00004 44.999919999999996 23.673036666666665
vertex 35.14807333333333 44.999919999999996 24.771569999999997
vertex 35.666666666666664 44.999919999999996 24.494439999999997
endloop
endfacet
facet normal 0 1 0
outer loop
vertex 31.00004 44.999919999999996 23.673036666666665
vertex 35.666666666666664 44.999919999999996 24.494439999999997
vertex 36.12141666666666 44.999919999999996 24.121366666666667
endloop
endfacet
facet normal 0 1 0
outer loop
vertex 31.00004 44.999919999999996 23.673036666666665
vertex 36.12141666666666 44.999919999999996 24.121366666666667
vertex 36.49449 44.999919999999996 23.666616666666666
endloop
endfacet
facet normal 0 0.9999999999999999 0
outer loop
vertex 31.00004 44.999919999999996 23.673036666666665
vertex 36.49449 44.999919999999996 23.666616666666666
vertex 36.77162 44.999919999999996 23.14802333333333
endloop
endfacet
facet normal 0 1 0
outer loop
vertex 31.00004 44.999919999999996 23.673036666666665
vertex 36.77162 44.999919999999996 23.14802333333333
vertex 36.94246333333333 44.999919999999996 22.585203333333332
endloop
endfacet
facet normal 0 0.9999999999999999 0
outer loop
vertex 31.00004 44.999919999999996 23.673036666666665
vertex 36.94246333333333 44.999919999999996 22.585203333333332
vertex 36.99988666666666 44.999919999999996 21.999913333333332
endloop
endfacet
facet normal 0 1 0
outer loop
vertex 31.00004 44.999919999999996 23.673036666666665
vertex 36.99988666666666 44.999919999999996 21.999913333333332
vertex 33.99996333333333 44.999919999999996 21.999913333333332
endloop
endfacet
facet normal 0 1 0
outer loop
vertex 31.00004 44.999919999999996 23.673036666666665
vertex 33.99996333333333 44.999919999999996 21.999913333333332
vertex 28.000116666666663 44.999919999999996 21.999913333333332
endloop
endfacet
facet normal 0 1 0
outer loop
vertex 31.00004 44.999919999999996 23.673036666666665
vertex 28.000116666666663 44.999919999999996 21.999913333333332
vertex 24.999836666666663 44.999919999999996 21.999913333333332
endloop
endfacet
facet normal 0 1 0
outer loop
vertex 31.00004 44.999919999999996 23.673036666666665
vertex 24.999836666666663 44.999919999999996 21.999913333333332
vertex 25.057616666666664 44.999919999999996 22.585203333333332
endloop
endfacet
facet normal 0 1 0
outer loop
vertex 31.00004 44.999919999999996 23.673036666666665
vertex 25.057616666666664 44.999919999999996 22.585203333333332
vertex 25.22846 44.999919999999996 23.14802333333333
endloop
endfacet
facet normal 0 0.9999999999999999 0
outer loop
vertex 31.00004 44.999919999999996 23.673036666666665
vertex 25.22846 44.999919999999996 23.14802333333333
vertex 25.505589999999998 44.999919999999996 23.666616666666666
endloop
endfacet
facet normal 0 1 0
outer loop
vertex 31.00004 44.999919999999996 23.673036666666665
vertex 25.505589999999998 44.999919999999996 23.666616666666666
vertex 25.878663333333332 44.999919999999996 24.121366666666667
endloop
endfacet
facet normal 0 1 0
outer loop
vertex 31.00004 44.999919999999996 23.673036666666665
vertex 25.878663333333332 44.999919999999996 24.121366666666667
vertex 26.333413333333333 44.999919999999996 24.494439999999997
endloop
endfacet
facet normal 0 0.9999999999999999 0
outer loop
vertex 31.00004 44.999919999999996 23.673036666666665
vertex 26.333413333333333 44.999919999999996 24.494439999999997
vertex 26.852006666666664 44.999919999999996 24.771569999999997
endloop
endfacet
facet normal 0 1 0
outer loop
vertex 31.00004 44.999919999999996 23.673036666666665
vertex 26.852006666666664 44.999919999999996 24.771569999999997
vertex 27.414826666666666 44.999919999999996 24.94241333333333
endloop
endfacet
facet normal 0 1 0
outer loop
vertex 31.00004 44.999919999999996 23.673036666666665
vertex 27.414826666666666 44.999919999999996 24.94241333333333
vertex 28.000116666666663 44.999919999999996 24.999836666666663
endloop
endfacet
facet normal 0 1 0
outer loop
vertex 31.00004 44.999919999999996 23.673036666666665
vertex 28.000116666666663 44.999919999999996 24.999836666666663
vertex 33.99996333333333 44.999919999999996 24.999836666666663
endloop
endfacet
facet normal 0 0.9999999999999999 0
outer loop
vertex 0.5000466666666666 44.999919999999996 4.000016666666666
vertex 0.5193066666666666 44.999919999999996 3.8049199999999996
vertex 0 44.999919999999996 3.8049199999999996
endloop
endfacet
facet normal 0 1 0
outer loop
vertex 0.5000466666666666 44.999919999999996 4.000016666666666
vertex 0 44.999919999999996 3.8049199999999996
vertex 0 44.999919999999996 4.000016666666666
endloop
endfacet
facet normal 0 0.9999999999999999 0
outer loop
vertex 0.5193066666666666 44.999919999999996 3.8049199999999996
vertex 0.5760166666666666 44.999919999999996 3.617313333333333
vertex 0 44.999919999999996 3.617313333333333
endloop
endfacet
facet normal 0 1 0
outer loop
vertex 0.5193066666666666 44.999919999999996 3.8049199999999996
vertex 0 44.999919999999996 3.617313333333333
vertex 0 44.999919999999996 3.8049199999999996
endloop
endfacet
facet normal 0 1 0
outer loop
vertex 0.5760166666666666 44.999919999999996 3.617313333333333
vertex 0.6683933333333333 44.999919999999996 3.44433
vertex 0 44.999919999999996 3.44433
endloop
endfacet
facet normal 0 1 0
outer loop
vertex 0.5760166666666666 44.999919999999996 3.617313333333333
vertex 0 44.999919999999996 3.44433
vertex 0 44.999919999999996 3.617313333333333
endloop
endfacet
facet normal 0 0.9999999999999999 0
outer loop
vertex 0.6683933333333333 44.999919999999996 3.44433
vertex 0.79287 44.999919999999996 3.2927466666666665
vertex 0 44.999919999999996 3.2927466666666665
endloop
endfacet
facet normal 0 1 0
outer loop
vertex 0.6683933333333333 44.999919999999996 3.44433
vertex 0 44.999919999999996 3.2927466666666665
vertex 0 44.999919999999996 3.44433
endloop
endfacet
facet normal 0 1 0
outer loop
vertex 0.4786466666666666 44.999919999999996 3.1743333333333332
vertex 0.79287 44.999919999999996 3.2927466666666665
vertex 0.8000033333333333 44.999919999999996 3.2870399999999997
endloop
endfacet
facet normal 0 1 0
outer loop
vertex 0.4786466666666666 44.999919999999996 3.1743333333333332
vertex 0.8000033333333333 44.999919999999996 3.2870399999999997
vertex 0.8000033333333333 44.999919999999996 2.9999233333333333
endloop
endfacet
facet normal 0 1 0
outer loop
vertex 0.4786466666666666 44.999919999999996 3.1743333333333332
vertex 0.8000033333333333 44.999919999999996 2.9999233333333333
vertex 0 44.999919999999996 2.9999233333333333
endloop
endfacet
facet normal 0 1 0
outer loop
vertex 0.4786466666666666 44.999919999999996 3.1743333333333332
vertex 0 44.999919999999996 2.9999233333333333
vertex 0 44.999919999999996 3.2927466666666665
endloop
endfacet
facet normal 0 1 0
outer loop
vertex 0.4786466666666666 44.999919999999996 3.1743333333333332
vertex 0 44.999919999999996 3.2927466666666665
vertex 0.79287 44.999919999999996 3.2927466666666665
endloop
endfacet
facet normal 0 1 0
outer loop
vertex 28.000116666666663 44.999919999999996 21.999913333333332
vertex 28.000116666666663 44.999919999999996 2.9999233333333333
vertex 24.999836666666663 44.999919999999996 2.9999233333333333
endloop
endfacet
facet normal 0 1 0
outer loop
vertex 28.000116666666663 44.999919999999996 21.999913333333332
vertex 24.999836666666663 44.999919999999996 2.9999233333333333
vertex 24.999836666666663 44.999919999999996 21.999913333333332
endloop
endfacet
facet normal 0 1 0
outer loop
vertex 13.633226666666665 44.999919999999996 1.9998299999999998
vertex 0.8000033333333333 44.999919999999996 2.9999233333333333
vertex 24.999836666666663 44.999919999999996 2.9999233333333333
endloop
endfacet
facet normal 0 0.9999999999999999 0
outer loop
vertex 13.633226666666665 44.999919999999996 1.9998299999999998
vertex 24.999836666666663 44.999919999999996 2.9999233333333333
vertex 28.000116666666663 44.999919999999996 2.9999233333333333
endloop
endfacet
facet normal 0 1 0
outer loop
vertex 13.633226666666665 44.999919999999996 1.9998299999999998
vertex 28.000116666666663 44.999919999999996 2.9999233333333333
vertex 28.000116666666663 44.999919999999996 0
endloop
endfacet
facet normal 0 1 0
outer loop
vertex 13.633226666666665 44.999919999999996 1.9998299999999998
vertex 28.000116666666663 44.999919999999996 0
vertex 0 44.999919999999996 0
endloop
endfacet
facet normal 0 0.9999999999999999 0
outer loop
vertex 13.633226666666665 44.999919999999996 1.9998299999999998
vertex 0 44.999919999999996 0
vertex 0 44.999919999999996 2.9999233333333333
endloop
endfacet
facet normal 0 1 0
outer loop
vertex 13.633226666666665 44.999919999999996 1.9998299999999998
vertex 0 44.999919999999996 2.9999233333333333
vertex 0.8000033333333333 44.999919999999996 2.9999233333333333
endloop
endfacet
facet normal 0 1 0
outer loop
vertex 36.99988666666666 44.999919999999996 21.999913333333332
vertex 36.99988666666666 44.999919999999996 0
vertex 33.99996333333333 44.999919999999996 0
endloop
endfacet
facet normal 0 1 0
outer loop
vertex 36.99988666666666 44.999919999999996 21.999913333333332
vertex 33.99996333333333 44.999919999999996 0
vertex 33.99996333333333 44.999919999999996 21.999913333333332
endloop
endfacet
facet normal 0 0 1
outer loop
vertex 28.000116666666663 0 24.999836666666663
vertex 33.99996333333333 0 24.999836666666663
vertex 33.99996333333333 44.999919999999996 24.999836666666663
endloop
endfacet
facet normal 0 0 1
outer loop
vertex 28.000116666666663 0 24.999836666666663
vertex 33.99996333333333 44.999919999999996 24.999836666666663
vertex 28.000116666666663 44.999919999999996 24.999836666666663
endloop
endfacet
endsolid JSCAD
